G04 #@! TF.FileFunction,Copper,L1,Top,Signal*
%FSLAX46Y46*%
G04 Gerber Fmt 4.6, Leading zero omitted, Abs format (unit mm)*
G04 Created by KiCad (PCBNEW 4.0.6) date Mon Sep  4 14:46:53 2017*
%MOMM*%
%LPD*%
G01*
G04 APERTURE LIST*
%ADD10C,0.100000*%
%ADD11C,0.500000*%
%ADD12O,1.727200X1.727200*%
%ADD13R,1.000000X1.600000*%
%ADD14R,0.800000X0.750000*%
%ADD15C,0.400000*%
%ADD16C,1.000000*%
%ADD17C,0.300000*%
%ADD18C,1.200000*%
%ADD19C,0.250000*%
G04 APERTURE END LIST*
D10*
D11*
X128651000Y-35433000D03*
X129794000Y-34671000D03*
X131318000Y-34290000D03*
X132842000Y-34671000D03*
X134112000Y-35560000D03*
X134747000Y-36576000D03*
X132842000Y-41656000D03*
X134112000Y-40767000D03*
X134874000Y-39624000D03*
X135128000Y-38100000D03*
X40259000Y-36576000D03*
X39497000Y-35433000D03*
X38354000Y-34671000D03*
X36830000Y-34290000D03*
X35179000Y-34671000D03*
X34036000Y-35433000D03*
X33274000Y-36576000D03*
X33020000Y-38100000D03*
X33274000Y-39497000D03*
X34036000Y-40767000D03*
X35179000Y-41529000D03*
X36703000Y-41910000D03*
X38227000Y-41656000D03*
X39497000Y-40767000D03*
X40259000Y-39624000D03*
D12*
X53558000Y-40180000D03*
X53558000Y-36060000D03*
X56105000Y-40180000D03*
X56098000Y-36060000D03*
X58645000Y-40180000D03*
X58638000Y-36060000D03*
X61178000Y-40180000D03*
X61178000Y-36060000D03*
X63725000Y-40180000D03*
X63718000Y-36060000D03*
X66265000Y-40180000D03*
X66258000Y-36060000D03*
X68805000Y-40180000D03*
X68798000Y-36060000D03*
X71345000Y-40180000D03*
X71338000Y-36060000D03*
X73885000Y-40180000D03*
X73878000Y-36060000D03*
X76425000Y-40180000D03*
X76418000Y-36060000D03*
X78965000Y-40180000D03*
X78958000Y-36060000D03*
X81505000Y-40180000D03*
X81498000Y-36060000D03*
X84045000Y-40180000D03*
X84038000Y-36060000D03*
X89125000Y-40180000D03*
X89118000Y-36060000D03*
X91665000Y-40180000D03*
X91658000Y-36060000D03*
X94205000Y-40180000D03*
X94198000Y-36060000D03*
X96745000Y-40180000D03*
X96738000Y-36060000D03*
X99285000Y-40180000D03*
X99278000Y-36060000D03*
X101825000Y-40180000D03*
X101818000Y-36060000D03*
X104365000Y-40180000D03*
X104358000Y-36060000D03*
X106905000Y-40180000D03*
X106898000Y-36060000D03*
X109445000Y-40180000D03*
X109438000Y-36060000D03*
X111985000Y-40180000D03*
X111978000Y-36060000D03*
X114525000Y-40180000D03*
X114518000Y-36060000D03*
D13*
X124500000Y-47000000D03*
X127500000Y-47000000D03*
D14*
X121250000Y-47000000D03*
X122750000Y-47000000D03*
D11*
X40640000Y-38100000D03*
X124673304Y-35548245D03*
X124670631Y-36049135D03*
X124400000Y-48300000D03*
X124900000Y-48300000D03*
X125400000Y-48300000D03*
X125400000Y-47800000D03*
X125400000Y-47300000D03*
X125400000Y-46800000D03*
X125400000Y-46300000D03*
X125400000Y-45800000D03*
X124900000Y-45800000D03*
X124400000Y-45800000D03*
X121400000Y-48000000D03*
X120900000Y-48000000D03*
X120400000Y-48000000D03*
X120400000Y-47500000D03*
X121400000Y-46000000D03*
X120900000Y-46000000D03*
X120411000Y-46000000D03*
X120411000Y-46500000D03*
X120400000Y-47000000D03*
X116650000Y-35550000D03*
X116650000Y-36050000D03*
X117150000Y-36050000D03*
X120911000Y-36050000D03*
X121400000Y-36050000D03*
X121400000Y-35550000D03*
X117150000Y-35550000D03*
X120900000Y-35550000D03*
X131400000Y-42400000D03*
X130900000Y-42800000D03*
X131400000Y-45300000D03*
X131000000Y-45800000D03*
X121698841Y-43101095D03*
X115000000Y-42000000D03*
X114500000Y-42000000D03*
X114000000Y-42000000D03*
X132450000Y-45300000D03*
X131950000Y-45750000D03*
X130450000Y-45300000D03*
X129950000Y-45750000D03*
X129400000Y-45300000D03*
X128900000Y-45750000D03*
X132400000Y-42350000D03*
X131911000Y-42789000D03*
X129398883Y-42350452D03*
X130400000Y-42350000D03*
X129911000Y-42811000D03*
X128911000Y-42789000D03*
D15*
X127198132Y-28999464D03*
X126397766Y-29001705D03*
X125600675Y-29001705D03*
X122398204Y-29001705D03*
X123999439Y-29001705D03*
X123202348Y-29001705D03*
X121601113Y-29001705D03*
X125003106Y-31302444D03*
X124796530Y-29001705D03*
X125801950Y-31302444D03*
X115599248Y-47801003D03*
X116400185Y-47799711D03*
X117201122Y-47799711D03*
X108401151Y-47799711D03*
X107599646Y-47800772D03*
X109199504Y-47799711D03*
X111599731Y-47799711D03*
X110798794Y-47801003D03*
X110000441Y-47799711D03*
X113199021Y-47801003D03*
X113999958Y-47799711D03*
X114800895Y-47799711D03*
X112400668Y-47799711D03*
X117999475Y-47801003D03*
X119999877Y-29001705D03*
X120796968Y-29001705D03*
D16*
X124400000Y-48300000D02*
X124400000Y-47100000D01*
D17*
X124400000Y-47100000D02*
X124500000Y-47000000D01*
X124671549Y-35550000D02*
X124673304Y-35548245D01*
D16*
X121400000Y-35550000D02*
X124671549Y-35550000D01*
X121400000Y-36050000D02*
X124669766Y-36050000D01*
D17*
X124669766Y-36050000D02*
X124670631Y-36049135D01*
X121449426Y-36000574D02*
X121400000Y-36050000D01*
X121450000Y-35500000D02*
X121400000Y-35550000D01*
X124900000Y-48300000D02*
X124400000Y-48300000D01*
D16*
X124900000Y-48300000D02*
X124900000Y-45800000D01*
X125400000Y-47800000D02*
X125400000Y-48300000D01*
X125400000Y-47800000D02*
X125400000Y-47300000D01*
X125400000Y-46800000D02*
X125400000Y-47300000D01*
X125400000Y-46800000D02*
X125400000Y-46300000D01*
X125400000Y-45800000D02*
X125400000Y-46300000D01*
D17*
X124900000Y-45800000D02*
X125400000Y-45800000D01*
X124900000Y-45800000D02*
X124400000Y-45800000D01*
D16*
X124400000Y-45800000D02*
X124400000Y-46900000D01*
D17*
X124400000Y-46900000D02*
X124500000Y-47000000D01*
X120400000Y-47000000D02*
X121250000Y-47000000D01*
X120400000Y-48000000D02*
X120400000Y-47000000D01*
D16*
X120900000Y-48000000D02*
X120900000Y-46000000D01*
X121400000Y-48000000D02*
X121400000Y-46000000D01*
X120411000Y-46500000D02*
X120411000Y-46000000D01*
X120400000Y-47000000D02*
X120400000Y-46511000D01*
D17*
X120400000Y-46511000D02*
X120411000Y-46500000D01*
D16*
X120400000Y-47500000D02*
X120400000Y-47000000D01*
X120400000Y-48000000D02*
X120400000Y-47500000D01*
D17*
X120400000Y-48000000D02*
X120400000Y-47850000D01*
D16*
X120911000Y-36050000D02*
X121400000Y-36050000D01*
X121400000Y-35550000D02*
X120900000Y-35550000D01*
X121400000Y-35550000D02*
X121400000Y-36050000D01*
D17*
X120911000Y-36050000D02*
X120911000Y-35561000D01*
X120911000Y-35561000D02*
X120900000Y-35550000D01*
D16*
X116650000Y-35550000D02*
X116650000Y-36050000D01*
D17*
X117150000Y-35550000D02*
X117150000Y-36050000D01*
D16*
X117150000Y-35550000D02*
X116650000Y-35550000D01*
X117150000Y-36050000D02*
X116650000Y-36050000D01*
X120911000Y-36050000D02*
X117150000Y-36050000D01*
X120900000Y-35550000D02*
X117150000Y-35550000D01*
D18*
X73878000Y-36060000D02*
X73878000Y-40173000D01*
D17*
X73878000Y-40173000D02*
X73885000Y-40180000D01*
D18*
X94198000Y-36060000D02*
X94198000Y-40173000D01*
D17*
X94198000Y-40173000D02*
X94205000Y-40180000D01*
D16*
X109438000Y-36060000D02*
X109438000Y-38000000D01*
X109438000Y-38000000D02*
X109438000Y-40173000D01*
D17*
X109500000Y-37500000D02*
X109500000Y-37853553D01*
X109500000Y-37853553D02*
X109438000Y-37915553D01*
X109438000Y-37915553D02*
X109438000Y-38000000D01*
D16*
X106898000Y-36060000D02*
X106898000Y-37450000D01*
X106898000Y-37450000D02*
X106898000Y-40173000D01*
D19*
X106948000Y-37500000D02*
X106898000Y-37450000D01*
D16*
X114500000Y-42000000D02*
X114500000Y-40205000D01*
D17*
X114500000Y-40205000D02*
X114525000Y-40180000D01*
D16*
X66258000Y-36060000D02*
X66258000Y-40173000D01*
D17*
X66258000Y-40173000D02*
X66265000Y-40180000D01*
D16*
X56098000Y-36060000D02*
X53558000Y-36060000D01*
X53558000Y-40180000D02*
X53558000Y-36060000D01*
X56105000Y-40180000D02*
X53558000Y-40180000D01*
X56098000Y-36060000D02*
X56098000Y-40173000D01*
D17*
X56098000Y-40173000D02*
X56105000Y-40180000D01*
D16*
X114518000Y-36060000D02*
X114518000Y-40173000D01*
D17*
X114518000Y-40173000D02*
X114525000Y-40180000D01*
D16*
X109445000Y-40180000D02*
X106905000Y-40180000D01*
X106898000Y-36060000D02*
X109438000Y-36060000D01*
D17*
X109438000Y-40173000D02*
X109445000Y-40180000D01*
X106898000Y-40173000D02*
X106905000Y-40180000D01*
D19*
X104365000Y-40180000D02*
X105546601Y-38998399D01*
X127198132Y-29282306D02*
X127198132Y-28999464D01*
X105546601Y-38998399D02*
X105546601Y-35652269D01*
X105546601Y-35652269D02*
X106898870Y-34300000D01*
X123596050Y-34300000D02*
X127198132Y-30697918D01*
X106898870Y-34300000D02*
X123596050Y-34300000D01*
X127198132Y-30697918D02*
X127198132Y-29282306D01*
X122449504Y-32949967D02*
X126197767Y-29201704D01*
X100544735Y-38920265D02*
X100544735Y-35574135D01*
X103168903Y-32949967D02*
X122449504Y-32949967D01*
X100544735Y-35574135D02*
X103168903Y-32949967D01*
X99285000Y-40180000D02*
X100544735Y-38920265D01*
X126197767Y-29201704D02*
X126397766Y-29001705D01*
X101078914Y-32499956D02*
X122102424Y-32499956D01*
X122102424Y-32499956D02*
X125400676Y-29201704D01*
X98009104Y-35569766D02*
X101078914Y-32499956D01*
X125400676Y-29201704D02*
X125600675Y-29001705D01*
X98009104Y-38915896D02*
X98009104Y-35569766D01*
X96745000Y-40180000D02*
X98009104Y-38915896D01*
X122198205Y-29201704D02*
X122398204Y-29001705D01*
X89118000Y-36060000D02*
X94478088Y-30699912D01*
X120699997Y-30699912D02*
X122198205Y-29201704D01*
X94478088Y-30699912D02*
X120699997Y-30699912D01*
X123799440Y-29201704D02*
X123999439Y-29001705D01*
X121401210Y-31599934D02*
X123799440Y-29201704D01*
X91658000Y-36060000D02*
X96118066Y-31599934D01*
X96118066Y-31599934D02*
X121401210Y-31599934D01*
X91665000Y-40180000D02*
X90392381Y-38907381D01*
X121054130Y-31149923D02*
X123002349Y-29201704D01*
X94808947Y-31149923D02*
X121054130Y-31149923D01*
X90392381Y-35566489D02*
X94808947Y-31149923D01*
X90392381Y-38907381D02*
X90392381Y-35566489D01*
X123002349Y-29201704D02*
X123202348Y-29001705D01*
X93168969Y-30249901D02*
X120352917Y-30249901D01*
X121401114Y-29201704D02*
X121601113Y-29001705D01*
X87788708Y-35630162D02*
X93168969Y-30249901D01*
X120352917Y-30249901D02*
X121401114Y-29201704D01*
X87788708Y-38843708D02*
X87788708Y-35630162D01*
X89125000Y-40180000D02*
X87788708Y-38843708D01*
X124803107Y-31502443D02*
X125003106Y-31302444D01*
X122905572Y-33399978D02*
X124803107Y-31502443D01*
X104478022Y-33399978D02*
X122905572Y-33399978D01*
X101818000Y-36060000D02*
X104478022Y-33399978D01*
X96738000Y-36060000D02*
X100748055Y-32049945D01*
X121748290Y-32049945D02*
X124596531Y-29201704D01*
X100748055Y-32049945D02*
X121748290Y-32049945D01*
X124596531Y-29201704D02*
X124796530Y-29001705D01*
X125601951Y-31502443D02*
X125801950Y-31302444D01*
X123254405Y-33849989D02*
X125601951Y-31502443D01*
X103080367Y-35436023D02*
X104666401Y-33849989D01*
X103080367Y-38924633D02*
X103080367Y-35436023D01*
X104666401Y-33849989D02*
X123254405Y-33849989D01*
X101825000Y-40180000D02*
X103080367Y-38924633D01*
X115399249Y-47601004D02*
X115599248Y-47801003D01*
X79283273Y-43038273D02*
X110836518Y-43038273D01*
X76425000Y-40180000D02*
X79283273Y-43038273D01*
X110836518Y-43038273D02*
X115399249Y-47601004D01*
X76418000Y-36060000D02*
X77701234Y-37343234D01*
X77701234Y-37343234D02*
X77701234Y-40675364D01*
X116200186Y-47599712D02*
X116400185Y-47799711D01*
X77701234Y-40675364D02*
X79611320Y-42585450D01*
X79611320Y-42585450D02*
X111185924Y-42585450D01*
X111185924Y-42585450D02*
X116200186Y-47599712D01*
X117001123Y-47599712D02*
X117201122Y-47799711D01*
X80909145Y-42124145D02*
X111525556Y-42124145D01*
X78965000Y-40180000D02*
X80909145Y-42124145D01*
X111525556Y-42124145D02*
X117001123Y-47599712D01*
X108201152Y-47599712D02*
X108401151Y-47799711D01*
X107777350Y-47175910D02*
X108201152Y-47599712D01*
X66384120Y-47175910D02*
X107777350Y-47175910D01*
X59909061Y-40700851D02*
X66384120Y-47175910D01*
X59909061Y-37331061D02*
X59909061Y-40700851D01*
X58638000Y-36060000D02*
X59909061Y-37331061D01*
X107316804Y-47800772D02*
X107599646Y-47800772D01*
X66265772Y-47800772D02*
X107316804Y-47800772D01*
X58645000Y-40180000D02*
X66265772Y-47800772D01*
X108999505Y-47599712D02*
X109199504Y-47799711D01*
X67723899Y-46725899D02*
X108125692Y-46725899D01*
X61178000Y-40180000D02*
X67723899Y-46725899D01*
X108125692Y-46725899D02*
X108999505Y-47599712D01*
X111399732Y-47599712D02*
X111599731Y-47799711D01*
X109144305Y-45344285D02*
X111399732Y-47599712D01*
X69670155Y-45344285D02*
X109144305Y-45344285D01*
X65018967Y-40693097D02*
X69670155Y-45344285D01*
X65018967Y-37360967D02*
X65018967Y-40693097D01*
X63718000Y-36060000D02*
X65018967Y-37360967D01*
X110598795Y-47601004D02*
X110798794Y-47801003D01*
X69350487Y-45805487D02*
X108803278Y-45805487D01*
X63725000Y-40180000D02*
X69350487Y-45805487D01*
X108803278Y-45805487D02*
X110598795Y-47601004D01*
X109800442Y-47599712D02*
X110000441Y-47799711D01*
X108476618Y-46275888D02*
X109800442Y-47599712D01*
X68061758Y-46275888D02*
X108476618Y-46275888D01*
X62471887Y-40686017D02*
X68061758Y-46275888D01*
X62471887Y-37353887D02*
X62471887Y-40686017D01*
X61178000Y-36060000D02*
X62471887Y-37353887D01*
X73827750Y-44421880D02*
X109819898Y-44421880D01*
X70083679Y-37345679D02*
X70083679Y-40677809D01*
X70083679Y-40677809D02*
X73827750Y-44421880D01*
X68798000Y-36060000D02*
X70083679Y-37345679D01*
X109819898Y-44421880D02*
X112999022Y-47601004D01*
X112999022Y-47601004D02*
X113199021Y-47801003D01*
X113799959Y-47599712D02*
X113999958Y-47799711D01*
X71345000Y-40180000D02*
X75125678Y-43960678D01*
X75125678Y-43960678D02*
X110160925Y-43960678D01*
X110160925Y-43960678D02*
X113799959Y-47599712D01*
X110500660Y-43499476D02*
X114600896Y-47599712D01*
X75445346Y-43499476D02*
X110500660Y-43499476D01*
X72629648Y-40683778D02*
X75445346Y-43499476D01*
X72629648Y-37351648D02*
X72629648Y-40683778D01*
X71338000Y-36060000D02*
X72629648Y-37351648D01*
X114600896Y-47599712D02*
X114800895Y-47799711D01*
X112200669Y-47599712D02*
X112400668Y-47799711D01*
X73508083Y-44883083D02*
X109484040Y-44883083D01*
X68805000Y-40180000D02*
X73508083Y-44883083D01*
X109484040Y-44883083D02*
X112200669Y-47599712D01*
X117999475Y-47801003D02*
X111799095Y-41600623D01*
X111799095Y-41600623D02*
X81166493Y-41600623D01*
X80238830Y-39029607D02*
X78958000Y-37748777D01*
X81166493Y-41600623D02*
X80238830Y-40672960D01*
X80238830Y-40672960D02*
X80238830Y-39029607D01*
X78958000Y-37748777D02*
X78958000Y-36060000D01*
X81505000Y-40180000D02*
X81505000Y-38498936D01*
X86458262Y-29340608D02*
X119666303Y-29340608D01*
X81505000Y-38498936D02*
X80249001Y-37242937D01*
X80249001Y-37242937D02*
X80249001Y-35549869D01*
X80249001Y-35549869D02*
X86458262Y-29340608D01*
X119666303Y-29340608D02*
X119999877Y-29007034D01*
X119999877Y-29007034D02*
X119999877Y-29001705D01*
X120596969Y-29201704D02*
X120796968Y-29001705D01*
X87758110Y-29799890D02*
X119998783Y-29799890D01*
X81498000Y-36060000D02*
X87758110Y-29799890D01*
X119998783Y-29799890D02*
X120596969Y-29201704D01*
G36*
X136200426Y-27190563D02*
X136463594Y-27366406D01*
X136639437Y-27629574D01*
X136710000Y-27984319D01*
X136710000Y-48215681D01*
X136639437Y-48570426D01*
X136463594Y-48833594D01*
X136200426Y-49009437D01*
X135845680Y-49080000D01*
X125777344Y-49080000D01*
X126018718Y-48918718D01*
X126208395Y-48634848D01*
X126275000Y-48300000D01*
X126275000Y-47131250D01*
X126575000Y-47131250D01*
X126575000Y-47884538D01*
X126639702Y-48040743D01*
X126759257Y-48160298D01*
X126915462Y-48225000D01*
X127368750Y-48225000D01*
X127475000Y-48118750D01*
X127475000Y-47025000D01*
X127525000Y-47025000D01*
X127525000Y-48118750D01*
X127631250Y-48225000D01*
X128084538Y-48225000D01*
X128240743Y-48160298D01*
X128360298Y-48040743D01*
X128425000Y-47884538D01*
X128425000Y-47131250D01*
X128318750Y-47025000D01*
X127525000Y-47025000D01*
X127475000Y-47025000D01*
X126681250Y-47025000D01*
X126575000Y-47131250D01*
X126275000Y-47131250D01*
X126275000Y-46115462D01*
X126575000Y-46115462D01*
X126575000Y-46868750D01*
X126681250Y-46975000D01*
X127475000Y-46975000D01*
X127475000Y-45881250D01*
X127525000Y-45881250D01*
X127525000Y-46975000D01*
X128318750Y-46975000D01*
X128425000Y-46868750D01*
X128425000Y-46115462D01*
X128360298Y-45959257D01*
X128240743Y-45839702D01*
X128084538Y-45775000D01*
X127631250Y-45775000D01*
X127525000Y-45881250D01*
X127475000Y-45881250D01*
X127368750Y-45775000D01*
X126915462Y-45775000D01*
X126759257Y-45839702D01*
X126639702Y-45959257D01*
X126575000Y-46115462D01*
X126275000Y-46115462D01*
X126275000Y-45800000D01*
X126208395Y-45465152D01*
X126018718Y-45181282D01*
X125734848Y-44991605D01*
X125400000Y-44925000D01*
X125150000Y-44974728D01*
X124900000Y-44925000D01*
X124650000Y-44974728D01*
X124400000Y-44925000D01*
X124065152Y-44991605D01*
X123781282Y-45181282D01*
X123591605Y-45465152D01*
X123525000Y-45800000D01*
X123525000Y-46419751D01*
X123510298Y-46384257D01*
X123390743Y-46264702D01*
X123234538Y-46200000D01*
X122881250Y-46200000D01*
X122775000Y-46306250D01*
X122775000Y-46975000D01*
X122795000Y-46975000D01*
X122795000Y-47025000D01*
X122775000Y-47025000D01*
X122775000Y-47693750D01*
X122881250Y-47800000D01*
X123234538Y-47800000D01*
X123390743Y-47735298D01*
X123510298Y-47615743D01*
X123525000Y-47580249D01*
X123525000Y-48300000D01*
X123591605Y-48634848D01*
X123781282Y-48918718D01*
X124022656Y-49080000D01*
X32175319Y-49080000D01*
X31820574Y-49009437D01*
X31557406Y-48833594D01*
X31381563Y-48570426D01*
X31311000Y-48215680D01*
X31311000Y-38768384D01*
X33382416Y-38768384D01*
X33895146Y-40009286D01*
X34843720Y-40959517D01*
X36083726Y-41474413D01*
X37426384Y-41475584D01*
X38667286Y-40962854D01*
X39224876Y-40406236D01*
X52289416Y-40406236D01*
X52299401Y-40456453D01*
X52501000Y-40917054D01*
X52863518Y-41265445D01*
X53331764Y-41448587D01*
X53533000Y-41362110D01*
X53533000Y-40205000D01*
X53583000Y-40205000D01*
X53583000Y-41362110D01*
X53784236Y-41448587D01*
X54252482Y-41265445D01*
X54615000Y-40917054D01*
X54816599Y-40456453D01*
X54826584Y-40406236D01*
X54836416Y-40406236D01*
X54846401Y-40456453D01*
X55048000Y-40917054D01*
X55410518Y-41265445D01*
X55878764Y-41448587D01*
X56080000Y-41362110D01*
X56080000Y-40205000D01*
X54922914Y-40205000D01*
X54836416Y-40406236D01*
X54826584Y-40406236D01*
X54740086Y-40205000D01*
X53583000Y-40205000D01*
X53533000Y-40205000D01*
X52375914Y-40205000D01*
X52289416Y-40406236D01*
X39224876Y-40406236D01*
X39617517Y-40014280D01*
X39642645Y-39953764D01*
X52289416Y-39953764D01*
X52375914Y-40155000D01*
X53533000Y-40155000D01*
X53533000Y-38997890D01*
X53583000Y-38997890D01*
X53583000Y-40155000D01*
X54740086Y-40155000D01*
X54826584Y-39953764D01*
X54836416Y-39953764D01*
X54922914Y-40155000D01*
X56080000Y-40155000D01*
X56080000Y-38997890D01*
X55878764Y-38911413D01*
X55410518Y-39094555D01*
X55048000Y-39442946D01*
X54846401Y-39903547D01*
X54836416Y-39953764D01*
X54826584Y-39953764D01*
X54816599Y-39903547D01*
X54615000Y-39442946D01*
X54252482Y-39094555D01*
X53784236Y-38911413D01*
X53583000Y-38997890D01*
X53533000Y-38997890D01*
X53331764Y-38911413D01*
X52863518Y-39094555D01*
X52501000Y-39442946D01*
X52299401Y-39903547D01*
X52289416Y-39953764D01*
X39642645Y-39953764D01*
X40132413Y-38774274D01*
X40133584Y-37431616D01*
X39660323Y-36286236D01*
X52289416Y-36286236D01*
X52299401Y-36336453D01*
X52501000Y-36797054D01*
X52863518Y-37145445D01*
X53331764Y-37328587D01*
X53533000Y-37242110D01*
X53533000Y-36085000D01*
X53583000Y-36085000D01*
X53583000Y-37242110D01*
X53784236Y-37328587D01*
X54252482Y-37145445D01*
X54615000Y-36797054D01*
X54816599Y-36336453D01*
X54826584Y-36286236D01*
X54829416Y-36286236D01*
X54839401Y-36336453D01*
X55041000Y-36797054D01*
X55403518Y-37145445D01*
X55871764Y-37328587D01*
X56073000Y-37242110D01*
X56073000Y-36085000D01*
X54915914Y-36085000D01*
X54829416Y-36286236D01*
X54826584Y-36286236D01*
X54740086Y-36085000D01*
X53583000Y-36085000D01*
X53533000Y-36085000D01*
X52375914Y-36085000D01*
X52289416Y-36286236D01*
X39660323Y-36286236D01*
X39620854Y-36190714D01*
X39264527Y-35833764D01*
X52289416Y-35833764D01*
X52375914Y-36035000D01*
X53533000Y-36035000D01*
X53533000Y-34877890D01*
X53583000Y-34877890D01*
X53583000Y-36035000D01*
X54740086Y-36035000D01*
X54826584Y-35833764D01*
X54829416Y-35833764D01*
X54915914Y-36035000D01*
X56073000Y-36035000D01*
X56073000Y-34877890D01*
X56123000Y-34877890D01*
X56123000Y-36035000D01*
X56143000Y-36035000D01*
X56143000Y-36085000D01*
X56123000Y-36085000D01*
X56123000Y-37242110D01*
X56324236Y-37328587D01*
X56792482Y-37145445D01*
X57155000Y-36797054D01*
X57356599Y-36336453D01*
X57366584Y-36286236D01*
X57280087Y-36085002D01*
X57380107Y-36085002D01*
X57469417Y-36533992D01*
X57737912Y-36935822D01*
X58139742Y-37204317D01*
X58613734Y-37298600D01*
X58662266Y-37298600D01*
X59085339Y-37214445D01*
X59409061Y-37538168D01*
X59409061Y-39213287D01*
X59143258Y-39035683D01*
X58669266Y-38941400D01*
X58620734Y-38941400D01*
X58146742Y-39035683D01*
X57744912Y-39304178D01*
X57476417Y-39706008D01*
X57387107Y-40154998D01*
X57287087Y-40154998D01*
X57373584Y-39953764D01*
X57363599Y-39903547D01*
X57162000Y-39442946D01*
X56799482Y-39094555D01*
X56331236Y-38911413D01*
X56130000Y-38997890D01*
X56130000Y-40155000D01*
X56150000Y-40155000D01*
X56150000Y-40205000D01*
X56130000Y-40205000D01*
X56130000Y-41362110D01*
X56331236Y-41448587D01*
X56799482Y-41265445D01*
X57162000Y-40917054D01*
X57363599Y-40456453D01*
X57373584Y-40406236D01*
X57287087Y-40205002D01*
X57387107Y-40205002D01*
X57476417Y-40653992D01*
X57744912Y-41055822D01*
X58146742Y-41324317D01*
X58620734Y-41418600D01*
X58669266Y-41418600D01*
X59092339Y-41334445D01*
X65912219Y-48154325D01*
X66074430Y-48262712D01*
X66265772Y-48300772D01*
X107304390Y-48300772D01*
X107484770Y-48375672D01*
X107713519Y-48375872D01*
X107924932Y-48288518D01*
X108000919Y-48212664D01*
X108075014Y-48286888D01*
X108286275Y-48374611D01*
X108515024Y-48374811D01*
X108726437Y-48287457D01*
X108800315Y-48213708D01*
X108873367Y-48286888D01*
X109084628Y-48374611D01*
X109313377Y-48374811D01*
X109524790Y-48287457D01*
X109599962Y-48212416D01*
X109674304Y-48286888D01*
X109885565Y-48374611D01*
X110114314Y-48374811D01*
X110325727Y-48287457D01*
X110398959Y-48214353D01*
X110472657Y-48288180D01*
X110683918Y-48375903D01*
X110912667Y-48376103D01*
X111124080Y-48288749D01*
X111199898Y-48213063D01*
X111273594Y-48286888D01*
X111484855Y-48374611D01*
X111713604Y-48374811D01*
X111925017Y-48287457D01*
X112000189Y-48212416D01*
X112074531Y-48286888D01*
X112285792Y-48374611D01*
X112514541Y-48374811D01*
X112725954Y-48287457D01*
X112799186Y-48214353D01*
X112872884Y-48288180D01*
X113084145Y-48375903D01*
X113312894Y-48376103D01*
X113524307Y-48288749D01*
X113600125Y-48213063D01*
X113673821Y-48286888D01*
X113885082Y-48374611D01*
X114113831Y-48374811D01*
X114325244Y-48287457D01*
X114400416Y-48212416D01*
X114474758Y-48286888D01*
X114686019Y-48374611D01*
X114914768Y-48374811D01*
X115126181Y-48287457D01*
X115199413Y-48214353D01*
X115273111Y-48288180D01*
X115484372Y-48375903D01*
X115713121Y-48376103D01*
X115924534Y-48288749D01*
X116000352Y-48213063D01*
X116074048Y-48286888D01*
X116285309Y-48374611D01*
X116514058Y-48374811D01*
X116725471Y-48287457D01*
X116800643Y-48212416D01*
X116874985Y-48286888D01*
X117086246Y-48374611D01*
X117314995Y-48374811D01*
X117526408Y-48287457D01*
X117599640Y-48214353D01*
X117673338Y-48288180D01*
X117884599Y-48375903D01*
X118113348Y-48376103D01*
X118324761Y-48288749D01*
X118486652Y-48127140D01*
X118574375Y-47915879D01*
X118574575Y-47687130D01*
X118487221Y-47475717D01*
X118325612Y-47313826D01*
X118143988Y-47238410D01*
X117416578Y-46511000D01*
X119525000Y-46511000D01*
X119525000Y-48000000D01*
X119591605Y-48334848D01*
X119781282Y-48618718D01*
X120065152Y-48808395D01*
X120400000Y-48875000D01*
X120650000Y-48825272D01*
X120900000Y-48875000D01*
X121150000Y-48825272D01*
X121400000Y-48875000D01*
X121734848Y-48808395D01*
X122018718Y-48618718D01*
X122208395Y-48334848D01*
X122275000Y-48000000D01*
X122275000Y-47800000D01*
X122618750Y-47800000D01*
X122725000Y-47693750D01*
X122725000Y-47025000D01*
X122705000Y-47025000D01*
X122705000Y-46975000D01*
X122725000Y-46975000D01*
X122725000Y-46306250D01*
X122618750Y-46200000D01*
X122275000Y-46200000D01*
X122275000Y-46000000D01*
X122208395Y-45665152D01*
X122018718Y-45381282D01*
X121734848Y-45191605D01*
X121400000Y-45125000D01*
X121150000Y-45174728D01*
X120900000Y-45125000D01*
X120655500Y-45173634D01*
X120411000Y-45125000D01*
X120076152Y-45191605D01*
X119792282Y-45381282D01*
X119602605Y-45665152D01*
X119536000Y-46000000D01*
X119536000Y-46455699D01*
X119525000Y-46511000D01*
X117416578Y-46511000D01*
X112271931Y-41366353D01*
X112483258Y-41324317D01*
X112885088Y-41055822D01*
X113153583Y-40653992D01*
X113242893Y-40205002D01*
X113342913Y-40205002D01*
X113256416Y-40406236D01*
X113266401Y-40456453D01*
X113468000Y-40917054D01*
X113830518Y-41265445D01*
X114298764Y-41448587D01*
X114500000Y-41362110D01*
X114500000Y-40205000D01*
X114550000Y-40205000D01*
X114550000Y-41362110D01*
X114751236Y-41448587D01*
X115219482Y-41265445D01*
X115582000Y-40917054D01*
X115783599Y-40456453D01*
X115793584Y-40406236D01*
X115707086Y-40205000D01*
X114550000Y-40205000D01*
X114500000Y-40205000D01*
X114480000Y-40205000D01*
X114480000Y-40155000D01*
X114500000Y-40155000D01*
X114500000Y-38997890D01*
X114550000Y-38997890D01*
X114550000Y-40155000D01*
X115707086Y-40155000D01*
X115793584Y-39953764D01*
X115783599Y-39903547D01*
X115582000Y-39442946D01*
X115219482Y-39094555D01*
X114751236Y-38911413D01*
X114550000Y-38997890D01*
X114500000Y-38997890D01*
X114298764Y-38911413D01*
X113830518Y-39094555D01*
X113468000Y-39442946D01*
X113266401Y-39903547D01*
X113256416Y-39953764D01*
X113342913Y-40154998D01*
X113242893Y-40154998D01*
X113153583Y-39706008D01*
X112885088Y-39304178D01*
X112483258Y-39035683D01*
X112009266Y-38941400D01*
X111960734Y-38941400D01*
X111486742Y-39035683D01*
X111084912Y-39304178D01*
X110816417Y-39706008D01*
X110727107Y-40154998D01*
X110627087Y-40154998D01*
X110713584Y-39953764D01*
X110703599Y-39903547D01*
X110502000Y-39442946D01*
X110139482Y-39094555D01*
X109671236Y-38911413D01*
X109470000Y-38997890D01*
X109470000Y-40155000D01*
X109490000Y-40155000D01*
X109490000Y-40205000D01*
X109470000Y-40205000D01*
X109470000Y-40225000D01*
X109420000Y-40225000D01*
X109420000Y-40205000D01*
X108262914Y-40205000D01*
X108176416Y-40406236D01*
X108186401Y-40456453D01*
X108388000Y-40917054D01*
X108579013Y-41100623D01*
X107770987Y-41100623D01*
X107962000Y-40917054D01*
X108163599Y-40456453D01*
X108173584Y-40406236D01*
X108087086Y-40205000D01*
X106930000Y-40205000D01*
X106930000Y-40225000D01*
X106880000Y-40225000D01*
X106880000Y-40205000D01*
X106860000Y-40205000D01*
X106860000Y-40155000D01*
X106880000Y-40155000D01*
X106880000Y-38997890D01*
X106930000Y-38997890D01*
X106930000Y-40155000D01*
X108087086Y-40155000D01*
X108173584Y-39953764D01*
X108176416Y-39953764D01*
X108262914Y-40155000D01*
X109420000Y-40155000D01*
X109420000Y-38997890D01*
X109218764Y-38911413D01*
X108750518Y-39094555D01*
X108388000Y-39442946D01*
X108186401Y-39903547D01*
X108176416Y-39953764D01*
X108173584Y-39953764D01*
X108163599Y-39903547D01*
X107962000Y-39442946D01*
X107599482Y-39094555D01*
X107131236Y-38911413D01*
X106930000Y-38997890D01*
X106880000Y-38997890D01*
X106678764Y-38911413D01*
X106210518Y-39094555D01*
X105848000Y-39442946D01*
X105646401Y-39903547D01*
X105636416Y-39953764D01*
X105722913Y-40154998D01*
X105622893Y-40154998D01*
X105535659Y-39716447D01*
X105900154Y-39351953D01*
X106008541Y-39189741D01*
X106046601Y-38998399D01*
X106046601Y-38768384D01*
X127942416Y-38768384D01*
X128455146Y-40009286D01*
X129403720Y-40959517D01*
X130643726Y-41474413D01*
X131986384Y-41475584D01*
X133227286Y-40962854D01*
X134177517Y-40014280D01*
X134692413Y-38774274D01*
X134693584Y-37431616D01*
X134180854Y-36190714D01*
X133232280Y-35240483D01*
X131992274Y-34725587D01*
X130649616Y-34724416D01*
X129408714Y-35237146D01*
X128458483Y-36185720D01*
X127943587Y-37425726D01*
X127942416Y-38768384D01*
X106046601Y-38768384D01*
X106046601Y-36994643D01*
X106203518Y-37145445D01*
X106671764Y-37328587D01*
X106873000Y-37242110D01*
X106873000Y-36085000D01*
X106923000Y-36085000D01*
X106923000Y-37242110D01*
X107124236Y-37328587D01*
X107592482Y-37145445D01*
X107955000Y-36797054D01*
X108156599Y-36336453D01*
X108166584Y-36286236D01*
X108169416Y-36286236D01*
X108179401Y-36336453D01*
X108381000Y-36797054D01*
X108743518Y-37145445D01*
X109211764Y-37328587D01*
X109413000Y-37242110D01*
X109413000Y-36085000D01*
X108255914Y-36085000D01*
X108169416Y-36286236D01*
X108166584Y-36286236D01*
X108080086Y-36085000D01*
X106923000Y-36085000D01*
X106873000Y-36085000D01*
X106853000Y-36085000D01*
X106853000Y-36035000D01*
X106873000Y-36035000D01*
X106873000Y-36015000D01*
X106923000Y-36015000D01*
X106923000Y-36035000D01*
X108080086Y-36035000D01*
X108166584Y-35833764D01*
X108156599Y-35783547D01*
X107955000Y-35322946D01*
X107592482Y-34974555D01*
X107146191Y-34800000D01*
X109189809Y-34800000D01*
X108743518Y-34974555D01*
X108381000Y-35322946D01*
X108179401Y-35783547D01*
X108169416Y-35833764D01*
X108255914Y-36035000D01*
X109413000Y-36035000D01*
X109413000Y-36015000D01*
X109463000Y-36015000D01*
X109463000Y-36035000D01*
X109483000Y-36035000D01*
X109483000Y-36085000D01*
X109463000Y-36085000D01*
X109463000Y-37242110D01*
X109664236Y-37328587D01*
X110132482Y-37145445D01*
X110495000Y-36797054D01*
X110696599Y-36336453D01*
X110706584Y-36286236D01*
X110620087Y-36085002D01*
X110720107Y-36085002D01*
X110809417Y-36533992D01*
X111077912Y-36935822D01*
X111479742Y-37204317D01*
X111953734Y-37298600D01*
X112002266Y-37298600D01*
X112476258Y-37204317D01*
X112878088Y-36935822D01*
X113146583Y-36533992D01*
X113235893Y-36085002D01*
X113335913Y-36085002D01*
X113249416Y-36286236D01*
X113259401Y-36336453D01*
X113461000Y-36797054D01*
X113823518Y-37145445D01*
X114291764Y-37328587D01*
X114493000Y-37242110D01*
X114493000Y-36085000D01*
X114473000Y-36085000D01*
X114473000Y-36035000D01*
X114493000Y-36035000D01*
X114493000Y-36015000D01*
X114543000Y-36015000D01*
X114543000Y-36035000D01*
X114563000Y-36035000D01*
X114563000Y-36085000D01*
X114543000Y-36085000D01*
X114543000Y-37242110D01*
X114744236Y-37328587D01*
X115212482Y-37145445D01*
X115575000Y-36797054D01*
X115776599Y-36336453D01*
X115786584Y-36286236D01*
X115700087Y-36085002D01*
X115781962Y-36085002D01*
X115841605Y-36384848D01*
X116031282Y-36668718D01*
X116315152Y-36858395D01*
X116650000Y-36925000D01*
X124669766Y-36925000D01*
X125004614Y-36858395D01*
X125288484Y-36668718D01*
X125478161Y-36384848D01*
X125544766Y-36050000D01*
X125495930Y-35804482D01*
X125546549Y-35550000D01*
X125479944Y-35215152D01*
X125290267Y-34931282D01*
X125006397Y-34741605D01*
X124671549Y-34675000D01*
X123917506Y-34675000D01*
X123949603Y-34653553D01*
X127551685Y-31051472D01*
X127660072Y-30889260D01*
X127677340Y-30802445D01*
X127698132Y-30697918D01*
X127698132Y-29294720D01*
X127773032Y-29114340D01*
X127773232Y-28885591D01*
X127685878Y-28674178D01*
X127524269Y-28512287D01*
X127313008Y-28424564D01*
X127084259Y-28424364D01*
X126872846Y-28511718D01*
X126796840Y-28587592D01*
X126723903Y-28514528D01*
X126512642Y-28426805D01*
X126283893Y-28426605D01*
X126072480Y-28513959D01*
X125999235Y-28587077D01*
X125926812Y-28514528D01*
X125715551Y-28426805D01*
X125486802Y-28426605D01*
X125275389Y-28513959D01*
X125198610Y-28590604D01*
X125122667Y-28514528D01*
X124911406Y-28426805D01*
X124682657Y-28426605D01*
X124471244Y-28513959D01*
X124397999Y-28587077D01*
X124325576Y-28514528D01*
X124114315Y-28426805D01*
X123885566Y-28426605D01*
X123674153Y-28513959D01*
X123600908Y-28587077D01*
X123528485Y-28514528D01*
X123317224Y-28426805D01*
X123088475Y-28426605D01*
X122877062Y-28513959D01*
X122800284Y-28590603D01*
X122724341Y-28514528D01*
X122513080Y-28426805D01*
X122284331Y-28426605D01*
X122072918Y-28513959D01*
X121999673Y-28587077D01*
X121927250Y-28514528D01*
X121715989Y-28426805D01*
X121487240Y-28426605D01*
X121275827Y-28513959D01*
X121199048Y-28590604D01*
X121123105Y-28514528D01*
X120911844Y-28426805D01*
X120683095Y-28426605D01*
X120471682Y-28513959D01*
X120398437Y-28587077D01*
X120326014Y-28514528D01*
X120114753Y-28426805D01*
X119886004Y-28426605D01*
X119674591Y-28513959D01*
X119512700Y-28675568D01*
X119444170Y-28840608D01*
X86458262Y-28840608D01*
X86266920Y-28878668D01*
X86104709Y-28987055D01*
X79895448Y-35196316D01*
X79880823Y-35218203D01*
X79858088Y-35184178D01*
X79456258Y-34915683D01*
X78982266Y-34821400D01*
X78933734Y-34821400D01*
X78459742Y-34915683D01*
X78057912Y-35184178D01*
X77789417Y-35586008D01*
X77695134Y-36060000D01*
X77789417Y-36533992D01*
X78057912Y-36935822D01*
X78458000Y-37203153D01*
X78458000Y-37748777D01*
X78477275Y-37845679D01*
X78496060Y-37940119D01*
X78604447Y-38102330D01*
X79687902Y-39185786D01*
X79463258Y-39035683D01*
X78989266Y-38941400D01*
X78940734Y-38941400D01*
X78466742Y-39035683D01*
X78201234Y-39213090D01*
X78201234Y-37343234D01*
X78163174Y-37151892D01*
X78054787Y-36989681D01*
X77588659Y-36523553D01*
X77680866Y-36060000D01*
X77586583Y-35586008D01*
X77318088Y-35184178D01*
X76916258Y-34915683D01*
X76442266Y-34821400D01*
X76393734Y-34821400D01*
X75919742Y-34915683D01*
X75517912Y-35184178D01*
X75249417Y-35586008D01*
X75155134Y-36060000D01*
X75249417Y-36533992D01*
X75517912Y-36935822D01*
X75919742Y-37204317D01*
X76393734Y-37298600D01*
X76442266Y-37298600D01*
X76865339Y-37214445D01*
X77201234Y-37550340D01*
X77201234Y-39221421D01*
X76923258Y-39035683D01*
X76449266Y-38941400D01*
X76400734Y-38941400D01*
X75926742Y-39035683D01*
X75524912Y-39304178D01*
X75256417Y-39706008D01*
X75162134Y-40180000D01*
X75256417Y-40653992D01*
X75524912Y-41055822D01*
X75926742Y-41324317D01*
X76400734Y-41418600D01*
X76449266Y-41418600D01*
X76872339Y-41334445D01*
X78537369Y-42999476D01*
X75652453Y-42999476D01*
X74044647Y-41391671D01*
X74383258Y-41324317D01*
X74785088Y-41055822D01*
X75053583Y-40653992D01*
X75147866Y-40180000D01*
X75053583Y-39706008D01*
X74853000Y-39405815D01*
X74853000Y-36823709D01*
X75046583Y-36533992D01*
X75140866Y-36060000D01*
X75046583Y-35586008D01*
X74778088Y-35184178D01*
X74376258Y-34915683D01*
X73902266Y-34821400D01*
X73853734Y-34821400D01*
X73379742Y-34915683D01*
X72977912Y-35184178D01*
X72709417Y-35586008D01*
X72615134Y-36060000D01*
X72709417Y-36533992D01*
X72903000Y-36823709D01*
X72903000Y-36917894D01*
X72508659Y-36523553D01*
X72600866Y-36060000D01*
X72506583Y-35586008D01*
X72238088Y-35184178D01*
X71836258Y-34915683D01*
X71362266Y-34821400D01*
X71313734Y-34821400D01*
X70839742Y-34915683D01*
X70437912Y-35184178D01*
X70169417Y-35586008D01*
X70075134Y-36060000D01*
X70169417Y-36533992D01*
X70437912Y-36935822D01*
X70839742Y-37204317D01*
X71313734Y-37298600D01*
X71362266Y-37298600D01*
X71785339Y-37214445D01*
X72129648Y-37558754D01*
X72129648Y-39227043D01*
X71843258Y-39035683D01*
X71369266Y-38941400D01*
X71320734Y-38941400D01*
X70846742Y-39035683D01*
X70583679Y-39211457D01*
X70583679Y-37345679D01*
X70545619Y-37154337D01*
X70502205Y-37089365D01*
X70437233Y-36992126D01*
X69968659Y-36523553D01*
X70060866Y-36060000D01*
X69966583Y-35586008D01*
X69698088Y-35184178D01*
X69296258Y-34915683D01*
X68822266Y-34821400D01*
X68773734Y-34821400D01*
X68299742Y-34915683D01*
X67897912Y-35184178D01*
X67629417Y-35586008D01*
X67540107Y-36034998D01*
X67440087Y-36034998D01*
X67526584Y-35833764D01*
X67516599Y-35783547D01*
X67315000Y-35322946D01*
X66952482Y-34974555D01*
X66484236Y-34791413D01*
X66283000Y-34877890D01*
X66283000Y-36035000D01*
X66303000Y-36035000D01*
X66303000Y-36085000D01*
X66283000Y-36085000D01*
X66283000Y-37242110D01*
X66484236Y-37328587D01*
X66952482Y-37145445D01*
X67315000Y-36797054D01*
X67516599Y-36336453D01*
X67526584Y-36286236D01*
X67440087Y-36085002D01*
X67540107Y-36085002D01*
X67629417Y-36533992D01*
X67897912Y-36935822D01*
X68299742Y-37204317D01*
X68773734Y-37298600D01*
X68822266Y-37298600D01*
X69245339Y-37214445D01*
X69583679Y-37552786D01*
X69583679Y-39223055D01*
X69303258Y-39035683D01*
X68829266Y-38941400D01*
X68780734Y-38941400D01*
X68306742Y-39035683D01*
X67904912Y-39304178D01*
X67636417Y-39706008D01*
X67547107Y-40154998D01*
X67447087Y-40154998D01*
X67533584Y-39953764D01*
X67523599Y-39903547D01*
X67322000Y-39442946D01*
X66959482Y-39094555D01*
X66491236Y-38911413D01*
X66290000Y-38997890D01*
X66290000Y-40155000D01*
X66310000Y-40155000D01*
X66310000Y-40205000D01*
X66290000Y-40205000D01*
X66290000Y-40225000D01*
X66240000Y-40225000D01*
X66240000Y-40205000D01*
X66220000Y-40205000D01*
X66220000Y-40155000D01*
X66240000Y-40155000D01*
X66240000Y-38997890D01*
X66038764Y-38911413D01*
X65570518Y-39094555D01*
X65518967Y-39144097D01*
X65518967Y-37360967D01*
X65480907Y-37169625D01*
X65474680Y-37160306D01*
X65372520Y-37007413D01*
X64888659Y-36523553D01*
X64975893Y-36085002D01*
X65075913Y-36085002D01*
X64989416Y-36286236D01*
X64999401Y-36336453D01*
X65201000Y-36797054D01*
X65563518Y-37145445D01*
X66031764Y-37328587D01*
X66233000Y-37242110D01*
X66233000Y-36085000D01*
X66213000Y-36085000D01*
X66213000Y-36035000D01*
X66233000Y-36035000D01*
X66233000Y-34877890D01*
X66031764Y-34791413D01*
X65563518Y-34974555D01*
X65201000Y-35322946D01*
X64999401Y-35783547D01*
X64989416Y-35833764D01*
X65075913Y-36034998D01*
X64975893Y-36034998D01*
X64886583Y-35586008D01*
X64618088Y-35184178D01*
X64216258Y-34915683D01*
X63742266Y-34821400D01*
X63693734Y-34821400D01*
X63219742Y-34915683D01*
X62817912Y-35184178D01*
X62549417Y-35586008D01*
X62455134Y-36060000D01*
X62549417Y-36533992D01*
X62817912Y-36935822D01*
X63219742Y-37204317D01*
X63693734Y-37298600D01*
X63742266Y-37298600D01*
X64165339Y-37214445D01*
X64518967Y-37568074D01*
X64518967Y-39233270D01*
X64223258Y-39035683D01*
X63749266Y-38941400D01*
X63700734Y-38941400D01*
X63226742Y-39035683D01*
X62971887Y-39205972D01*
X62971887Y-37353887D01*
X62933827Y-37162545D01*
X62859692Y-37051595D01*
X62825441Y-37000334D01*
X62348659Y-36523553D01*
X62440866Y-36060000D01*
X62346583Y-35586008D01*
X62078088Y-35184178D01*
X61676258Y-34915683D01*
X61202266Y-34821400D01*
X61153734Y-34821400D01*
X60679742Y-34915683D01*
X60277912Y-35184178D01*
X60009417Y-35586008D01*
X59915134Y-36060000D01*
X60009417Y-36533992D01*
X60277912Y-36935822D01*
X60679742Y-37204317D01*
X61153734Y-37298600D01*
X61202266Y-37298600D01*
X61625339Y-37214445D01*
X61971887Y-37560994D01*
X61971887Y-39233217D01*
X61676258Y-39035683D01*
X61202266Y-38941400D01*
X61153734Y-38941400D01*
X60679742Y-39035683D01*
X60409061Y-39216547D01*
X60409061Y-37331061D01*
X60371001Y-37139719D01*
X60282597Y-37007414D01*
X60262615Y-36977508D01*
X59808659Y-36523553D01*
X59900866Y-36060000D01*
X59806583Y-35586008D01*
X59538088Y-35184178D01*
X59136258Y-34915683D01*
X58662266Y-34821400D01*
X58613734Y-34821400D01*
X58139742Y-34915683D01*
X57737912Y-35184178D01*
X57469417Y-35586008D01*
X57380107Y-36034998D01*
X57280087Y-36034998D01*
X57366584Y-35833764D01*
X57356599Y-35783547D01*
X57155000Y-35322946D01*
X56792482Y-34974555D01*
X56324236Y-34791413D01*
X56123000Y-34877890D01*
X56073000Y-34877890D01*
X55871764Y-34791413D01*
X55403518Y-34974555D01*
X55041000Y-35322946D01*
X54839401Y-35783547D01*
X54829416Y-35833764D01*
X54826584Y-35833764D01*
X54816599Y-35783547D01*
X54615000Y-35322946D01*
X54252482Y-34974555D01*
X53784236Y-34791413D01*
X53583000Y-34877890D01*
X53533000Y-34877890D01*
X53331764Y-34791413D01*
X52863518Y-34974555D01*
X52501000Y-35322946D01*
X52299401Y-35783547D01*
X52289416Y-35833764D01*
X39264527Y-35833764D01*
X38672280Y-35240483D01*
X37432274Y-34725587D01*
X36089616Y-34724416D01*
X34848714Y-35237146D01*
X33898483Y-36185720D01*
X33383587Y-37425726D01*
X33382416Y-38768384D01*
X31311000Y-38768384D01*
X31311000Y-27984320D01*
X31381563Y-27629574D01*
X31557406Y-27366406D01*
X31820574Y-27190563D01*
X32175319Y-27120000D01*
X135845680Y-27120000D01*
X136200426Y-27190563D01*
X136200426Y-27190563D01*
G37*
X136200426Y-27190563D02*
X136463594Y-27366406D01*
X136639437Y-27629574D01*
X136710000Y-27984319D01*
X136710000Y-48215681D01*
X136639437Y-48570426D01*
X136463594Y-48833594D01*
X136200426Y-49009437D01*
X135845680Y-49080000D01*
X125777344Y-49080000D01*
X126018718Y-48918718D01*
X126208395Y-48634848D01*
X126275000Y-48300000D01*
X126275000Y-47131250D01*
X126575000Y-47131250D01*
X126575000Y-47884538D01*
X126639702Y-48040743D01*
X126759257Y-48160298D01*
X126915462Y-48225000D01*
X127368750Y-48225000D01*
X127475000Y-48118750D01*
X127475000Y-47025000D01*
X127525000Y-47025000D01*
X127525000Y-48118750D01*
X127631250Y-48225000D01*
X128084538Y-48225000D01*
X128240743Y-48160298D01*
X128360298Y-48040743D01*
X128425000Y-47884538D01*
X128425000Y-47131250D01*
X128318750Y-47025000D01*
X127525000Y-47025000D01*
X127475000Y-47025000D01*
X126681250Y-47025000D01*
X126575000Y-47131250D01*
X126275000Y-47131250D01*
X126275000Y-46115462D01*
X126575000Y-46115462D01*
X126575000Y-46868750D01*
X126681250Y-46975000D01*
X127475000Y-46975000D01*
X127475000Y-45881250D01*
X127525000Y-45881250D01*
X127525000Y-46975000D01*
X128318750Y-46975000D01*
X128425000Y-46868750D01*
X128425000Y-46115462D01*
X128360298Y-45959257D01*
X128240743Y-45839702D01*
X128084538Y-45775000D01*
X127631250Y-45775000D01*
X127525000Y-45881250D01*
X127475000Y-45881250D01*
X127368750Y-45775000D01*
X126915462Y-45775000D01*
X126759257Y-45839702D01*
X126639702Y-45959257D01*
X126575000Y-46115462D01*
X126275000Y-46115462D01*
X126275000Y-45800000D01*
X126208395Y-45465152D01*
X126018718Y-45181282D01*
X125734848Y-44991605D01*
X125400000Y-44925000D01*
X125150000Y-44974728D01*
X124900000Y-44925000D01*
X124650000Y-44974728D01*
X124400000Y-44925000D01*
X124065152Y-44991605D01*
X123781282Y-45181282D01*
X123591605Y-45465152D01*
X123525000Y-45800000D01*
X123525000Y-46419751D01*
X123510298Y-46384257D01*
X123390743Y-46264702D01*
X123234538Y-46200000D01*
X122881250Y-46200000D01*
X122775000Y-46306250D01*
X122775000Y-46975000D01*
X122795000Y-46975000D01*
X122795000Y-47025000D01*
X122775000Y-47025000D01*
X122775000Y-47693750D01*
X122881250Y-47800000D01*
X123234538Y-47800000D01*
X123390743Y-47735298D01*
X123510298Y-47615743D01*
X123525000Y-47580249D01*
X123525000Y-48300000D01*
X123591605Y-48634848D01*
X123781282Y-48918718D01*
X124022656Y-49080000D01*
X32175319Y-49080000D01*
X31820574Y-49009437D01*
X31557406Y-48833594D01*
X31381563Y-48570426D01*
X31311000Y-48215680D01*
X31311000Y-38768384D01*
X33382416Y-38768384D01*
X33895146Y-40009286D01*
X34843720Y-40959517D01*
X36083726Y-41474413D01*
X37426384Y-41475584D01*
X38667286Y-40962854D01*
X39224876Y-40406236D01*
X52289416Y-40406236D01*
X52299401Y-40456453D01*
X52501000Y-40917054D01*
X52863518Y-41265445D01*
X53331764Y-41448587D01*
X53533000Y-41362110D01*
X53533000Y-40205000D01*
X53583000Y-40205000D01*
X53583000Y-41362110D01*
X53784236Y-41448587D01*
X54252482Y-41265445D01*
X54615000Y-40917054D01*
X54816599Y-40456453D01*
X54826584Y-40406236D01*
X54836416Y-40406236D01*
X54846401Y-40456453D01*
X55048000Y-40917054D01*
X55410518Y-41265445D01*
X55878764Y-41448587D01*
X56080000Y-41362110D01*
X56080000Y-40205000D01*
X54922914Y-40205000D01*
X54836416Y-40406236D01*
X54826584Y-40406236D01*
X54740086Y-40205000D01*
X53583000Y-40205000D01*
X53533000Y-40205000D01*
X52375914Y-40205000D01*
X52289416Y-40406236D01*
X39224876Y-40406236D01*
X39617517Y-40014280D01*
X39642645Y-39953764D01*
X52289416Y-39953764D01*
X52375914Y-40155000D01*
X53533000Y-40155000D01*
X53533000Y-38997890D01*
X53583000Y-38997890D01*
X53583000Y-40155000D01*
X54740086Y-40155000D01*
X54826584Y-39953764D01*
X54836416Y-39953764D01*
X54922914Y-40155000D01*
X56080000Y-40155000D01*
X56080000Y-38997890D01*
X55878764Y-38911413D01*
X55410518Y-39094555D01*
X55048000Y-39442946D01*
X54846401Y-39903547D01*
X54836416Y-39953764D01*
X54826584Y-39953764D01*
X54816599Y-39903547D01*
X54615000Y-39442946D01*
X54252482Y-39094555D01*
X53784236Y-38911413D01*
X53583000Y-38997890D01*
X53533000Y-38997890D01*
X53331764Y-38911413D01*
X52863518Y-39094555D01*
X52501000Y-39442946D01*
X52299401Y-39903547D01*
X52289416Y-39953764D01*
X39642645Y-39953764D01*
X40132413Y-38774274D01*
X40133584Y-37431616D01*
X39660323Y-36286236D01*
X52289416Y-36286236D01*
X52299401Y-36336453D01*
X52501000Y-36797054D01*
X52863518Y-37145445D01*
X53331764Y-37328587D01*
X53533000Y-37242110D01*
X53533000Y-36085000D01*
X53583000Y-36085000D01*
X53583000Y-37242110D01*
X53784236Y-37328587D01*
X54252482Y-37145445D01*
X54615000Y-36797054D01*
X54816599Y-36336453D01*
X54826584Y-36286236D01*
X54829416Y-36286236D01*
X54839401Y-36336453D01*
X55041000Y-36797054D01*
X55403518Y-37145445D01*
X55871764Y-37328587D01*
X56073000Y-37242110D01*
X56073000Y-36085000D01*
X54915914Y-36085000D01*
X54829416Y-36286236D01*
X54826584Y-36286236D01*
X54740086Y-36085000D01*
X53583000Y-36085000D01*
X53533000Y-36085000D01*
X52375914Y-36085000D01*
X52289416Y-36286236D01*
X39660323Y-36286236D01*
X39620854Y-36190714D01*
X39264527Y-35833764D01*
X52289416Y-35833764D01*
X52375914Y-36035000D01*
X53533000Y-36035000D01*
X53533000Y-34877890D01*
X53583000Y-34877890D01*
X53583000Y-36035000D01*
X54740086Y-36035000D01*
X54826584Y-35833764D01*
X54829416Y-35833764D01*
X54915914Y-36035000D01*
X56073000Y-36035000D01*
X56073000Y-34877890D01*
X56123000Y-34877890D01*
X56123000Y-36035000D01*
X56143000Y-36035000D01*
X56143000Y-36085000D01*
X56123000Y-36085000D01*
X56123000Y-37242110D01*
X56324236Y-37328587D01*
X56792482Y-37145445D01*
X57155000Y-36797054D01*
X57356599Y-36336453D01*
X57366584Y-36286236D01*
X57280087Y-36085002D01*
X57380107Y-36085002D01*
X57469417Y-36533992D01*
X57737912Y-36935822D01*
X58139742Y-37204317D01*
X58613734Y-37298600D01*
X58662266Y-37298600D01*
X59085339Y-37214445D01*
X59409061Y-37538168D01*
X59409061Y-39213287D01*
X59143258Y-39035683D01*
X58669266Y-38941400D01*
X58620734Y-38941400D01*
X58146742Y-39035683D01*
X57744912Y-39304178D01*
X57476417Y-39706008D01*
X57387107Y-40154998D01*
X57287087Y-40154998D01*
X57373584Y-39953764D01*
X57363599Y-39903547D01*
X57162000Y-39442946D01*
X56799482Y-39094555D01*
X56331236Y-38911413D01*
X56130000Y-38997890D01*
X56130000Y-40155000D01*
X56150000Y-40155000D01*
X56150000Y-40205000D01*
X56130000Y-40205000D01*
X56130000Y-41362110D01*
X56331236Y-41448587D01*
X56799482Y-41265445D01*
X57162000Y-40917054D01*
X57363599Y-40456453D01*
X57373584Y-40406236D01*
X57287087Y-40205002D01*
X57387107Y-40205002D01*
X57476417Y-40653992D01*
X57744912Y-41055822D01*
X58146742Y-41324317D01*
X58620734Y-41418600D01*
X58669266Y-41418600D01*
X59092339Y-41334445D01*
X65912219Y-48154325D01*
X66074430Y-48262712D01*
X66265772Y-48300772D01*
X107304390Y-48300772D01*
X107484770Y-48375672D01*
X107713519Y-48375872D01*
X107924932Y-48288518D01*
X108000919Y-48212664D01*
X108075014Y-48286888D01*
X108286275Y-48374611D01*
X108515024Y-48374811D01*
X108726437Y-48287457D01*
X108800315Y-48213708D01*
X108873367Y-48286888D01*
X109084628Y-48374611D01*
X109313377Y-48374811D01*
X109524790Y-48287457D01*
X109599962Y-48212416D01*
X109674304Y-48286888D01*
X109885565Y-48374611D01*
X110114314Y-48374811D01*
X110325727Y-48287457D01*
X110398959Y-48214353D01*
X110472657Y-48288180D01*
X110683918Y-48375903D01*
X110912667Y-48376103D01*
X111124080Y-48288749D01*
X111199898Y-48213063D01*
X111273594Y-48286888D01*
X111484855Y-48374611D01*
X111713604Y-48374811D01*
X111925017Y-48287457D01*
X112000189Y-48212416D01*
X112074531Y-48286888D01*
X112285792Y-48374611D01*
X112514541Y-48374811D01*
X112725954Y-48287457D01*
X112799186Y-48214353D01*
X112872884Y-48288180D01*
X113084145Y-48375903D01*
X113312894Y-48376103D01*
X113524307Y-48288749D01*
X113600125Y-48213063D01*
X113673821Y-48286888D01*
X113885082Y-48374611D01*
X114113831Y-48374811D01*
X114325244Y-48287457D01*
X114400416Y-48212416D01*
X114474758Y-48286888D01*
X114686019Y-48374611D01*
X114914768Y-48374811D01*
X115126181Y-48287457D01*
X115199413Y-48214353D01*
X115273111Y-48288180D01*
X115484372Y-48375903D01*
X115713121Y-48376103D01*
X115924534Y-48288749D01*
X116000352Y-48213063D01*
X116074048Y-48286888D01*
X116285309Y-48374611D01*
X116514058Y-48374811D01*
X116725471Y-48287457D01*
X116800643Y-48212416D01*
X116874985Y-48286888D01*
X117086246Y-48374611D01*
X117314995Y-48374811D01*
X117526408Y-48287457D01*
X117599640Y-48214353D01*
X117673338Y-48288180D01*
X117884599Y-48375903D01*
X118113348Y-48376103D01*
X118324761Y-48288749D01*
X118486652Y-48127140D01*
X118574375Y-47915879D01*
X118574575Y-47687130D01*
X118487221Y-47475717D01*
X118325612Y-47313826D01*
X118143988Y-47238410D01*
X117416578Y-46511000D01*
X119525000Y-46511000D01*
X119525000Y-48000000D01*
X119591605Y-48334848D01*
X119781282Y-48618718D01*
X120065152Y-48808395D01*
X120400000Y-48875000D01*
X120650000Y-48825272D01*
X120900000Y-48875000D01*
X121150000Y-48825272D01*
X121400000Y-48875000D01*
X121734848Y-48808395D01*
X122018718Y-48618718D01*
X122208395Y-48334848D01*
X122275000Y-48000000D01*
X122275000Y-47800000D01*
X122618750Y-47800000D01*
X122725000Y-47693750D01*
X122725000Y-47025000D01*
X122705000Y-47025000D01*
X122705000Y-46975000D01*
X122725000Y-46975000D01*
X122725000Y-46306250D01*
X122618750Y-46200000D01*
X122275000Y-46200000D01*
X122275000Y-46000000D01*
X122208395Y-45665152D01*
X122018718Y-45381282D01*
X121734848Y-45191605D01*
X121400000Y-45125000D01*
X121150000Y-45174728D01*
X120900000Y-45125000D01*
X120655500Y-45173634D01*
X120411000Y-45125000D01*
X120076152Y-45191605D01*
X119792282Y-45381282D01*
X119602605Y-45665152D01*
X119536000Y-46000000D01*
X119536000Y-46455699D01*
X119525000Y-46511000D01*
X117416578Y-46511000D01*
X112271931Y-41366353D01*
X112483258Y-41324317D01*
X112885088Y-41055822D01*
X113153583Y-40653992D01*
X113242893Y-40205002D01*
X113342913Y-40205002D01*
X113256416Y-40406236D01*
X113266401Y-40456453D01*
X113468000Y-40917054D01*
X113830518Y-41265445D01*
X114298764Y-41448587D01*
X114500000Y-41362110D01*
X114500000Y-40205000D01*
X114550000Y-40205000D01*
X114550000Y-41362110D01*
X114751236Y-41448587D01*
X115219482Y-41265445D01*
X115582000Y-40917054D01*
X115783599Y-40456453D01*
X115793584Y-40406236D01*
X115707086Y-40205000D01*
X114550000Y-40205000D01*
X114500000Y-40205000D01*
X114480000Y-40205000D01*
X114480000Y-40155000D01*
X114500000Y-40155000D01*
X114500000Y-38997890D01*
X114550000Y-38997890D01*
X114550000Y-40155000D01*
X115707086Y-40155000D01*
X115793584Y-39953764D01*
X115783599Y-39903547D01*
X115582000Y-39442946D01*
X115219482Y-39094555D01*
X114751236Y-38911413D01*
X114550000Y-38997890D01*
X114500000Y-38997890D01*
X114298764Y-38911413D01*
X113830518Y-39094555D01*
X113468000Y-39442946D01*
X113266401Y-39903547D01*
X113256416Y-39953764D01*
X113342913Y-40154998D01*
X113242893Y-40154998D01*
X113153583Y-39706008D01*
X112885088Y-39304178D01*
X112483258Y-39035683D01*
X112009266Y-38941400D01*
X111960734Y-38941400D01*
X111486742Y-39035683D01*
X111084912Y-39304178D01*
X110816417Y-39706008D01*
X110727107Y-40154998D01*
X110627087Y-40154998D01*
X110713584Y-39953764D01*
X110703599Y-39903547D01*
X110502000Y-39442946D01*
X110139482Y-39094555D01*
X109671236Y-38911413D01*
X109470000Y-38997890D01*
X109470000Y-40155000D01*
X109490000Y-40155000D01*
X109490000Y-40205000D01*
X109470000Y-40205000D01*
X109470000Y-40225000D01*
X109420000Y-40225000D01*
X109420000Y-40205000D01*
X108262914Y-40205000D01*
X108176416Y-40406236D01*
X108186401Y-40456453D01*
X108388000Y-40917054D01*
X108579013Y-41100623D01*
X107770987Y-41100623D01*
X107962000Y-40917054D01*
X108163599Y-40456453D01*
X108173584Y-40406236D01*
X108087086Y-40205000D01*
X106930000Y-40205000D01*
X106930000Y-40225000D01*
X106880000Y-40225000D01*
X106880000Y-40205000D01*
X106860000Y-40205000D01*
X106860000Y-40155000D01*
X106880000Y-40155000D01*
X106880000Y-38997890D01*
X106930000Y-38997890D01*
X106930000Y-40155000D01*
X108087086Y-40155000D01*
X108173584Y-39953764D01*
X108176416Y-39953764D01*
X108262914Y-40155000D01*
X109420000Y-40155000D01*
X109420000Y-38997890D01*
X109218764Y-38911413D01*
X108750518Y-39094555D01*
X108388000Y-39442946D01*
X108186401Y-39903547D01*
X108176416Y-39953764D01*
X108173584Y-39953764D01*
X108163599Y-39903547D01*
X107962000Y-39442946D01*
X107599482Y-39094555D01*
X107131236Y-38911413D01*
X106930000Y-38997890D01*
X106880000Y-38997890D01*
X106678764Y-38911413D01*
X106210518Y-39094555D01*
X105848000Y-39442946D01*
X105646401Y-39903547D01*
X105636416Y-39953764D01*
X105722913Y-40154998D01*
X105622893Y-40154998D01*
X105535659Y-39716447D01*
X105900154Y-39351953D01*
X106008541Y-39189741D01*
X106046601Y-38998399D01*
X106046601Y-38768384D01*
X127942416Y-38768384D01*
X128455146Y-40009286D01*
X129403720Y-40959517D01*
X130643726Y-41474413D01*
X131986384Y-41475584D01*
X133227286Y-40962854D01*
X134177517Y-40014280D01*
X134692413Y-38774274D01*
X134693584Y-37431616D01*
X134180854Y-36190714D01*
X133232280Y-35240483D01*
X131992274Y-34725587D01*
X130649616Y-34724416D01*
X129408714Y-35237146D01*
X128458483Y-36185720D01*
X127943587Y-37425726D01*
X127942416Y-38768384D01*
X106046601Y-38768384D01*
X106046601Y-36994643D01*
X106203518Y-37145445D01*
X106671764Y-37328587D01*
X106873000Y-37242110D01*
X106873000Y-36085000D01*
X106923000Y-36085000D01*
X106923000Y-37242110D01*
X107124236Y-37328587D01*
X107592482Y-37145445D01*
X107955000Y-36797054D01*
X108156599Y-36336453D01*
X108166584Y-36286236D01*
X108169416Y-36286236D01*
X108179401Y-36336453D01*
X108381000Y-36797054D01*
X108743518Y-37145445D01*
X109211764Y-37328587D01*
X109413000Y-37242110D01*
X109413000Y-36085000D01*
X108255914Y-36085000D01*
X108169416Y-36286236D01*
X108166584Y-36286236D01*
X108080086Y-36085000D01*
X106923000Y-36085000D01*
X106873000Y-36085000D01*
X106853000Y-36085000D01*
X106853000Y-36035000D01*
X106873000Y-36035000D01*
X106873000Y-36015000D01*
X106923000Y-36015000D01*
X106923000Y-36035000D01*
X108080086Y-36035000D01*
X108166584Y-35833764D01*
X108156599Y-35783547D01*
X107955000Y-35322946D01*
X107592482Y-34974555D01*
X107146191Y-34800000D01*
X109189809Y-34800000D01*
X108743518Y-34974555D01*
X108381000Y-35322946D01*
X108179401Y-35783547D01*
X108169416Y-35833764D01*
X108255914Y-36035000D01*
X109413000Y-36035000D01*
X109413000Y-36015000D01*
X109463000Y-36015000D01*
X109463000Y-36035000D01*
X109483000Y-36035000D01*
X109483000Y-36085000D01*
X109463000Y-36085000D01*
X109463000Y-37242110D01*
X109664236Y-37328587D01*
X110132482Y-37145445D01*
X110495000Y-36797054D01*
X110696599Y-36336453D01*
X110706584Y-36286236D01*
X110620087Y-36085002D01*
X110720107Y-36085002D01*
X110809417Y-36533992D01*
X111077912Y-36935822D01*
X111479742Y-37204317D01*
X111953734Y-37298600D01*
X112002266Y-37298600D01*
X112476258Y-37204317D01*
X112878088Y-36935822D01*
X113146583Y-36533992D01*
X113235893Y-36085002D01*
X113335913Y-36085002D01*
X113249416Y-36286236D01*
X113259401Y-36336453D01*
X113461000Y-36797054D01*
X113823518Y-37145445D01*
X114291764Y-37328587D01*
X114493000Y-37242110D01*
X114493000Y-36085000D01*
X114473000Y-36085000D01*
X114473000Y-36035000D01*
X114493000Y-36035000D01*
X114493000Y-36015000D01*
X114543000Y-36015000D01*
X114543000Y-36035000D01*
X114563000Y-36035000D01*
X114563000Y-36085000D01*
X114543000Y-36085000D01*
X114543000Y-37242110D01*
X114744236Y-37328587D01*
X115212482Y-37145445D01*
X115575000Y-36797054D01*
X115776599Y-36336453D01*
X115786584Y-36286236D01*
X115700087Y-36085002D01*
X115781962Y-36085002D01*
X115841605Y-36384848D01*
X116031282Y-36668718D01*
X116315152Y-36858395D01*
X116650000Y-36925000D01*
X124669766Y-36925000D01*
X125004614Y-36858395D01*
X125288484Y-36668718D01*
X125478161Y-36384848D01*
X125544766Y-36050000D01*
X125495930Y-35804482D01*
X125546549Y-35550000D01*
X125479944Y-35215152D01*
X125290267Y-34931282D01*
X125006397Y-34741605D01*
X124671549Y-34675000D01*
X123917506Y-34675000D01*
X123949603Y-34653553D01*
X127551685Y-31051472D01*
X127660072Y-30889260D01*
X127677340Y-30802445D01*
X127698132Y-30697918D01*
X127698132Y-29294720D01*
X127773032Y-29114340D01*
X127773232Y-28885591D01*
X127685878Y-28674178D01*
X127524269Y-28512287D01*
X127313008Y-28424564D01*
X127084259Y-28424364D01*
X126872846Y-28511718D01*
X126796840Y-28587592D01*
X126723903Y-28514528D01*
X126512642Y-28426805D01*
X126283893Y-28426605D01*
X126072480Y-28513959D01*
X125999235Y-28587077D01*
X125926812Y-28514528D01*
X125715551Y-28426805D01*
X125486802Y-28426605D01*
X125275389Y-28513959D01*
X125198610Y-28590604D01*
X125122667Y-28514528D01*
X124911406Y-28426805D01*
X124682657Y-28426605D01*
X124471244Y-28513959D01*
X124397999Y-28587077D01*
X124325576Y-28514528D01*
X124114315Y-28426805D01*
X123885566Y-28426605D01*
X123674153Y-28513959D01*
X123600908Y-28587077D01*
X123528485Y-28514528D01*
X123317224Y-28426805D01*
X123088475Y-28426605D01*
X122877062Y-28513959D01*
X122800284Y-28590603D01*
X122724341Y-28514528D01*
X122513080Y-28426805D01*
X122284331Y-28426605D01*
X122072918Y-28513959D01*
X121999673Y-28587077D01*
X121927250Y-28514528D01*
X121715989Y-28426805D01*
X121487240Y-28426605D01*
X121275827Y-28513959D01*
X121199048Y-28590604D01*
X121123105Y-28514528D01*
X120911844Y-28426805D01*
X120683095Y-28426605D01*
X120471682Y-28513959D01*
X120398437Y-28587077D01*
X120326014Y-28514528D01*
X120114753Y-28426805D01*
X119886004Y-28426605D01*
X119674591Y-28513959D01*
X119512700Y-28675568D01*
X119444170Y-28840608D01*
X86458262Y-28840608D01*
X86266920Y-28878668D01*
X86104709Y-28987055D01*
X79895448Y-35196316D01*
X79880823Y-35218203D01*
X79858088Y-35184178D01*
X79456258Y-34915683D01*
X78982266Y-34821400D01*
X78933734Y-34821400D01*
X78459742Y-34915683D01*
X78057912Y-35184178D01*
X77789417Y-35586008D01*
X77695134Y-36060000D01*
X77789417Y-36533992D01*
X78057912Y-36935822D01*
X78458000Y-37203153D01*
X78458000Y-37748777D01*
X78477275Y-37845679D01*
X78496060Y-37940119D01*
X78604447Y-38102330D01*
X79687902Y-39185786D01*
X79463258Y-39035683D01*
X78989266Y-38941400D01*
X78940734Y-38941400D01*
X78466742Y-39035683D01*
X78201234Y-39213090D01*
X78201234Y-37343234D01*
X78163174Y-37151892D01*
X78054787Y-36989681D01*
X77588659Y-36523553D01*
X77680866Y-36060000D01*
X77586583Y-35586008D01*
X77318088Y-35184178D01*
X76916258Y-34915683D01*
X76442266Y-34821400D01*
X76393734Y-34821400D01*
X75919742Y-34915683D01*
X75517912Y-35184178D01*
X75249417Y-35586008D01*
X75155134Y-36060000D01*
X75249417Y-36533992D01*
X75517912Y-36935822D01*
X75919742Y-37204317D01*
X76393734Y-37298600D01*
X76442266Y-37298600D01*
X76865339Y-37214445D01*
X77201234Y-37550340D01*
X77201234Y-39221421D01*
X76923258Y-39035683D01*
X76449266Y-38941400D01*
X76400734Y-38941400D01*
X75926742Y-39035683D01*
X75524912Y-39304178D01*
X75256417Y-39706008D01*
X75162134Y-40180000D01*
X75256417Y-40653992D01*
X75524912Y-41055822D01*
X75926742Y-41324317D01*
X76400734Y-41418600D01*
X76449266Y-41418600D01*
X76872339Y-41334445D01*
X78537369Y-42999476D01*
X75652453Y-42999476D01*
X74044647Y-41391671D01*
X74383258Y-41324317D01*
X74785088Y-41055822D01*
X75053583Y-40653992D01*
X75147866Y-40180000D01*
X75053583Y-39706008D01*
X74853000Y-39405815D01*
X74853000Y-36823709D01*
X75046583Y-36533992D01*
X75140866Y-36060000D01*
X75046583Y-35586008D01*
X74778088Y-35184178D01*
X74376258Y-34915683D01*
X73902266Y-34821400D01*
X73853734Y-34821400D01*
X73379742Y-34915683D01*
X72977912Y-35184178D01*
X72709417Y-35586008D01*
X72615134Y-36060000D01*
X72709417Y-36533992D01*
X72903000Y-36823709D01*
X72903000Y-36917894D01*
X72508659Y-36523553D01*
X72600866Y-36060000D01*
X72506583Y-35586008D01*
X72238088Y-35184178D01*
X71836258Y-34915683D01*
X71362266Y-34821400D01*
X71313734Y-34821400D01*
X70839742Y-34915683D01*
X70437912Y-35184178D01*
X70169417Y-35586008D01*
X70075134Y-36060000D01*
X70169417Y-36533992D01*
X70437912Y-36935822D01*
X70839742Y-37204317D01*
X71313734Y-37298600D01*
X71362266Y-37298600D01*
X71785339Y-37214445D01*
X72129648Y-37558754D01*
X72129648Y-39227043D01*
X71843258Y-39035683D01*
X71369266Y-38941400D01*
X71320734Y-38941400D01*
X70846742Y-39035683D01*
X70583679Y-39211457D01*
X70583679Y-37345679D01*
X70545619Y-37154337D01*
X70502205Y-37089365D01*
X70437233Y-36992126D01*
X69968659Y-36523553D01*
X70060866Y-36060000D01*
X69966583Y-35586008D01*
X69698088Y-35184178D01*
X69296258Y-34915683D01*
X68822266Y-34821400D01*
X68773734Y-34821400D01*
X68299742Y-34915683D01*
X67897912Y-35184178D01*
X67629417Y-35586008D01*
X67540107Y-36034998D01*
X67440087Y-36034998D01*
X67526584Y-35833764D01*
X67516599Y-35783547D01*
X67315000Y-35322946D01*
X66952482Y-34974555D01*
X66484236Y-34791413D01*
X66283000Y-34877890D01*
X66283000Y-36035000D01*
X66303000Y-36035000D01*
X66303000Y-36085000D01*
X66283000Y-36085000D01*
X66283000Y-37242110D01*
X66484236Y-37328587D01*
X66952482Y-37145445D01*
X67315000Y-36797054D01*
X67516599Y-36336453D01*
X67526584Y-36286236D01*
X67440087Y-36085002D01*
X67540107Y-36085002D01*
X67629417Y-36533992D01*
X67897912Y-36935822D01*
X68299742Y-37204317D01*
X68773734Y-37298600D01*
X68822266Y-37298600D01*
X69245339Y-37214445D01*
X69583679Y-37552786D01*
X69583679Y-39223055D01*
X69303258Y-39035683D01*
X68829266Y-38941400D01*
X68780734Y-38941400D01*
X68306742Y-39035683D01*
X67904912Y-39304178D01*
X67636417Y-39706008D01*
X67547107Y-40154998D01*
X67447087Y-40154998D01*
X67533584Y-39953764D01*
X67523599Y-39903547D01*
X67322000Y-39442946D01*
X66959482Y-39094555D01*
X66491236Y-38911413D01*
X66290000Y-38997890D01*
X66290000Y-40155000D01*
X66310000Y-40155000D01*
X66310000Y-40205000D01*
X66290000Y-40205000D01*
X66290000Y-40225000D01*
X66240000Y-40225000D01*
X66240000Y-40205000D01*
X66220000Y-40205000D01*
X66220000Y-40155000D01*
X66240000Y-40155000D01*
X66240000Y-38997890D01*
X66038764Y-38911413D01*
X65570518Y-39094555D01*
X65518967Y-39144097D01*
X65518967Y-37360967D01*
X65480907Y-37169625D01*
X65474680Y-37160306D01*
X65372520Y-37007413D01*
X64888659Y-36523553D01*
X64975893Y-36085002D01*
X65075913Y-36085002D01*
X64989416Y-36286236D01*
X64999401Y-36336453D01*
X65201000Y-36797054D01*
X65563518Y-37145445D01*
X66031764Y-37328587D01*
X66233000Y-37242110D01*
X66233000Y-36085000D01*
X66213000Y-36085000D01*
X66213000Y-36035000D01*
X66233000Y-36035000D01*
X66233000Y-34877890D01*
X66031764Y-34791413D01*
X65563518Y-34974555D01*
X65201000Y-35322946D01*
X64999401Y-35783547D01*
X64989416Y-35833764D01*
X65075913Y-36034998D01*
X64975893Y-36034998D01*
X64886583Y-35586008D01*
X64618088Y-35184178D01*
X64216258Y-34915683D01*
X63742266Y-34821400D01*
X63693734Y-34821400D01*
X63219742Y-34915683D01*
X62817912Y-35184178D01*
X62549417Y-35586008D01*
X62455134Y-36060000D01*
X62549417Y-36533992D01*
X62817912Y-36935822D01*
X63219742Y-37204317D01*
X63693734Y-37298600D01*
X63742266Y-37298600D01*
X64165339Y-37214445D01*
X64518967Y-37568074D01*
X64518967Y-39233270D01*
X64223258Y-39035683D01*
X63749266Y-38941400D01*
X63700734Y-38941400D01*
X63226742Y-39035683D01*
X62971887Y-39205972D01*
X62971887Y-37353887D01*
X62933827Y-37162545D01*
X62859692Y-37051595D01*
X62825441Y-37000334D01*
X62348659Y-36523553D01*
X62440866Y-36060000D01*
X62346583Y-35586008D01*
X62078088Y-35184178D01*
X61676258Y-34915683D01*
X61202266Y-34821400D01*
X61153734Y-34821400D01*
X60679742Y-34915683D01*
X60277912Y-35184178D01*
X60009417Y-35586008D01*
X59915134Y-36060000D01*
X60009417Y-36533992D01*
X60277912Y-36935822D01*
X60679742Y-37204317D01*
X61153734Y-37298600D01*
X61202266Y-37298600D01*
X61625339Y-37214445D01*
X61971887Y-37560994D01*
X61971887Y-39233217D01*
X61676258Y-39035683D01*
X61202266Y-38941400D01*
X61153734Y-38941400D01*
X60679742Y-39035683D01*
X60409061Y-39216547D01*
X60409061Y-37331061D01*
X60371001Y-37139719D01*
X60282597Y-37007414D01*
X60262615Y-36977508D01*
X59808659Y-36523553D01*
X59900866Y-36060000D01*
X59806583Y-35586008D01*
X59538088Y-35184178D01*
X59136258Y-34915683D01*
X58662266Y-34821400D01*
X58613734Y-34821400D01*
X58139742Y-34915683D01*
X57737912Y-35184178D01*
X57469417Y-35586008D01*
X57380107Y-36034998D01*
X57280087Y-36034998D01*
X57366584Y-35833764D01*
X57356599Y-35783547D01*
X57155000Y-35322946D01*
X56792482Y-34974555D01*
X56324236Y-34791413D01*
X56123000Y-34877890D01*
X56073000Y-34877890D01*
X55871764Y-34791413D01*
X55403518Y-34974555D01*
X55041000Y-35322946D01*
X54839401Y-35783547D01*
X54829416Y-35833764D01*
X54826584Y-35833764D01*
X54816599Y-35783547D01*
X54615000Y-35322946D01*
X54252482Y-34974555D01*
X53784236Y-34791413D01*
X53583000Y-34877890D01*
X53533000Y-34877890D01*
X53331764Y-34791413D01*
X52863518Y-34974555D01*
X52501000Y-35322946D01*
X52299401Y-35783547D01*
X52289416Y-35833764D01*
X39264527Y-35833764D01*
X38672280Y-35240483D01*
X37432274Y-34725587D01*
X36089616Y-34724416D01*
X34848714Y-35237146D01*
X33898483Y-36185720D01*
X33383587Y-37425726D01*
X33382416Y-38768384D01*
X31311000Y-38768384D01*
X31311000Y-27984320D01*
X31381563Y-27629574D01*
X31557406Y-27366406D01*
X31820574Y-27190563D01*
X32175319Y-27120000D01*
X135845680Y-27120000D01*
X136200426Y-27190563D01*
M02*
