M48
;DRILL file {KiCad 4.0.6} date Mon Sep  4 14:48:17 2017
;FORMAT={2:4/ absolute / inch / suppress trailing zeros}
FMAT,2
INCH,LZ
T1C0.012
T2C0.040
T3C0.236
%
G90
G05
M72
T1
X013Y-015
X0131Y-0144
X0131Y-01555
X0134Y-01395
X0134Y-01605
X01385Y-01365
X01385Y-01635
X01445Y-0165
X0145Y-0135
X01505Y-0164
X0151Y-01365
X01555Y-01395
X01555Y-01605
X01585Y-0144
X01585Y-0156
X016Y-015
X042362Y-018819
X042678Y-018819
X042992Y-018819
X043307Y-018819
X043622Y-018819
X043937Y-018819
X044252Y-018819
X044567Y-018819
X044882Y-018819
X044882Y-016535
X045079Y-016535
X045197Y-018819
X045276Y-016535
X045512Y-018819
X045827Y-018819
X045925Y-013996
X045925Y-014193
X046122Y-013996
X046122Y-014193
X046142Y-018819
X046456Y-018819
X047244Y-011418
X047402Y-018504
X047402Y-018701
X047402Y-018898
X047406Y-01811
X047406Y-018307
X047558Y-011418
X047598Y-013996
X047598Y-01811
X047598Y-018898
X047603Y-014193
X047795Y-013996
X047795Y-014193
X047795Y-01811
X047795Y-018898
X047874Y-011418
X047913Y-016969
X048188Y-011418
X048505Y-011418
X048819Y-011418
X048976Y-018031
X048976Y-019016
X049083Y-014193
X049084Y-013995
X049132Y-011418
X049173Y-018031
X049173Y-019016
X049214Y-012324
X04937Y-018031
X04937Y-018228
X04937Y-018425
X04937Y-018622
X04937Y-018819
X04937Y-019016
X049449Y-011418
X049528Y-012324
X049763Y-011418
X050078Y-011417
X05065Y-01395
X050748Y-018012
X050752Y-016846
X050944Y-016673
X050945Y-017835
X0511Y-01365
X051146Y-016855
X051161Y-018012
X051339Y-016673
X051358Y-017835
X051535Y-01685
X051575Y-018031
X0517Y-0135
X051732Y-016693
X051732Y-017835
X051933Y-016846
X051949Y-018012
X052126Y-016673
X052146Y-017835
X0523Y-01365
X0523Y-0164
X0528Y-014
X0528Y-01605
X05305Y-0144
X0531Y-0156
X0532Y-015
T2
X021086Y-014197
X021086Y-015819
X022086Y-014197
X022089Y-015819
X023086Y-014197
X023089Y-015819
X024086Y-014197
X024086Y-015819
X025086Y-014197
X025089Y-015819
X026086Y-014197
X026089Y-015819
X027086Y-014197
X027089Y-015819
X028086Y-014197
X028089Y-015819
X029086Y-014197
X029089Y-015819
X030086Y-014197
X030089Y-015819
X031086Y-014197
X031089Y-015819
X032086Y-014197
X032089Y-015819
X033086Y-014197
X033089Y-015819
X035086Y-014197
X035089Y-015819
X036086Y-014197
X036089Y-015819
X037086Y-014197
X037089Y-015819
X038086Y-014197
X038089Y-015819
X039086Y-014197
X039089Y-015819
X040086Y-014197
X040089Y-015819
X041086Y-014197
X041089Y-015819
X042086Y-014197
X042089Y-015819
X043086Y-014197
X043089Y-015819
X044086Y-014197
X044089Y-015819
X045086Y-014197
X045089Y-015819
T3
X014472Y-015
X0517Y-015
T0
M30
