G04 #@! TF.FileFunction,Legend,Bot*
%FSLAX46Y46*%
G04 Gerber Fmt 4.6, Leading zero omitted, Abs format (unit mm)*
G04 Created by KiCad (PCBNEW 4.0.6) date Mon Aug 28 23:47:59 2017*
%MOMM*%
%LPD*%
G01*
G04 APERTURE LIST*
%ADD10C,0.100000*%
%ADD11C,0.150000*%
%ADD12C,0.127000*%
%ADD13C,0.120000*%
G04 APERTURE END LIST*
D10*
X48178500Y-69555667D02*
X48578500Y-69555667D01*
X48378500Y-69555667D02*
X48378500Y-68855667D01*
X48445166Y-68955667D01*
X48511833Y-69022333D01*
X48578500Y-69055667D01*
X45567739Y-43783381D02*
X45567739Y-42783381D01*
X44996310Y-43783381D01*
X44996310Y-42783381D01*
X44091548Y-42783381D02*
X44282025Y-42783381D01*
X44377263Y-42831000D01*
X44424882Y-42878619D01*
X44520120Y-43021476D01*
X44567739Y-43211952D01*
X44567739Y-43592905D01*
X44520120Y-43688143D01*
X44472501Y-43735762D01*
X44377263Y-43783381D01*
X44186786Y-43783381D01*
X44091548Y-43735762D01*
X44043929Y-43688143D01*
X43996310Y-43592905D01*
X43996310Y-43354810D01*
X44043929Y-43259571D01*
X44091548Y-43211952D01*
X44186786Y-43164333D01*
X44377263Y-43164333D01*
X44472501Y-43211952D01*
X44520120Y-43259571D01*
X44567739Y-43354810D01*
X43139167Y-43116714D02*
X43139167Y-43783381D01*
X43377263Y-42735762D02*
X43615358Y-43450048D01*
X42996310Y-43450048D01*
X41282024Y-43783381D02*
X41615358Y-43307190D01*
X41853453Y-43783381D02*
X41853453Y-42783381D01*
X41472500Y-42783381D01*
X41377262Y-42831000D01*
X41329643Y-42878619D01*
X41282024Y-42973857D01*
X41282024Y-43116714D01*
X41329643Y-43211952D01*
X41377262Y-43259571D01*
X41472500Y-43307190D01*
X41853453Y-43307190D01*
X40901072Y-43497667D02*
X40424881Y-43497667D01*
X40996310Y-43783381D02*
X40662977Y-42783381D01*
X40329643Y-43783381D01*
X39996310Y-43783381D02*
X39996310Y-42783381D01*
X39662976Y-43497667D01*
X39329643Y-42783381D01*
X39329643Y-43783381D01*
X38091548Y-43783381D02*
X38091548Y-42783381D01*
X38091548Y-43164333D02*
X37996310Y-43116714D01*
X37805833Y-43116714D01*
X37710595Y-43164333D01*
X37662976Y-43211952D01*
X37615357Y-43307190D01*
X37615357Y-43592905D01*
X37662976Y-43688143D01*
X37710595Y-43735762D01*
X37805833Y-43783381D01*
X37996310Y-43783381D01*
X38091548Y-43735762D01*
X37043929Y-43783381D02*
X37139167Y-43735762D01*
X37186786Y-43688143D01*
X37234405Y-43592905D01*
X37234405Y-43307190D01*
X37186786Y-43211952D01*
X37139167Y-43164333D01*
X37043929Y-43116714D01*
X36901071Y-43116714D01*
X36805833Y-43164333D01*
X36758214Y-43211952D01*
X36710595Y-43307190D01*
X36710595Y-43592905D01*
X36758214Y-43688143D01*
X36805833Y-43735762D01*
X36901071Y-43783381D01*
X37043929Y-43783381D01*
X35853452Y-43783381D02*
X35853452Y-43259571D01*
X35901071Y-43164333D01*
X35996309Y-43116714D01*
X36186786Y-43116714D01*
X36282024Y-43164333D01*
X35853452Y-43735762D02*
X35948690Y-43783381D01*
X36186786Y-43783381D01*
X36282024Y-43735762D01*
X36329643Y-43640524D01*
X36329643Y-43545286D01*
X36282024Y-43450048D01*
X36186786Y-43402429D01*
X35948690Y-43402429D01*
X35853452Y-43354810D01*
X35377262Y-43783381D02*
X35377262Y-43116714D01*
X35377262Y-43307190D02*
X35329643Y-43211952D01*
X35282024Y-43164333D01*
X35186786Y-43116714D01*
X35091547Y-43116714D01*
X34329642Y-43783381D02*
X34329642Y-42783381D01*
X34329642Y-43735762D02*
X34424880Y-43783381D01*
X34615357Y-43783381D01*
X34710595Y-43735762D01*
X34758214Y-43688143D01*
X34805833Y-43592905D01*
X34805833Y-43307190D01*
X34758214Y-43211952D01*
X34710595Y-43164333D01*
X34615357Y-43116714D01*
X34424880Y-43116714D01*
X34329642Y-43164333D01*
X33186785Y-43116714D02*
X32948690Y-43783381D01*
X32710594Y-43116714D01*
X32329642Y-43688143D02*
X32282023Y-43735762D01*
X32329642Y-43783381D01*
X32377261Y-43735762D01*
X32329642Y-43688143D01*
X32329642Y-43783381D01*
X31424880Y-43116714D02*
X31424880Y-43783381D01*
X31662976Y-42735762D02*
X31901071Y-43450048D01*
X31282023Y-43450048D01*
X28200334Y-69531667D02*
X28600334Y-69531667D01*
X28400334Y-69531667D02*
X28400334Y-68831667D01*
X28467000Y-68931667D01*
X28533667Y-68998333D01*
X28600334Y-69031667D01*
X27567000Y-68831667D02*
X27900333Y-68831667D01*
X27933667Y-69165000D01*
X27900333Y-69131667D01*
X27833667Y-69098333D01*
X27667000Y-69098333D01*
X27600333Y-69131667D01*
X27567000Y-69165000D01*
X27533667Y-69231667D01*
X27533667Y-69398333D01*
X27567000Y-69465000D01*
X27600333Y-69498333D01*
X27667000Y-69531667D01*
X27833667Y-69531667D01*
X27900333Y-69498333D01*
X27933667Y-69465000D01*
X28633667Y-70228667D02*
X28200334Y-70228667D01*
X28433667Y-70495333D01*
X28333667Y-70495333D01*
X28267000Y-70528667D01*
X28233667Y-70562000D01*
X28200334Y-70628667D01*
X28200334Y-70795333D01*
X28233667Y-70862000D01*
X28267000Y-70895333D01*
X28333667Y-70928667D01*
X28533667Y-70928667D01*
X28600334Y-70895333D01*
X28633667Y-70862000D01*
X27767000Y-70228667D02*
X27700333Y-70228667D01*
X27633667Y-70262000D01*
X27600333Y-70295333D01*
X27567000Y-70362000D01*
X27533667Y-70495333D01*
X27533667Y-70662000D01*
X27567000Y-70795333D01*
X27600333Y-70862000D01*
X27633667Y-70895333D01*
X27700333Y-70928667D01*
X27767000Y-70928667D01*
X27833667Y-70895333D01*
X27867000Y-70862000D01*
X27900333Y-70795333D01*
X27933667Y-70662000D01*
X27933667Y-70495333D01*
X27900333Y-70362000D01*
X27867000Y-70295333D01*
X27833667Y-70262000D01*
X27767000Y-70228667D01*
X53783881Y-29234952D02*
X52783881Y-29234952D01*
X52783881Y-29473047D01*
X52831500Y-29615905D01*
X52926738Y-29711143D01*
X53021976Y-29758762D01*
X53212452Y-29806381D01*
X53355310Y-29806381D01*
X53545786Y-29758762D01*
X53641024Y-29711143D01*
X53736262Y-29615905D01*
X53783881Y-29473047D01*
X53783881Y-29234952D01*
X53736262Y-30615905D02*
X53783881Y-30520667D01*
X53783881Y-30330190D01*
X53736262Y-30234952D01*
X53641024Y-30187333D01*
X53260071Y-30187333D01*
X53164833Y-30234952D01*
X53117214Y-30330190D01*
X53117214Y-30520667D01*
X53164833Y-30615905D01*
X53260071Y-30663524D01*
X53355310Y-30663524D01*
X53450548Y-30187333D01*
X53736262Y-31044476D02*
X53783881Y-31139714D01*
X53783881Y-31330190D01*
X53736262Y-31425429D01*
X53641024Y-31473048D01*
X53593405Y-31473048D01*
X53498167Y-31425429D01*
X53450548Y-31330190D01*
X53450548Y-31187333D01*
X53402929Y-31092095D01*
X53307690Y-31044476D01*
X53260071Y-31044476D01*
X53164833Y-31092095D01*
X53117214Y-31187333D01*
X53117214Y-31330190D01*
X53164833Y-31425429D01*
X53783881Y-31901619D02*
X53117214Y-31901619D01*
X52783881Y-31901619D02*
X52831500Y-31854000D01*
X52879119Y-31901619D01*
X52831500Y-31949238D01*
X52783881Y-31901619D01*
X52879119Y-31901619D01*
X53117214Y-32806381D02*
X53926738Y-32806381D01*
X54021976Y-32758762D01*
X54069595Y-32711143D01*
X54117214Y-32615904D01*
X54117214Y-32473047D01*
X54069595Y-32377809D01*
X53736262Y-32806381D02*
X53783881Y-32711143D01*
X53783881Y-32520666D01*
X53736262Y-32425428D01*
X53688643Y-32377809D01*
X53593405Y-32330190D01*
X53307690Y-32330190D01*
X53212452Y-32377809D01*
X53164833Y-32425428D01*
X53117214Y-32520666D01*
X53117214Y-32711143D01*
X53164833Y-32806381D01*
X53117214Y-33282571D02*
X53783881Y-33282571D01*
X53212452Y-33282571D02*
X53164833Y-33330190D01*
X53117214Y-33425428D01*
X53117214Y-33568286D01*
X53164833Y-33663524D01*
X53260071Y-33711143D01*
X53783881Y-33711143D01*
X53736262Y-34568286D02*
X53783881Y-34473048D01*
X53783881Y-34282571D01*
X53736262Y-34187333D01*
X53641024Y-34139714D01*
X53260071Y-34139714D01*
X53164833Y-34187333D01*
X53117214Y-34282571D01*
X53117214Y-34473048D01*
X53164833Y-34568286D01*
X53260071Y-34615905D01*
X53355310Y-34615905D01*
X53450548Y-34139714D01*
X53783881Y-35473048D02*
X52783881Y-35473048D01*
X53736262Y-35473048D02*
X53783881Y-35377810D01*
X53783881Y-35187333D01*
X53736262Y-35092095D01*
X53688643Y-35044476D01*
X53593405Y-34996857D01*
X53307690Y-34996857D01*
X53212452Y-35044476D01*
X53164833Y-35092095D01*
X53117214Y-35187333D01*
X53117214Y-35377810D01*
X53164833Y-35473048D01*
X53783881Y-36711143D02*
X52783881Y-36711143D01*
X53164833Y-36711143D02*
X53117214Y-36806381D01*
X53117214Y-36996858D01*
X53164833Y-37092096D01*
X53212452Y-37139715D01*
X53307690Y-37187334D01*
X53593405Y-37187334D01*
X53688643Y-37139715D01*
X53736262Y-37092096D01*
X53783881Y-36996858D01*
X53783881Y-36806381D01*
X53736262Y-36711143D01*
X53117214Y-37520667D02*
X53783881Y-37758762D01*
X53117214Y-37996858D02*
X53783881Y-37758762D01*
X54021976Y-37663524D01*
X54069595Y-37615905D01*
X54117214Y-37520667D01*
X53783881Y-39568287D02*
X52783881Y-39568287D01*
X53736262Y-39568287D02*
X53783881Y-39473049D01*
X53783881Y-39282572D01*
X53736262Y-39187334D01*
X53688643Y-39139715D01*
X53593405Y-39092096D01*
X53307690Y-39092096D01*
X53212452Y-39139715D01*
X53164833Y-39187334D01*
X53117214Y-39282572D01*
X53117214Y-39473049D01*
X53164833Y-39568287D01*
X53783881Y-40044477D02*
X53117214Y-40044477D01*
X53212452Y-40044477D02*
X53164833Y-40092096D01*
X53117214Y-40187334D01*
X53117214Y-40330192D01*
X53164833Y-40425430D01*
X53260071Y-40473049D01*
X53783881Y-40473049D01*
X53260071Y-40473049D02*
X53164833Y-40520668D01*
X53117214Y-40615906D01*
X53117214Y-40758763D01*
X53164833Y-40854001D01*
X53260071Y-40901620D01*
X53783881Y-40901620D01*
X53783881Y-41377810D02*
X52783881Y-41377810D01*
X53402929Y-41473048D02*
X53783881Y-41758763D01*
X53117214Y-41758763D02*
X53498167Y-41377810D01*
X53117214Y-42044477D02*
X53117214Y-42425429D01*
X53783881Y-42187334D02*
X52926738Y-42187334D01*
X52831500Y-42234953D01*
X52783881Y-42330191D01*
X52783881Y-42425429D01*
X53783881Y-43187335D02*
X53260071Y-43187335D01*
X53164833Y-43139716D01*
X53117214Y-43044478D01*
X53117214Y-42854001D01*
X53164833Y-42758763D01*
X53736262Y-43187335D02*
X53783881Y-43092097D01*
X53783881Y-42854001D01*
X53736262Y-42758763D01*
X53641024Y-42711144D01*
X53545786Y-42711144D01*
X53450548Y-42758763D01*
X53402929Y-42854001D01*
X53402929Y-43092097D01*
X53355310Y-43187335D01*
X53736262Y-43615906D02*
X53783881Y-43711144D01*
X53783881Y-43901620D01*
X53736262Y-43996859D01*
X53641024Y-44044478D01*
X53593405Y-44044478D01*
X53498167Y-43996859D01*
X53450548Y-43901620D01*
X53450548Y-43758763D01*
X53402929Y-43663525D01*
X53307690Y-43615906D01*
X53260071Y-43615906D01*
X53164833Y-43663525D01*
X53117214Y-43758763D01*
X53117214Y-43901620D01*
X53164833Y-43996859D01*
X53783881Y-44473049D02*
X53117214Y-44473049D01*
X52783881Y-44473049D02*
X52831500Y-44425430D01*
X52879119Y-44473049D01*
X52831500Y-44520668D01*
X52783881Y-44473049D01*
X52879119Y-44473049D01*
D11*
X28203195Y-49453127D02*
G75*
G03X28203195Y-49453127I-300000J0D01*
G01*
D12*
X27034500Y-59311000D02*
X27034500Y-48511000D01*
X27034500Y-48511000D02*
X51834500Y-48511000D01*
X51834500Y-48511000D02*
X51834500Y-59311000D01*
X51834500Y-59311000D02*
X27034500Y-59311000D01*
D11*
X63373000Y-69469000D02*
G75*
G02X58801000Y-69469000I-2286000J0D01*
G01*
X58801000Y-63881000D02*
G75*
G02X63373000Y-63881000I2286000J0D01*
G01*
X63373000Y-63881000D02*
X63373000Y-69469000D01*
X58801000Y-63881000D02*
X58801000Y-69469000D01*
X34588722Y-63791848D02*
X34588722Y-62991848D01*
X30788722Y-63791848D02*
X30788722Y-62991848D01*
X40438722Y-63791848D02*
X40438722Y-62991848D01*
X36638722Y-63791848D02*
X36638722Y-62991848D01*
X47588722Y-63791848D02*
X47588722Y-62991848D01*
X43788722Y-63791848D02*
X43788722Y-62991848D01*
D13*
X41997500Y-27364000D02*
X41297500Y-27364000D01*
X41297500Y-28564000D02*
X41997500Y-28564000D01*
X65370000Y-68803000D02*
X65370000Y-68103000D01*
X64170000Y-68103000D02*
X64170000Y-68803000D01*
X64170000Y-64547000D02*
X64170000Y-65247000D01*
X65370000Y-65247000D02*
X65370000Y-64547000D01*
X28785500Y-28441000D02*
X28785500Y-27741000D01*
X27585500Y-27741000D02*
X27585500Y-28441000D01*
X28785500Y-46094000D02*
X28785500Y-45394000D01*
X27585500Y-45394000D02*
X27585500Y-46094000D01*
X48159500Y-63174000D02*
X48159500Y-63874000D01*
X49359500Y-63874000D02*
X49359500Y-63174000D01*
X35897500Y-66642600D02*
X35897500Y-65942600D01*
X34697500Y-65942600D02*
X34697500Y-66642600D01*
X29683000Y-66644000D02*
X29683000Y-65944000D01*
X28483000Y-65944000D02*
X28483000Y-66644000D01*
X43215000Y-73397000D02*
X44415000Y-73397000D01*
X44415000Y-71637000D02*
X43215000Y-71637000D01*
X41919000Y-65821000D02*
X41919000Y-67021000D01*
X43679000Y-67021000D02*
X43679000Y-65821000D01*
X40097000Y-66176000D02*
X38897000Y-66176000D01*
X38897000Y-67936000D02*
X40097000Y-67936000D01*
X40294000Y-73397000D02*
X41494000Y-73397000D01*
X41494000Y-71637000D02*
X40294000Y-71637000D01*
D11*
X53467000Y-70231000D02*
G75*
G02X54229000Y-70231000I381000J0D01*
G01*
X55753000Y-65659000D02*
X51943000Y-65659000D01*
X54229000Y-70231000D02*
X55753000Y-70231000D01*
X55753000Y-70231000D02*
X55753000Y-65659000D01*
X51943000Y-65659000D02*
X51943000Y-70231000D01*
X51943000Y-70231000D02*
X53467000Y-70231000D01*
X28203195Y-31927127D02*
G75*
G03X28203195Y-31927127I-300000J0D01*
G01*
D12*
X27034500Y-41785000D02*
X27034500Y-30985000D01*
X27034500Y-30985000D02*
X51834500Y-30985000D01*
X51834500Y-30985000D02*
X51834500Y-41785000D01*
X51834500Y-41785000D02*
X27034500Y-41785000D01*
D10*
X25359881Y-48776095D02*
X26169405Y-48776095D01*
X26264643Y-48823714D01*
X26312262Y-48871333D01*
X26359881Y-48966571D01*
X26359881Y-49157048D01*
X26312262Y-49252286D01*
X26264643Y-49299905D01*
X26169405Y-49347524D01*
X25359881Y-49347524D01*
X26359881Y-50347524D02*
X26359881Y-49776095D01*
X26359881Y-50061809D02*
X25359881Y-50061809D01*
X25502738Y-49966571D01*
X25597976Y-49871333D01*
X25645595Y-49776095D01*
X26359881Y-51299905D02*
X26359881Y-50728476D01*
X26359881Y-51014190D02*
X25359881Y-51014190D01*
X25502738Y-50918952D01*
X25597976Y-50823714D01*
X25645595Y-50728476D01*
X25978929Y-51728476D02*
X25978929Y-52490381D01*
X25455119Y-52918952D02*
X25407500Y-52966571D01*
X25359881Y-53061809D01*
X25359881Y-53299905D01*
X25407500Y-53395143D01*
X25455119Y-53442762D01*
X25550357Y-53490381D01*
X25645595Y-53490381D01*
X25788452Y-53442762D01*
X26359881Y-52871333D01*
X26359881Y-53490381D01*
D11*
X43724976Y-56363381D02*
X44058310Y-55887190D01*
X44296405Y-56363381D02*
X44296405Y-55363381D01*
X43915452Y-55363381D01*
X43820214Y-55411000D01*
X43772595Y-55458619D01*
X43724976Y-55553857D01*
X43724976Y-55696714D01*
X43772595Y-55791952D01*
X43820214Y-55839571D01*
X43915452Y-55887190D01*
X44296405Y-55887190D01*
X43296405Y-56363381D02*
X43296405Y-55363381D01*
X43058310Y-55363381D01*
X42915452Y-55411000D01*
X42820214Y-55506238D01*
X42772595Y-55601476D01*
X42724976Y-55791952D01*
X42724976Y-55934810D01*
X42772595Y-56125286D01*
X42820214Y-56220524D01*
X42915452Y-56315762D01*
X43058310Y-56363381D01*
X43296405Y-56363381D01*
X41724976Y-56363381D02*
X42058310Y-55887190D01*
X42296405Y-56363381D02*
X42296405Y-55363381D01*
X41915452Y-55363381D01*
X41820214Y-55411000D01*
X41772595Y-55458619D01*
X41724976Y-55553857D01*
X41724976Y-55696714D01*
X41772595Y-55791952D01*
X41820214Y-55839571D01*
X41915452Y-55887190D01*
X42296405Y-55887190D01*
X41344024Y-56077667D02*
X40867833Y-56077667D01*
X41439262Y-56363381D02*
X41105929Y-55363381D01*
X40772595Y-56363381D01*
X40439262Y-56363381D02*
X40439262Y-55363381D01*
X40105928Y-56077667D01*
X39772595Y-55363381D01*
X39772595Y-56363381D01*
X38772595Y-56363381D02*
X39344024Y-56363381D01*
X39058310Y-56363381D02*
X39058310Y-55363381D01*
X39153548Y-55506238D01*
X39248786Y-55601476D01*
X39344024Y-55649095D01*
X38201167Y-55791952D02*
X38296405Y-55744333D01*
X38344024Y-55696714D01*
X38391643Y-55601476D01*
X38391643Y-55553857D01*
X38344024Y-55458619D01*
X38296405Y-55411000D01*
X38201167Y-55363381D01*
X38010690Y-55363381D01*
X37915452Y-55411000D01*
X37867833Y-55458619D01*
X37820214Y-55553857D01*
X37820214Y-55601476D01*
X37867833Y-55696714D01*
X37915452Y-55744333D01*
X38010690Y-55791952D01*
X38201167Y-55791952D01*
X38296405Y-55839571D01*
X38344024Y-55887190D01*
X38391643Y-55982429D01*
X38391643Y-56172905D01*
X38344024Y-56268143D01*
X38296405Y-56315762D01*
X38201167Y-56363381D01*
X38010690Y-56363381D01*
X37915452Y-56315762D01*
X37867833Y-56268143D01*
X37820214Y-56172905D01*
X37820214Y-55982429D01*
X37867833Y-55887190D01*
X37915452Y-55839571D01*
X38010690Y-55791952D01*
X37391643Y-55982429D02*
X36629738Y-55982429D01*
X36153548Y-56363381D02*
X36153548Y-55363381D01*
X35582119Y-56363381D01*
X35582119Y-55363381D01*
X35105929Y-55363381D02*
X35105929Y-56172905D01*
X35058310Y-56268143D01*
X35010691Y-56315762D01*
X34915453Y-56363381D01*
X34724976Y-56363381D01*
X34629738Y-56315762D01*
X34582119Y-56268143D01*
X34534500Y-56172905D01*
X34534500Y-55363381D01*
X34105929Y-56315762D02*
X33963072Y-56363381D01*
X33724976Y-56363381D01*
X33629738Y-56315762D01*
X33582119Y-56268143D01*
X33534500Y-56172905D01*
X33534500Y-56077667D01*
X33582119Y-55982429D01*
X33629738Y-55934810D01*
X33724976Y-55887190D01*
X33915453Y-55839571D01*
X34010691Y-55791952D01*
X34058310Y-55744333D01*
X34105929Y-55649095D01*
X34105929Y-55553857D01*
X34058310Y-55458619D01*
X34010691Y-55411000D01*
X33915453Y-55363381D01*
X33677357Y-55363381D01*
X33534500Y-55411000D01*
D10*
X58343167Y-62251667D02*
X57876500Y-62951667D01*
X57876500Y-62251667D02*
X58343167Y-62951667D01*
X57643167Y-62318333D02*
X57609833Y-62285000D01*
X57543167Y-62251667D01*
X57376500Y-62251667D01*
X57309833Y-62285000D01*
X57276500Y-62318333D01*
X57243167Y-62385000D01*
X57243167Y-62451667D01*
X57276500Y-62551667D01*
X57676500Y-62951667D01*
X57243167Y-62951667D01*
X33047166Y-63713667D02*
X33280500Y-63380333D01*
X33447166Y-63713667D02*
X33447166Y-63013667D01*
X33180500Y-63013667D01*
X33113833Y-63047000D01*
X33080500Y-63080333D01*
X33047166Y-63147000D01*
X33047166Y-63247000D01*
X33080500Y-63313667D01*
X33113833Y-63347000D01*
X33180500Y-63380333D01*
X33447166Y-63380333D01*
X32780500Y-63513667D02*
X32447166Y-63513667D01*
X32847166Y-63713667D02*
X32613833Y-63013667D01*
X32380500Y-63713667D01*
X31780500Y-63713667D02*
X32180500Y-63713667D01*
X31980500Y-63713667D02*
X31980500Y-63013667D01*
X32047166Y-63113667D01*
X32113833Y-63180333D01*
X32180500Y-63213667D01*
X39016166Y-63713667D02*
X39249500Y-63380333D01*
X39416166Y-63713667D02*
X39416166Y-63013667D01*
X39149500Y-63013667D01*
X39082833Y-63047000D01*
X39049500Y-63080333D01*
X39016166Y-63147000D01*
X39016166Y-63247000D01*
X39049500Y-63313667D01*
X39082833Y-63347000D01*
X39149500Y-63380333D01*
X39416166Y-63380333D01*
X38749500Y-63513667D02*
X38416166Y-63513667D01*
X38816166Y-63713667D02*
X38582833Y-63013667D01*
X38349500Y-63713667D01*
X38149500Y-63080333D02*
X38116166Y-63047000D01*
X38049500Y-63013667D01*
X37882833Y-63013667D01*
X37816166Y-63047000D01*
X37782833Y-63080333D01*
X37749500Y-63147000D01*
X37749500Y-63213667D01*
X37782833Y-63313667D01*
X38182833Y-63713667D01*
X37749500Y-63713667D01*
X46128166Y-63713667D02*
X46361500Y-63380333D01*
X46528166Y-63713667D02*
X46528166Y-63013667D01*
X46261500Y-63013667D01*
X46194833Y-63047000D01*
X46161500Y-63080333D01*
X46128166Y-63147000D01*
X46128166Y-63247000D01*
X46161500Y-63313667D01*
X46194833Y-63347000D01*
X46261500Y-63380333D01*
X46528166Y-63380333D01*
X45861500Y-63513667D02*
X45528166Y-63513667D01*
X45928166Y-63713667D02*
X45694833Y-63013667D01*
X45461500Y-63713667D01*
X45294833Y-63013667D02*
X44861500Y-63013667D01*
X45094833Y-63280333D01*
X44994833Y-63280333D01*
X44928166Y-63313667D01*
X44894833Y-63347000D01*
X44861500Y-63413667D01*
X44861500Y-63580333D01*
X44894833Y-63647000D01*
X44928166Y-63680333D01*
X44994833Y-63713667D01*
X45194833Y-63713667D01*
X45261500Y-63680333D01*
X45294833Y-63647000D01*
X39382833Y-28214000D02*
X39416167Y-28247333D01*
X39516167Y-28280667D01*
X39582833Y-28280667D01*
X39682833Y-28247333D01*
X39749500Y-28180667D01*
X39782833Y-28114000D01*
X39816167Y-27980667D01*
X39816167Y-27880667D01*
X39782833Y-27747333D01*
X39749500Y-27680667D01*
X39682833Y-27614000D01*
X39582833Y-27580667D01*
X39516167Y-27580667D01*
X39416167Y-27614000D01*
X39382833Y-27647333D01*
X38716167Y-28280667D02*
X39116167Y-28280667D01*
X38916167Y-28280667D02*
X38916167Y-27580667D01*
X38982833Y-27680667D01*
X39049500Y-27747333D01*
X39116167Y-27780667D01*
X38482833Y-27580667D02*
X38049500Y-27580667D01*
X38282833Y-27847333D01*
X38182833Y-27847333D01*
X38116166Y-27880667D01*
X38082833Y-27914000D01*
X38049500Y-27980667D01*
X38049500Y-28147333D01*
X38082833Y-28214000D01*
X38116166Y-28247333D01*
X38182833Y-28280667D01*
X38382833Y-28280667D01*
X38449500Y-28247333D01*
X38482833Y-28214000D01*
X37816166Y-27580667D02*
X37382833Y-27580667D01*
X37616166Y-27847333D01*
X37516166Y-27847333D01*
X37449499Y-27880667D01*
X37416166Y-27914000D01*
X37382833Y-27980667D01*
X37382833Y-28147333D01*
X37416166Y-28214000D01*
X37449499Y-28247333D01*
X37516166Y-28280667D01*
X37716166Y-28280667D01*
X37782833Y-28247333D01*
X37816166Y-28214000D01*
X66662500Y-67693667D02*
X66695833Y-67660333D01*
X66729167Y-67560333D01*
X66729167Y-67493667D01*
X66695833Y-67393667D01*
X66629167Y-67327000D01*
X66562500Y-67293667D01*
X66429167Y-67260333D01*
X66329167Y-67260333D01*
X66195833Y-67293667D01*
X66129167Y-67327000D01*
X66062500Y-67393667D01*
X66029167Y-67493667D01*
X66029167Y-67560333D01*
X66062500Y-67660333D01*
X66095833Y-67693667D01*
X66729167Y-68360333D02*
X66729167Y-67960333D01*
X66729167Y-68160333D02*
X66029167Y-68160333D01*
X66129167Y-68093667D01*
X66195833Y-68027000D01*
X66229167Y-67960333D01*
X66262500Y-68960334D02*
X66729167Y-68960334D01*
X65995833Y-68793667D02*
X66495833Y-68627000D01*
X66495833Y-69060334D01*
X66029167Y-69627001D02*
X66029167Y-69493667D01*
X66062500Y-69427001D01*
X66095833Y-69393667D01*
X66195833Y-69327001D01*
X66329167Y-69293667D01*
X66595833Y-69293667D01*
X66662500Y-69327001D01*
X66695833Y-69360334D01*
X66729167Y-69427001D01*
X66729167Y-69560334D01*
X66695833Y-69627001D01*
X66662500Y-69660334D01*
X66595833Y-69693667D01*
X66429167Y-69693667D01*
X66362500Y-69660334D01*
X66329167Y-69627001D01*
X66295833Y-69560334D01*
X66295833Y-69427001D01*
X66329167Y-69360334D01*
X66362500Y-69327001D01*
X66429167Y-69293667D01*
X66662500Y-64137667D02*
X66695833Y-64104333D01*
X66729167Y-64004333D01*
X66729167Y-63937667D01*
X66695833Y-63837667D01*
X66629167Y-63771000D01*
X66562500Y-63737667D01*
X66429167Y-63704333D01*
X66329167Y-63704333D01*
X66195833Y-63737667D01*
X66129167Y-63771000D01*
X66062500Y-63837667D01*
X66029167Y-63937667D01*
X66029167Y-64004333D01*
X66062500Y-64104333D01*
X66095833Y-64137667D01*
X66729167Y-64804333D02*
X66729167Y-64404333D01*
X66729167Y-64604333D02*
X66029167Y-64604333D01*
X66129167Y-64537667D01*
X66195833Y-64471000D01*
X66229167Y-64404333D01*
X66262500Y-65404334D02*
X66729167Y-65404334D01*
X65995833Y-65237667D02*
X66495833Y-65071000D01*
X66495833Y-65504334D01*
X66029167Y-65704334D02*
X66029167Y-66171001D01*
X66729167Y-65871001D01*
X31415166Y-28341000D02*
X31448500Y-28374333D01*
X31548500Y-28407667D01*
X31615166Y-28407667D01*
X31715166Y-28374333D01*
X31781833Y-28307667D01*
X31815166Y-28241000D01*
X31848500Y-28107667D01*
X31848500Y-28007667D01*
X31815166Y-27874333D01*
X31781833Y-27807667D01*
X31715166Y-27741000D01*
X31615166Y-27707667D01*
X31548500Y-27707667D01*
X31448500Y-27741000D01*
X31415166Y-27774333D01*
X30715166Y-28407667D02*
X30948500Y-28074333D01*
X31115166Y-28407667D02*
X31115166Y-27707667D01*
X30848500Y-27707667D01*
X30781833Y-27741000D01*
X30748500Y-27774333D01*
X30715166Y-27841000D01*
X30715166Y-27941000D01*
X30748500Y-28007667D01*
X30781833Y-28041000D01*
X30848500Y-28074333D01*
X31115166Y-28074333D01*
X30415166Y-28407667D02*
X30415166Y-27707667D01*
X30248500Y-27707667D01*
X30148500Y-27741000D01*
X30081833Y-27807667D01*
X30048500Y-27874333D01*
X30015166Y-28007667D01*
X30015166Y-28107667D01*
X30048500Y-28241000D01*
X30081833Y-28307667D01*
X30148500Y-28374333D01*
X30248500Y-28407667D01*
X30415166Y-28407667D01*
X29781833Y-27707667D02*
X29348500Y-27707667D01*
X29581833Y-27974333D01*
X29481833Y-27974333D01*
X29415166Y-28007667D01*
X29381833Y-28041000D01*
X29348500Y-28107667D01*
X29348500Y-28274333D01*
X29381833Y-28341000D01*
X29415166Y-28374333D01*
X29481833Y-28407667D01*
X29681833Y-28407667D01*
X29748500Y-28374333D01*
X29781833Y-28341000D01*
X26911500Y-43530334D02*
X26944833Y-43497000D01*
X26978167Y-43397000D01*
X26978167Y-43330334D01*
X26944833Y-43230334D01*
X26878167Y-43163667D01*
X26811500Y-43130334D01*
X26678167Y-43097000D01*
X26578167Y-43097000D01*
X26444833Y-43130334D01*
X26378167Y-43163667D01*
X26311500Y-43230334D01*
X26278167Y-43330334D01*
X26278167Y-43397000D01*
X26311500Y-43497000D01*
X26344833Y-43530334D01*
X26978167Y-44230334D02*
X26644833Y-43997000D01*
X26978167Y-43830334D02*
X26278167Y-43830334D01*
X26278167Y-44097000D01*
X26311500Y-44163667D01*
X26344833Y-44197000D01*
X26411500Y-44230334D01*
X26511500Y-44230334D01*
X26578167Y-44197000D01*
X26611500Y-44163667D01*
X26644833Y-44097000D01*
X26644833Y-43830334D01*
X26978167Y-44530334D02*
X26278167Y-44530334D01*
X26278167Y-44697000D01*
X26311500Y-44797000D01*
X26378167Y-44863667D01*
X26444833Y-44897000D01*
X26578167Y-44930334D01*
X26678167Y-44930334D01*
X26811500Y-44897000D01*
X26878167Y-44863667D01*
X26944833Y-44797000D01*
X26978167Y-44697000D01*
X26978167Y-44530334D01*
X26511500Y-45530334D02*
X26978167Y-45530334D01*
X26244833Y-45363667D02*
X26744833Y-45197000D01*
X26744833Y-45630334D01*
X51474833Y-62758000D02*
X51508167Y-62791333D01*
X51608167Y-62824667D01*
X51674833Y-62824667D01*
X51774833Y-62791333D01*
X51841500Y-62724667D01*
X51874833Y-62658000D01*
X51908167Y-62524667D01*
X51908167Y-62424667D01*
X51874833Y-62291333D01*
X51841500Y-62224667D01*
X51774833Y-62158000D01*
X51674833Y-62124667D01*
X51608167Y-62124667D01*
X51508167Y-62158000D01*
X51474833Y-62191333D01*
X51274833Y-62124667D02*
X51041500Y-62824667D01*
X50808167Y-62124667D01*
X50674833Y-62124667D02*
X50274833Y-62124667D01*
X50474833Y-62824667D02*
X50474833Y-62124667D01*
X49674834Y-62824667D02*
X50074834Y-62824667D01*
X49874834Y-62824667D02*
X49874834Y-62124667D01*
X49941500Y-62224667D01*
X50008167Y-62291333D01*
X50074834Y-62324667D01*
X34075833Y-67457000D02*
X34109167Y-67490333D01*
X34209167Y-67523667D01*
X34275833Y-67523667D01*
X34375833Y-67490333D01*
X34442500Y-67423667D01*
X34475833Y-67357000D01*
X34509167Y-67223667D01*
X34509167Y-67123667D01*
X34475833Y-66990333D01*
X34442500Y-66923667D01*
X34375833Y-66857000D01*
X34275833Y-66823667D01*
X34209167Y-66823667D01*
X34109167Y-66857000D01*
X34075833Y-66890333D01*
X33875833Y-66823667D02*
X33642500Y-67523667D01*
X33409167Y-66823667D01*
X33275833Y-66823667D02*
X32875833Y-66823667D01*
X33075833Y-67523667D02*
X33075833Y-66823667D01*
X32675834Y-66890333D02*
X32642500Y-66857000D01*
X32575834Y-66823667D01*
X32409167Y-66823667D01*
X32342500Y-66857000D01*
X32309167Y-66890333D01*
X32275834Y-66957000D01*
X32275834Y-67023667D01*
X32309167Y-67123667D01*
X32709167Y-67523667D01*
X32275834Y-67523667D01*
X29757833Y-64028000D02*
X29791167Y-64061333D01*
X29891167Y-64094667D01*
X29957833Y-64094667D01*
X30057833Y-64061333D01*
X30124500Y-63994667D01*
X30157833Y-63928000D01*
X30191167Y-63794667D01*
X30191167Y-63694667D01*
X30157833Y-63561333D01*
X30124500Y-63494667D01*
X30057833Y-63428000D01*
X29957833Y-63394667D01*
X29891167Y-63394667D01*
X29791167Y-63428000D01*
X29757833Y-63461333D01*
X29557833Y-63394667D02*
X29324500Y-64094667D01*
X29091167Y-63394667D01*
X28957833Y-63394667D02*
X28557833Y-63394667D01*
X28757833Y-64094667D02*
X28757833Y-63394667D01*
X28391167Y-63394667D02*
X27957834Y-63394667D01*
X28191167Y-63661333D01*
X28091167Y-63661333D01*
X28024500Y-63694667D01*
X27991167Y-63728000D01*
X27957834Y-63794667D01*
X27957834Y-63961333D01*
X27991167Y-64028000D01*
X28024500Y-64061333D01*
X28091167Y-64094667D01*
X28291167Y-64094667D01*
X28357834Y-64061333D01*
X28391167Y-64028000D01*
X46923500Y-72857667D02*
X47156834Y-72524333D01*
X47323500Y-72857667D02*
X47323500Y-72157667D01*
X47056834Y-72157667D01*
X46990167Y-72191000D01*
X46956834Y-72224333D01*
X46923500Y-72291000D01*
X46923500Y-72391000D01*
X46956834Y-72457667D01*
X46990167Y-72491000D01*
X47056834Y-72524333D01*
X47323500Y-72524333D01*
X46656834Y-72224333D02*
X46623500Y-72191000D01*
X46556834Y-72157667D01*
X46390167Y-72157667D01*
X46323500Y-72191000D01*
X46290167Y-72224333D01*
X46256834Y-72291000D01*
X46256834Y-72357667D01*
X46290167Y-72457667D01*
X46690167Y-72857667D01*
X46256834Y-72857667D01*
X45623500Y-72157667D02*
X45956833Y-72157667D01*
X45990167Y-72491000D01*
X45956833Y-72457667D01*
X45890167Y-72424333D01*
X45723500Y-72424333D01*
X45656833Y-72457667D01*
X45623500Y-72491000D01*
X45590167Y-72557667D01*
X45590167Y-72724333D01*
X45623500Y-72791000D01*
X45656833Y-72824333D01*
X45723500Y-72857667D01*
X45890167Y-72857667D01*
X45956833Y-72824333D01*
X45990167Y-72791000D01*
X45526500Y-67777667D02*
X45759834Y-67444333D01*
X45926500Y-67777667D02*
X45926500Y-67077667D01*
X45659834Y-67077667D01*
X45593167Y-67111000D01*
X45559834Y-67144333D01*
X45526500Y-67211000D01*
X45526500Y-67311000D01*
X45559834Y-67377667D01*
X45593167Y-67411000D01*
X45659834Y-67444333D01*
X45926500Y-67444333D01*
X45293167Y-67077667D02*
X44859834Y-67077667D01*
X45093167Y-67344333D01*
X44993167Y-67344333D01*
X44926500Y-67377667D01*
X44893167Y-67411000D01*
X44859834Y-67477667D01*
X44859834Y-67644333D01*
X44893167Y-67711000D01*
X44926500Y-67744333D01*
X44993167Y-67777667D01*
X45193167Y-67777667D01*
X45259834Y-67744333D01*
X45293167Y-67711000D01*
X44593167Y-67144333D02*
X44559833Y-67111000D01*
X44493167Y-67077667D01*
X44326500Y-67077667D01*
X44259833Y-67111000D01*
X44226500Y-67144333D01*
X44193167Y-67211000D01*
X44193167Y-67277667D01*
X44226500Y-67377667D01*
X44626500Y-67777667D01*
X44193167Y-67777667D01*
X37773167Y-66630000D02*
X37439833Y-66396666D01*
X37773167Y-66230000D02*
X37073167Y-66230000D01*
X37073167Y-66496666D01*
X37106500Y-66563333D01*
X37139833Y-66596666D01*
X37206500Y-66630000D01*
X37306500Y-66630000D01*
X37373167Y-66596666D01*
X37406500Y-66563333D01*
X37439833Y-66496666D01*
X37439833Y-66230000D01*
X37073167Y-66863333D02*
X37073167Y-67296666D01*
X37339833Y-67063333D01*
X37339833Y-67163333D01*
X37373167Y-67230000D01*
X37406500Y-67263333D01*
X37473167Y-67296666D01*
X37639833Y-67296666D01*
X37706500Y-67263333D01*
X37739833Y-67230000D01*
X37773167Y-67163333D01*
X37773167Y-66963333D01*
X37739833Y-66896666D01*
X37706500Y-66863333D01*
X37073167Y-67530000D02*
X37073167Y-67963333D01*
X37339833Y-67730000D01*
X37339833Y-67830000D01*
X37373167Y-67896667D01*
X37406500Y-67930000D01*
X37473167Y-67963333D01*
X37639833Y-67963333D01*
X37706500Y-67930000D01*
X37739833Y-67896667D01*
X37773167Y-67830000D01*
X37773167Y-67630000D01*
X37739833Y-67563333D01*
X37706500Y-67530000D01*
X38541500Y-72857667D02*
X38774834Y-72524333D01*
X38941500Y-72857667D02*
X38941500Y-72157667D01*
X38674834Y-72157667D01*
X38608167Y-72191000D01*
X38574834Y-72224333D01*
X38541500Y-72291000D01*
X38541500Y-72391000D01*
X38574834Y-72457667D01*
X38608167Y-72491000D01*
X38674834Y-72524333D01*
X38941500Y-72524333D01*
X38308167Y-72157667D02*
X37874834Y-72157667D01*
X38108167Y-72424333D01*
X38008167Y-72424333D01*
X37941500Y-72457667D01*
X37908167Y-72491000D01*
X37874834Y-72557667D01*
X37874834Y-72724333D01*
X37908167Y-72791000D01*
X37941500Y-72824333D01*
X38008167Y-72857667D01*
X38208167Y-72857667D01*
X38274834Y-72824333D01*
X38308167Y-72791000D01*
X37241500Y-72157667D02*
X37574833Y-72157667D01*
X37608167Y-72491000D01*
X37574833Y-72457667D01*
X37508167Y-72424333D01*
X37341500Y-72424333D01*
X37274833Y-72457667D01*
X37241500Y-72491000D01*
X37208167Y-72557667D01*
X37208167Y-72724333D01*
X37241500Y-72791000D01*
X37274833Y-72824333D01*
X37341500Y-72857667D01*
X37508167Y-72857667D01*
X37574833Y-72824333D01*
X37608167Y-72791000D01*
X57609833Y-70664667D02*
X57609833Y-71231333D01*
X57576500Y-71298000D01*
X57543167Y-71331333D01*
X57476500Y-71364667D01*
X57343167Y-71364667D01*
X57276500Y-71331333D01*
X57243167Y-71298000D01*
X57209833Y-71231333D01*
X57209833Y-70664667D01*
X56509834Y-71364667D02*
X56909834Y-71364667D01*
X56709834Y-71364667D02*
X56709834Y-70664667D01*
X56776500Y-70764667D01*
X56843167Y-70831333D01*
X56909834Y-70864667D01*
X55876500Y-70664667D02*
X56209833Y-70664667D01*
X56243167Y-70998000D01*
X56209833Y-70964667D01*
X56143167Y-70931333D01*
X55976500Y-70931333D01*
X55909833Y-70964667D01*
X55876500Y-70998000D01*
X55843167Y-71064667D01*
X55843167Y-71231333D01*
X55876500Y-71298000D01*
X55909833Y-71331333D01*
X55976500Y-71364667D01*
X56143167Y-71364667D01*
X56209833Y-71331333D01*
X56243167Y-71298000D01*
D11*
X53736952Y-66293952D02*
X53689333Y-66198714D01*
X53641714Y-66151095D01*
X53546476Y-66103476D01*
X53498857Y-66103476D01*
X53403619Y-66151095D01*
X53356000Y-66198714D01*
X53308381Y-66293952D01*
X53308381Y-66484429D01*
X53356000Y-66579667D01*
X53403619Y-66627286D01*
X53498857Y-66674905D01*
X53546476Y-66674905D01*
X53641714Y-66627286D01*
X53689333Y-66579667D01*
X53736952Y-66484429D01*
X53736952Y-66293952D01*
X53784571Y-66198714D01*
X53832190Y-66151095D01*
X53927429Y-66103476D01*
X54117905Y-66103476D01*
X54213143Y-66151095D01*
X54260762Y-66198714D01*
X54308381Y-66293952D01*
X54308381Y-66484429D01*
X54260762Y-66579667D01*
X54213143Y-66627286D01*
X54117905Y-66674905D01*
X53927429Y-66674905D01*
X53832190Y-66627286D01*
X53784571Y-66579667D01*
X53736952Y-66484429D01*
X53308381Y-67008238D02*
X53308381Y-67627286D01*
X53689333Y-67293952D01*
X53689333Y-67436810D01*
X53736952Y-67532048D01*
X53784571Y-67579667D01*
X53879810Y-67627286D01*
X54117905Y-67627286D01*
X54213143Y-67579667D01*
X54260762Y-67532048D01*
X54308381Y-67436810D01*
X54308381Y-67151095D01*
X54260762Y-67055857D01*
X54213143Y-67008238D01*
X53308381Y-67960619D02*
X53308381Y-68579667D01*
X53689333Y-68246333D01*
X53689333Y-68389191D01*
X53736952Y-68484429D01*
X53784571Y-68532048D01*
X53879810Y-68579667D01*
X54117905Y-68579667D01*
X54213143Y-68532048D01*
X54260762Y-68484429D01*
X54308381Y-68389191D01*
X54308381Y-68103476D01*
X54260762Y-68008238D01*
X54213143Y-67960619D01*
X53308381Y-69198714D02*
X53308381Y-69293953D01*
X53356000Y-69389191D01*
X53403619Y-69436810D01*
X53498857Y-69484429D01*
X53689333Y-69532048D01*
X53927429Y-69532048D01*
X54117905Y-69484429D01*
X54213143Y-69436810D01*
X54260762Y-69389191D01*
X54308381Y-69293953D01*
X54308381Y-69198714D01*
X54260762Y-69103476D01*
X54213143Y-69055857D01*
X54117905Y-69008238D01*
X53927429Y-68960619D01*
X53689333Y-68960619D01*
X53498857Y-69008238D01*
X53403619Y-69055857D01*
X53356000Y-69103476D01*
X53308381Y-69198714D01*
D10*
X25359881Y-31123095D02*
X26169405Y-31123095D01*
X26264643Y-31170714D01*
X26312262Y-31218333D01*
X26359881Y-31313571D01*
X26359881Y-31504048D01*
X26312262Y-31599286D01*
X26264643Y-31646905D01*
X26169405Y-31694524D01*
X25359881Y-31694524D01*
X26359881Y-32694524D02*
X26359881Y-32123095D01*
X26359881Y-32408809D02*
X25359881Y-32408809D01*
X25502738Y-32313571D01*
X25597976Y-32218333D01*
X25645595Y-32123095D01*
X25693214Y-33551667D02*
X26359881Y-33551667D01*
X25312262Y-33313571D02*
X26026548Y-33075476D01*
X26026548Y-33694524D01*
X25978929Y-34075476D02*
X25978929Y-34837381D01*
X25455119Y-35265952D02*
X25407500Y-35313571D01*
X25359881Y-35408809D01*
X25359881Y-35646905D01*
X25407500Y-35742143D01*
X25455119Y-35789762D01*
X25550357Y-35837381D01*
X25645595Y-35837381D01*
X25788452Y-35789762D01*
X26359881Y-35218333D01*
X26359881Y-35837381D01*
X43758976Y-36298381D02*
X44092310Y-35822190D01*
X44330405Y-36298381D02*
X44330405Y-35298381D01*
X43949452Y-35298381D01*
X43854214Y-35346000D01*
X43806595Y-35393619D01*
X43758976Y-35488857D01*
X43758976Y-35631714D01*
X43806595Y-35726952D01*
X43854214Y-35774571D01*
X43949452Y-35822190D01*
X44330405Y-35822190D01*
X43330405Y-36298381D02*
X43330405Y-35298381D01*
X43092310Y-35298381D01*
X42949452Y-35346000D01*
X42854214Y-35441238D01*
X42806595Y-35536476D01*
X42758976Y-35726952D01*
X42758976Y-35869810D01*
X42806595Y-36060286D01*
X42854214Y-36155524D01*
X42949452Y-36250762D01*
X43092310Y-36298381D01*
X43330405Y-36298381D01*
X41758976Y-36298381D02*
X42092310Y-35822190D01*
X42330405Y-36298381D02*
X42330405Y-35298381D01*
X41949452Y-35298381D01*
X41854214Y-35346000D01*
X41806595Y-35393619D01*
X41758976Y-35488857D01*
X41758976Y-35631714D01*
X41806595Y-35726952D01*
X41854214Y-35774571D01*
X41949452Y-35822190D01*
X42330405Y-35822190D01*
X41378024Y-36012667D02*
X40901833Y-36012667D01*
X41473262Y-36298381D02*
X41139929Y-35298381D01*
X40806595Y-36298381D01*
X40473262Y-36298381D02*
X40473262Y-35298381D01*
X40139928Y-36012667D01*
X39806595Y-35298381D01*
X39806595Y-36298381D01*
X38806595Y-36298381D02*
X39378024Y-36298381D01*
X39092310Y-36298381D02*
X39092310Y-35298381D01*
X39187548Y-35441238D01*
X39282786Y-35536476D01*
X39378024Y-35584095D01*
X38235167Y-35726952D02*
X38330405Y-35679333D01*
X38378024Y-35631714D01*
X38425643Y-35536476D01*
X38425643Y-35488857D01*
X38378024Y-35393619D01*
X38330405Y-35346000D01*
X38235167Y-35298381D01*
X38044690Y-35298381D01*
X37949452Y-35346000D01*
X37901833Y-35393619D01*
X37854214Y-35488857D01*
X37854214Y-35536476D01*
X37901833Y-35631714D01*
X37949452Y-35679333D01*
X38044690Y-35726952D01*
X38235167Y-35726952D01*
X38330405Y-35774571D01*
X38378024Y-35822190D01*
X38425643Y-35917429D01*
X38425643Y-36107905D01*
X38378024Y-36203143D01*
X38330405Y-36250762D01*
X38235167Y-36298381D01*
X38044690Y-36298381D01*
X37949452Y-36250762D01*
X37901833Y-36203143D01*
X37854214Y-36107905D01*
X37854214Y-35917429D01*
X37901833Y-35822190D01*
X37949452Y-35774571D01*
X38044690Y-35726952D01*
X37425643Y-35917429D02*
X36663738Y-35917429D01*
X36187548Y-36298381D02*
X36187548Y-35298381D01*
X35616119Y-36298381D01*
X35616119Y-35298381D01*
X35139929Y-35298381D02*
X35139929Y-36107905D01*
X35092310Y-36203143D01*
X35044691Y-36250762D01*
X34949453Y-36298381D01*
X34758976Y-36298381D01*
X34663738Y-36250762D01*
X34616119Y-36203143D01*
X34568500Y-36107905D01*
X34568500Y-35298381D01*
X34139929Y-36250762D02*
X33997072Y-36298381D01*
X33758976Y-36298381D01*
X33663738Y-36250762D01*
X33616119Y-36203143D01*
X33568500Y-36107905D01*
X33568500Y-36012667D01*
X33616119Y-35917429D01*
X33663738Y-35869810D01*
X33758976Y-35822190D01*
X33949453Y-35774571D01*
X34044691Y-35726952D01*
X34092310Y-35679333D01*
X34139929Y-35584095D01*
X34139929Y-35488857D01*
X34092310Y-35393619D01*
X34044691Y-35346000D01*
X33949453Y-35298381D01*
X33711357Y-35298381D01*
X33568500Y-35346000D01*
M02*
