G04 #@! TF.FileFunction,Copper,L4,Bot,Signal*
%FSLAX46Y46*%
G04 Gerber Fmt 4.6, Leading zero omitted, Abs format (unit mm)*
G04 Created by KiCad (PCBNEW 4.0.6) date Mon Aug 28 23:28:58 2017*
%MOMM*%
%LPD*%
G01*
G04 APERTURE LIST*
%ADD10C,0.100000*%
%ADD11R,0.370000X1.200000*%
%ADD12C,1.500000*%
%ADD13C,1.422400*%
%ADD14R,0.400000X0.900000*%
%ADD15C,0.950000*%
%ADD16R,0.800000X0.750000*%
%ADD17R,0.750000X0.800000*%
%ADD18R,0.700000X1.300000*%
%ADD19R,1.300000X0.700000*%
%ADD20O,1.600000X0.600000*%
%ADD21R,1.600000X0.600000*%
%ADD22C,0.450000*%
%ADD23C,0.400000*%
%ADD24C,0.300000*%
%ADD25C,0.350000*%
%ADD26C,0.370000*%
%ADD27C,0.250000*%
%ADD28C,0.200000*%
G04 APERTURE END LIST*
D10*
D11*
X29428132Y-47702064D03*
X30078132Y-47702064D03*
X30728132Y-47702064D03*
X31378132Y-47702064D03*
X32028132Y-47702064D03*
X32678132Y-47702064D03*
X33328132Y-47702064D03*
X33978132Y-47702064D03*
X34628132Y-47702064D03*
X35278132Y-47702064D03*
X35928132Y-47702064D03*
X36578132Y-47702064D03*
X37228132Y-47702064D03*
X37878132Y-47702064D03*
X38528132Y-47702064D03*
X39178132Y-47702064D03*
X39828133Y-47702064D03*
X40478133Y-47702064D03*
X41128133Y-47702064D03*
X41778133Y-47702064D03*
X42428133Y-47702064D03*
X43078133Y-47702064D03*
X43728133Y-47702064D03*
X44378133Y-47702064D03*
X45028133Y-47702064D03*
X45678133Y-47702064D03*
X46328133Y-47702064D03*
X46978133Y-47702064D03*
X47628133Y-47702064D03*
X48278133Y-47702064D03*
X48928133Y-47702064D03*
X49578133Y-47702064D03*
X50878133Y-60252065D03*
X50228133Y-60252065D03*
X28778132Y-60252065D03*
X28128132Y-60252065D03*
D12*
X25400000Y-27432000D03*
X66158500Y-71882000D03*
X66158530Y-60452000D03*
D13*
X61087000Y-64135000D03*
X61087000Y-69215000D03*
D14*
X32288722Y-62491848D03*
X33088722Y-62491848D03*
X31488722Y-62491848D03*
X33888722Y-62491848D03*
X31488722Y-64291848D03*
X32288722Y-64291848D03*
X33088722Y-64291848D03*
X33888722Y-64291848D03*
D12*
X25400000Y-47268000D03*
X53340000Y-27432000D03*
X25400000Y-71882000D03*
X53331500Y-46506000D03*
D14*
X38138722Y-62491848D03*
X38938722Y-62491848D03*
X37338722Y-62491848D03*
X39738722Y-62491848D03*
X37338722Y-64291848D03*
X38138722Y-64291848D03*
X38938722Y-64291848D03*
X39738722Y-64291848D03*
X45288722Y-62491848D03*
X46088722Y-62491848D03*
X44488722Y-62491848D03*
X46888722Y-62491848D03*
X44488722Y-64291848D03*
X45288722Y-64291848D03*
X46088722Y-64291848D03*
X46888722Y-64291848D03*
D15*
X47410000Y-69235400D03*
X46140000Y-69235400D03*
X44870589Y-69235400D03*
X43600589Y-69235400D03*
X42330000Y-69231623D03*
X41060000Y-69235400D03*
X39790000Y-69235400D03*
X38520589Y-69235400D03*
X37250589Y-69235400D03*
X35980000Y-69235400D03*
X34710000Y-69235400D03*
X33440589Y-69235400D03*
X32170589Y-69235400D03*
X30900000Y-69235400D03*
X29630000Y-69235400D03*
X47410000Y-70505400D03*
X46140589Y-70505400D03*
X44870000Y-70505400D03*
X43600000Y-70505400D03*
X42330000Y-70501623D03*
X41060000Y-70505400D03*
X39790000Y-70505400D03*
X38520589Y-70505400D03*
X37250589Y-70501623D03*
X35980000Y-70501623D03*
X34710000Y-70501623D03*
X33440589Y-70501623D03*
X32170589Y-70501623D03*
X30900000Y-70501623D03*
X29630000Y-70501623D03*
D16*
X42397500Y-27964000D03*
X40897500Y-27964000D03*
D17*
X64770000Y-69203000D03*
X64770000Y-67703000D03*
X64770000Y-64147000D03*
X64770000Y-65647000D03*
X28185500Y-28841000D03*
X28185500Y-27341000D03*
X28185500Y-46494000D03*
X28185500Y-44994000D03*
X48759500Y-62774000D03*
X48759500Y-64274000D03*
X35297500Y-67042600D03*
X35297500Y-65542600D03*
X29083000Y-67044000D03*
X29083000Y-65544000D03*
D18*
X44765000Y-72517000D03*
X42865000Y-72517000D03*
D19*
X42799000Y-67371000D03*
X42799000Y-65471000D03*
D18*
X38547000Y-67056000D03*
X40447000Y-67056000D03*
X41844000Y-72517000D03*
X39944000Y-72517000D03*
D20*
X50800000Y-69850000D03*
D21*
X50800000Y-68580000D03*
X50800000Y-67310000D03*
X50800000Y-66040000D03*
X56896000Y-66040000D03*
X56896000Y-67310000D03*
X56896000Y-68580000D03*
X56896000Y-69850000D03*
D11*
X29428132Y-30176064D03*
X30078132Y-30176064D03*
X30728132Y-30176064D03*
X31378132Y-30176064D03*
X32028132Y-30176064D03*
X32678132Y-30176064D03*
X33328132Y-30176064D03*
X33978132Y-30176064D03*
X34628132Y-30176064D03*
X35278132Y-30176064D03*
X35928132Y-30176064D03*
X36578132Y-30176064D03*
X37228132Y-30176064D03*
X37878132Y-30176064D03*
X38528132Y-30176064D03*
X39178132Y-30176064D03*
X39828133Y-30176064D03*
X40478133Y-30176064D03*
X41128133Y-30176064D03*
X41778133Y-30176064D03*
X42428133Y-30176064D03*
X43078133Y-30176064D03*
X43728133Y-30176064D03*
X44378133Y-30176064D03*
X45028133Y-30176064D03*
X45678133Y-30176064D03*
X46328133Y-30176064D03*
X46978133Y-30176064D03*
X47628133Y-30176064D03*
X48278133Y-30176064D03*
X48928133Y-30176064D03*
X49578133Y-30176064D03*
X50878133Y-42726065D03*
X50228133Y-42726065D03*
X28778132Y-42726065D03*
X28128132Y-42726065D03*
D22*
X42426001Y-43331000D03*
X42426001Y-43839000D03*
X42420000Y-44347000D03*
X42420000Y-49517000D03*
X42425500Y-53547000D03*
X42420000Y-50037000D03*
X42425500Y-50557000D03*
X42425500Y-53027000D03*
X42425500Y-52507000D03*
X48277120Y-32256715D03*
X48911683Y-32256715D03*
X30065100Y-31266000D03*
X31360500Y-31266000D03*
X32694000Y-31266000D03*
X35272100Y-31266000D03*
X37888300Y-31266000D03*
X40479100Y-31266000D03*
X44365300Y-31240600D03*
X45686100Y-31240600D03*
X46981500Y-31240600D03*
X48276895Y-49401476D03*
X48937004Y-49402606D03*
X46981500Y-48741200D03*
X45686100Y-48741200D03*
X44390700Y-48741200D03*
X43069900Y-48741200D03*
X40479100Y-48741200D03*
X30091157Y-48740024D03*
X31385010Y-48741631D03*
X32680966Y-48741633D03*
X37888300Y-48741631D03*
X35272878Y-48741631D03*
X46956100Y-60831600D03*
X45686100Y-60831600D03*
X44365956Y-60831155D03*
X40453700Y-60831600D03*
X37862900Y-60831040D03*
X30090500Y-60857000D03*
X31361048Y-60856297D03*
X32675168Y-60861789D03*
X35272100Y-62812800D03*
X48911899Y-45388905D03*
X48251500Y-45388400D03*
X46981500Y-45388400D03*
X45660700Y-45388400D03*
X44365300Y-45363000D03*
X40453700Y-45363000D03*
X37862900Y-45388400D03*
X35272100Y-45337600D03*
X32655900Y-44372400D03*
X31360500Y-44347000D03*
X30065100Y-44347000D03*
X44314500Y-28345000D03*
X41748811Y-31519244D03*
X51503724Y-49019342D03*
X50791500Y-49757200D03*
X27550500Y-44982000D03*
X28185500Y-44347000D03*
X28820500Y-27329000D03*
X27550500Y-27329000D03*
X28185500Y-26694000D03*
X40885500Y-28599000D03*
X40250500Y-27964000D03*
X44314500Y-26313000D03*
X45203500Y-27329000D03*
X49648500Y-68604000D03*
X51934500Y-68578600D03*
X64113800Y-67702300D03*
X65421900Y-67702300D03*
X64774200Y-67054600D03*
X65434600Y-65644900D03*
X64113800Y-65644900D03*
X64774200Y-66318000D03*
X35297500Y-67715000D03*
X29087200Y-67715000D03*
X28452200Y-67041900D03*
X29709500Y-67041900D03*
X49140500Y-62000000D03*
X48378500Y-62000000D03*
X55363500Y-65175000D03*
X55363500Y-66826000D03*
D23*
X39370000Y-72517000D03*
D24*
X47625500Y-29302000D03*
X46325500Y-29302000D03*
X45025500Y-29302000D03*
X43725500Y-29302000D03*
X41125500Y-29302000D03*
X39825500Y-29302000D03*
X38525500Y-29302000D03*
X37225500Y-29302000D03*
X35925500Y-29302000D03*
X34625500Y-29302000D03*
X33325219Y-29302275D03*
X32024431Y-29301698D03*
X30727006Y-29303377D03*
D22*
X40513000Y-65278000D03*
X41783000Y-65278000D03*
X39243000Y-65278000D03*
X44314500Y-66318000D03*
X49013500Y-70001000D03*
X48518200Y-70001000D03*
X49013500Y-71017000D03*
X48518200Y-71017000D03*
X49013500Y-70509000D03*
X48518200Y-70509000D03*
X45711500Y-66318000D03*
X46981500Y-66318000D03*
X49013500Y-66318000D03*
X48505500Y-66318000D03*
X49022000Y-65786000D03*
X49022000Y-65278000D03*
X48514000Y-65786000D03*
X48514000Y-65278000D03*
X31369000Y-65786000D03*
X31369000Y-65278000D03*
X46990000Y-65786000D03*
X46990000Y-65278000D03*
X45720000Y-65786000D03*
X45720000Y-65278000D03*
X44323000Y-65786000D03*
X44323000Y-65278000D03*
X27686000Y-64770000D03*
X28194000Y-64770000D03*
X29972000Y-65278000D03*
X29972000Y-65786000D03*
X36576000Y-65278000D03*
X36576000Y-65786000D03*
X33909000Y-65786000D03*
X32639000Y-65786000D03*
X27686000Y-65278000D03*
X27686000Y-65786000D03*
X28194000Y-65278000D03*
X28194000Y-65786000D03*
X32639000Y-65278000D03*
X33909000Y-65278000D03*
X40513000Y-65786000D03*
X41783000Y-65786000D03*
X39243000Y-65786000D03*
D25*
X41774500Y-28853000D03*
D22*
X39158300Y-31266000D03*
X36567500Y-31266000D03*
X33976700Y-31266000D03*
X49572300Y-31240600D03*
X39183700Y-48741200D03*
X49587303Y-48741200D03*
X33976922Y-48741631D03*
X36568836Y-48741631D03*
X41761800Y-60844300D03*
X39171000Y-60844300D03*
X36567500Y-60844300D03*
X33964000Y-60844300D03*
X29417400Y-62139700D03*
X39183700Y-45363000D03*
X36567500Y-45388400D03*
X29404617Y-45388281D03*
X33976700Y-45363000D03*
X28185500Y-47649000D03*
X28185500Y-30123000D03*
X50791500Y-46633000D03*
X50810500Y-64142000D03*
X52578000Y-65532000D03*
X52578000Y-66548000D03*
X52578000Y-66040000D03*
D26*
X42430000Y-27964000D02*
X42430000Y-30181401D01*
X42430000Y-30181401D02*
X42426001Y-30185400D01*
X42426001Y-30185400D02*
X42426001Y-43331000D01*
X42426001Y-43331000D02*
X42426001Y-43839000D01*
X42420000Y-44347000D02*
X42420000Y-43845001D01*
X42420000Y-43845001D02*
X42426001Y-43839000D01*
X42425500Y-53027000D02*
X42425500Y-53547000D01*
X42425500Y-52507000D02*
X42425500Y-50557000D01*
X42425500Y-50557000D02*
X42425500Y-47735901D01*
X42425500Y-52507000D02*
X42425500Y-53027000D01*
X42425500Y-47735901D02*
X42426001Y-47735400D01*
X42330000Y-69231623D02*
X42330000Y-70501623D01*
X41844000Y-72517000D02*
X42865000Y-72517000D01*
X42865000Y-72517000D02*
X42865000Y-71036623D01*
X42865000Y-71036623D02*
X42330000Y-70501623D01*
X41844000Y-72517000D02*
X41844000Y-70987623D01*
X41844000Y-70987623D02*
X42330000Y-70501623D01*
X48276001Y-32255596D02*
X48277120Y-32256715D01*
X48276001Y-30185400D02*
X48276001Y-32255596D01*
X48926001Y-32242397D02*
X48911683Y-32256715D01*
X48926001Y-30185400D02*
X48926001Y-32242397D01*
X30076000Y-30185400D02*
X30076000Y-31255100D01*
X30076000Y-31255100D02*
X30065100Y-31266000D01*
X31376000Y-30185400D02*
X31376000Y-31250500D01*
X31376000Y-31250500D02*
X31360500Y-31266000D01*
X32676000Y-30185400D02*
X32676000Y-31248000D01*
X32676000Y-31248000D02*
X32694000Y-31266000D01*
X35276000Y-30185400D02*
X35276000Y-31262100D01*
X35276000Y-31262100D02*
X35272100Y-31266000D01*
X37876000Y-30185400D02*
X37876000Y-31253700D01*
X37876000Y-31253700D02*
X37888300Y-31266000D01*
X40476001Y-30185400D02*
X40476001Y-31262901D01*
X40476001Y-31262901D02*
X40479100Y-31266000D01*
X44376001Y-30185400D02*
X44376001Y-31229899D01*
X44376001Y-31229899D02*
X44365300Y-31240600D01*
X45676001Y-30185400D02*
X45676001Y-31230501D01*
X45676001Y-31230501D02*
X45686100Y-31240600D01*
X46976001Y-30185400D02*
X46976001Y-31235101D01*
X46976001Y-31235101D02*
X46981500Y-31240600D01*
X48276001Y-49400582D02*
X48276895Y-49401476D01*
X48276001Y-47735400D02*
X48276001Y-49400582D01*
X48926001Y-49391603D02*
X48937004Y-49402606D01*
X48926001Y-47735400D02*
X48926001Y-49391603D01*
X46976001Y-47735400D02*
X46976001Y-48735701D01*
X46976001Y-48735701D02*
X46981500Y-48741200D01*
X45676001Y-47735400D02*
X45676001Y-48731101D01*
X45676001Y-48731101D02*
X45686100Y-48741200D01*
X44376001Y-47735400D02*
X44376001Y-48726501D01*
X44376001Y-48726501D02*
X44390700Y-48741200D01*
X43076001Y-47735400D02*
X43076001Y-48735099D01*
X43076001Y-48735099D02*
X43069900Y-48741200D01*
X40476001Y-47735400D02*
X40476001Y-48738101D01*
X40476001Y-48738101D02*
X40479100Y-48741200D01*
X30076000Y-48724867D02*
X30091157Y-48740024D01*
X30076000Y-47735400D02*
X30076000Y-48724867D01*
X31376000Y-48732621D02*
X31385010Y-48741631D01*
X31376000Y-47735400D02*
X31376000Y-48732621D01*
X32676000Y-48736667D02*
X32680966Y-48741633D01*
X32676000Y-47735400D02*
X32676000Y-48736667D01*
X37876000Y-48729331D02*
X37888300Y-48741631D01*
X37876000Y-47735400D02*
X37876000Y-48729331D01*
X35276000Y-48738509D02*
X35272878Y-48741631D01*
X35276000Y-47735400D02*
X35276000Y-48738509D01*
X28185500Y-44994000D02*
X27562500Y-44994000D01*
X27562500Y-44994000D02*
X27550500Y-44982000D01*
X28185500Y-44994000D02*
X28185500Y-44347000D01*
X28185500Y-27341000D02*
X28808500Y-27341000D01*
X28808500Y-27341000D02*
X28820500Y-27329000D01*
X28185500Y-27341000D02*
X27562500Y-27341000D01*
X27562500Y-27341000D02*
X27550500Y-27329000D01*
X28185500Y-27341000D02*
X28185500Y-26694000D01*
X40897500Y-27964000D02*
X40897500Y-28587000D01*
X40897500Y-28587000D02*
X40885500Y-28599000D01*
X40897500Y-27964000D02*
X40250500Y-27964000D01*
X50800000Y-68580000D02*
X49672500Y-68580000D01*
X49672500Y-68580000D02*
X49648500Y-68604000D01*
X51933100Y-68580000D02*
X51934500Y-68578600D01*
X50800000Y-68580000D02*
X51933100Y-68580000D01*
X64770000Y-67703000D02*
X64114500Y-67703000D01*
X64114500Y-67703000D02*
X64113800Y-67702300D01*
X64770000Y-67703000D02*
X65421200Y-67703000D01*
X65421200Y-67703000D02*
X65421900Y-67702300D01*
X64770000Y-67703000D02*
X64770000Y-67058800D01*
X64770000Y-67058800D02*
X64774200Y-67054600D01*
X64770000Y-65647000D02*
X65432500Y-65647000D01*
X65432500Y-65647000D02*
X65434600Y-65644900D01*
X64770000Y-65647000D02*
X64115900Y-65647000D01*
X64115900Y-65647000D02*
X64113800Y-65644900D01*
X64770000Y-65647000D02*
X64770000Y-66313800D01*
X64770000Y-66313800D02*
X64774200Y-66318000D01*
X35297500Y-67042600D02*
X35297500Y-67715000D01*
X29083000Y-67044000D02*
X29083000Y-67710800D01*
X29083000Y-67710800D02*
X29087200Y-67715000D01*
X29083000Y-67044000D02*
X28454300Y-67044000D01*
X28454300Y-67044000D02*
X28452200Y-67041900D01*
X29083000Y-67044000D02*
X29707400Y-67044000D01*
X29707400Y-67044000D02*
X29709500Y-67041900D01*
X48759500Y-62381000D02*
X49140500Y-62000000D01*
X48759500Y-62774000D02*
X48759500Y-62381000D01*
X48759500Y-62381000D02*
X48378500Y-62000000D01*
X32170589Y-70501623D02*
X30900000Y-70501623D01*
X37250589Y-70501623D02*
X35980000Y-70501623D01*
X41060000Y-70505400D02*
X39790000Y-70505400D01*
X39790000Y-70505400D02*
X39790000Y-72363000D01*
X39790000Y-72363000D02*
X39944000Y-72517000D01*
X39944000Y-72517000D02*
X39370000Y-72517000D01*
D27*
X61087000Y-69215000D02*
X64758000Y-69215000D01*
X64758000Y-69215000D02*
X64770000Y-69203000D01*
X56896000Y-67310000D02*
X59182000Y-67310000D01*
X59182000Y-67310000D02*
X61087000Y-69215000D01*
X61087000Y-64135000D02*
X64758000Y-64135000D01*
X64758000Y-64135000D02*
X64770000Y-64147000D01*
X56896000Y-66040000D02*
X59182000Y-66040000D01*
X59182000Y-66040000D02*
X61087000Y-64135000D01*
X47625500Y-29302000D02*
X47625500Y-30184899D01*
X47625500Y-30184899D02*
X47626001Y-30185400D01*
X47626001Y-30185400D02*
X47626001Y-47735400D01*
X47626001Y-47735400D02*
X47626001Y-62204569D01*
X47626001Y-62204569D02*
X47338722Y-62491848D01*
X47338722Y-62491848D02*
X46888722Y-62491848D01*
X46325500Y-29302000D02*
X46325500Y-30184899D01*
X46325500Y-30184899D02*
X46326001Y-30185400D01*
X46326001Y-30185400D02*
X46326001Y-47735400D01*
X46326001Y-47735400D02*
X46326001Y-62254569D01*
X46326001Y-62254569D02*
X46088722Y-62491848D01*
X45025500Y-29302000D02*
X45025500Y-30184899D01*
X45025500Y-30184899D02*
X45026001Y-30185400D01*
X45026001Y-30185400D02*
X45026001Y-47735400D01*
X45026001Y-47735400D02*
X45026001Y-62229127D01*
X45026001Y-62229127D02*
X45288722Y-62491848D01*
X43725500Y-29302000D02*
X43725500Y-30184899D01*
X43725500Y-30184899D02*
X43726001Y-30185400D01*
X43726001Y-30185400D02*
X43726001Y-47735400D01*
X43726001Y-47735400D02*
X43726001Y-62179127D01*
X43726001Y-62179127D02*
X44038722Y-62491848D01*
X44038722Y-62491848D02*
X44488722Y-62491848D01*
X41125500Y-29302000D02*
X41125500Y-30184899D01*
X41125500Y-30184899D02*
X41126001Y-30185400D01*
X41126001Y-30185400D02*
X41126001Y-47735400D01*
X41126001Y-47735400D02*
X41126001Y-61554569D01*
X41126001Y-61554569D02*
X40188722Y-62491848D01*
X40188722Y-62491848D02*
X39738722Y-62491848D01*
X39826001Y-61169567D02*
X38938722Y-62056846D01*
X38938722Y-62056846D02*
X38938722Y-62491848D01*
X39825500Y-29302000D02*
X39825500Y-30184899D01*
X39825500Y-30184899D02*
X39826001Y-30185400D01*
X39826001Y-30185400D02*
X39826001Y-47735400D01*
X39826001Y-47735400D02*
X39826001Y-61169567D01*
X38525500Y-29302000D02*
X38525500Y-30184900D01*
X38525500Y-30184900D02*
X38526000Y-30185400D01*
X38526000Y-30185400D02*
X38526000Y-47735400D01*
D26*
X38547000Y-67056000D02*
X38547000Y-69208989D01*
D27*
X38547000Y-69208989D02*
X38520589Y-69235400D01*
X38674000Y-69081989D02*
X38520589Y-69235400D01*
X37225500Y-29302000D02*
X37225500Y-30184900D01*
X37225500Y-30184900D02*
X37226000Y-30185400D01*
X37226000Y-30185400D02*
X37226000Y-47735400D01*
X37226000Y-47735400D02*
X37226000Y-61144124D01*
X37226000Y-61144124D02*
X38138722Y-62056846D01*
X38138722Y-62056846D02*
X38138722Y-62491848D01*
X35925500Y-29302000D02*
X35925500Y-30184900D01*
X35925500Y-30184900D02*
X35926000Y-30185400D01*
X35926000Y-30185400D02*
X35926000Y-47735400D01*
X35926000Y-47735400D02*
X35926000Y-61529126D01*
X35926000Y-61529126D02*
X36888722Y-62491848D01*
X36888722Y-62491848D02*
X37338722Y-62491848D01*
X34625500Y-29302000D02*
X34625500Y-30184900D01*
X34625500Y-30184900D02*
X34626000Y-30185400D01*
X34626000Y-30185400D02*
X34626000Y-47735400D01*
X34626000Y-47735400D02*
X34626000Y-61504570D01*
X34626000Y-61504570D02*
X33888722Y-62241848D01*
X33888722Y-62241848D02*
X33888722Y-62491848D01*
X33326000Y-29303056D02*
X33325219Y-29302275D01*
X33326000Y-30185400D02*
X33326000Y-29303056D01*
X33326000Y-30185400D02*
X33326000Y-47735400D01*
X33326000Y-47735400D02*
X33326000Y-62254570D01*
X33326000Y-62254570D02*
X33088722Y-62491848D01*
X32026000Y-29303267D02*
X32024431Y-29301698D01*
X32026000Y-30185400D02*
X32026000Y-29303267D01*
X32026000Y-30185400D02*
X32026000Y-47735400D01*
X32026000Y-47735400D02*
X32026000Y-62229126D01*
X32026000Y-62229126D02*
X32288722Y-62491848D01*
X30726000Y-29304383D02*
X30727006Y-29303377D01*
X30726000Y-30185400D02*
X30726000Y-29304383D01*
X30726000Y-30185400D02*
X30726000Y-47735400D01*
X30726000Y-47735400D02*
X30726000Y-61479126D01*
X30726000Y-61479126D02*
X31488722Y-62241848D01*
X31488722Y-62241848D02*
X31488722Y-62491848D01*
D26*
X39243000Y-65278000D02*
X40513000Y-65278000D01*
X40513000Y-65278000D02*
X41783000Y-65278000D01*
X40513000Y-65278000D02*
X40513000Y-65786000D01*
X37969999Y-65278000D02*
X38481000Y-65278000D01*
X38481000Y-65278000D02*
X39243000Y-65278000D01*
X38938722Y-64291848D02*
X38938722Y-65111848D01*
X38938722Y-65111848D02*
X38772570Y-65278000D01*
X38772570Y-65278000D02*
X38481000Y-65278000D01*
X38138722Y-65111848D02*
X37972570Y-65278000D01*
X37972570Y-65278000D02*
X37744999Y-65278000D01*
X41783000Y-65278000D02*
X41783000Y-65786000D01*
X41976000Y-65471000D02*
X41783000Y-65278000D01*
X37744999Y-65278000D02*
X37969999Y-65278000D01*
X39243000Y-65278000D02*
X39243000Y-65786000D01*
X44323000Y-65786000D02*
X44323000Y-66309500D01*
X44323000Y-66309500D02*
X44314500Y-66318000D01*
X49013500Y-70001000D02*
X48518200Y-70001000D01*
X49013500Y-70509000D02*
X49013500Y-70001000D01*
X48518200Y-70509000D02*
X48518200Y-70001000D01*
X49013500Y-71017000D02*
X48518200Y-71017000D01*
X49013500Y-70509000D02*
X49013500Y-71017000D01*
X48518200Y-70509000D02*
X48518200Y-71017000D01*
X48518200Y-70509000D02*
X49013500Y-70509000D01*
X47410000Y-70505400D02*
X48514600Y-70505400D01*
X48514600Y-70505400D02*
X48518200Y-70509000D01*
X46140589Y-70505400D02*
X46140589Y-71141411D01*
X46140589Y-71141411D02*
X44765000Y-72517000D01*
X33909000Y-65786000D02*
X35054100Y-65786000D01*
X35054100Y-65786000D02*
X35297500Y-65542600D01*
X33909000Y-65278000D02*
X35032900Y-65278000D01*
X35032900Y-65278000D02*
X35297500Y-65542600D01*
X36576000Y-65786000D02*
X35540900Y-65786000D01*
X35540900Y-65786000D02*
X35297500Y-65542600D01*
X36576000Y-65278000D02*
X35562100Y-65278000D01*
X35562100Y-65278000D02*
X35297500Y-65542600D01*
X45720000Y-65786000D02*
X45720000Y-66309500D01*
X45720000Y-66309500D02*
X45711500Y-66318000D01*
X46990000Y-65786000D02*
X46990000Y-66309500D01*
X46990000Y-66309500D02*
X46981500Y-66318000D01*
X48759500Y-64274000D02*
X48759500Y-65015500D01*
X48759500Y-65015500D02*
X49022000Y-65278000D01*
X48759500Y-64274000D02*
X48759500Y-65032500D01*
X48759500Y-65032500D02*
X48514000Y-65278000D01*
X48505500Y-66318000D02*
X49013500Y-66318000D01*
X49022000Y-65786000D02*
X49022000Y-66309500D01*
X49022000Y-66309500D02*
X49013500Y-66318000D01*
X48514000Y-65786000D02*
X48514000Y-66309500D01*
X48514000Y-66309500D02*
X48505500Y-66318000D01*
X39738722Y-64291848D02*
X39738722Y-64503722D01*
X39738722Y-64503722D02*
X40513000Y-65278000D01*
X32639000Y-65278000D02*
X32131000Y-65278000D01*
X32131000Y-65278000D02*
X31369000Y-65278000D01*
X32288722Y-64291848D02*
X32288722Y-65120278D01*
X32288722Y-65120278D02*
X32131000Y-65278000D01*
X33909000Y-65278000D02*
X33147000Y-65278000D01*
X33147000Y-65278000D02*
X32639000Y-65278000D01*
X33088722Y-64291848D02*
X33088722Y-65111848D01*
X33088722Y-65111848D02*
X33147000Y-65170126D01*
X33147000Y-65170126D02*
X33147000Y-65278000D01*
X38138722Y-64291848D02*
X38138722Y-65111848D01*
X37338722Y-64291848D02*
X37338722Y-64515278D01*
X37338722Y-64515278D02*
X36576000Y-65278000D01*
X49022000Y-65278000D02*
X49022000Y-65786000D01*
X48514000Y-65786000D02*
X49022000Y-65786000D01*
X48514000Y-65278000D02*
X49022000Y-65278000D01*
X42799000Y-65471000D02*
X41976000Y-65471000D01*
X46990000Y-65786000D02*
X48514000Y-65786000D01*
X46990000Y-65278000D02*
X48514000Y-65278000D01*
X48514000Y-65278000D02*
X48514000Y-65786000D01*
X48526000Y-65266000D02*
X48514000Y-65278000D01*
X36576000Y-65786000D02*
X37744999Y-65786000D01*
X31369000Y-65278000D02*
X31369000Y-65786000D01*
X31488722Y-64291848D02*
X31488722Y-65158278D01*
X31488722Y-65158278D02*
X31369000Y-65278000D01*
X32639000Y-65786000D02*
X31369000Y-65786000D01*
X37744999Y-65786000D02*
X37969999Y-65786000D01*
X42799000Y-65471000D02*
X42098000Y-65471000D01*
X46990000Y-65278000D02*
X45720000Y-65278000D01*
X46990000Y-65786000D02*
X45720000Y-65786000D01*
X46990000Y-65278000D02*
X46990000Y-65786000D01*
X46888722Y-64291848D02*
X46888722Y-65176722D01*
X46888722Y-65176722D02*
X46990000Y-65278000D01*
X44323000Y-65786000D02*
X45720000Y-65786000D01*
X45720000Y-65278000D02*
X44323000Y-65278000D01*
X46088722Y-64291848D02*
X46088722Y-64909278D01*
X46088722Y-64909278D02*
X45720000Y-65278000D01*
X45720000Y-65278000D02*
X45720000Y-65786000D01*
X45288722Y-64291848D02*
X45288722Y-64846722D01*
X45288722Y-64846722D02*
X45720000Y-65278000D01*
X44323000Y-65278000D02*
X44323000Y-65786000D01*
X44488722Y-64291848D02*
X44488722Y-65112278D01*
X44488722Y-65112278D02*
X44323000Y-65278000D01*
X28194000Y-65278000D02*
X29972000Y-65278000D01*
X29972000Y-65278000D02*
X29972000Y-65786000D01*
X27686000Y-64770000D02*
X28194000Y-64770000D01*
X28194000Y-65278000D02*
X28194000Y-65786000D01*
X27686000Y-65278000D02*
X27686000Y-65786000D01*
X32639000Y-65786000D02*
X33909000Y-65786000D01*
X36576000Y-65278000D02*
X37744999Y-65278000D01*
X27686000Y-65278000D02*
X27686000Y-64770000D01*
X28194000Y-65278000D02*
X28194000Y-64770000D01*
X29083000Y-65798000D02*
X29452000Y-65798000D01*
X29083000Y-65798000D02*
X29960000Y-65798000D01*
X29960000Y-65798000D02*
X29972000Y-65786000D01*
X36576000Y-65786000D02*
X36576000Y-65278000D01*
X36564000Y-65798000D02*
X36576000Y-65786000D01*
X33909000Y-65278000D02*
X33909000Y-65786000D01*
X32639000Y-65278000D02*
X32639000Y-65786000D01*
X28194000Y-65278000D02*
X27686000Y-65278000D01*
X28194000Y-65786000D02*
X27686000Y-65786000D01*
X29083000Y-65798000D02*
X28714000Y-65798000D01*
X29083000Y-65798000D02*
X28206000Y-65798000D01*
X28206000Y-65798000D02*
X28194000Y-65786000D01*
X33888722Y-64291848D02*
X33888722Y-65257722D01*
X33888722Y-65257722D02*
X33909000Y-65278000D01*
X46140589Y-70505400D02*
X47410000Y-70505400D01*
X40513000Y-65786000D02*
X41783000Y-65786000D01*
X39243000Y-65786000D02*
X40513000Y-65786000D01*
X37969999Y-65786000D02*
X39243000Y-65786000D01*
X42098000Y-65471000D02*
X41783000Y-65786000D01*
X42799000Y-67371000D02*
X50739000Y-67371000D01*
D27*
X50739000Y-67371000D02*
X50800000Y-67310000D01*
D26*
X42799000Y-67371000D02*
X40762000Y-67371000D01*
X40762000Y-67371000D02*
X40447000Y-67056000D01*
D27*
X43076001Y-30185400D02*
X43076001Y-44861499D01*
X43076001Y-44861499D02*
X41776001Y-46161499D01*
X41776001Y-46885400D02*
X41776001Y-47735400D01*
X41776001Y-46161499D02*
X41776001Y-46885400D01*
X41774500Y-28853000D02*
X41774500Y-30183899D01*
X41774500Y-30183899D02*
X41776001Y-30185400D01*
D26*
X44870000Y-70505400D02*
X43812295Y-71563105D01*
X51373520Y-73602480D02*
X56396000Y-68580000D01*
X43812295Y-71563105D02*
X43812295Y-73326437D01*
X43812295Y-73326437D02*
X44088338Y-73602480D01*
X44088338Y-73602480D02*
X51373520Y-73602480D01*
X56396000Y-68580000D02*
X56896000Y-68580000D01*
X39176000Y-30185400D02*
X39176000Y-31248300D01*
X39176000Y-31248300D02*
X39158300Y-31266000D01*
X36576000Y-30185400D02*
X36576000Y-31257500D01*
X36576000Y-31257500D02*
X36567500Y-31266000D01*
X33976000Y-30185400D02*
X33976000Y-31265300D01*
X33976000Y-31265300D02*
X33976700Y-31266000D01*
X49576001Y-30185400D02*
X49576001Y-31236899D01*
X49576001Y-31236899D02*
X49572300Y-31240600D01*
X39176000Y-47735400D02*
X39176000Y-48733500D01*
X39176000Y-48733500D02*
X39183700Y-48741200D01*
X49576001Y-47735400D02*
X49576001Y-48729898D01*
X49576001Y-48729898D02*
X49587303Y-48741200D01*
X33976000Y-48740709D02*
X33976922Y-48741631D01*
X33976000Y-47735400D02*
X33976000Y-48740709D01*
X36576000Y-48734467D02*
X36568836Y-48741631D01*
X36576000Y-47735400D02*
X36576000Y-48734467D01*
X28185500Y-46494000D02*
X28185500Y-47649000D01*
X29426000Y-47735400D02*
X28271900Y-47735400D01*
X28271900Y-47735400D02*
X28185500Y-47649000D01*
X28185500Y-28841000D02*
X28185500Y-30123000D01*
X29426000Y-30185400D02*
X28247900Y-30185400D01*
X28247900Y-30185400D02*
X28185500Y-30123000D01*
X52578000Y-66548000D02*
X51308000Y-66548000D01*
X51308000Y-66548000D02*
X50800000Y-66040000D01*
X52578000Y-65532000D02*
X51308000Y-65532000D01*
X51308000Y-65532000D02*
X50800000Y-66040000D01*
X52578000Y-66040000D02*
X52578000Y-65532000D01*
X52578000Y-66040000D02*
X52578000Y-66548000D01*
X50800000Y-66040000D02*
X52578000Y-66040000D01*
X29630000Y-70501623D02*
X29630000Y-69235400D01*
X34710000Y-70501623D02*
X33440589Y-70501623D01*
D28*
G36*
X49641633Y-65555955D02*
X49624296Y-65581329D01*
X49592164Y-65740000D01*
X49592164Y-66340000D01*
X49620056Y-66488231D01*
X49638332Y-66516632D01*
X49637743Y-66687956D01*
X43674979Y-66691285D01*
X43607671Y-66645296D01*
X43449000Y-66613164D01*
X42149000Y-66613164D01*
X42000769Y-66641056D01*
X41921189Y-66692264D01*
X41204836Y-66692664D01*
X41204836Y-66406000D01*
X41176944Y-66257769D01*
X41089340Y-66121628D01*
X40955671Y-66030296D01*
X40797000Y-65998164D01*
X40097000Y-65998164D01*
X39948769Y-66026056D01*
X39812628Y-66113660D01*
X39721296Y-66247329D01*
X39689164Y-66406000D01*
X39689164Y-66693511D01*
X39304836Y-66693725D01*
X39304836Y-66406000D01*
X39276944Y-66257769D01*
X39189340Y-66121628D01*
X39055671Y-66030296D01*
X38897000Y-65998164D01*
X38197000Y-65998164D01*
X38048769Y-66026056D01*
X37912628Y-66113660D01*
X37821296Y-66247329D01*
X37789164Y-66406000D01*
X37789164Y-66694571D01*
X36080336Y-66695526D01*
X36080336Y-66642600D01*
X36052444Y-66494369D01*
X35964840Y-66358228D01*
X35870295Y-66293628D01*
X35899082Y-66281704D01*
X36011604Y-66169182D01*
X36072500Y-66022165D01*
X36072500Y-65692600D01*
X36000900Y-65621000D01*
X41749000Y-65621000D01*
X41749000Y-65900565D01*
X41809896Y-66047582D01*
X41922418Y-66160104D01*
X42069435Y-66221000D01*
X42649000Y-66221000D01*
X42749000Y-66121000D01*
X42749000Y-65521000D01*
X42849000Y-65521000D01*
X42849000Y-66121000D01*
X42949000Y-66221000D01*
X43528565Y-66221000D01*
X43675582Y-66160104D01*
X43788104Y-66047582D01*
X43849000Y-65900565D01*
X43849000Y-65621000D01*
X43749000Y-65521000D01*
X42849000Y-65521000D01*
X42749000Y-65521000D01*
X41849000Y-65521000D01*
X41749000Y-65621000D01*
X36000900Y-65621000D01*
X35972500Y-65592600D01*
X35347500Y-65592600D01*
X35347500Y-65612600D01*
X35247500Y-65612600D01*
X35247500Y-65592600D01*
X34622500Y-65592600D01*
X34522500Y-65692600D01*
X34522500Y-66022165D01*
X34583396Y-66169182D01*
X34695918Y-66281704D01*
X34725576Y-66293989D01*
X34638128Y-66350260D01*
X34546796Y-66483929D01*
X34514664Y-66642600D01*
X34514664Y-66696400D01*
X30243978Y-66698784D01*
X30239658Y-66688329D01*
X30063996Y-66512360D01*
X29834366Y-66417009D01*
X29787237Y-66416968D01*
X29750340Y-66359628D01*
X29655795Y-66295028D01*
X29684582Y-66283104D01*
X29797104Y-66170582D01*
X29858000Y-66023565D01*
X29858000Y-65694000D01*
X29758000Y-65594000D01*
X29133000Y-65594000D01*
X29133000Y-65614000D01*
X29033000Y-65614000D01*
X29033000Y-65594000D01*
X28408000Y-65594000D01*
X28308000Y-65694000D01*
X28308000Y-66023565D01*
X28368896Y-66170582D01*
X28481418Y-66283104D01*
X28511076Y-66295389D01*
X28423628Y-66351660D01*
X28379095Y-66416836D01*
X28328425Y-66416792D01*
X28098629Y-66511742D01*
X27922660Y-66687404D01*
X27917395Y-66700083D01*
X27091948Y-66700544D01*
X27097570Y-65064435D01*
X28308000Y-65064435D01*
X28308000Y-65394000D01*
X28408000Y-65494000D01*
X29033000Y-65494000D01*
X29033000Y-64844000D01*
X29133000Y-64844000D01*
X29133000Y-65494000D01*
X29758000Y-65494000D01*
X29858000Y-65394000D01*
X29858000Y-65064435D01*
X29797104Y-64917418D01*
X29684582Y-64804896D01*
X29537565Y-64744000D01*
X29233000Y-64744000D01*
X29133000Y-64844000D01*
X29033000Y-64844000D01*
X28933000Y-64744000D01*
X28628435Y-64744000D01*
X28481418Y-64804896D01*
X28368896Y-64917418D01*
X28308000Y-65064435D01*
X27097570Y-65064435D01*
X27099709Y-64441848D01*
X30888722Y-64441848D01*
X30888722Y-64821413D01*
X30949618Y-64968430D01*
X31062140Y-65080952D01*
X31209157Y-65141848D01*
X31338722Y-65141848D01*
X31438722Y-65041848D01*
X31438722Y-64341848D01*
X31538722Y-64341848D01*
X31538722Y-65041848D01*
X31638722Y-65141848D01*
X31768287Y-65141848D01*
X31888722Y-65091963D01*
X32009157Y-65141848D01*
X32138722Y-65141848D01*
X32238722Y-65041848D01*
X32238722Y-64341848D01*
X32338722Y-64341848D01*
X32338722Y-65041848D01*
X32438722Y-65141848D01*
X32568287Y-65141848D01*
X32688722Y-65091963D01*
X32809157Y-65141848D01*
X32938722Y-65141848D01*
X33038722Y-65041848D01*
X33038722Y-64341848D01*
X33138722Y-64341848D01*
X33138722Y-65041848D01*
X33238722Y-65141848D01*
X33368287Y-65141848D01*
X33488722Y-65091963D01*
X33609157Y-65141848D01*
X33738722Y-65141848D01*
X33838722Y-65041848D01*
X33838722Y-64341848D01*
X33938722Y-64341848D01*
X33938722Y-65041848D01*
X34038722Y-65141848D01*
X34168287Y-65141848D01*
X34315304Y-65080952D01*
X34333221Y-65063035D01*
X34522500Y-65063035D01*
X34522500Y-65392600D01*
X34622500Y-65492600D01*
X35247500Y-65492600D01*
X35247500Y-64842600D01*
X35347500Y-64842600D01*
X35347500Y-65492600D01*
X35972500Y-65492600D01*
X36072500Y-65392600D01*
X36072500Y-65063035D01*
X36011604Y-64916018D01*
X35899082Y-64803496D01*
X35752065Y-64742600D01*
X35447500Y-64742600D01*
X35347500Y-64842600D01*
X35247500Y-64842600D01*
X35147500Y-64742600D01*
X34842935Y-64742600D01*
X34695918Y-64803496D01*
X34583396Y-64916018D01*
X34522500Y-65063035D01*
X34333221Y-65063035D01*
X34427826Y-64968430D01*
X34488722Y-64821413D01*
X34488722Y-64441848D01*
X36738722Y-64441848D01*
X36738722Y-64821413D01*
X36799618Y-64968430D01*
X36912140Y-65080952D01*
X37059157Y-65141848D01*
X37188722Y-65141848D01*
X37288722Y-65041848D01*
X37288722Y-64341848D01*
X37388722Y-64341848D01*
X37388722Y-65041848D01*
X37488722Y-65141848D01*
X37618287Y-65141848D01*
X37738722Y-65091963D01*
X37859157Y-65141848D01*
X37988722Y-65141848D01*
X38088722Y-65041848D01*
X38088722Y-64341848D01*
X38188722Y-64341848D01*
X38188722Y-65041848D01*
X38288722Y-65141848D01*
X38418287Y-65141848D01*
X38538722Y-65091963D01*
X38659157Y-65141848D01*
X38788722Y-65141848D01*
X38888722Y-65041848D01*
X38888722Y-64341848D01*
X38988722Y-64341848D01*
X38988722Y-65041848D01*
X39088722Y-65141848D01*
X39218287Y-65141848D01*
X39338722Y-65091963D01*
X39459157Y-65141848D01*
X39588722Y-65141848D01*
X39688722Y-65041848D01*
X39688722Y-64341848D01*
X39788722Y-64341848D01*
X39788722Y-65041848D01*
X39888722Y-65141848D01*
X40018287Y-65141848D01*
X40165304Y-65080952D01*
X40204821Y-65041435D01*
X41749000Y-65041435D01*
X41749000Y-65321000D01*
X41849000Y-65421000D01*
X42749000Y-65421000D01*
X42749000Y-64821000D01*
X42849000Y-64821000D01*
X42849000Y-65421000D01*
X43749000Y-65421000D01*
X43849000Y-65321000D01*
X43849000Y-65041435D01*
X43788104Y-64894418D01*
X43675582Y-64781896D01*
X43528565Y-64721000D01*
X42949000Y-64721000D01*
X42849000Y-64821000D01*
X42749000Y-64821000D01*
X42649000Y-64721000D01*
X42069435Y-64721000D01*
X41922418Y-64781896D01*
X41809896Y-64894418D01*
X41749000Y-65041435D01*
X40204821Y-65041435D01*
X40277826Y-64968430D01*
X40338722Y-64821413D01*
X40338722Y-64441848D01*
X43888722Y-64441848D01*
X43888722Y-64821413D01*
X43949618Y-64968430D01*
X44062140Y-65080952D01*
X44209157Y-65141848D01*
X44338722Y-65141848D01*
X44438722Y-65041848D01*
X44438722Y-64341848D01*
X44538722Y-64341848D01*
X44538722Y-65041848D01*
X44638722Y-65141848D01*
X44768287Y-65141848D01*
X44888722Y-65091963D01*
X45009157Y-65141848D01*
X45138722Y-65141848D01*
X45238722Y-65041848D01*
X45238722Y-64341848D01*
X45338722Y-64341848D01*
X45338722Y-65041848D01*
X45438722Y-65141848D01*
X45568287Y-65141848D01*
X45688722Y-65091963D01*
X45809157Y-65141848D01*
X45938722Y-65141848D01*
X46038722Y-65041848D01*
X46038722Y-64341848D01*
X46138722Y-64341848D01*
X46138722Y-65041848D01*
X46238722Y-65141848D01*
X46368287Y-65141848D01*
X46488722Y-65091963D01*
X46609157Y-65141848D01*
X46738722Y-65141848D01*
X46838722Y-65041848D01*
X46838722Y-64341848D01*
X46938722Y-64341848D01*
X46938722Y-65041848D01*
X47038722Y-65141848D01*
X47168287Y-65141848D01*
X47315304Y-65080952D01*
X47427826Y-64968430D01*
X47488722Y-64821413D01*
X47488722Y-64441848D01*
X47470874Y-64424000D01*
X47984500Y-64424000D01*
X47984500Y-64753565D01*
X48045396Y-64900582D01*
X48157918Y-65013104D01*
X48304935Y-65074000D01*
X48609500Y-65074000D01*
X48709500Y-64974000D01*
X48709500Y-64324000D01*
X48809500Y-64324000D01*
X48809500Y-64974000D01*
X48909500Y-65074000D01*
X49214065Y-65074000D01*
X49361082Y-65013104D01*
X49473604Y-64900582D01*
X49534500Y-64753565D01*
X49534500Y-64424000D01*
X49434500Y-64324000D01*
X48809500Y-64324000D01*
X48709500Y-64324000D01*
X48084500Y-64324000D01*
X47984500Y-64424000D01*
X47470874Y-64424000D01*
X47388722Y-64341848D01*
X46938722Y-64341848D01*
X46838722Y-64341848D01*
X46138722Y-64341848D01*
X46038722Y-64341848D01*
X45338722Y-64341848D01*
X45238722Y-64341848D01*
X44538722Y-64341848D01*
X44438722Y-64341848D01*
X43988722Y-64341848D01*
X43888722Y-64441848D01*
X40338722Y-64441848D01*
X40238722Y-64341848D01*
X39788722Y-64341848D01*
X39688722Y-64341848D01*
X38988722Y-64341848D01*
X38888722Y-64341848D01*
X38188722Y-64341848D01*
X38088722Y-64341848D01*
X37388722Y-64341848D01*
X37288722Y-64341848D01*
X36838722Y-64341848D01*
X36738722Y-64441848D01*
X34488722Y-64441848D01*
X34388722Y-64341848D01*
X33938722Y-64341848D01*
X33838722Y-64341848D01*
X33138722Y-64341848D01*
X33038722Y-64341848D01*
X32338722Y-64341848D01*
X32238722Y-64341848D01*
X31538722Y-64341848D01*
X31438722Y-64341848D01*
X30988722Y-64341848D01*
X30888722Y-64441848D01*
X27099709Y-64441848D01*
X27102044Y-63762283D01*
X30888722Y-63762283D01*
X30888722Y-64141848D01*
X30988722Y-64241848D01*
X31438722Y-64241848D01*
X31438722Y-63541848D01*
X31538722Y-63541848D01*
X31538722Y-64241848D01*
X32238722Y-64241848D01*
X32238722Y-63541848D01*
X32338722Y-63541848D01*
X32338722Y-64241848D01*
X33038722Y-64241848D01*
X33038722Y-63541848D01*
X33138722Y-63541848D01*
X33138722Y-64241848D01*
X33838722Y-64241848D01*
X33838722Y-63541848D01*
X33938722Y-63541848D01*
X33938722Y-64241848D01*
X34388722Y-64241848D01*
X34488722Y-64141848D01*
X34488722Y-63762283D01*
X36738722Y-63762283D01*
X36738722Y-64141848D01*
X36838722Y-64241848D01*
X37288722Y-64241848D01*
X37288722Y-63541848D01*
X37388722Y-63541848D01*
X37388722Y-64241848D01*
X38088722Y-64241848D01*
X38088722Y-63541848D01*
X38188722Y-63541848D01*
X38188722Y-64241848D01*
X38888722Y-64241848D01*
X38888722Y-63541848D01*
X38988722Y-63541848D01*
X38988722Y-64241848D01*
X39688722Y-64241848D01*
X39688722Y-63541848D01*
X39788722Y-63541848D01*
X39788722Y-64241848D01*
X40238722Y-64241848D01*
X40338722Y-64141848D01*
X40338722Y-63762283D01*
X43888722Y-63762283D01*
X43888722Y-64141848D01*
X43988722Y-64241848D01*
X44438722Y-64241848D01*
X44438722Y-63541848D01*
X44538722Y-63541848D01*
X44538722Y-64241848D01*
X45238722Y-64241848D01*
X45238722Y-63541848D01*
X45338722Y-63541848D01*
X45338722Y-64241848D01*
X46038722Y-64241848D01*
X46038722Y-63541848D01*
X46138722Y-63541848D01*
X46138722Y-64241848D01*
X46838722Y-64241848D01*
X46838722Y-63541848D01*
X46938722Y-63541848D01*
X46938722Y-64241848D01*
X47388722Y-64241848D01*
X47488722Y-64141848D01*
X47488722Y-63762283D01*
X47427826Y-63615266D01*
X47315304Y-63502744D01*
X47168287Y-63441848D01*
X47038722Y-63441848D01*
X46938722Y-63541848D01*
X46838722Y-63541848D01*
X46738722Y-63441848D01*
X46609157Y-63441848D01*
X46488722Y-63491733D01*
X46368287Y-63441848D01*
X46238722Y-63441848D01*
X46138722Y-63541848D01*
X46038722Y-63541848D01*
X45938722Y-63441848D01*
X45809157Y-63441848D01*
X45688722Y-63491733D01*
X45568287Y-63441848D01*
X45438722Y-63441848D01*
X45338722Y-63541848D01*
X45238722Y-63541848D01*
X45138722Y-63441848D01*
X45009157Y-63441848D01*
X44888722Y-63491733D01*
X44768287Y-63441848D01*
X44638722Y-63441848D01*
X44538722Y-63541848D01*
X44438722Y-63541848D01*
X44338722Y-63441848D01*
X44209157Y-63441848D01*
X44062140Y-63502744D01*
X43949618Y-63615266D01*
X43888722Y-63762283D01*
X40338722Y-63762283D01*
X40277826Y-63615266D01*
X40165304Y-63502744D01*
X40018287Y-63441848D01*
X39888722Y-63441848D01*
X39788722Y-63541848D01*
X39688722Y-63541848D01*
X39588722Y-63441848D01*
X39459157Y-63441848D01*
X39338722Y-63491733D01*
X39218287Y-63441848D01*
X39088722Y-63441848D01*
X38988722Y-63541848D01*
X38888722Y-63541848D01*
X38788722Y-63441848D01*
X38659157Y-63441848D01*
X38538722Y-63491733D01*
X38418287Y-63441848D01*
X38288722Y-63441848D01*
X38188722Y-63541848D01*
X38088722Y-63541848D01*
X37988722Y-63441848D01*
X37859157Y-63441848D01*
X37738722Y-63491733D01*
X37618287Y-63441848D01*
X37488722Y-63441848D01*
X37388722Y-63541848D01*
X37288722Y-63541848D01*
X37188722Y-63441848D01*
X37059157Y-63441848D01*
X36912140Y-63502744D01*
X36799618Y-63615266D01*
X36738722Y-63762283D01*
X34488722Y-63762283D01*
X34427826Y-63615266D01*
X34315304Y-63502744D01*
X34168287Y-63441848D01*
X34038722Y-63441848D01*
X33938722Y-63541848D01*
X33838722Y-63541848D01*
X33738722Y-63441848D01*
X33609157Y-63441848D01*
X33488722Y-63491733D01*
X33368287Y-63441848D01*
X33238722Y-63441848D01*
X33138722Y-63541848D01*
X33038722Y-63541848D01*
X32938722Y-63441848D01*
X32809157Y-63441848D01*
X32688722Y-63491733D01*
X32568287Y-63441848D01*
X32438722Y-63441848D01*
X32338722Y-63541848D01*
X32238722Y-63541848D01*
X32138722Y-63441848D01*
X32009157Y-63441848D01*
X31888722Y-63491733D01*
X31768287Y-63441848D01*
X31638722Y-63441848D01*
X31538722Y-63541848D01*
X31438722Y-63541848D01*
X31338722Y-63441848D01*
X31209157Y-63441848D01*
X31062140Y-63502744D01*
X30949618Y-63615266D01*
X30888722Y-63762283D01*
X27102044Y-63762283D01*
X27103961Y-63204844D01*
X30981234Y-63202679D01*
X30996382Y-63226220D01*
X31130051Y-63317552D01*
X31288722Y-63349684D01*
X31688722Y-63349684D01*
X31836953Y-63321792D01*
X31888094Y-63288884D01*
X31930051Y-63317552D01*
X32088722Y-63349684D01*
X32488722Y-63349684D01*
X32636953Y-63321792D01*
X32688094Y-63288884D01*
X32730051Y-63317552D01*
X32888722Y-63349684D01*
X33288722Y-63349684D01*
X33436953Y-63321792D01*
X33488094Y-63288884D01*
X33530051Y-63317552D01*
X33688722Y-63349684D01*
X34088722Y-63349684D01*
X34236953Y-63321792D01*
X34373094Y-63234188D01*
X34395926Y-63200773D01*
X34776072Y-63200560D01*
X34917604Y-63342340D01*
X35147234Y-63437691D01*
X35395875Y-63437908D01*
X35625671Y-63342958D01*
X35768873Y-63200006D01*
X36829133Y-63199414D01*
X36846382Y-63226220D01*
X36980051Y-63317552D01*
X37138722Y-63349684D01*
X37538722Y-63349684D01*
X37686953Y-63321792D01*
X37738094Y-63288884D01*
X37780051Y-63317552D01*
X37938722Y-63349684D01*
X38338722Y-63349684D01*
X38486953Y-63321792D01*
X38538094Y-63288884D01*
X38580051Y-63317552D01*
X38738722Y-63349684D01*
X39138722Y-63349684D01*
X39286953Y-63321792D01*
X39338094Y-63288884D01*
X39380051Y-63317552D01*
X39538722Y-63349684D01*
X39938722Y-63349684D01*
X40086953Y-63321792D01*
X40223094Y-63234188D01*
X40248158Y-63197505D01*
X43976565Y-63195424D01*
X43996382Y-63226220D01*
X44130051Y-63317552D01*
X44288722Y-63349684D01*
X44688722Y-63349684D01*
X44836953Y-63321792D01*
X44888094Y-63288884D01*
X44930051Y-63317552D01*
X45088722Y-63349684D01*
X45488722Y-63349684D01*
X45636953Y-63321792D01*
X45688094Y-63288884D01*
X45730051Y-63317552D01*
X45888722Y-63349684D01*
X46288722Y-63349684D01*
X46436953Y-63321792D01*
X46488094Y-63288884D01*
X46530051Y-63317552D01*
X46688722Y-63349684D01*
X47088722Y-63349684D01*
X47236953Y-63321792D01*
X47373094Y-63234188D01*
X47400887Y-63193512D01*
X47980275Y-63193188D01*
X48004556Y-63322231D01*
X48092160Y-63458372D01*
X48186705Y-63522972D01*
X48157918Y-63534896D01*
X48045396Y-63647418D01*
X47984500Y-63794435D01*
X47984500Y-64124000D01*
X48084500Y-64224000D01*
X48709500Y-64224000D01*
X48709500Y-64204000D01*
X48809500Y-64204000D01*
X48809500Y-64224000D01*
X49434500Y-64224000D01*
X49534500Y-64124000D01*
X49534500Y-63794435D01*
X49473604Y-63647418D01*
X49361082Y-63534896D01*
X49331424Y-63522611D01*
X49418872Y-63466340D01*
X49510204Y-63332671D01*
X49538626Y-63192318D01*
X49649756Y-63192256D01*
X49641633Y-65555955D01*
X49641633Y-65555955D01*
G37*
X49641633Y-65555955D02*
X49624296Y-65581329D01*
X49592164Y-65740000D01*
X49592164Y-66340000D01*
X49620056Y-66488231D01*
X49638332Y-66516632D01*
X49637743Y-66687956D01*
X43674979Y-66691285D01*
X43607671Y-66645296D01*
X43449000Y-66613164D01*
X42149000Y-66613164D01*
X42000769Y-66641056D01*
X41921189Y-66692264D01*
X41204836Y-66692664D01*
X41204836Y-66406000D01*
X41176944Y-66257769D01*
X41089340Y-66121628D01*
X40955671Y-66030296D01*
X40797000Y-65998164D01*
X40097000Y-65998164D01*
X39948769Y-66026056D01*
X39812628Y-66113660D01*
X39721296Y-66247329D01*
X39689164Y-66406000D01*
X39689164Y-66693511D01*
X39304836Y-66693725D01*
X39304836Y-66406000D01*
X39276944Y-66257769D01*
X39189340Y-66121628D01*
X39055671Y-66030296D01*
X38897000Y-65998164D01*
X38197000Y-65998164D01*
X38048769Y-66026056D01*
X37912628Y-66113660D01*
X37821296Y-66247329D01*
X37789164Y-66406000D01*
X37789164Y-66694571D01*
X36080336Y-66695526D01*
X36080336Y-66642600D01*
X36052444Y-66494369D01*
X35964840Y-66358228D01*
X35870295Y-66293628D01*
X35899082Y-66281704D01*
X36011604Y-66169182D01*
X36072500Y-66022165D01*
X36072500Y-65692600D01*
X36000900Y-65621000D01*
X41749000Y-65621000D01*
X41749000Y-65900565D01*
X41809896Y-66047582D01*
X41922418Y-66160104D01*
X42069435Y-66221000D01*
X42649000Y-66221000D01*
X42749000Y-66121000D01*
X42749000Y-65521000D01*
X42849000Y-65521000D01*
X42849000Y-66121000D01*
X42949000Y-66221000D01*
X43528565Y-66221000D01*
X43675582Y-66160104D01*
X43788104Y-66047582D01*
X43849000Y-65900565D01*
X43849000Y-65621000D01*
X43749000Y-65521000D01*
X42849000Y-65521000D01*
X42749000Y-65521000D01*
X41849000Y-65521000D01*
X41749000Y-65621000D01*
X36000900Y-65621000D01*
X35972500Y-65592600D01*
X35347500Y-65592600D01*
X35347500Y-65612600D01*
X35247500Y-65612600D01*
X35247500Y-65592600D01*
X34622500Y-65592600D01*
X34522500Y-65692600D01*
X34522500Y-66022165D01*
X34583396Y-66169182D01*
X34695918Y-66281704D01*
X34725576Y-66293989D01*
X34638128Y-66350260D01*
X34546796Y-66483929D01*
X34514664Y-66642600D01*
X34514664Y-66696400D01*
X30243978Y-66698784D01*
X30239658Y-66688329D01*
X30063996Y-66512360D01*
X29834366Y-66417009D01*
X29787237Y-66416968D01*
X29750340Y-66359628D01*
X29655795Y-66295028D01*
X29684582Y-66283104D01*
X29797104Y-66170582D01*
X29858000Y-66023565D01*
X29858000Y-65694000D01*
X29758000Y-65594000D01*
X29133000Y-65594000D01*
X29133000Y-65614000D01*
X29033000Y-65614000D01*
X29033000Y-65594000D01*
X28408000Y-65594000D01*
X28308000Y-65694000D01*
X28308000Y-66023565D01*
X28368896Y-66170582D01*
X28481418Y-66283104D01*
X28511076Y-66295389D01*
X28423628Y-66351660D01*
X28379095Y-66416836D01*
X28328425Y-66416792D01*
X28098629Y-66511742D01*
X27922660Y-66687404D01*
X27917395Y-66700083D01*
X27091948Y-66700544D01*
X27097570Y-65064435D01*
X28308000Y-65064435D01*
X28308000Y-65394000D01*
X28408000Y-65494000D01*
X29033000Y-65494000D01*
X29033000Y-64844000D01*
X29133000Y-64844000D01*
X29133000Y-65494000D01*
X29758000Y-65494000D01*
X29858000Y-65394000D01*
X29858000Y-65064435D01*
X29797104Y-64917418D01*
X29684582Y-64804896D01*
X29537565Y-64744000D01*
X29233000Y-64744000D01*
X29133000Y-64844000D01*
X29033000Y-64844000D01*
X28933000Y-64744000D01*
X28628435Y-64744000D01*
X28481418Y-64804896D01*
X28368896Y-64917418D01*
X28308000Y-65064435D01*
X27097570Y-65064435D01*
X27099709Y-64441848D01*
X30888722Y-64441848D01*
X30888722Y-64821413D01*
X30949618Y-64968430D01*
X31062140Y-65080952D01*
X31209157Y-65141848D01*
X31338722Y-65141848D01*
X31438722Y-65041848D01*
X31438722Y-64341848D01*
X31538722Y-64341848D01*
X31538722Y-65041848D01*
X31638722Y-65141848D01*
X31768287Y-65141848D01*
X31888722Y-65091963D01*
X32009157Y-65141848D01*
X32138722Y-65141848D01*
X32238722Y-65041848D01*
X32238722Y-64341848D01*
X32338722Y-64341848D01*
X32338722Y-65041848D01*
X32438722Y-65141848D01*
X32568287Y-65141848D01*
X32688722Y-65091963D01*
X32809157Y-65141848D01*
X32938722Y-65141848D01*
X33038722Y-65041848D01*
X33038722Y-64341848D01*
X33138722Y-64341848D01*
X33138722Y-65041848D01*
X33238722Y-65141848D01*
X33368287Y-65141848D01*
X33488722Y-65091963D01*
X33609157Y-65141848D01*
X33738722Y-65141848D01*
X33838722Y-65041848D01*
X33838722Y-64341848D01*
X33938722Y-64341848D01*
X33938722Y-65041848D01*
X34038722Y-65141848D01*
X34168287Y-65141848D01*
X34315304Y-65080952D01*
X34333221Y-65063035D01*
X34522500Y-65063035D01*
X34522500Y-65392600D01*
X34622500Y-65492600D01*
X35247500Y-65492600D01*
X35247500Y-64842600D01*
X35347500Y-64842600D01*
X35347500Y-65492600D01*
X35972500Y-65492600D01*
X36072500Y-65392600D01*
X36072500Y-65063035D01*
X36011604Y-64916018D01*
X35899082Y-64803496D01*
X35752065Y-64742600D01*
X35447500Y-64742600D01*
X35347500Y-64842600D01*
X35247500Y-64842600D01*
X35147500Y-64742600D01*
X34842935Y-64742600D01*
X34695918Y-64803496D01*
X34583396Y-64916018D01*
X34522500Y-65063035D01*
X34333221Y-65063035D01*
X34427826Y-64968430D01*
X34488722Y-64821413D01*
X34488722Y-64441848D01*
X36738722Y-64441848D01*
X36738722Y-64821413D01*
X36799618Y-64968430D01*
X36912140Y-65080952D01*
X37059157Y-65141848D01*
X37188722Y-65141848D01*
X37288722Y-65041848D01*
X37288722Y-64341848D01*
X37388722Y-64341848D01*
X37388722Y-65041848D01*
X37488722Y-65141848D01*
X37618287Y-65141848D01*
X37738722Y-65091963D01*
X37859157Y-65141848D01*
X37988722Y-65141848D01*
X38088722Y-65041848D01*
X38088722Y-64341848D01*
X38188722Y-64341848D01*
X38188722Y-65041848D01*
X38288722Y-65141848D01*
X38418287Y-65141848D01*
X38538722Y-65091963D01*
X38659157Y-65141848D01*
X38788722Y-65141848D01*
X38888722Y-65041848D01*
X38888722Y-64341848D01*
X38988722Y-64341848D01*
X38988722Y-65041848D01*
X39088722Y-65141848D01*
X39218287Y-65141848D01*
X39338722Y-65091963D01*
X39459157Y-65141848D01*
X39588722Y-65141848D01*
X39688722Y-65041848D01*
X39688722Y-64341848D01*
X39788722Y-64341848D01*
X39788722Y-65041848D01*
X39888722Y-65141848D01*
X40018287Y-65141848D01*
X40165304Y-65080952D01*
X40204821Y-65041435D01*
X41749000Y-65041435D01*
X41749000Y-65321000D01*
X41849000Y-65421000D01*
X42749000Y-65421000D01*
X42749000Y-64821000D01*
X42849000Y-64821000D01*
X42849000Y-65421000D01*
X43749000Y-65421000D01*
X43849000Y-65321000D01*
X43849000Y-65041435D01*
X43788104Y-64894418D01*
X43675582Y-64781896D01*
X43528565Y-64721000D01*
X42949000Y-64721000D01*
X42849000Y-64821000D01*
X42749000Y-64821000D01*
X42649000Y-64721000D01*
X42069435Y-64721000D01*
X41922418Y-64781896D01*
X41809896Y-64894418D01*
X41749000Y-65041435D01*
X40204821Y-65041435D01*
X40277826Y-64968430D01*
X40338722Y-64821413D01*
X40338722Y-64441848D01*
X43888722Y-64441848D01*
X43888722Y-64821413D01*
X43949618Y-64968430D01*
X44062140Y-65080952D01*
X44209157Y-65141848D01*
X44338722Y-65141848D01*
X44438722Y-65041848D01*
X44438722Y-64341848D01*
X44538722Y-64341848D01*
X44538722Y-65041848D01*
X44638722Y-65141848D01*
X44768287Y-65141848D01*
X44888722Y-65091963D01*
X45009157Y-65141848D01*
X45138722Y-65141848D01*
X45238722Y-65041848D01*
X45238722Y-64341848D01*
X45338722Y-64341848D01*
X45338722Y-65041848D01*
X45438722Y-65141848D01*
X45568287Y-65141848D01*
X45688722Y-65091963D01*
X45809157Y-65141848D01*
X45938722Y-65141848D01*
X46038722Y-65041848D01*
X46038722Y-64341848D01*
X46138722Y-64341848D01*
X46138722Y-65041848D01*
X46238722Y-65141848D01*
X46368287Y-65141848D01*
X46488722Y-65091963D01*
X46609157Y-65141848D01*
X46738722Y-65141848D01*
X46838722Y-65041848D01*
X46838722Y-64341848D01*
X46938722Y-64341848D01*
X46938722Y-65041848D01*
X47038722Y-65141848D01*
X47168287Y-65141848D01*
X47315304Y-65080952D01*
X47427826Y-64968430D01*
X47488722Y-64821413D01*
X47488722Y-64441848D01*
X47470874Y-64424000D01*
X47984500Y-64424000D01*
X47984500Y-64753565D01*
X48045396Y-64900582D01*
X48157918Y-65013104D01*
X48304935Y-65074000D01*
X48609500Y-65074000D01*
X48709500Y-64974000D01*
X48709500Y-64324000D01*
X48809500Y-64324000D01*
X48809500Y-64974000D01*
X48909500Y-65074000D01*
X49214065Y-65074000D01*
X49361082Y-65013104D01*
X49473604Y-64900582D01*
X49534500Y-64753565D01*
X49534500Y-64424000D01*
X49434500Y-64324000D01*
X48809500Y-64324000D01*
X48709500Y-64324000D01*
X48084500Y-64324000D01*
X47984500Y-64424000D01*
X47470874Y-64424000D01*
X47388722Y-64341848D01*
X46938722Y-64341848D01*
X46838722Y-64341848D01*
X46138722Y-64341848D01*
X46038722Y-64341848D01*
X45338722Y-64341848D01*
X45238722Y-64341848D01*
X44538722Y-64341848D01*
X44438722Y-64341848D01*
X43988722Y-64341848D01*
X43888722Y-64441848D01*
X40338722Y-64441848D01*
X40238722Y-64341848D01*
X39788722Y-64341848D01*
X39688722Y-64341848D01*
X38988722Y-64341848D01*
X38888722Y-64341848D01*
X38188722Y-64341848D01*
X38088722Y-64341848D01*
X37388722Y-64341848D01*
X37288722Y-64341848D01*
X36838722Y-64341848D01*
X36738722Y-64441848D01*
X34488722Y-64441848D01*
X34388722Y-64341848D01*
X33938722Y-64341848D01*
X33838722Y-64341848D01*
X33138722Y-64341848D01*
X33038722Y-64341848D01*
X32338722Y-64341848D01*
X32238722Y-64341848D01*
X31538722Y-64341848D01*
X31438722Y-64341848D01*
X30988722Y-64341848D01*
X30888722Y-64441848D01*
X27099709Y-64441848D01*
X27102044Y-63762283D01*
X30888722Y-63762283D01*
X30888722Y-64141848D01*
X30988722Y-64241848D01*
X31438722Y-64241848D01*
X31438722Y-63541848D01*
X31538722Y-63541848D01*
X31538722Y-64241848D01*
X32238722Y-64241848D01*
X32238722Y-63541848D01*
X32338722Y-63541848D01*
X32338722Y-64241848D01*
X33038722Y-64241848D01*
X33038722Y-63541848D01*
X33138722Y-63541848D01*
X33138722Y-64241848D01*
X33838722Y-64241848D01*
X33838722Y-63541848D01*
X33938722Y-63541848D01*
X33938722Y-64241848D01*
X34388722Y-64241848D01*
X34488722Y-64141848D01*
X34488722Y-63762283D01*
X36738722Y-63762283D01*
X36738722Y-64141848D01*
X36838722Y-64241848D01*
X37288722Y-64241848D01*
X37288722Y-63541848D01*
X37388722Y-63541848D01*
X37388722Y-64241848D01*
X38088722Y-64241848D01*
X38088722Y-63541848D01*
X38188722Y-63541848D01*
X38188722Y-64241848D01*
X38888722Y-64241848D01*
X38888722Y-63541848D01*
X38988722Y-63541848D01*
X38988722Y-64241848D01*
X39688722Y-64241848D01*
X39688722Y-63541848D01*
X39788722Y-63541848D01*
X39788722Y-64241848D01*
X40238722Y-64241848D01*
X40338722Y-64141848D01*
X40338722Y-63762283D01*
X43888722Y-63762283D01*
X43888722Y-64141848D01*
X43988722Y-64241848D01*
X44438722Y-64241848D01*
X44438722Y-63541848D01*
X44538722Y-63541848D01*
X44538722Y-64241848D01*
X45238722Y-64241848D01*
X45238722Y-63541848D01*
X45338722Y-63541848D01*
X45338722Y-64241848D01*
X46038722Y-64241848D01*
X46038722Y-63541848D01*
X46138722Y-63541848D01*
X46138722Y-64241848D01*
X46838722Y-64241848D01*
X46838722Y-63541848D01*
X46938722Y-63541848D01*
X46938722Y-64241848D01*
X47388722Y-64241848D01*
X47488722Y-64141848D01*
X47488722Y-63762283D01*
X47427826Y-63615266D01*
X47315304Y-63502744D01*
X47168287Y-63441848D01*
X47038722Y-63441848D01*
X46938722Y-63541848D01*
X46838722Y-63541848D01*
X46738722Y-63441848D01*
X46609157Y-63441848D01*
X46488722Y-63491733D01*
X46368287Y-63441848D01*
X46238722Y-63441848D01*
X46138722Y-63541848D01*
X46038722Y-63541848D01*
X45938722Y-63441848D01*
X45809157Y-63441848D01*
X45688722Y-63491733D01*
X45568287Y-63441848D01*
X45438722Y-63441848D01*
X45338722Y-63541848D01*
X45238722Y-63541848D01*
X45138722Y-63441848D01*
X45009157Y-63441848D01*
X44888722Y-63491733D01*
X44768287Y-63441848D01*
X44638722Y-63441848D01*
X44538722Y-63541848D01*
X44438722Y-63541848D01*
X44338722Y-63441848D01*
X44209157Y-63441848D01*
X44062140Y-63502744D01*
X43949618Y-63615266D01*
X43888722Y-63762283D01*
X40338722Y-63762283D01*
X40277826Y-63615266D01*
X40165304Y-63502744D01*
X40018287Y-63441848D01*
X39888722Y-63441848D01*
X39788722Y-63541848D01*
X39688722Y-63541848D01*
X39588722Y-63441848D01*
X39459157Y-63441848D01*
X39338722Y-63491733D01*
X39218287Y-63441848D01*
X39088722Y-63441848D01*
X38988722Y-63541848D01*
X38888722Y-63541848D01*
X38788722Y-63441848D01*
X38659157Y-63441848D01*
X38538722Y-63491733D01*
X38418287Y-63441848D01*
X38288722Y-63441848D01*
X38188722Y-63541848D01*
X38088722Y-63541848D01*
X37988722Y-63441848D01*
X37859157Y-63441848D01*
X37738722Y-63491733D01*
X37618287Y-63441848D01*
X37488722Y-63441848D01*
X37388722Y-63541848D01*
X37288722Y-63541848D01*
X37188722Y-63441848D01*
X37059157Y-63441848D01*
X36912140Y-63502744D01*
X36799618Y-63615266D01*
X36738722Y-63762283D01*
X34488722Y-63762283D01*
X34427826Y-63615266D01*
X34315304Y-63502744D01*
X34168287Y-63441848D01*
X34038722Y-63441848D01*
X33938722Y-63541848D01*
X33838722Y-63541848D01*
X33738722Y-63441848D01*
X33609157Y-63441848D01*
X33488722Y-63491733D01*
X33368287Y-63441848D01*
X33238722Y-63441848D01*
X33138722Y-63541848D01*
X33038722Y-63541848D01*
X32938722Y-63441848D01*
X32809157Y-63441848D01*
X32688722Y-63491733D01*
X32568287Y-63441848D01*
X32438722Y-63441848D01*
X32338722Y-63541848D01*
X32238722Y-63541848D01*
X32138722Y-63441848D01*
X32009157Y-63441848D01*
X31888722Y-63491733D01*
X31768287Y-63441848D01*
X31638722Y-63441848D01*
X31538722Y-63541848D01*
X31438722Y-63541848D01*
X31338722Y-63441848D01*
X31209157Y-63441848D01*
X31062140Y-63502744D01*
X30949618Y-63615266D01*
X30888722Y-63762283D01*
X27102044Y-63762283D01*
X27103961Y-63204844D01*
X30981234Y-63202679D01*
X30996382Y-63226220D01*
X31130051Y-63317552D01*
X31288722Y-63349684D01*
X31688722Y-63349684D01*
X31836953Y-63321792D01*
X31888094Y-63288884D01*
X31930051Y-63317552D01*
X32088722Y-63349684D01*
X32488722Y-63349684D01*
X32636953Y-63321792D01*
X32688094Y-63288884D01*
X32730051Y-63317552D01*
X32888722Y-63349684D01*
X33288722Y-63349684D01*
X33436953Y-63321792D01*
X33488094Y-63288884D01*
X33530051Y-63317552D01*
X33688722Y-63349684D01*
X34088722Y-63349684D01*
X34236953Y-63321792D01*
X34373094Y-63234188D01*
X34395926Y-63200773D01*
X34776072Y-63200560D01*
X34917604Y-63342340D01*
X35147234Y-63437691D01*
X35395875Y-63437908D01*
X35625671Y-63342958D01*
X35768873Y-63200006D01*
X36829133Y-63199414D01*
X36846382Y-63226220D01*
X36980051Y-63317552D01*
X37138722Y-63349684D01*
X37538722Y-63349684D01*
X37686953Y-63321792D01*
X37738094Y-63288884D01*
X37780051Y-63317552D01*
X37938722Y-63349684D01*
X38338722Y-63349684D01*
X38486953Y-63321792D01*
X38538094Y-63288884D01*
X38580051Y-63317552D01*
X38738722Y-63349684D01*
X39138722Y-63349684D01*
X39286953Y-63321792D01*
X39338094Y-63288884D01*
X39380051Y-63317552D01*
X39538722Y-63349684D01*
X39938722Y-63349684D01*
X40086953Y-63321792D01*
X40223094Y-63234188D01*
X40248158Y-63197505D01*
X43976565Y-63195424D01*
X43996382Y-63226220D01*
X44130051Y-63317552D01*
X44288722Y-63349684D01*
X44688722Y-63349684D01*
X44836953Y-63321792D01*
X44888094Y-63288884D01*
X44930051Y-63317552D01*
X45088722Y-63349684D01*
X45488722Y-63349684D01*
X45636953Y-63321792D01*
X45688094Y-63288884D01*
X45730051Y-63317552D01*
X45888722Y-63349684D01*
X46288722Y-63349684D01*
X46436953Y-63321792D01*
X46488094Y-63288884D01*
X46530051Y-63317552D01*
X46688722Y-63349684D01*
X47088722Y-63349684D01*
X47236953Y-63321792D01*
X47373094Y-63234188D01*
X47400887Y-63193512D01*
X47980275Y-63193188D01*
X48004556Y-63322231D01*
X48092160Y-63458372D01*
X48186705Y-63522972D01*
X48157918Y-63534896D01*
X48045396Y-63647418D01*
X47984500Y-63794435D01*
X47984500Y-64124000D01*
X48084500Y-64224000D01*
X48709500Y-64224000D01*
X48709500Y-64204000D01*
X48809500Y-64204000D01*
X48809500Y-64224000D01*
X49434500Y-64224000D01*
X49534500Y-64124000D01*
X49534500Y-63794435D01*
X49473604Y-63647418D01*
X49361082Y-63534896D01*
X49331424Y-63522611D01*
X49418872Y-63466340D01*
X49510204Y-63332671D01*
X49538626Y-63192318D01*
X49649756Y-63192256D01*
X49641633Y-65555955D01*
M02*
