M48
;DRILL file {KiCad 4.0.6} date Mon Aug 28 23:48:10 2017
;FORMAT={2:4/ absolute / inch / suppress trailing zeros}
FMAT,2
INCH,LZ
T1C0.012
T2C0.026
T3C0.030
T4C0.031
%
G90
G05
M72
T1
X010847Y-010759
X010847Y-017709
X0109Y-0255
X0109Y-0257
X0109Y-0259
X011097Y-010509
X011097Y-011859
X011097Y-017459
X011097Y-018759
X0111Y-0255
X0111Y-0257
X0111Y-0259
X011202Y-026394
X011347Y-010759
X011452Y-026659
X011577Y-017869
X011582Y-024464
X011697Y-026394
X0118Y-0257
X0118Y-0259
X011837Y-012309
X011837Y-017459
X011847Y-023959
X011847Y-019189
X012097Y-011537
X012347Y-012309
X012347Y-017459
X012347Y-023959
X01235Y-0257
X01235Y-0259
X012356Y-01919
X012608Y-011536
X01285Y-0257
X01285Y-0259
X012857Y-017469
X012864Y-023961
X012867Y-01919
X012872Y-012309
X01312Y-011536
X01335Y-0257
X01335Y-0259
X013372Y-023954
X013377Y-012309
X013377Y-017859
X013377Y-01919
X013632Y-011536
X013887Y-012309
X013887Y-017849
X013887Y-024729
X013887Y-01919
X013897Y-026659
X014144Y-011536
X014397Y-012309
X014397Y-017869
X014397Y-023954
X014397Y-01919
X0144Y-0257
X0144Y-0259
X014656Y-011536
X014907Y-017869
X014907Y-023949
X014917Y-012309
X014917Y-01919
X015168Y-011536
X015417Y-012309
X015422Y-023954
X015427Y-017859
X015427Y-019189
X01545Y-0257
X01545Y-0259
X0155Y-02855
X015679Y-011536
X015847Y-011009
X015927Y-017859
X015927Y-023949
X015937Y-012309
X015937Y-019189
X01595Y-0257
X01595Y-0259
X016097Y-011259
X016191Y-011536
X016437Y-012409
X016442Y-023954
X016447Y-011359
X01645Y-0257
X01645Y-0259
X016701Y-017459
X016701Y-019495
X016701Y-0197
X016703Y-019904
X016703Y-020672
X016703Y-020877
X016703Y-021081
X016703Y-017059
X016703Y-017259
X016957Y-019189
X017215Y-011536
X017447Y-010359
X017447Y-011159
X017447Y-026109
X01745Y-0257
X01745Y-0259
X017467Y-012299
X017467Y-017859
X017467Y-023949
X017477Y-019189
X017727Y-011536
X017797Y-010759
X017977Y-017869
X017987Y-012299
X017987Y-019189
X017987Y-023949
X017997Y-026109
X018Y-0257
X018Y-0259
X018238Y-011536
X018487Y-023949
X018497Y-012299
X018497Y-017869
X018497Y-019189
X018497Y-026109
X0185Y-0257
X0185Y-0259
X01875Y-011536
X018997Y-017869
X019007Y-019449
X019007Y-012699
X019047Y-024409
X019097Y-026109
X0191Y-0257
X0191Y-0259
X019102Y-027559
X019102Y-027759
X019102Y-027959
X019257Y-012699
X019257Y-01787
X019267Y-01945
X019297Y-026109
X019297Y-027559
X019297Y-027759
X019297Y-027959
X0193Y-0257
X0193Y-0259
X019347Y-024409
X019517Y-012299
X019523Y-019189
X019547Y-027009
X019997Y-018359
X019997Y-019589
X020004Y-025253
X020277Y-019299
X020447Y-026999
X0207Y-0258
X0207Y-026
X0207Y-0262
X021797Y-025659
X021797Y-026309
X025242Y-025844
X025242Y-026654
X025502Y-026109
X025502Y-026399
X025757Y-026654
X025762Y-025844
T2
X011665Y-027258
X011665Y-027757
X012165Y-027258
X012165Y-027757
X012666Y-027258
X012666Y-027757
X013166Y-027258
X013166Y-027757
X013665Y-027258
X013665Y-027757
X014165Y-027258
X014165Y-027757
X014666Y-027258
X014666Y-027757
X015166Y-027258
X015166Y-027758
X015665Y-027258
X015665Y-027758
X016165Y-027258
X016165Y-027758
X016665Y-027257
X016665Y-027757
X017165Y-027758
X017166Y-027258
X017665Y-027758
X017666Y-027258
X018165Y-027258
X018166Y-027758
X018665Y-027258
X018665Y-027758
T3
X02405Y-02525
X02405Y-02725
T4
X01Y-0108
X01Y-018609
X01Y-0283
X020997Y-018309
X021Y-0108
X026047Y-0283
X026047Y-0238
T0
M30
