M48
;DRILL file {KiCad 4.0.6} date Tue Sep 12 13:33:15 2017
;FORMAT={2:4/ absolute / inch / suppress trailing zeros}
FMAT,2
INCH,LZ
T1C0.012
T2C0.031
T3C0.039
T4C0.087
%
G90
G05
M72
T1
X011343Y-017055
X011343Y-018307
X011343Y-020831
X011343Y-02398
X011343Y-015164
X011343Y-015479
X011346Y-019567
X011346Y-022413
X0115Y-0158
X0115Y-0164
X0115Y-01735
X0115Y-0177
X0115Y-018642
X011516Y-019882
X011516Y-020197
X011516Y-021772
X011516Y-021151
X011516Y-021457
X011516Y-022726
X0119Y-023042
X012264Y-023356
X012575Y-029952
X012575Y-03015
X012575Y-030345
X012579Y-028952
X012579Y-029148
X012583Y-029345
X012642Y-013551
X012642Y-02528
X012772Y-029955
X012772Y-030152
X012772Y-030349
X012776Y-028952
X012776Y-029148
X01278Y-029345
X013021Y-011477
X013268Y-025236
X013272Y-013551
X013583Y-025236
X013583Y-012726
X01422Y-02528
X014535Y-013551
X014852Y-025236
X015161Y-013551
X015161Y-02528
X015472Y-024567
X015791Y-02528
X016106Y-013551
X016106Y-026169
X016418Y-02431
X016732Y-024026
X017051Y-02528
X017126Y-019335
X017126Y-019531
X017323Y-019335
X017323Y-019531
X017372Y-023788
X017681Y-013551
X017685Y-025283
X018308Y-023524
X018941Y-013547
X018947Y-023268
X019256Y-02528
X019426Y-028802
X019571Y-02528
X019622Y-028802
X019819Y-028802
X019886Y-026169
X020122Y-028546
X020122Y-028802
X020122Y-02905
X020205Y-013551
X020207Y-023012
X020319Y-028546
X020319Y-028802
X020319Y-02905
X020837Y-022761
X021146Y-025282
X021189Y-018988
X021461Y-02528
X021468Y-013547
X021547Y-018748
X021902Y-018988
X022354Y-020071
X02276Y-016102
X022957Y-016102
X023031Y-020207
X023031Y-020522
X023031Y-020837
X023031Y-021142
X023071Y-018315
X023075Y-019579
X023075Y-02398
X023075Y-017047
X023079Y-022724
X023642Y-029354
X023646Y-029157
X023646Y-029551
X023646Y-029945
X023646Y-029748
X02437Y-018802
X024784Y-018503
X024784Y-019684
X025189Y-01624
X025197Y-018798
X025288Y-022388
X025288Y-021357
X025296Y-023408
X0253Y-02392
X025366Y-022128
X025367Y-021105
X025394Y-02366
X025409Y-023152
X025512Y-020845
X025512Y-024428
X025516Y-018798
X025516Y-01957
X025516Y-021869
X025516Y-022896
X025835Y-012748
X026303Y-01624
X026303Y-016748
X027195Y-025285
X027313Y-014321
X027314Y-014764
X027323Y-015207
X027323Y-015649
X02746Y-025187
X027578Y-014548
X027579Y-014104
X027638Y-014991
X027641Y-01543
X027647Y-015867
X027707Y-026152
X027969Y-013555
X027973Y-02625
X027993Y-016177
X028024Y-027629
X028189Y-017411
X028197Y-023031
X028201Y-023799
X028476Y-02611
X029008Y-022522
X02902Y-024786
X029075Y-014074
X029185Y-012211
X029201Y-029889
X029496Y-013555
X029508Y-02611
X029551Y-016925
X029631Y-011931
X030025Y-011931
X030346Y-018917
X030358Y-014602
X030417Y-011931
X030512Y-018346
X030532Y-010728
X030701Y-029889
X030736Y-02172
X030776Y-02611
X030811Y-011931
X030846Y-010728
X031161Y-010732
X031197Y-029889
X031299Y-013555
X031477Y-010732
X031544Y-012782
X031673Y-014819
X031791Y-010732
X032047Y-019528
X032047Y-019724
X032068Y-010732
X032244Y-019528
X032244Y-019724
X032295Y-010244
X032295Y-010433
X032323Y-02611
X032492Y-010244
X032492Y-010433
X032578Y-014369
X032701Y-029885
X032775Y-014665
X032827Y-02611
X032973Y-010726
X033Y-01661
X033071Y-01496
X033343Y-013551
X033365Y-010726
X03339Y-014125
X033661Y-015648
X033827Y-022906
X033855Y-026109
X033868Y-010256
X033868Y-010433
X033956Y-015944
X034057Y-016241
X034065Y-010256
X034065Y-010433
X034065Y-011781
X034107Y-026109
X034155Y-016537
X034189Y-011906
X034201Y-029886
X034331Y-012129
X034352Y-016734
X034701Y-028748
X034795Y-022906
X034961Y-023988
X035138Y-02611
X035142Y-013551
X035201Y-028751
X035386Y-012764
X035445Y-010906
X035445Y-011094
X035638Y-010906
X035638Y-011094
X035701Y-030016
X035701Y-030213
X035898Y-030016
X035898Y-030213
X036201Y-028472
X03632Y-014128
X036374Y-023207
X03693Y-029554
X037373Y-015482
X037835Y-018028
X038031Y-023661
X038031Y-023405
X038032Y-023917
X038055Y-013142
X038071Y-01522
X038071Y-017268
X038071Y-017776
X038071Y-020335
X038071Y-021362
X038071Y-02239
X038071Y-024429
X038083Y-021866
X038091Y-019059
X03811Y-02563
X03811Y-026378
X038461Y-028121
X03874Y-02563
X03874Y-026378
X039449Y-025807
X039449Y-026201
X039459Y-021457
X039843Y-025217
X04Y-0097
T2
X026563Y-027724
X026563Y-029646
T3
X011087Y-02915
X011087Y-03015
X012087Y-02915
X012087Y-03015
T4
X0112Y-0105
X02625Y-0105
X0392Y-03
T0
M30
