G04 #@! TF.FileFunction,Copper,L2,Inr,Plane*
%FSLAX46Y46*%
G04 Gerber Fmt 4.6, Leading zero omitted, Abs format (unit mm)*
G04 Created by KiCad (PCBNEW 4.0.6) date Sun Sep 10 22:55:25 2017*
%MOMM*%
%LPD*%
G01*
G04 APERTURE LIST*
%ADD10C,0.100000*%
%ADD11C,1.500000*%
%ADD12C,0.350000*%
%ADD13C,0.500000*%
%ADD14C,2.500000*%
%ADD15R,1.700000X1.700000*%
%ADD16O,1.700000X1.700000*%
%ADD17C,0.450000*%
%ADD18C,0.200000*%
G04 APERTURE END LIST*
D10*
X32752381Y-26247619D02*
X32800000Y-26200000D01*
X32895238Y-26152381D01*
X33133334Y-26152381D01*
X33228572Y-26200000D01*
X33276191Y-26247619D01*
X33323810Y-26342857D01*
X33323810Y-26438095D01*
X33276191Y-26580952D01*
X32704762Y-27152381D01*
X33323810Y-27152381D01*
D11*
X67471000Y-75300000D03*
X67471000Y-70420000D03*
D12*
X73851000Y-35747000D03*
X87201000Y-30807000D03*
X80121000Y-32467000D03*
D13*
X77110000Y-37090000D03*
X63980000Y-41250000D03*
X83820000Y-42190000D03*
X50510000Y-66470000D03*
X40910000Y-66470000D03*
X65620000Y-32380000D03*
X56780000Y-50980000D03*
X78070000Y-55170000D03*
X77080000Y-48050000D03*
X101600000Y-24638000D03*
X88380000Y-58180000D03*
X71600000Y-44225000D03*
X77500000Y-46600000D03*
D14*
X99568000Y-76200000D03*
X66675000Y-26670000D03*
X28448000Y-26670000D03*
D15*
X30700000Y-76580000D03*
D16*
X28160000Y-76580000D03*
X30700000Y-74040000D03*
X28160000Y-74040000D03*
D17*
X58500000Y-51325000D03*
X58500000Y-53700000D03*
X58500000Y-52925000D03*
X58500000Y-52125000D03*
D13*
X32461000Y-74537000D03*
X31961000Y-74537000D03*
X31951000Y-73537000D03*
X32451000Y-73537000D03*
X32451000Y-74037000D03*
X31951682Y-74035902D03*
X62951000Y-49997000D03*
X93790000Y-32420000D03*
X89880000Y-32420000D03*
X33073949Y-29151014D03*
X71630000Y-60450000D03*
X71620000Y-58500000D03*
D17*
X96730000Y-55540000D03*
X88800000Y-60930000D03*
D13*
X59811000Y-78237000D03*
X58810683Y-78237091D03*
X93801000Y-75067000D03*
X59309000Y-78232000D03*
D17*
X71101609Y-41089408D03*
X29250000Y-55300000D03*
X29251336Y-54499617D03*
X70223479Y-40301040D03*
X29251336Y-53722364D03*
X69401364Y-39748872D03*
X29250000Y-51300000D03*
X70207005Y-39191302D03*
X29250000Y-50500000D03*
X69401364Y-38626394D03*
X29210252Y-47351533D03*
X70201013Y-38075999D03*
X29210000Y-44958000D03*
X69376679Y-37499366D03*
X70048635Y-36950864D03*
X29210000Y-44069000D03*
X29210000Y-41656000D03*
X69375839Y-36375722D03*
X70050729Y-35825314D03*
X29210000Y-40132000D03*
X69074416Y-64225012D03*
X37725015Y-64099673D03*
X34500077Y-64100232D03*
X69749447Y-63975222D03*
X30224873Y-58525499D03*
X70375934Y-66425508D03*
X29251336Y-57724101D03*
X71050164Y-66674435D03*
X64431450Y-53607297D03*
X52925000Y-57813032D03*
X64230933Y-54246445D03*
X51326263Y-58449605D03*
X64430485Y-56204753D03*
X48125916Y-59100579D03*
X64230890Y-56866511D03*
X46501926Y-59750954D03*
X64539530Y-58807169D03*
X44126066Y-60422538D03*
X64250662Y-59457161D03*
X42499873Y-61025167D03*
X64500604Y-60097534D03*
X41700558Y-61748658D03*
X64262156Y-60757448D03*
X39299453Y-62399486D03*
D13*
X31941000Y-76077000D03*
X31941000Y-76580000D03*
X31941365Y-77076989D03*
X32441000Y-77087000D03*
X32440999Y-76086785D03*
X32441000Y-76587281D03*
X79241000Y-75917000D03*
X71181000Y-70177000D03*
X97691000Y-71427000D03*
X85991000Y-66317000D03*
X86631000Y-66317000D03*
X53711000Y-64217000D03*
X28811000Y-39317000D03*
X28811000Y-38517000D03*
X51111000Y-73157000D03*
X51611000Y-73157000D03*
X49341000Y-73157000D03*
X50341000Y-73157000D03*
X49841000Y-73157000D03*
X51611000Y-73787000D03*
X51611000Y-72507000D03*
X51111000Y-73787000D03*
X51111000Y-72507000D03*
X61901000Y-47757000D03*
X64001000Y-47747000D03*
X62951000Y-46997000D03*
X64811000Y-47747000D03*
X64811000Y-49707000D03*
X64801000Y-52947000D03*
X64811000Y-55547000D03*
X64811000Y-58157000D03*
X64801000Y-62047000D03*
X73681000Y-57207000D03*
X74171000Y-75917000D03*
X77981000Y-75917000D03*
X83060004Y-75908950D03*
X88140000Y-73020000D03*
X91950000Y-72320000D03*
X72330000Y-66320000D03*
X74950000Y-66320000D03*
X82100000Y-66320000D03*
X83380000Y-66320000D03*
X89250000Y-66320000D03*
X98400000Y-65100000D03*
X98400000Y-67000000D03*
X101200000Y-64050000D03*
X96700000Y-62050000D03*
X96700000Y-56870000D03*
X96700000Y-54260000D03*
X96700000Y-51650000D03*
X96700000Y-45150000D03*
X96700000Y-43860000D03*
X96750000Y-48410000D03*
X75060000Y-42990000D03*
D17*
X80450000Y-37640000D03*
X86840000Y-30240000D03*
X86525000Y-29925000D03*
D13*
X90029808Y-27700005D03*
X90520000Y-27700000D03*
D17*
X90520000Y-28180000D03*
X90030000Y-28180000D03*
D13*
X82030000Y-26020000D03*
X82530000Y-26020000D03*
D17*
X82530000Y-26500000D03*
X82030000Y-26500000D03*
D13*
X96700000Y-38660000D03*
X89260000Y-34420000D03*
X84690000Y-34420000D03*
X79500000Y-34430000D03*
X74920000Y-34430000D03*
X71040000Y-34430000D03*
X66810000Y-41250000D03*
X66810000Y-42540000D03*
X28810000Y-46500000D03*
X28820000Y-56930000D03*
X32110000Y-64210000D03*
X36120000Y-64210000D03*
X38510000Y-64210000D03*
X40110000Y-64210000D03*
X43310000Y-64210000D03*
X44920902Y-64218979D03*
X48910000Y-64210000D03*
X49710000Y-64210000D03*
X54510000Y-64210000D03*
X58610000Y-60910000D03*
X58620137Y-57719633D03*
X58610000Y-49730000D03*
X54730000Y-47620000D03*
X53820000Y-48230000D03*
X55630000Y-48230000D03*
X58600344Y-46519666D03*
X51320000Y-34420000D03*
X38510000Y-34420000D03*
X40910000Y-34420000D03*
X33710000Y-34420000D03*
X48110000Y-34410000D03*
X57810000Y-40900000D03*
X58310000Y-40900000D03*
X58610899Y-43299119D03*
X96660000Y-33380000D03*
X94926554Y-39324947D03*
X32110000Y-34420000D03*
X28810000Y-43320000D03*
X28810000Y-52910000D03*
X28810000Y-60910000D03*
X28820000Y-49700000D03*
X36920000Y-34420000D03*
X54529362Y-34408777D03*
X44910000Y-34420000D03*
D17*
X86025000Y-26050000D03*
X86525000Y-26050000D03*
X86525000Y-26500000D03*
X86025000Y-26500000D03*
D13*
X85980000Y-58170000D03*
D17*
X75261578Y-30304565D03*
X77259267Y-30304565D03*
X77550194Y-27248894D03*
X79148277Y-27260051D03*
X80749330Y-27260051D03*
X83750985Y-27244876D03*
X82748336Y-36497137D03*
X86248923Y-40497499D03*
X86753881Y-42003523D03*
X96100681Y-45790150D03*
X76262977Y-30304565D03*
X78260666Y-30304565D03*
X78348927Y-27248894D03*
X79951593Y-27260051D03*
X81452232Y-27260051D03*
X84746333Y-27244876D03*
X83248813Y-37247849D03*
X86503768Y-41250956D03*
X87254218Y-42503860D03*
X34500707Y-32324556D03*
X33700000Y-64100000D03*
X31150744Y-59325335D03*
X96600001Y-59449507D03*
X96597522Y-60099514D03*
X96600590Y-60749518D03*
X74131000Y-31017000D03*
X73711000Y-62957000D03*
X92391000Y-58947000D03*
D13*
X78170000Y-66320000D03*
X86870000Y-75910000D03*
D17*
X84810289Y-35878765D03*
X92252711Y-35884822D03*
X96800000Y-67000000D03*
X96800000Y-65100000D03*
X100200000Y-65550000D03*
X100200000Y-66550000D03*
X100225000Y-54500000D03*
X89411000Y-73027000D03*
X83999526Y-37998561D03*
X85499759Y-39745697D03*
D18*
G36*
X101050096Y-24528118D02*
X101049905Y-24746922D01*
X101133461Y-24949143D01*
X101288043Y-25103995D01*
X101490118Y-25187904D01*
X101708922Y-25188095D01*
X101733000Y-25178146D01*
X101733000Y-76163068D01*
X101561412Y-77025697D01*
X101093691Y-77725691D01*
X100393697Y-78193412D01*
X99531068Y-78365000D01*
X60353381Y-78365000D01*
X60360904Y-78346882D01*
X60361095Y-78128078D01*
X60277539Y-77925857D01*
X60122957Y-77771005D01*
X59920882Y-77687096D01*
X59702078Y-77686905D01*
X59565935Y-77743158D01*
X59418882Y-77682096D01*
X59200078Y-77681905D01*
X59053601Y-77742428D01*
X58920565Y-77687187D01*
X58701761Y-77686996D01*
X58499540Y-77770552D01*
X58344688Y-77925134D01*
X58260779Y-78127209D01*
X58260588Y-78346013D01*
X58268433Y-78365000D01*
X26283000Y-78365000D01*
X26283000Y-76809114D01*
X27033054Y-76809114D01*
X27201117Y-77214866D01*
X27517060Y-77533488D01*
X27930885Y-77706950D01*
X28110000Y-77653917D01*
X28110000Y-76630000D01*
X28210000Y-76630000D01*
X28210000Y-77653917D01*
X28389115Y-77706950D01*
X28802940Y-77533488D01*
X29118883Y-77214866D01*
X29286946Y-76809114D01*
X29256076Y-76705000D01*
X29550000Y-76705000D01*
X29550000Y-77489673D01*
X29595672Y-77599936D01*
X29680063Y-77684328D01*
X29790326Y-77730000D01*
X30575000Y-77730000D01*
X30650000Y-77655000D01*
X30650000Y-76630000D01*
X30750000Y-76630000D01*
X30750000Y-77655000D01*
X30825000Y-77730000D01*
X31609674Y-77730000D01*
X31719937Y-77684328D01*
X31804328Y-77599936D01*
X31850000Y-77489673D01*
X31850000Y-76705000D01*
X31775000Y-76630000D01*
X30750000Y-76630000D01*
X30650000Y-76630000D01*
X29625000Y-76630000D01*
X29550000Y-76705000D01*
X29256076Y-76705000D01*
X29233837Y-76630000D01*
X28210000Y-76630000D01*
X28110000Y-76630000D01*
X27086163Y-76630000D01*
X27033054Y-76809114D01*
X26283000Y-76809114D01*
X26283000Y-76350886D01*
X27033054Y-76350886D01*
X27086163Y-76530000D01*
X28110000Y-76530000D01*
X28110000Y-75506083D01*
X28210000Y-75506083D01*
X28210000Y-76530000D01*
X29233837Y-76530000D01*
X29286946Y-76350886D01*
X29118883Y-75945134D01*
X28846387Y-75670327D01*
X29550000Y-75670327D01*
X29550000Y-76455000D01*
X29625000Y-76530000D01*
X30650000Y-76530000D01*
X30650000Y-75505000D01*
X30750000Y-75505000D01*
X30750000Y-76530000D01*
X31775000Y-76530000D01*
X31798039Y-76506961D01*
X98017732Y-76506961D01*
X98253208Y-77076857D01*
X98688849Y-77513260D01*
X99258333Y-77749730D01*
X99874961Y-77750268D01*
X100444857Y-77514792D01*
X100881260Y-77079151D01*
X101117730Y-76509667D01*
X101118268Y-75893039D01*
X100882792Y-75323143D01*
X100447151Y-74886740D01*
X99877667Y-74650270D01*
X99261039Y-74649732D01*
X98691143Y-74885208D01*
X98254740Y-75320849D01*
X98018270Y-75890333D01*
X98017732Y-76506961D01*
X31798039Y-76506961D01*
X31850000Y-76455000D01*
X31850000Y-75670327D01*
X31804328Y-75560064D01*
X31752207Y-75507942D01*
X66420818Y-75507942D01*
X66580334Y-75894000D01*
X66875446Y-76189628D01*
X67261226Y-76349818D01*
X67678942Y-76350182D01*
X68065000Y-76190666D01*
X68237044Y-76018922D01*
X86319905Y-76018922D01*
X86403461Y-76221143D01*
X86558043Y-76375995D01*
X86760118Y-76459904D01*
X86978922Y-76460095D01*
X87181143Y-76376539D01*
X87335995Y-76221957D01*
X87419904Y-76019882D01*
X87420095Y-75801078D01*
X87336539Y-75598857D01*
X87181957Y-75444005D01*
X86979882Y-75360096D01*
X86761078Y-75359905D01*
X86558857Y-75443461D01*
X86404005Y-75598043D01*
X86320096Y-75800118D01*
X86319905Y-76018922D01*
X68237044Y-76018922D01*
X68360628Y-75895554D01*
X68520818Y-75509774D01*
X68521108Y-75175922D01*
X93250905Y-75175922D01*
X93334461Y-75378143D01*
X93489043Y-75532995D01*
X93691118Y-75616904D01*
X93909922Y-75617095D01*
X94112143Y-75533539D01*
X94266995Y-75378957D01*
X94350904Y-75176882D01*
X94351095Y-74958078D01*
X94267539Y-74755857D01*
X94112957Y-74601005D01*
X93910882Y-74517096D01*
X93692078Y-74516905D01*
X93489857Y-74600461D01*
X93335005Y-74755043D01*
X93251096Y-74957118D01*
X93250905Y-75175922D01*
X68521108Y-75175922D01*
X68521182Y-75092058D01*
X68361666Y-74706000D01*
X68066554Y-74410372D01*
X67680774Y-74250182D01*
X67263058Y-74249818D01*
X66877000Y-74409334D01*
X66581372Y-74704446D01*
X66421182Y-75090226D01*
X66420818Y-75507942D01*
X31752207Y-75507942D01*
X31719937Y-75475672D01*
X31609674Y-75430000D01*
X30825000Y-75430000D01*
X30750000Y-75505000D01*
X30650000Y-75505000D01*
X30575000Y-75430000D01*
X29790326Y-75430000D01*
X29680063Y-75475672D01*
X29595672Y-75560064D01*
X29550000Y-75670327D01*
X28846387Y-75670327D01*
X28802940Y-75626512D01*
X28389115Y-75453050D01*
X28210000Y-75506083D01*
X28110000Y-75506083D01*
X27930885Y-75453050D01*
X27517060Y-75626512D01*
X27201117Y-75945134D01*
X27033054Y-76350886D01*
X26283000Y-76350886D01*
X26283000Y-74040000D01*
X26987470Y-74040000D01*
X27075009Y-74480086D01*
X27324297Y-74853173D01*
X27697384Y-75102461D01*
X28137470Y-75190000D01*
X28182530Y-75190000D01*
X28622616Y-75102461D01*
X28995703Y-74853173D01*
X29244991Y-74480086D01*
X29332530Y-74040000D01*
X29527470Y-74040000D01*
X29615009Y-74480086D01*
X29864297Y-74853173D01*
X30237384Y-75102461D01*
X30677470Y-75190000D01*
X30722530Y-75190000D01*
X31162616Y-75102461D01*
X31513975Y-74867691D01*
X31649043Y-75002995D01*
X31851118Y-75086904D01*
X32069922Y-75087095D01*
X32211098Y-75028762D01*
X32351118Y-75086904D01*
X32569922Y-75087095D01*
X32772143Y-75003539D01*
X32926995Y-74848957D01*
X33010904Y-74646882D01*
X33011095Y-74428078D01*
X32947775Y-74274831D01*
X33000904Y-74146882D01*
X33001095Y-73928078D01*
X32942762Y-73786902D01*
X33000904Y-73646882D01*
X33001095Y-73428078D01*
X32917539Y-73225857D01*
X32822819Y-73130971D01*
X88885909Y-73130971D01*
X88965667Y-73324000D01*
X89113223Y-73471814D01*
X89306113Y-73551908D01*
X89514971Y-73552091D01*
X89708000Y-73472333D01*
X89855814Y-73324777D01*
X89935908Y-73131887D01*
X89936091Y-72923029D01*
X89856333Y-72730000D01*
X89708777Y-72582186D01*
X89515887Y-72502092D01*
X89307029Y-72501909D01*
X89114000Y-72581667D01*
X88966186Y-72729223D01*
X88886092Y-72922113D01*
X88885909Y-73130971D01*
X32822819Y-73130971D01*
X32762957Y-73071005D01*
X32560882Y-72987096D01*
X32342078Y-72986905D01*
X32200902Y-73045238D01*
X32060882Y-72987096D01*
X31842078Y-72986905D01*
X31639857Y-73070461D01*
X31504262Y-73205819D01*
X31162616Y-72977539D01*
X30722530Y-72890000D01*
X30677470Y-72890000D01*
X30237384Y-72977539D01*
X29864297Y-73226827D01*
X29615009Y-73599914D01*
X29527470Y-74040000D01*
X29332530Y-74040000D01*
X29244991Y-73599914D01*
X28995703Y-73226827D01*
X28622616Y-72977539D01*
X28182530Y-72890000D01*
X28137470Y-72890000D01*
X27697384Y-72977539D01*
X27324297Y-73226827D01*
X27075009Y-73599914D01*
X26987470Y-74040000D01*
X26283000Y-74040000D01*
X26283000Y-70627942D01*
X66420818Y-70627942D01*
X66580334Y-71014000D01*
X66875446Y-71309628D01*
X67261226Y-71469818D01*
X67678942Y-71470182D01*
X68065000Y-71310666D01*
X68360628Y-71015554D01*
X68520818Y-70629774D01*
X68521182Y-70212058D01*
X68361666Y-69826000D01*
X68066554Y-69530372D01*
X67680774Y-69370182D01*
X67263058Y-69369818D01*
X66877000Y-69529334D01*
X66581372Y-69824446D01*
X66421182Y-70210226D01*
X66420818Y-70627942D01*
X26283000Y-70627942D01*
X26283000Y-66578922D01*
X40359905Y-66578922D01*
X40443461Y-66781143D01*
X40598043Y-66935995D01*
X40800118Y-67019904D01*
X41018922Y-67020095D01*
X41221143Y-66936539D01*
X41375995Y-66781957D01*
X41459904Y-66579882D01*
X41459904Y-66578922D01*
X49959905Y-66578922D01*
X50043461Y-66781143D01*
X50198043Y-66935995D01*
X50400118Y-67019904D01*
X50618922Y-67020095D01*
X50821143Y-66936539D01*
X50975995Y-66781957D01*
X51059904Y-66579882D01*
X51059947Y-66529479D01*
X69850843Y-66529479D01*
X69930601Y-66722508D01*
X70078157Y-66870322D01*
X70271047Y-66950416D01*
X70479905Y-66950599D01*
X70579259Y-66909547D01*
X70604831Y-66971435D01*
X70752387Y-67119249D01*
X70945277Y-67199343D01*
X71154135Y-67199526D01*
X71347164Y-67119768D01*
X71362988Y-67103971D01*
X96274909Y-67103971D01*
X96354667Y-67297000D01*
X96502223Y-67444814D01*
X96695113Y-67524908D01*
X96903971Y-67525091D01*
X97097000Y-67445333D01*
X97244814Y-67297777D01*
X97324908Y-67104887D01*
X97325091Y-66896029D01*
X97245333Y-66703000D01*
X97097777Y-66555186D01*
X96904887Y-66475092D01*
X96696029Y-66474909D01*
X96503000Y-66554667D01*
X96355186Y-66702223D01*
X96275092Y-66895113D01*
X96274909Y-67103971D01*
X71362988Y-67103971D01*
X71494978Y-66972212D01*
X71575072Y-66779322D01*
X71575255Y-66570464D01*
X71516772Y-66428922D01*
X77619905Y-66428922D01*
X77703461Y-66631143D01*
X77858043Y-66785995D01*
X78060118Y-66869904D01*
X78278922Y-66870095D01*
X78481143Y-66786539D01*
X78635995Y-66631957D01*
X78719904Y-66429882D01*
X78720095Y-66211078D01*
X78636539Y-66008857D01*
X78481957Y-65854005D01*
X78279882Y-65770096D01*
X78061078Y-65769905D01*
X77858857Y-65853461D01*
X77704005Y-66008043D01*
X77620096Y-66210118D01*
X77619905Y-66428922D01*
X71516772Y-66428922D01*
X71495497Y-66377435D01*
X71347941Y-66229621D01*
X71155051Y-66149527D01*
X70946193Y-66149344D01*
X70846839Y-66190396D01*
X70821267Y-66128508D01*
X70673711Y-65980694D01*
X70480821Y-65900600D01*
X70271963Y-65900417D01*
X70078934Y-65980175D01*
X69931120Y-66127731D01*
X69851026Y-66320621D01*
X69850843Y-66529479D01*
X51059947Y-66529479D01*
X51060095Y-66361078D01*
X50976539Y-66158857D01*
X50821957Y-66004005D01*
X50619882Y-65920096D01*
X50401078Y-65919905D01*
X50198857Y-66003461D01*
X50044005Y-66158043D01*
X49960096Y-66360118D01*
X49959905Y-66578922D01*
X41459904Y-66578922D01*
X41460095Y-66361078D01*
X41376539Y-66158857D01*
X41221957Y-66004005D01*
X41019882Y-65920096D01*
X40801078Y-65919905D01*
X40598857Y-66003461D01*
X40444005Y-66158043D01*
X40360096Y-66360118D01*
X40359905Y-66578922D01*
X26283000Y-66578922D01*
X26283000Y-65653971D01*
X99674909Y-65653971D01*
X99754667Y-65847000D01*
X99902223Y-65994814D01*
X100035215Y-66050037D01*
X99903000Y-66104667D01*
X99755186Y-66252223D01*
X99675092Y-66445113D01*
X99674909Y-66653971D01*
X99754667Y-66847000D01*
X99902223Y-66994814D01*
X100095113Y-67074908D01*
X100303971Y-67075091D01*
X100497000Y-66995333D01*
X100644814Y-66847777D01*
X100724908Y-66654887D01*
X100725091Y-66446029D01*
X100645333Y-66253000D01*
X100497777Y-66105186D01*
X100364785Y-66049963D01*
X100497000Y-65995333D01*
X100644814Y-65847777D01*
X100724908Y-65654887D01*
X100725091Y-65446029D01*
X100645333Y-65253000D01*
X100497777Y-65105186D01*
X100304887Y-65025092D01*
X100096029Y-65024909D01*
X99903000Y-65104667D01*
X99755186Y-65252223D01*
X99675092Y-65445113D01*
X99674909Y-65653971D01*
X26283000Y-65653971D01*
X26283000Y-65203971D01*
X96274909Y-65203971D01*
X96354667Y-65397000D01*
X96502223Y-65544814D01*
X96695113Y-65624908D01*
X96903971Y-65625091D01*
X97097000Y-65545333D01*
X97244814Y-65397777D01*
X97324908Y-65204887D01*
X97325091Y-64996029D01*
X97245333Y-64803000D01*
X97097777Y-64655186D01*
X96904887Y-64575092D01*
X96696029Y-64574909D01*
X96503000Y-64654667D01*
X96355186Y-64802223D01*
X96275092Y-64995113D01*
X96274909Y-65203971D01*
X26283000Y-65203971D01*
X26283000Y-64203971D01*
X33174909Y-64203971D01*
X33254667Y-64397000D01*
X33402223Y-64544814D01*
X33595113Y-64624908D01*
X33803971Y-64625091D01*
X33997000Y-64545333D01*
X34099973Y-64442540D01*
X34202300Y-64545046D01*
X34395190Y-64625140D01*
X34604048Y-64625323D01*
X34797077Y-64545565D01*
X34944891Y-64398009D01*
X35024985Y-64205119D01*
X35024986Y-64203644D01*
X37199924Y-64203644D01*
X37279682Y-64396673D01*
X37427238Y-64544487D01*
X37620128Y-64624581D01*
X37828986Y-64624764D01*
X38022015Y-64545006D01*
X38169829Y-64397450D01*
X38198258Y-64328983D01*
X68549325Y-64328983D01*
X68629083Y-64522012D01*
X68776639Y-64669826D01*
X68969529Y-64749920D01*
X69178387Y-64750103D01*
X69371416Y-64670345D01*
X69519230Y-64522789D01*
X69545686Y-64459075D01*
X69644560Y-64500130D01*
X69853418Y-64500313D01*
X70046447Y-64420555D01*
X70194261Y-64272999D01*
X70274355Y-64080109D01*
X70274538Y-63871251D01*
X70194780Y-63678222D01*
X70047224Y-63530408D01*
X69854334Y-63450314D01*
X69645476Y-63450131D01*
X69452447Y-63529889D01*
X69304633Y-63677445D01*
X69278177Y-63741159D01*
X69179303Y-63700104D01*
X68970445Y-63699921D01*
X68777416Y-63779679D01*
X68629602Y-63927235D01*
X68549508Y-64120125D01*
X68549325Y-64328983D01*
X38198258Y-64328983D01*
X38249923Y-64204560D01*
X38250106Y-63995702D01*
X38170348Y-63802673D01*
X38022792Y-63654859D01*
X37829902Y-63574765D01*
X37621044Y-63574582D01*
X37428015Y-63654340D01*
X37280201Y-63801896D01*
X37200107Y-63994786D01*
X37199924Y-64203644D01*
X35024986Y-64203644D01*
X35025168Y-63996261D01*
X34945410Y-63803232D01*
X34797854Y-63655418D01*
X34604964Y-63575324D01*
X34396106Y-63575141D01*
X34203077Y-63654899D01*
X34100104Y-63757692D01*
X33997777Y-63655186D01*
X33804887Y-63575092D01*
X33596029Y-63574909D01*
X33403000Y-63654667D01*
X33255186Y-63802223D01*
X33175092Y-63995113D01*
X33174909Y-64203971D01*
X26283000Y-64203971D01*
X26283000Y-63060971D01*
X73185909Y-63060971D01*
X73265667Y-63254000D01*
X73413223Y-63401814D01*
X73606113Y-63481908D01*
X73814971Y-63482091D01*
X74008000Y-63402333D01*
X74155814Y-63254777D01*
X74235908Y-63061887D01*
X74236091Y-62853029D01*
X74156333Y-62660000D01*
X74008777Y-62512186D01*
X73815887Y-62432092D01*
X73607029Y-62431909D01*
X73414000Y-62511667D01*
X73266186Y-62659223D01*
X73186092Y-62852113D01*
X73185909Y-63060971D01*
X26283000Y-63060971D01*
X26283000Y-62503457D01*
X38774362Y-62503457D01*
X38854120Y-62696486D01*
X39001676Y-62844300D01*
X39194566Y-62924394D01*
X39403424Y-62924577D01*
X39596453Y-62844819D01*
X39744267Y-62697263D01*
X39824361Y-62504373D01*
X39824544Y-62295515D01*
X39744786Y-62102486D01*
X39597230Y-61954672D01*
X39404340Y-61874578D01*
X39195482Y-61874395D01*
X39002453Y-61954153D01*
X38854639Y-62101709D01*
X38774545Y-62294599D01*
X38774362Y-62503457D01*
X26283000Y-62503457D01*
X26283000Y-61852629D01*
X41175467Y-61852629D01*
X41255225Y-62045658D01*
X41402781Y-62193472D01*
X41595671Y-62273566D01*
X41804529Y-62273749D01*
X41997558Y-62193991D01*
X42145372Y-62046435D01*
X42225466Y-61853545D01*
X42225649Y-61644687D01*
X42145891Y-61451658D01*
X41998335Y-61303844D01*
X41805445Y-61223750D01*
X41596587Y-61223567D01*
X41403558Y-61303325D01*
X41255744Y-61450881D01*
X41175650Y-61643771D01*
X41175467Y-61852629D01*
X26283000Y-61852629D01*
X26283000Y-61129138D01*
X41974782Y-61129138D01*
X42054540Y-61322167D01*
X42202096Y-61469981D01*
X42394986Y-61550075D01*
X42603844Y-61550258D01*
X42796873Y-61470500D01*
X42944687Y-61322944D01*
X43024781Y-61130054D01*
X43024964Y-60921196D01*
X42945206Y-60728167D01*
X42797650Y-60580353D01*
X42667978Y-60526509D01*
X43600975Y-60526509D01*
X43680733Y-60719538D01*
X43828289Y-60867352D01*
X44021179Y-60947446D01*
X44230037Y-60947629D01*
X44423066Y-60867871D01*
X44570880Y-60720315D01*
X44650974Y-60527425D01*
X44651157Y-60318567D01*
X44571399Y-60125538D01*
X44423843Y-59977724D01*
X44230953Y-59897630D01*
X44022095Y-59897447D01*
X43829066Y-59977205D01*
X43681252Y-60124761D01*
X43601158Y-60317651D01*
X43600975Y-60526509D01*
X42667978Y-60526509D01*
X42604760Y-60500259D01*
X42395902Y-60500076D01*
X42202873Y-60579834D01*
X42055059Y-60727390D01*
X41974965Y-60920280D01*
X41974782Y-61129138D01*
X26283000Y-61129138D01*
X26283000Y-59854925D01*
X45976835Y-59854925D01*
X46056593Y-60047954D01*
X46204149Y-60195768D01*
X46397039Y-60275862D01*
X46605897Y-60276045D01*
X46798926Y-60196287D01*
X46946740Y-60048731D01*
X47026834Y-59855841D01*
X47027017Y-59646983D01*
X46947259Y-59453954D01*
X46799703Y-59306140D01*
X46606813Y-59226046D01*
X46397955Y-59225863D01*
X46204926Y-59305621D01*
X46057112Y-59453177D01*
X45977018Y-59646067D01*
X45976835Y-59854925D01*
X26283000Y-59854925D01*
X26283000Y-59429306D01*
X30625653Y-59429306D01*
X30705411Y-59622335D01*
X30852967Y-59770149D01*
X31045857Y-59850243D01*
X31254715Y-59850426D01*
X31447744Y-59770668D01*
X31595558Y-59623112D01*
X31675652Y-59430222D01*
X31675835Y-59221364D01*
X31668888Y-59204550D01*
X47600825Y-59204550D01*
X47680583Y-59397579D01*
X47828139Y-59545393D01*
X48021029Y-59625487D01*
X48229887Y-59625670D01*
X48386080Y-59561132D01*
X63725571Y-59561132D01*
X63805329Y-59754161D01*
X63952885Y-59901975D01*
X64004454Y-59923388D01*
X63975696Y-59992647D01*
X63975513Y-60201505D01*
X64013041Y-60292329D01*
X63965156Y-60312115D01*
X63817342Y-60459671D01*
X63737248Y-60652561D01*
X63737065Y-60861419D01*
X63816823Y-61054448D01*
X63964379Y-61202262D01*
X64157269Y-61282356D01*
X64366127Y-61282539D01*
X64559156Y-61202781D01*
X64706970Y-61055225D01*
X64715795Y-61033971D01*
X88274909Y-61033971D01*
X88354667Y-61227000D01*
X88502223Y-61374814D01*
X88695113Y-61454908D01*
X88903971Y-61455091D01*
X89097000Y-61375333D01*
X89244814Y-61227777D01*
X89324908Y-61034887D01*
X89325091Y-60826029D01*
X89245333Y-60633000D01*
X89097777Y-60485186D01*
X88904887Y-60405092D01*
X88696029Y-60404909D01*
X88503000Y-60484667D01*
X88355186Y-60632223D01*
X88275092Y-60825113D01*
X88274909Y-61033971D01*
X64715795Y-61033971D01*
X64787064Y-60862335D01*
X64787247Y-60653477D01*
X64749719Y-60562653D01*
X64758748Y-60558922D01*
X71079905Y-60558922D01*
X71163461Y-60761143D01*
X71318043Y-60915995D01*
X71520118Y-60999904D01*
X71738922Y-61000095D01*
X71941143Y-60916539D01*
X72095995Y-60761957D01*
X72179904Y-60559882D01*
X72180095Y-60341078D01*
X72123243Y-60203485D01*
X96072431Y-60203485D01*
X96152189Y-60396514D01*
X96181593Y-60425969D01*
X96155776Y-60451741D01*
X96075682Y-60644631D01*
X96075499Y-60853489D01*
X96155257Y-61046518D01*
X96302813Y-61194332D01*
X96495703Y-61274426D01*
X96704561Y-61274609D01*
X96897590Y-61194851D01*
X97045404Y-61047295D01*
X97125498Y-60854405D01*
X97125681Y-60645547D01*
X97045923Y-60452518D01*
X97016519Y-60423063D01*
X97042336Y-60397291D01*
X97122430Y-60204401D01*
X97122613Y-59995543D01*
X97042855Y-59802514D01*
X97016218Y-59775831D01*
X97044815Y-59747284D01*
X97124909Y-59554394D01*
X97125092Y-59345536D01*
X97045334Y-59152507D01*
X96897778Y-59004693D01*
X96704888Y-58924599D01*
X96496030Y-58924416D01*
X96303001Y-59004174D01*
X96155187Y-59151730D01*
X96075093Y-59344620D01*
X96074910Y-59553478D01*
X96154668Y-59746507D01*
X96181305Y-59773190D01*
X96152708Y-59801737D01*
X96072614Y-59994627D01*
X96072431Y-60203485D01*
X72123243Y-60203485D01*
X72096539Y-60138857D01*
X71941957Y-59984005D01*
X71739882Y-59900096D01*
X71521078Y-59899905D01*
X71318857Y-59983461D01*
X71164005Y-60138043D01*
X71080096Y-60340118D01*
X71079905Y-60558922D01*
X64758748Y-60558922D01*
X64797604Y-60542867D01*
X64945418Y-60395311D01*
X65025512Y-60202421D01*
X65025695Y-59993563D01*
X64945937Y-59800534D01*
X64798381Y-59652720D01*
X64746812Y-59631307D01*
X64775570Y-59562048D01*
X64775753Y-59353190D01*
X64749080Y-59288636D01*
X64836530Y-59252502D01*
X64984344Y-59104946D01*
X65006756Y-59050971D01*
X91865909Y-59050971D01*
X91945667Y-59244000D01*
X92093223Y-59391814D01*
X92286113Y-59471908D01*
X92494971Y-59472091D01*
X92688000Y-59392333D01*
X92835814Y-59244777D01*
X92915908Y-59051887D01*
X92916091Y-58843029D01*
X92836333Y-58650000D01*
X92688777Y-58502186D01*
X92495887Y-58422092D01*
X92287029Y-58421909D01*
X92094000Y-58501667D01*
X91946186Y-58649223D01*
X91866092Y-58842113D01*
X91865909Y-59050971D01*
X65006756Y-59050971D01*
X65064438Y-58912056D01*
X65064621Y-58703198D01*
X65025667Y-58608922D01*
X71069905Y-58608922D01*
X71153461Y-58811143D01*
X71308043Y-58965995D01*
X71510118Y-59049904D01*
X71728922Y-59050095D01*
X71931143Y-58966539D01*
X72085995Y-58811957D01*
X72169904Y-58609882D01*
X72170095Y-58391078D01*
X72127886Y-58288922D01*
X87829905Y-58288922D01*
X87913461Y-58491143D01*
X88068043Y-58645995D01*
X88270118Y-58729904D01*
X88488922Y-58730095D01*
X88691143Y-58646539D01*
X88845995Y-58491957D01*
X88929904Y-58289882D01*
X88930095Y-58071078D01*
X88846539Y-57868857D01*
X88691957Y-57714005D01*
X88489882Y-57630096D01*
X88271078Y-57629905D01*
X88068857Y-57713461D01*
X87914005Y-57868043D01*
X87830096Y-58070118D01*
X87829905Y-58288922D01*
X72127886Y-58288922D01*
X72086539Y-58188857D01*
X71931957Y-58034005D01*
X71729882Y-57950096D01*
X71511078Y-57949905D01*
X71308857Y-58033461D01*
X71154005Y-58188043D01*
X71070096Y-58390118D01*
X71069905Y-58608922D01*
X65025667Y-58608922D01*
X64984863Y-58510169D01*
X64837307Y-58362355D01*
X64644417Y-58282261D01*
X64435559Y-58282078D01*
X64242530Y-58361836D01*
X64094716Y-58509392D01*
X64014622Y-58702282D01*
X64014439Y-58911140D01*
X64041112Y-58975694D01*
X63953662Y-59011828D01*
X63805848Y-59159384D01*
X63725754Y-59352274D01*
X63725571Y-59561132D01*
X48386080Y-59561132D01*
X48422916Y-59545912D01*
X48570730Y-59398356D01*
X48650824Y-59205466D01*
X48651007Y-58996608D01*
X48571249Y-58803579D01*
X48423693Y-58655765D01*
X48230803Y-58575671D01*
X48021945Y-58575488D01*
X47828916Y-58655246D01*
X47681102Y-58802802D01*
X47601008Y-58995692D01*
X47600825Y-59204550D01*
X31668888Y-59204550D01*
X31596077Y-59028335D01*
X31448521Y-58880521D01*
X31255631Y-58800427D01*
X31046773Y-58800244D01*
X30853744Y-58880002D01*
X30705930Y-59027558D01*
X30625836Y-59220448D01*
X30625653Y-59429306D01*
X26283000Y-59429306D01*
X26283000Y-58629470D01*
X29699782Y-58629470D01*
X29779540Y-58822499D01*
X29927096Y-58970313D01*
X30119986Y-59050407D01*
X30328844Y-59050590D01*
X30521873Y-58970832D01*
X30669687Y-58823276D01*
X30749781Y-58630386D01*
X30749848Y-58553576D01*
X50801172Y-58553576D01*
X50880930Y-58746605D01*
X51028486Y-58894419D01*
X51221376Y-58974513D01*
X51430234Y-58974696D01*
X51623263Y-58894938D01*
X51771077Y-58747382D01*
X51851171Y-58554492D01*
X51851354Y-58345634D01*
X51771596Y-58152605D01*
X51624040Y-58004791D01*
X51431150Y-57924697D01*
X51222292Y-57924514D01*
X51029263Y-58004272D01*
X50881449Y-58151828D01*
X50801355Y-58344718D01*
X50801172Y-58553576D01*
X30749848Y-58553576D01*
X30749964Y-58421528D01*
X30670206Y-58228499D01*
X30522650Y-58080685D01*
X30329760Y-58000591D01*
X30120902Y-58000408D01*
X29927873Y-58080166D01*
X29780059Y-58227722D01*
X29699965Y-58420612D01*
X29699782Y-58629470D01*
X26283000Y-58629470D01*
X26283000Y-57828072D01*
X28726245Y-57828072D01*
X28806003Y-58021101D01*
X28953559Y-58168915D01*
X29146449Y-58249009D01*
X29355307Y-58249192D01*
X29548336Y-58169434D01*
X29696150Y-58021878D01*
X29739697Y-57917003D01*
X52399909Y-57917003D01*
X52479667Y-58110032D01*
X52627223Y-58257846D01*
X52820113Y-58337940D01*
X53028971Y-58338123D01*
X53222000Y-58258365D01*
X53369814Y-58110809D01*
X53449908Y-57917919D01*
X53450091Y-57709061D01*
X53370333Y-57516032D01*
X53222777Y-57368218D01*
X53029887Y-57288124D01*
X52821029Y-57287941D01*
X52628000Y-57367699D01*
X52480186Y-57515255D01*
X52400092Y-57708145D01*
X52399909Y-57917003D01*
X29739697Y-57917003D01*
X29776244Y-57828988D01*
X29776427Y-57620130D01*
X29696669Y-57427101D01*
X29549113Y-57279287D01*
X29356223Y-57199193D01*
X29147365Y-57199010D01*
X28954336Y-57278768D01*
X28806522Y-57426324D01*
X28726428Y-57619214D01*
X28726245Y-57828072D01*
X26283000Y-57828072D01*
X26283000Y-56970482D01*
X63705799Y-56970482D01*
X63785557Y-57163511D01*
X63933113Y-57311325D01*
X64126003Y-57391419D01*
X64334861Y-57391602D01*
X64527890Y-57311844D01*
X64675704Y-57164288D01*
X64755798Y-56971398D01*
X64755981Y-56762540D01*
X64712136Y-56656428D01*
X64727485Y-56650086D01*
X64875299Y-56502530D01*
X64955393Y-56309640D01*
X64955576Y-56100782D01*
X64875818Y-55907753D01*
X64728262Y-55759939D01*
X64535372Y-55679845D01*
X64326514Y-55679662D01*
X64133485Y-55759420D01*
X63985671Y-55906976D01*
X63905577Y-56099866D01*
X63905394Y-56308724D01*
X63949239Y-56414836D01*
X63933890Y-56421178D01*
X63786076Y-56568734D01*
X63705982Y-56761624D01*
X63705799Y-56970482D01*
X26283000Y-56970482D01*
X26283000Y-55403971D01*
X28724909Y-55403971D01*
X28804667Y-55597000D01*
X28952223Y-55744814D01*
X29145113Y-55824908D01*
X29353971Y-55825091D01*
X29547000Y-55745333D01*
X29694814Y-55597777D01*
X29774908Y-55404887D01*
X29775018Y-55278922D01*
X77519905Y-55278922D01*
X77603461Y-55481143D01*
X77758043Y-55635995D01*
X77960118Y-55719904D01*
X78178922Y-55720095D01*
X78363156Y-55643971D01*
X96204909Y-55643971D01*
X96284667Y-55837000D01*
X96432223Y-55984814D01*
X96625113Y-56064908D01*
X96833971Y-56065091D01*
X97027000Y-55985333D01*
X97174814Y-55837777D01*
X97254908Y-55644887D01*
X97255091Y-55436029D01*
X97175333Y-55243000D01*
X97027777Y-55095186D01*
X96834887Y-55015092D01*
X96626029Y-55014909D01*
X96433000Y-55094667D01*
X96285186Y-55242223D01*
X96205092Y-55435113D01*
X96204909Y-55643971D01*
X78363156Y-55643971D01*
X78381143Y-55636539D01*
X78535995Y-55481957D01*
X78619904Y-55279882D01*
X78620095Y-55061078D01*
X78536539Y-54858857D01*
X78381957Y-54704005D01*
X78179882Y-54620096D01*
X77961078Y-54619905D01*
X77758857Y-54703461D01*
X77604005Y-54858043D01*
X77520096Y-55060118D01*
X77519905Y-55278922D01*
X29775018Y-55278922D01*
X29775091Y-55196029D01*
X29695333Y-55003000D01*
X29592938Y-54900426D01*
X29696150Y-54797394D01*
X29776244Y-54604504D01*
X29776427Y-54395646D01*
X29757739Y-54350416D01*
X63705842Y-54350416D01*
X63785600Y-54543445D01*
X63933156Y-54691259D01*
X64126046Y-54771353D01*
X64334904Y-54771536D01*
X64527933Y-54691778D01*
X64615893Y-54603971D01*
X99699909Y-54603971D01*
X99779667Y-54797000D01*
X99927223Y-54944814D01*
X100120113Y-55024908D01*
X100328971Y-55025091D01*
X100522000Y-54945333D01*
X100669814Y-54797777D01*
X100749908Y-54604887D01*
X100750091Y-54396029D01*
X100670333Y-54203000D01*
X100522777Y-54055186D01*
X100329887Y-53975092D01*
X100121029Y-53974909D01*
X99928000Y-54054667D01*
X99780186Y-54202223D01*
X99700092Y-54395113D01*
X99699909Y-54603971D01*
X64615893Y-54603971D01*
X64675747Y-54544222D01*
X64755841Y-54351332D01*
X64756024Y-54142474D01*
X64720294Y-54056000D01*
X64728450Y-54052630D01*
X64876264Y-53905074D01*
X64956358Y-53712184D01*
X64956541Y-53503326D01*
X64876783Y-53310297D01*
X64729227Y-53162483D01*
X64536337Y-53082389D01*
X64327479Y-53082206D01*
X64134450Y-53161964D01*
X63986636Y-53309520D01*
X63906542Y-53502410D01*
X63906359Y-53711268D01*
X63942089Y-53797742D01*
X63933933Y-53801112D01*
X63786119Y-53948668D01*
X63706025Y-54141558D01*
X63705842Y-54350416D01*
X29757739Y-54350416D01*
X29696669Y-54202617D01*
X29605172Y-54110960D01*
X29696150Y-54020141D01*
X29776244Y-53827251D01*
X29776427Y-53618393D01*
X29696669Y-53425364D01*
X29549113Y-53277550D01*
X29356223Y-53197456D01*
X29147365Y-53197273D01*
X28954336Y-53277031D01*
X28806522Y-53424587D01*
X28726428Y-53617477D01*
X28726245Y-53826335D01*
X28806003Y-54019364D01*
X28897500Y-54111021D01*
X28806522Y-54201840D01*
X28726428Y-54394730D01*
X28726245Y-54603588D01*
X28806003Y-54796617D01*
X28908398Y-54899191D01*
X28805186Y-55002223D01*
X28725092Y-55195113D01*
X28724909Y-55403971D01*
X26283000Y-55403971D01*
X26283000Y-50603971D01*
X28724909Y-50603971D01*
X28804667Y-50797000D01*
X28907537Y-50900050D01*
X28805186Y-51002223D01*
X28725092Y-51195113D01*
X28724909Y-51403971D01*
X28804667Y-51597000D01*
X28952223Y-51744814D01*
X29145113Y-51824908D01*
X29353971Y-51825091D01*
X29547000Y-51745333D01*
X29694814Y-51597777D01*
X29774908Y-51404887D01*
X29775091Y-51196029D01*
X29730836Y-51088922D01*
X56229905Y-51088922D01*
X56313461Y-51291143D01*
X56468043Y-51445995D01*
X56670118Y-51529904D01*
X56888922Y-51530095D01*
X57091143Y-51446539D01*
X57108741Y-51428971D01*
X57974909Y-51428971D01*
X58054667Y-51622000D01*
X58157537Y-51725050D01*
X58055186Y-51827223D01*
X57975092Y-52020113D01*
X57974909Y-52228971D01*
X58054667Y-52422000D01*
X58157537Y-52525050D01*
X58055186Y-52627223D01*
X57975092Y-52820113D01*
X57974909Y-53028971D01*
X58054667Y-53222000D01*
X58145037Y-53312528D01*
X58055186Y-53402223D01*
X57975092Y-53595113D01*
X57974909Y-53803971D01*
X58054667Y-53997000D01*
X58202223Y-54144814D01*
X58395113Y-54224908D01*
X58603971Y-54225091D01*
X58797000Y-54145333D01*
X58944814Y-53997777D01*
X59024908Y-53804887D01*
X59025091Y-53596029D01*
X58945333Y-53403000D01*
X58854963Y-53312472D01*
X58944814Y-53222777D01*
X59024908Y-53029887D01*
X59025091Y-52821029D01*
X58945333Y-52628000D01*
X58842463Y-52524950D01*
X58944814Y-52422777D01*
X59024908Y-52229887D01*
X59025091Y-52021029D01*
X58945333Y-51828000D01*
X58842463Y-51724950D01*
X58944814Y-51622777D01*
X59024908Y-51429887D01*
X59025091Y-51221029D01*
X58945333Y-51028000D01*
X58797777Y-50880186D01*
X58604887Y-50800092D01*
X58396029Y-50799909D01*
X58203000Y-50879667D01*
X58055186Y-51027223D01*
X57975092Y-51220113D01*
X57974909Y-51428971D01*
X57108741Y-51428971D01*
X57245995Y-51291957D01*
X57329904Y-51089882D01*
X57330095Y-50871078D01*
X57246539Y-50668857D01*
X57091957Y-50514005D01*
X56889882Y-50430096D01*
X56671078Y-50429905D01*
X56468857Y-50513461D01*
X56314005Y-50668043D01*
X56230096Y-50870118D01*
X56229905Y-51088922D01*
X29730836Y-51088922D01*
X29695333Y-51003000D01*
X29592463Y-50899950D01*
X29694814Y-50797777D01*
X29774908Y-50604887D01*
X29775091Y-50396029D01*
X29695333Y-50203000D01*
X29598425Y-50105922D01*
X62400905Y-50105922D01*
X62484461Y-50308143D01*
X62639043Y-50462995D01*
X62841118Y-50546904D01*
X63059922Y-50547095D01*
X63262143Y-50463539D01*
X63416995Y-50308957D01*
X63500904Y-50106882D01*
X63501095Y-49888078D01*
X63417539Y-49685857D01*
X63262957Y-49531005D01*
X63060882Y-49447096D01*
X62842078Y-49446905D01*
X62639857Y-49530461D01*
X62485005Y-49685043D01*
X62401096Y-49887118D01*
X62400905Y-50105922D01*
X29598425Y-50105922D01*
X29547777Y-50055186D01*
X29354887Y-49975092D01*
X29146029Y-49974909D01*
X28953000Y-50054667D01*
X28805186Y-50202223D01*
X28725092Y-50395113D01*
X28724909Y-50603971D01*
X26283000Y-50603971D01*
X26283000Y-48158922D01*
X76529905Y-48158922D01*
X76613461Y-48361143D01*
X76768043Y-48515995D01*
X76970118Y-48599904D01*
X77188922Y-48600095D01*
X77391143Y-48516539D01*
X77545995Y-48361957D01*
X77629904Y-48159882D01*
X77630095Y-47941078D01*
X77546539Y-47738857D01*
X77391957Y-47584005D01*
X77189882Y-47500096D01*
X76971078Y-47499905D01*
X76768857Y-47583461D01*
X76614005Y-47738043D01*
X76530096Y-47940118D01*
X76529905Y-48158922D01*
X26283000Y-48158922D01*
X26283000Y-47455504D01*
X28685161Y-47455504D01*
X28764919Y-47648533D01*
X28912475Y-47796347D01*
X29105365Y-47876441D01*
X29314223Y-47876624D01*
X29507252Y-47796866D01*
X29655066Y-47649310D01*
X29735160Y-47456420D01*
X29735343Y-47247562D01*
X29655585Y-47054533D01*
X29508029Y-46906719D01*
X29315139Y-46826625D01*
X29106281Y-46826442D01*
X28913252Y-46906200D01*
X28765438Y-47053756D01*
X28685344Y-47246646D01*
X28685161Y-47455504D01*
X26283000Y-47455504D01*
X26283000Y-46708922D01*
X76949905Y-46708922D01*
X77033461Y-46911143D01*
X77188043Y-47065995D01*
X77390118Y-47149904D01*
X77608922Y-47150095D01*
X77811143Y-47066539D01*
X77965995Y-46911957D01*
X78049904Y-46709882D01*
X78050095Y-46491078D01*
X77966539Y-46288857D01*
X77811957Y-46134005D01*
X77609882Y-46050096D01*
X77391078Y-46049905D01*
X77188857Y-46133461D01*
X77034005Y-46288043D01*
X76950096Y-46490118D01*
X76949905Y-46708922D01*
X26283000Y-46708922D01*
X26283000Y-45894121D01*
X95575590Y-45894121D01*
X95655348Y-46087150D01*
X95802904Y-46234964D01*
X95995794Y-46315058D01*
X96204652Y-46315241D01*
X96397681Y-46235483D01*
X96545495Y-46087927D01*
X96625589Y-45895037D01*
X96625772Y-45686179D01*
X96546014Y-45493150D01*
X96398458Y-45345336D01*
X96205568Y-45265242D01*
X95996710Y-45265059D01*
X95803681Y-45344817D01*
X95655867Y-45492373D01*
X95575773Y-45685263D01*
X95575590Y-45894121D01*
X26283000Y-45894121D01*
X26283000Y-44172971D01*
X28684909Y-44172971D01*
X28764667Y-44366000D01*
X28912037Y-44513628D01*
X28765186Y-44660223D01*
X28685092Y-44853113D01*
X28684909Y-45061971D01*
X28764667Y-45255000D01*
X28912223Y-45402814D01*
X29105113Y-45482908D01*
X29313971Y-45483091D01*
X29507000Y-45403333D01*
X29654814Y-45255777D01*
X29734908Y-45062887D01*
X29735091Y-44854029D01*
X29655333Y-44661000D01*
X29507963Y-44513372D01*
X29654814Y-44366777D01*
X29668456Y-44333922D01*
X71049905Y-44333922D01*
X71133461Y-44536143D01*
X71288043Y-44690995D01*
X71490118Y-44774904D01*
X71708922Y-44775095D01*
X71911143Y-44691539D01*
X72065995Y-44536957D01*
X72149904Y-44334882D01*
X72150095Y-44116078D01*
X72066539Y-43913857D01*
X71911957Y-43759005D01*
X71709882Y-43675096D01*
X71491078Y-43674905D01*
X71288857Y-43758461D01*
X71134005Y-43913043D01*
X71050096Y-44115118D01*
X71049905Y-44333922D01*
X29668456Y-44333922D01*
X29734908Y-44173887D01*
X29735091Y-43965029D01*
X29655333Y-43772000D01*
X29507777Y-43624186D01*
X29314887Y-43544092D01*
X29106029Y-43543909D01*
X28913000Y-43623667D01*
X28765186Y-43771223D01*
X28685092Y-43964113D01*
X28684909Y-44172971D01*
X26283000Y-44172971D01*
X26283000Y-42298922D01*
X83269905Y-42298922D01*
X83353461Y-42501143D01*
X83508043Y-42655995D01*
X83710118Y-42739904D01*
X83928922Y-42740095D01*
X84131143Y-42656539D01*
X84285995Y-42501957D01*
X84369904Y-42299882D01*
X84370095Y-42081078D01*
X84286539Y-41878857D01*
X84131957Y-41724005D01*
X83929882Y-41640096D01*
X83711078Y-41639905D01*
X83508857Y-41723461D01*
X83354005Y-41878043D01*
X83270096Y-42080118D01*
X83269905Y-42298922D01*
X26283000Y-42298922D01*
X26283000Y-41759971D01*
X28684909Y-41759971D01*
X28764667Y-41953000D01*
X28912223Y-42100814D01*
X29105113Y-42180908D01*
X29313971Y-42181091D01*
X29507000Y-42101333D01*
X29654814Y-41953777D01*
X29734908Y-41760887D01*
X29735091Y-41552029D01*
X29655333Y-41359000D01*
X29655256Y-41358922D01*
X63429905Y-41358922D01*
X63513461Y-41561143D01*
X63668043Y-41715995D01*
X63870118Y-41799904D01*
X64088922Y-41800095D01*
X64291143Y-41716539D01*
X64445995Y-41561957D01*
X64529904Y-41359882D01*
X64530049Y-41193379D01*
X70576518Y-41193379D01*
X70656276Y-41386408D01*
X70803832Y-41534222D01*
X70996722Y-41614316D01*
X71205580Y-41614499D01*
X71398609Y-41534741D01*
X71546423Y-41387185D01*
X71626517Y-41194295D01*
X71626700Y-40985437D01*
X71546942Y-40792408D01*
X71399386Y-40644594D01*
X71295531Y-40601470D01*
X85723832Y-40601470D01*
X85803590Y-40794499D01*
X85951146Y-40942313D01*
X86046948Y-40982093D01*
X85978860Y-41146069D01*
X85978677Y-41354927D01*
X86058435Y-41547956D01*
X86205991Y-41695770D01*
X86297442Y-41733743D01*
X86228973Y-41898636D01*
X86228790Y-42107494D01*
X86308548Y-42300523D01*
X86456104Y-42448337D01*
X86648994Y-42528431D01*
X86729197Y-42528501D01*
X86729127Y-42607831D01*
X86808885Y-42800860D01*
X86956441Y-42948674D01*
X87149331Y-43028768D01*
X87358189Y-43028951D01*
X87551218Y-42949193D01*
X87699032Y-42801637D01*
X87779126Y-42608747D01*
X87779309Y-42399889D01*
X87699551Y-42206860D01*
X87551995Y-42059046D01*
X87359105Y-41978952D01*
X87278902Y-41978882D01*
X87278972Y-41899552D01*
X87199214Y-41706523D01*
X87051658Y-41558709D01*
X86960207Y-41520736D01*
X87028676Y-41355843D01*
X87028859Y-41146985D01*
X86949101Y-40953956D01*
X86801545Y-40806142D01*
X86705743Y-40766362D01*
X86773831Y-40602386D01*
X86774014Y-40393528D01*
X86694256Y-40200499D01*
X86546700Y-40052685D01*
X86353810Y-39972591D01*
X86144952Y-39972408D01*
X85951923Y-40052166D01*
X85804109Y-40199722D01*
X85724015Y-40392612D01*
X85723832Y-40601470D01*
X71295531Y-40601470D01*
X71206496Y-40564500D01*
X70997638Y-40564317D01*
X70804609Y-40644075D01*
X70656795Y-40791631D01*
X70576701Y-40984521D01*
X70576518Y-41193379D01*
X64530049Y-41193379D01*
X64530095Y-41141078D01*
X64446539Y-40938857D01*
X64291957Y-40784005D01*
X64089882Y-40700096D01*
X63871078Y-40699905D01*
X63668857Y-40783461D01*
X63514005Y-40938043D01*
X63430096Y-41140118D01*
X63429905Y-41358922D01*
X29655256Y-41358922D01*
X29507777Y-41211186D01*
X29314887Y-41131092D01*
X29106029Y-41130909D01*
X28913000Y-41210667D01*
X28765186Y-41358223D01*
X28685092Y-41551113D01*
X28684909Y-41759971D01*
X26283000Y-41759971D01*
X26283000Y-40235971D01*
X28684909Y-40235971D01*
X28764667Y-40429000D01*
X28912223Y-40576814D01*
X29105113Y-40656908D01*
X29313971Y-40657091D01*
X29507000Y-40577333D01*
X29654814Y-40429777D01*
X29734908Y-40236887D01*
X29735091Y-40028029D01*
X29655333Y-39835000D01*
X29507777Y-39687186D01*
X29314887Y-39607092D01*
X29106029Y-39606909D01*
X28913000Y-39686667D01*
X28765186Y-39834223D01*
X28685092Y-40027113D01*
X28684909Y-40235971D01*
X26283000Y-40235971D01*
X26283000Y-36479693D01*
X68850748Y-36479693D01*
X68930506Y-36672722D01*
X69078062Y-36820536D01*
X69270952Y-36900630D01*
X69479810Y-36900813D01*
X69523695Y-36882680D01*
X69523599Y-36991911D01*
X69481566Y-36974458D01*
X69272708Y-36974275D01*
X69079679Y-37054033D01*
X68931865Y-37201589D01*
X68851771Y-37394479D01*
X68851588Y-37603337D01*
X68931346Y-37796366D01*
X69078902Y-37944180D01*
X69271792Y-38024274D01*
X69480650Y-38024457D01*
X69673679Y-37944699D01*
X69696555Y-37921863D01*
X69676105Y-37971112D01*
X69675929Y-38171942D01*
X69506251Y-38101486D01*
X69297393Y-38101303D01*
X69104364Y-38181061D01*
X68956550Y-38328617D01*
X68876456Y-38521507D01*
X68876273Y-38730365D01*
X68956031Y-38923394D01*
X69103587Y-39071208D01*
X69296477Y-39151302D01*
X69505335Y-39151485D01*
X69686090Y-39076798D01*
X69682097Y-39086415D01*
X69681914Y-39295273D01*
X69682728Y-39297243D01*
X69506251Y-39223964D01*
X69297393Y-39223781D01*
X69104364Y-39303539D01*
X68956550Y-39451095D01*
X68876456Y-39643985D01*
X68876273Y-39852843D01*
X68956031Y-40045872D01*
X69103587Y-40193686D01*
X69296477Y-40273780D01*
X69505335Y-40273963D01*
X69698364Y-40194205D01*
X69700099Y-40192473D01*
X69698571Y-40196153D01*
X69698388Y-40405011D01*
X69778146Y-40598040D01*
X69925702Y-40745854D01*
X70118592Y-40825948D01*
X70327450Y-40826131D01*
X70520479Y-40746373D01*
X70668293Y-40598817D01*
X70748387Y-40405927D01*
X70748570Y-40197069D01*
X70668812Y-40004040D01*
X70521256Y-39856226D01*
X70505463Y-39849668D01*
X84974668Y-39849668D01*
X85054426Y-40042697D01*
X85201982Y-40190511D01*
X85394872Y-40270605D01*
X85603730Y-40270788D01*
X85796759Y-40191030D01*
X85944573Y-40043474D01*
X86024667Y-39850584D01*
X86024850Y-39641726D01*
X85945092Y-39448697D01*
X85797536Y-39300883D01*
X85604646Y-39220789D01*
X85395788Y-39220606D01*
X85202759Y-39300364D01*
X85054945Y-39447920D01*
X84974851Y-39640810D01*
X84974668Y-39849668D01*
X70505463Y-39849668D01*
X70328366Y-39776132D01*
X70119508Y-39775949D01*
X69926479Y-39855707D01*
X69924744Y-39857439D01*
X69926272Y-39853759D01*
X69926455Y-39644901D01*
X69925641Y-39642931D01*
X70102118Y-39716210D01*
X70310976Y-39716393D01*
X70504005Y-39636635D01*
X70651819Y-39489079D01*
X70731913Y-39296189D01*
X70732096Y-39087331D01*
X70652338Y-38894302D01*
X70504782Y-38746488D01*
X70311892Y-38666394D01*
X70103034Y-38666211D01*
X69922279Y-38740898D01*
X69926272Y-38731281D01*
X69926448Y-38530451D01*
X70096126Y-38600907D01*
X70304984Y-38601090D01*
X70498013Y-38521332D01*
X70645827Y-38373776D01*
X70725921Y-38180886D01*
X70725989Y-38102532D01*
X83474435Y-38102532D01*
X83554193Y-38295561D01*
X83701749Y-38443375D01*
X83894639Y-38523469D01*
X84103497Y-38523652D01*
X84296526Y-38443894D01*
X84444340Y-38296338D01*
X84524434Y-38103448D01*
X84524617Y-37894590D01*
X84444859Y-37701561D01*
X84297303Y-37553747D01*
X84104413Y-37473653D01*
X83895555Y-37473470D01*
X83702526Y-37553228D01*
X83554712Y-37700784D01*
X83474618Y-37893674D01*
X83474435Y-38102532D01*
X70725989Y-38102532D01*
X70726104Y-37972028D01*
X70646346Y-37778999D01*
X70498790Y-37631185D01*
X70305900Y-37551091D01*
X70097042Y-37550908D01*
X69904013Y-37630666D01*
X69881137Y-37653502D01*
X69901587Y-37604253D01*
X69901715Y-37458319D01*
X69943748Y-37475772D01*
X70152606Y-37475955D01*
X70345635Y-37396197D01*
X70493449Y-37248641D01*
X70514093Y-37198922D01*
X76559905Y-37198922D01*
X76643461Y-37401143D01*
X76798043Y-37555995D01*
X77000118Y-37639904D01*
X77218922Y-37640095D01*
X77421143Y-37556539D01*
X77575995Y-37401957D01*
X77659904Y-37199882D01*
X77660095Y-36981078D01*
X77576539Y-36778857D01*
X77421957Y-36624005D01*
X77366815Y-36601108D01*
X82223245Y-36601108D01*
X82303003Y-36794137D01*
X82450559Y-36941951D01*
X82643449Y-37022045D01*
X82774066Y-37022159D01*
X82723905Y-37142962D01*
X82723722Y-37351820D01*
X82803480Y-37544849D01*
X82951036Y-37692663D01*
X83143926Y-37772757D01*
X83352784Y-37772940D01*
X83545813Y-37693182D01*
X83693627Y-37545626D01*
X83773721Y-37352736D01*
X83773904Y-37143878D01*
X83694146Y-36950849D01*
X83546590Y-36803035D01*
X83353700Y-36722941D01*
X83223083Y-36722827D01*
X83273244Y-36602024D01*
X83273427Y-36393166D01*
X83193669Y-36200137D01*
X83046113Y-36052323D01*
X82878527Y-35982736D01*
X84285198Y-35982736D01*
X84364956Y-36175765D01*
X84512512Y-36323579D01*
X84705402Y-36403673D01*
X84914260Y-36403856D01*
X85107289Y-36324098D01*
X85255103Y-36176542D01*
X85333062Y-35988793D01*
X91727620Y-35988793D01*
X91807378Y-36181822D01*
X91954934Y-36329636D01*
X92147824Y-36409730D01*
X92356682Y-36409913D01*
X92549711Y-36330155D01*
X92697525Y-36182599D01*
X92777619Y-35989709D01*
X92777802Y-35780851D01*
X92698044Y-35587822D01*
X92550488Y-35440008D01*
X92357598Y-35359914D01*
X92148740Y-35359731D01*
X91955711Y-35439489D01*
X91807897Y-35587045D01*
X91727803Y-35779935D01*
X91727620Y-35988793D01*
X85333062Y-35988793D01*
X85335197Y-35983652D01*
X85335380Y-35774794D01*
X85255622Y-35581765D01*
X85108066Y-35433951D01*
X84915176Y-35353857D01*
X84706318Y-35353674D01*
X84513289Y-35433432D01*
X84365475Y-35580988D01*
X84285381Y-35773878D01*
X84285198Y-35982736D01*
X82878527Y-35982736D01*
X82853223Y-35972229D01*
X82644365Y-35972046D01*
X82451336Y-36051804D01*
X82303522Y-36199360D01*
X82223428Y-36392250D01*
X82223245Y-36601108D01*
X77366815Y-36601108D01*
X77219882Y-36540096D01*
X77001078Y-36539905D01*
X76798857Y-36623461D01*
X76644005Y-36778043D01*
X76560096Y-36980118D01*
X76559905Y-37198922D01*
X70514093Y-37198922D01*
X70573543Y-37055751D01*
X70573726Y-36846893D01*
X70493968Y-36653864D01*
X70346412Y-36506050D01*
X70153522Y-36425956D01*
X69944664Y-36425773D01*
X69900779Y-36443906D01*
X69900878Y-36331551D01*
X69945842Y-36350222D01*
X70154700Y-36350405D01*
X70347729Y-36270647D01*
X70495543Y-36123091D01*
X70575637Y-35930201D01*
X70575715Y-35841069D01*
X73375918Y-35841069D01*
X73448080Y-36015714D01*
X73581583Y-36149451D01*
X73756102Y-36221918D01*
X73945069Y-36222082D01*
X74119714Y-36149920D01*
X74253451Y-36016417D01*
X74325918Y-35841898D01*
X74326082Y-35652931D01*
X74253920Y-35478286D01*
X74120417Y-35344549D01*
X73945898Y-35272082D01*
X73756931Y-35271918D01*
X73582286Y-35344080D01*
X73448549Y-35477583D01*
X73376082Y-35652102D01*
X73375918Y-35841069D01*
X70575715Y-35841069D01*
X70575820Y-35721343D01*
X70496062Y-35528314D01*
X70348506Y-35380500D01*
X70155616Y-35300406D01*
X69946758Y-35300223D01*
X69753729Y-35379981D01*
X69605915Y-35527537D01*
X69525821Y-35720427D01*
X69525690Y-35869485D01*
X69480726Y-35850814D01*
X69271868Y-35850631D01*
X69078839Y-35930389D01*
X68931025Y-36077945D01*
X68850931Y-36270835D01*
X68850748Y-36479693D01*
X26283000Y-36479693D01*
X26283000Y-32428527D01*
X33975616Y-32428527D01*
X34055374Y-32621556D01*
X34202930Y-32769370D01*
X34395820Y-32849464D01*
X34604678Y-32849647D01*
X34797707Y-32769889D01*
X34945521Y-32622333D01*
X35000917Y-32488922D01*
X65069905Y-32488922D01*
X65153461Y-32691143D01*
X65308043Y-32845995D01*
X65510118Y-32929904D01*
X65728922Y-32930095D01*
X65931143Y-32846539D01*
X66085995Y-32691957D01*
X66140344Y-32561069D01*
X79645918Y-32561069D01*
X79718080Y-32735714D01*
X79851583Y-32869451D01*
X80026102Y-32941918D01*
X80215069Y-32942082D01*
X80389714Y-32869920D01*
X80523451Y-32736417D01*
X80595918Y-32561898D01*
X80595946Y-32528922D01*
X89329905Y-32528922D01*
X89413461Y-32731143D01*
X89568043Y-32885995D01*
X89770118Y-32969904D01*
X89988922Y-32970095D01*
X90191143Y-32886539D01*
X90345995Y-32731957D01*
X90429904Y-32529882D01*
X90429904Y-32528922D01*
X93239905Y-32528922D01*
X93323461Y-32731143D01*
X93478043Y-32885995D01*
X93680118Y-32969904D01*
X93898922Y-32970095D01*
X94101143Y-32886539D01*
X94255995Y-32731957D01*
X94339904Y-32529882D01*
X94340095Y-32311078D01*
X94256539Y-32108857D01*
X94101957Y-31954005D01*
X93899882Y-31870096D01*
X93681078Y-31869905D01*
X93478857Y-31953461D01*
X93324005Y-32108043D01*
X93240096Y-32310118D01*
X93239905Y-32528922D01*
X90429904Y-32528922D01*
X90430095Y-32311078D01*
X90346539Y-32108857D01*
X90191957Y-31954005D01*
X89989882Y-31870096D01*
X89771078Y-31869905D01*
X89568857Y-31953461D01*
X89414005Y-32108043D01*
X89330096Y-32310118D01*
X89329905Y-32528922D01*
X80595946Y-32528922D01*
X80596082Y-32372931D01*
X80523920Y-32198286D01*
X80390417Y-32064549D01*
X80215898Y-31992082D01*
X80026931Y-31991918D01*
X79852286Y-32064080D01*
X79718549Y-32197583D01*
X79646082Y-32372102D01*
X79645918Y-32561069D01*
X66140344Y-32561069D01*
X66169904Y-32489882D01*
X66170095Y-32271078D01*
X66086539Y-32068857D01*
X65931957Y-31914005D01*
X65729882Y-31830096D01*
X65511078Y-31829905D01*
X65308857Y-31913461D01*
X65154005Y-32068043D01*
X65070096Y-32270118D01*
X65069905Y-32488922D01*
X35000917Y-32488922D01*
X35025615Y-32429443D01*
X35025798Y-32220585D01*
X34946040Y-32027556D01*
X34798484Y-31879742D01*
X34605594Y-31799648D01*
X34396736Y-31799465D01*
X34203707Y-31879223D01*
X34055893Y-32026779D01*
X33975799Y-32219669D01*
X33975616Y-32428527D01*
X26283000Y-32428527D01*
X26283000Y-31120971D01*
X73605909Y-31120971D01*
X73685667Y-31314000D01*
X73833223Y-31461814D01*
X74026113Y-31541908D01*
X74234971Y-31542091D01*
X74428000Y-31462333D01*
X74575814Y-31314777D01*
X74655908Y-31121887D01*
X74656091Y-30913029D01*
X74651150Y-30901069D01*
X86725918Y-30901069D01*
X86798080Y-31075714D01*
X86931583Y-31209451D01*
X87106102Y-31281918D01*
X87295069Y-31282082D01*
X87469714Y-31209920D01*
X87603451Y-31076417D01*
X87675918Y-30901898D01*
X87676082Y-30712931D01*
X87603920Y-30538286D01*
X87470417Y-30404549D01*
X87295898Y-30332082D01*
X87106931Y-30331918D01*
X86932286Y-30404080D01*
X86798549Y-30537583D01*
X86726082Y-30712102D01*
X86725918Y-30901069D01*
X74651150Y-30901069D01*
X74576333Y-30720000D01*
X74428777Y-30572186D01*
X74235887Y-30492092D01*
X74027029Y-30491909D01*
X73834000Y-30571667D01*
X73686186Y-30719223D01*
X73606092Y-30912113D01*
X73605909Y-31120971D01*
X26283000Y-31120971D01*
X26283000Y-30408536D01*
X74736487Y-30408536D01*
X74816245Y-30601565D01*
X74963801Y-30749379D01*
X75156691Y-30829473D01*
X75365549Y-30829656D01*
X75558578Y-30749898D01*
X75706392Y-30602342D01*
X75762316Y-30467661D01*
X75817644Y-30601565D01*
X75965200Y-30749379D01*
X76158090Y-30829473D01*
X76366948Y-30829656D01*
X76559977Y-30749898D01*
X76707791Y-30602342D01*
X76761154Y-30473828D01*
X76813934Y-30601565D01*
X76961490Y-30749379D01*
X77154380Y-30829473D01*
X77363238Y-30829656D01*
X77556267Y-30749898D01*
X77704081Y-30602342D01*
X77760005Y-30467661D01*
X77815333Y-30601565D01*
X77962889Y-30749379D01*
X78155779Y-30829473D01*
X78364637Y-30829656D01*
X78557666Y-30749898D01*
X78705480Y-30602342D01*
X78785574Y-30409452D01*
X78785757Y-30200594D01*
X78705999Y-30007565D01*
X78558443Y-29859751D01*
X78365553Y-29779657D01*
X78156695Y-29779474D01*
X77963666Y-29859232D01*
X77815852Y-30006788D01*
X77759928Y-30141469D01*
X77704600Y-30007565D01*
X77557044Y-29859751D01*
X77364154Y-29779657D01*
X77155296Y-29779474D01*
X76962267Y-29859232D01*
X76814453Y-30006788D01*
X76761090Y-30135302D01*
X76708310Y-30007565D01*
X76560754Y-29859751D01*
X76367864Y-29779657D01*
X76159006Y-29779474D01*
X75965977Y-29859232D01*
X75818163Y-30006788D01*
X75762239Y-30141469D01*
X75706911Y-30007565D01*
X75559355Y-29859751D01*
X75366465Y-29779657D01*
X75157607Y-29779474D01*
X74964578Y-29859232D01*
X74816764Y-30006788D01*
X74736670Y-30199678D01*
X74736487Y-30408536D01*
X26283000Y-30408536D01*
X26283000Y-29259936D01*
X32523854Y-29259936D01*
X32607410Y-29462157D01*
X32761992Y-29617009D01*
X32964067Y-29700918D01*
X33182871Y-29701109D01*
X33385092Y-29617553D01*
X33539944Y-29462971D01*
X33623853Y-29260896D01*
X33624044Y-29042092D01*
X33540488Y-28839871D01*
X33385906Y-28685019D01*
X33183831Y-28601110D01*
X32965027Y-28600919D01*
X32762806Y-28684475D01*
X32607954Y-28839057D01*
X32524045Y-29041132D01*
X32523854Y-29259936D01*
X26283000Y-29259936D01*
X26283000Y-26976961D01*
X26897732Y-26976961D01*
X27133208Y-27546857D01*
X27568849Y-27983260D01*
X28138333Y-28219730D01*
X28754961Y-28220268D01*
X29324857Y-27984792D01*
X29761260Y-27549151D01*
X29997730Y-26979667D01*
X29998268Y-26363039D01*
X29762792Y-25793143D01*
X29619899Y-25650000D01*
X31500000Y-25650000D01*
X31500000Y-27850000D01*
X35338096Y-27850000D01*
X35338096Y-26976961D01*
X65124732Y-26976961D01*
X65360208Y-27546857D01*
X65795849Y-27983260D01*
X66365333Y-28219730D01*
X66981961Y-28220268D01*
X67551857Y-27984792D01*
X67988260Y-27549151D01*
X68069764Y-27352865D01*
X77025103Y-27352865D01*
X77104861Y-27545894D01*
X77252417Y-27693708D01*
X77445307Y-27773802D01*
X77654165Y-27773985D01*
X77847194Y-27694227D01*
X77949610Y-27591990D01*
X78051150Y-27693708D01*
X78244040Y-27773802D01*
X78452898Y-27773985D01*
X78645927Y-27694227D01*
X78743073Y-27597250D01*
X78850500Y-27704865D01*
X79043390Y-27784959D01*
X79252248Y-27785142D01*
X79445277Y-27705384D01*
X79549988Y-27600856D01*
X79653816Y-27704865D01*
X79846706Y-27784959D01*
X80055564Y-27785142D01*
X80248593Y-27705384D01*
X80350510Y-27603645D01*
X80451553Y-27704865D01*
X80644443Y-27784959D01*
X80853301Y-27785142D01*
X81046330Y-27705384D01*
X81100746Y-27651063D01*
X81154455Y-27704865D01*
X81347345Y-27784959D01*
X81556203Y-27785142D01*
X81749232Y-27705384D01*
X81897046Y-27557828D01*
X81977140Y-27364938D01*
X81977154Y-27348847D01*
X83225894Y-27348847D01*
X83305652Y-27541876D01*
X83453208Y-27689690D01*
X83646098Y-27769784D01*
X83854956Y-27769967D01*
X84047985Y-27690209D01*
X84195799Y-27542653D01*
X84248690Y-27415276D01*
X84301000Y-27541876D01*
X84448556Y-27689690D01*
X84641446Y-27769784D01*
X84850304Y-27769967D01*
X85043333Y-27690209D01*
X85191147Y-27542653D01*
X85271241Y-27349763D01*
X85271424Y-27140905D01*
X85191666Y-26947876D01*
X85044110Y-26800062D01*
X84851220Y-26719968D01*
X84642362Y-26719785D01*
X84449333Y-26799543D01*
X84301519Y-26947099D01*
X84248628Y-27074476D01*
X84196318Y-26947876D01*
X84048762Y-26800062D01*
X83855872Y-26719968D01*
X83647014Y-26719785D01*
X83453985Y-26799543D01*
X83306171Y-26947099D01*
X83226077Y-27139989D01*
X83225894Y-27348847D01*
X81977154Y-27348847D01*
X81977323Y-27156080D01*
X81897565Y-26963051D01*
X81750009Y-26815237D01*
X81557119Y-26735143D01*
X81348261Y-26734960D01*
X81155232Y-26814718D01*
X81100816Y-26869039D01*
X81047107Y-26815237D01*
X80854217Y-26735143D01*
X80645359Y-26734960D01*
X80452330Y-26814718D01*
X80350413Y-26916457D01*
X80249370Y-26815237D01*
X80056480Y-26735143D01*
X79847622Y-26734960D01*
X79654593Y-26814718D01*
X79549882Y-26919246D01*
X79446054Y-26815237D01*
X79253164Y-26735143D01*
X79044306Y-26734960D01*
X78851277Y-26814718D01*
X78754131Y-26911695D01*
X78646704Y-26804080D01*
X78453814Y-26723986D01*
X78244956Y-26723803D01*
X78051927Y-26803561D01*
X77949511Y-26905798D01*
X77847971Y-26804080D01*
X77655081Y-26723986D01*
X77446223Y-26723803D01*
X77253194Y-26803561D01*
X77105380Y-26951117D01*
X77025286Y-27144007D01*
X77025103Y-27352865D01*
X68069764Y-27352865D01*
X68224730Y-26979667D01*
X68225268Y-26363039D01*
X67989792Y-25793143D01*
X67554151Y-25356740D01*
X66984667Y-25120270D01*
X66368039Y-25119732D01*
X65798143Y-25355208D01*
X65361740Y-25790849D01*
X65125270Y-26360333D01*
X65124732Y-26976961D01*
X35338096Y-26976961D01*
X35338096Y-25650000D01*
X31500000Y-25650000D01*
X29619899Y-25650000D01*
X29327151Y-25356740D01*
X28757667Y-25120270D01*
X28141039Y-25119732D01*
X27571143Y-25355208D01*
X27134740Y-25790849D01*
X26898270Y-26360333D01*
X26897732Y-26976961D01*
X26283000Y-26976961D01*
X26283000Y-26706932D01*
X26454588Y-25844303D01*
X26922309Y-25144309D01*
X27622303Y-24676588D01*
X28484932Y-24505000D01*
X101059695Y-24505000D01*
X101050096Y-24528118D01*
X101050096Y-24528118D01*
G37*
X101050096Y-24528118D02*
X101049905Y-24746922D01*
X101133461Y-24949143D01*
X101288043Y-25103995D01*
X101490118Y-25187904D01*
X101708922Y-25188095D01*
X101733000Y-25178146D01*
X101733000Y-76163068D01*
X101561412Y-77025697D01*
X101093691Y-77725691D01*
X100393697Y-78193412D01*
X99531068Y-78365000D01*
X60353381Y-78365000D01*
X60360904Y-78346882D01*
X60361095Y-78128078D01*
X60277539Y-77925857D01*
X60122957Y-77771005D01*
X59920882Y-77687096D01*
X59702078Y-77686905D01*
X59565935Y-77743158D01*
X59418882Y-77682096D01*
X59200078Y-77681905D01*
X59053601Y-77742428D01*
X58920565Y-77687187D01*
X58701761Y-77686996D01*
X58499540Y-77770552D01*
X58344688Y-77925134D01*
X58260779Y-78127209D01*
X58260588Y-78346013D01*
X58268433Y-78365000D01*
X26283000Y-78365000D01*
X26283000Y-76809114D01*
X27033054Y-76809114D01*
X27201117Y-77214866D01*
X27517060Y-77533488D01*
X27930885Y-77706950D01*
X28110000Y-77653917D01*
X28110000Y-76630000D01*
X28210000Y-76630000D01*
X28210000Y-77653917D01*
X28389115Y-77706950D01*
X28802940Y-77533488D01*
X29118883Y-77214866D01*
X29286946Y-76809114D01*
X29256076Y-76705000D01*
X29550000Y-76705000D01*
X29550000Y-77489673D01*
X29595672Y-77599936D01*
X29680063Y-77684328D01*
X29790326Y-77730000D01*
X30575000Y-77730000D01*
X30650000Y-77655000D01*
X30650000Y-76630000D01*
X30750000Y-76630000D01*
X30750000Y-77655000D01*
X30825000Y-77730000D01*
X31609674Y-77730000D01*
X31719937Y-77684328D01*
X31804328Y-77599936D01*
X31850000Y-77489673D01*
X31850000Y-76705000D01*
X31775000Y-76630000D01*
X30750000Y-76630000D01*
X30650000Y-76630000D01*
X29625000Y-76630000D01*
X29550000Y-76705000D01*
X29256076Y-76705000D01*
X29233837Y-76630000D01*
X28210000Y-76630000D01*
X28110000Y-76630000D01*
X27086163Y-76630000D01*
X27033054Y-76809114D01*
X26283000Y-76809114D01*
X26283000Y-76350886D01*
X27033054Y-76350886D01*
X27086163Y-76530000D01*
X28110000Y-76530000D01*
X28110000Y-75506083D01*
X28210000Y-75506083D01*
X28210000Y-76530000D01*
X29233837Y-76530000D01*
X29286946Y-76350886D01*
X29118883Y-75945134D01*
X28846387Y-75670327D01*
X29550000Y-75670327D01*
X29550000Y-76455000D01*
X29625000Y-76530000D01*
X30650000Y-76530000D01*
X30650000Y-75505000D01*
X30750000Y-75505000D01*
X30750000Y-76530000D01*
X31775000Y-76530000D01*
X31798039Y-76506961D01*
X98017732Y-76506961D01*
X98253208Y-77076857D01*
X98688849Y-77513260D01*
X99258333Y-77749730D01*
X99874961Y-77750268D01*
X100444857Y-77514792D01*
X100881260Y-77079151D01*
X101117730Y-76509667D01*
X101118268Y-75893039D01*
X100882792Y-75323143D01*
X100447151Y-74886740D01*
X99877667Y-74650270D01*
X99261039Y-74649732D01*
X98691143Y-74885208D01*
X98254740Y-75320849D01*
X98018270Y-75890333D01*
X98017732Y-76506961D01*
X31798039Y-76506961D01*
X31850000Y-76455000D01*
X31850000Y-75670327D01*
X31804328Y-75560064D01*
X31752207Y-75507942D01*
X66420818Y-75507942D01*
X66580334Y-75894000D01*
X66875446Y-76189628D01*
X67261226Y-76349818D01*
X67678942Y-76350182D01*
X68065000Y-76190666D01*
X68237044Y-76018922D01*
X86319905Y-76018922D01*
X86403461Y-76221143D01*
X86558043Y-76375995D01*
X86760118Y-76459904D01*
X86978922Y-76460095D01*
X87181143Y-76376539D01*
X87335995Y-76221957D01*
X87419904Y-76019882D01*
X87420095Y-75801078D01*
X87336539Y-75598857D01*
X87181957Y-75444005D01*
X86979882Y-75360096D01*
X86761078Y-75359905D01*
X86558857Y-75443461D01*
X86404005Y-75598043D01*
X86320096Y-75800118D01*
X86319905Y-76018922D01*
X68237044Y-76018922D01*
X68360628Y-75895554D01*
X68520818Y-75509774D01*
X68521108Y-75175922D01*
X93250905Y-75175922D01*
X93334461Y-75378143D01*
X93489043Y-75532995D01*
X93691118Y-75616904D01*
X93909922Y-75617095D01*
X94112143Y-75533539D01*
X94266995Y-75378957D01*
X94350904Y-75176882D01*
X94351095Y-74958078D01*
X94267539Y-74755857D01*
X94112957Y-74601005D01*
X93910882Y-74517096D01*
X93692078Y-74516905D01*
X93489857Y-74600461D01*
X93335005Y-74755043D01*
X93251096Y-74957118D01*
X93250905Y-75175922D01*
X68521108Y-75175922D01*
X68521182Y-75092058D01*
X68361666Y-74706000D01*
X68066554Y-74410372D01*
X67680774Y-74250182D01*
X67263058Y-74249818D01*
X66877000Y-74409334D01*
X66581372Y-74704446D01*
X66421182Y-75090226D01*
X66420818Y-75507942D01*
X31752207Y-75507942D01*
X31719937Y-75475672D01*
X31609674Y-75430000D01*
X30825000Y-75430000D01*
X30750000Y-75505000D01*
X30650000Y-75505000D01*
X30575000Y-75430000D01*
X29790326Y-75430000D01*
X29680063Y-75475672D01*
X29595672Y-75560064D01*
X29550000Y-75670327D01*
X28846387Y-75670327D01*
X28802940Y-75626512D01*
X28389115Y-75453050D01*
X28210000Y-75506083D01*
X28110000Y-75506083D01*
X27930885Y-75453050D01*
X27517060Y-75626512D01*
X27201117Y-75945134D01*
X27033054Y-76350886D01*
X26283000Y-76350886D01*
X26283000Y-74040000D01*
X26987470Y-74040000D01*
X27075009Y-74480086D01*
X27324297Y-74853173D01*
X27697384Y-75102461D01*
X28137470Y-75190000D01*
X28182530Y-75190000D01*
X28622616Y-75102461D01*
X28995703Y-74853173D01*
X29244991Y-74480086D01*
X29332530Y-74040000D01*
X29527470Y-74040000D01*
X29615009Y-74480086D01*
X29864297Y-74853173D01*
X30237384Y-75102461D01*
X30677470Y-75190000D01*
X30722530Y-75190000D01*
X31162616Y-75102461D01*
X31513975Y-74867691D01*
X31649043Y-75002995D01*
X31851118Y-75086904D01*
X32069922Y-75087095D01*
X32211098Y-75028762D01*
X32351118Y-75086904D01*
X32569922Y-75087095D01*
X32772143Y-75003539D01*
X32926995Y-74848957D01*
X33010904Y-74646882D01*
X33011095Y-74428078D01*
X32947775Y-74274831D01*
X33000904Y-74146882D01*
X33001095Y-73928078D01*
X32942762Y-73786902D01*
X33000904Y-73646882D01*
X33001095Y-73428078D01*
X32917539Y-73225857D01*
X32822819Y-73130971D01*
X88885909Y-73130971D01*
X88965667Y-73324000D01*
X89113223Y-73471814D01*
X89306113Y-73551908D01*
X89514971Y-73552091D01*
X89708000Y-73472333D01*
X89855814Y-73324777D01*
X89935908Y-73131887D01*
X89936091Y-72923029D01*
X89856333Y-72730000D01*
X89708777Y-72582186D01*
X89515887Y-72502092D01*
X89307029Y-72501909D01*
X89114000Y-72581667D01*
X88966186Y-72729223D01*
X88886092Y-72922113D01*
X88885909Y-73130971D01*
X32822819Y-73130971D01*
X32762957Y-73071005D01*
X32560882Y-72987096D01*
X32342078Y-72986905D01*
X32200902Y-73045238D01*
X32060882Y-72987096D01*
X31842078Y-72986905D01*
X31639857Y-73070461D01*
X31504262Y-73205819D01*
X31162616Y-72977539D01*
X30722530Y-72890000D01*
X30677470Y-72890000D01*
X30237384Y-72977539D01*
X29864297Y-73226827D01*
X29615009Y-73599914D01*
X29527470Y-74040000D01*
X29332530Y-74040000D01*
X29244991Y-73599914D01*
X28995703Y-73226827D01*
X28622616Y-72977539D01*
X28182530Y-72890000D01*
X28137470Y-72890000D01*
X27697384Y-72977539D01*
X27324297Y-73226827D01*
X27075009Y-73599914D01*
X26987470Y-74040000D01*
X26283000Y-74040000D01*
X26283000Y-70627942D01*
X66420818Y-70627942D01*
X66580334Y-71014000D01*
X66875446Y-71309628D01*
X67261226Y-71469818D01*
X67678942Y-71470182D01*
X68065000Y-71310666D01*
X68360628Y-71015554D01*
X68520818Y-70629774D01*
X68521182Y-70212058D01*
X68361666Y-69826000D01*
X68066554Y-69530372D01*
X67680774Y-69370182D01*
X67263058Y-69369818D01*
X66877000Y-69529334D01*
X66581372Y-69824446D01*
X66421182Y-70210226D01*
X66420818Y-70627942D01*
X26283000Y-70627942D01*
X26283000Y-66578922D01*
X40359905Y-66578922D01*
X40443461Y-66781143D01*
X40598043Y-66935995D01*
X40800118Y-67019904D01*
X41018922Y-67020095D01*
X41221143Y-66936539D01*
X41375995Y-66781957D01*
X41459904Y-66579882D01*
X41459904Y-66578922D01*
X49959905Y-66578922D01*
X50043461Y-66781143D01*
X50198043Y-66935995D01*
X50400118Y-67019904D01*
X50618922Y-67020095D01*
X50821143Y-66936539D01*
X50975995Y-66781957D01*
X51059904Y-66579882D01*
X51059947Y-66529479D01*
X69850843Y-66529479D01*
X69930601Y-66722508D01*
X70078157Y-66870322D01*
X70271047Y-66950416D01*
X70479905Y-66950599D01*
X70579259Y-66909547D01*
X70604831Y-66971435D01*
X70752387Y-67119249D01*
X70945277Y-67199343D01*
X71154135Y-67199526D01*
X71347164Y-67119768D01*
X71362988Y-67103971D01*
X96274909Y-67103971D01*
X96354667Y-67297000D01*
X96502223Y-67444814D01*
X96695113Y-67524908D01*
X96903971Y-67525091D01*
X97097000Y-67445333D01*
X97244814Y-67297777D01*
X97324908Y-67104887D01*
X97325091Y-66896029D01*
X97245333Y-66703000D01*
X97097777Y-66555186D01*
X96904887Y-66475092D01*
X96696029Y-66474909D01*
X96503000Y-66554667D01*
X96355186Y-66702223D01*
X96275092Y-66895113D01*
X96274909Y-67103971D01*
X71362988Y-67103971D01*
X71494978Y-66972212D01*
X71575072Y-66779322D01*
X71575255Y-66570464D01*
X71516772Y-66428922D01*
X77619905Y-66428922D01*
X77703461Y-66631143D01*
X77858043Y-66785995D01*
X78060118Y-66869904D01*
X78278922Y-66870095D01*
X78481143Y-66786539D01*
X78635995Y-66631957D01*
X78719904Y-66429882D01*
X78720095Y-66211078D01*
X78636539Y-66008857D01*
X78481957Y-65854005D01*
X78279882Y-65770096D01*
X78061078Y-65769905D01*
X77858857Y-65853461D01*
X77704005Y-66008043D01*
X77620096Y-66210118D01*
X77619905Y-66428922D01*
X71516772Y-66428922D01*
X71495497Y-66377435D01*
X71347941Y-66229621D01*
X71155051Y-66149527D01*
X70946193Y-66149344D01*
X70846839Y-66190396D01*
X70821267Y-66128508D01*
X70673711Y-65980694D01*
X70480821Y-65900600D01*
X70271963Y-65900417D01*
X70078934Y-65980175D01*
X69931120Y-66127731D01*
X69851026Y-66320621D01*
X69850843Y-66529479D01*
X51059947Y-66529479D01*
X51060095Y-66361078D01*
X50976539Y-66158857D01*
X50821957Y-66004005D01*
X50619882Y-65920096D01*
X50401078Y-65919905D01*
X50198857Y-66003461D01*
X50044005Y-66158043D01*
X49960096Y-66360118D01*
X49959905Y-66578922D01*
X41459904Y-66578922D01*
X41460095Y-66361078D01*
X41376539Y-66158857D01*
X41221957Y-66004005D01*
X41019882Y-65920096D01*
X40801078Y-65919905D01*
X40598857Y-66003461D01*
X40444005Y-66158043D01*
X40360096Y-66360118D01*
X40359905Y-66578922D01*
X26283000Y-66578922D01*
X26283000Y-65653971D01*
X99674909Y-65653971D01*
X99754667Y-65847000D01*
X99902223Y-65994814D01*
X100035215Y-66050037D01*
X99903000Y-66104667D01*
X99755186Y-66252223D01*
X99675092Y-66445113D01*
X99674909Y-66653971D01*
X99754667Y-66847000D01*
X99902223Y-66994814D01*
X100095113Y-67074908D01*
X100303971Y-67075091D01*
X100497000Y-66995333D01*
X100644814Y-66847777D01*
X100724908Y-66654887D01*
X100725091Y-66446029D01*
X100645333Y-66253000D01*
X100497777Y-66105186D01*
X100364785Y-66049963D01*
X100497000Y-65995333D01*
X100644814Y-65847777D01*
X100724908Y-65654887D01*
X100725091Y-65446029D01*
X100645333Y-65253000D01*
X100497777Y-65105186D01*
X100304887Y-65025092D01*
X100096029Y-65024909D01*
X99903000Y-65104667D01*
X99755186Y-65252223D01*
X99675092Y-65445113D01*
X99674909Y-65653971D01*
X26283000Y-65653971D01*
X26283000Y-65203971D01*
X96274909Y-65203971D01*
X96354667Y-65397000D01*
X96502223Y-65544814D01*
X96695113Y-65624908D01*
X96903971Y-65625091D01*
X97097000Y-65545333D01*
X97244814Y-65397777D01*
X97324908Y-65204887D01*
X97325091Y-64996029D01*
X97245333Y-64803000D01*
X97097777Y-64655186D01*
X96904887Y-64575092D01*
X96696029Y-64574909D01*
X96503000Y-64654667D01*
X96355186Y-64802223D01*
X96275092Y-64995113D01*
X96274909Y-65203971D01*
X26283000Y-65203971D01*
X26283000Y-64203971D01*
X33174909Y-64203971D01*
X33254667Y-64397000D01*
X33402223Y-64544814D01*
X33595113Y-64624908D01*
X33803971Y-64625091D01*
X33997000Y-64545333D01*
X34099973Y-64442540D01*
X34202300Y-64545046D01*
X34395190Y-64625140D01*
X34604048Y-64625323D01*
X34797077Y-64545565D01*
X34944891Y-64398009D01*
X35024985Y-64205119D01*
X35024986Y-64203644D01*
X37199924Y-64203644D01*
X37279682Y-64396673D01*
X37427238Y-64544487D01*
X37620128Y-64624581D01*
X37828986Y-64624764D01*
X38022015Y-64545006D01*
X38169829Y-64397450D01*
X38198258Y-64328983D01*
X68549325Y-64328983D01*
X68629083Y-64522012D01*
X68776639Y-64669826D01*
X68969529Y-64749920D01*
X69178387Y-64750103D01*
X69371416Y-64670345D01*
X69519230Y-64522789D01*
X69545686Y-64459075D01*
X69644560Y-64500130D01*
X69853418Y-64500313D01*
X70046447Y-64420555D01*
X70194261Y-64272999D01*
X70274355Y-64080109D01*
X70274538Y-63871251D01*
X70194780Y-63678222D01*
X70047224Y-63530408D01*
X69854334Y-63450314D01*
X69645476Y-63450131D01*
X69452447Y-63529889D01*
X69304633Y-63677445D01*
X69278177Y-63741159D01*
X69179303Y-63700104D01*
X68970445Y-63699921D01*
X68777416Y-63779679D01*
X68629602Y-63927235D01*
X68549508Y-64120125D01*
X68549325Y-64328983D01*
X38198258Y-64328983D01*
X38249923Y-64204560D01*
X38250106Y-63995702D01*
X38170348Y-63802673D01*
X38022792Y-63654859D01*
X37829902Y-63574765D01*
X37621044Y-63574582D01*
X37428015Y-63654340D01*
X37280201Y-63801896D01*
X37200107Y-63994786D01*
X37199924Y-64203644D01*
X35024986Y-64203644D01*
X35025168Y-63996261D01*
X34945410Y-63803232D01*
X34797854Y-63655418D01*
X34604964Y-63575324D01*
X34396106Y-63575141D01*
X34203077Y-63654899D01*
X34100104Y-63757692D01*
X33997777Y-63655186D01*
X33804887Y-63575092D01*
X33596029Y-63574909D01*
X33403000Y-63654667D01*
X33255186Y-63802223D01*
X33175092Y-63995113D01*
X33174909Y-64203971D01*
X26283000Y-64203971D01*
X26283000Y-63060971D01*
X73185909Y-63060971D01*
X73265667Y-63254000D01*
X73413223Y-63401814D01*
X73606113Y-63481908D01*
X73814971Y-63482091D01*
X74008000Y-63402333D01*
X74155814Y-63254777D01*
X74235908Y-63061887D01*
X74236091Y-62853029D01*
X74156333Y-62660000D01*
X74008777Y-62512186D01*
X73815887Y-62432092D01*
X73607029Y-62431909D01*
X73414000Y-62511667D01*
X73266186Y-62659223D01*
X73186092Y-62852113D01*
X73185909Y-63060971D01*
X26283000Y-63060971D01*
X26283000Y-62503457D01*
X38774362Y-62503457D01*
X38854120Y-62696486D01*
X39001676Y-62844300D01*
X39194566Y-62924394D01*
X39403424Y-62924577D01*
X39596453Y-62844819D01*
X39744267Y-62697263D01*
X39824361Y-62504373D01*
X39824544Y-62295515D01*
X39744786Y-62102486D01*
X39597230Y-61954672D01*
X39404340Y-61874578D01*
X39195482Y-61874395D01*
X39002453Y-61954153D01*
X38854639Y-62101709D01*
X38774545Y-62294599D01*
X38774362Y-62503457D01*
X26283000Y-62503457D01*
X26283000Y-61852629D01*
X41175467Y-61852629D01*
X41255225Y-62045658D01*
X41402781Y-62193472D01*
X41595671Y-62273566D01*
X41804529Y-62273749D01*
X41997558Y-62193991D01*
X42145372Y-62046435D01*
X42225466Y-61853545D01*
X42225649Y-61644687D01*
X42145891Y-61451658D01*
X41998335Y-61303844D01*
X41805445Y-61223750D01*
X41596587Y-61223567D01*
X41403558Y-61303325D01*
X41255744Y-61450881D01*
X41175650Y-61643771D01*
X41175467Y-61852629D01*
X26283000Y-61852629D01*
X26283000Y-61129138D01*
X41974782Y-61129138D01*
X42054540Y-61322167D01*
X42202096Y-61469981D01*
X42394986Y-61550075D01*
X42603844Y-61550258D01*
X42796873Y-61470500D01*
X42944687Y-61322944D01*
X43024781Y-61130054D01*
X43024964Y-60921196D01*
X42945206Y-60728167D01*
X42797650Y-60580353D01*
X42667978Y-60526509D01*
X43600975Y-60526509D01*
X43680733Y-60719538D01*
X43828289Y-60867352D01*
X44021179Y-60947446D01*
X44230037Y-60947629D01*
X44423066Y-60867871D01*
X44570880Y-60720315D01*
X44650974Y-60527425D01*
X44651157Y-60318567D01*
X44571399Y-60125538D01*
X44423843Y-59977724D01*
X44230953Y-59897630D01*
X44022095Y-59897447D01*
X43829066Y-59977205D01*
X43681252Y-60124761D01*
X43601158Y-60317651D01*
X43600975Y-60526509D01*
X42667978Y-60526509D01*
X42604760Y-60500259D01*
X42395902Y-60500076D01*
X42202873Y-60579834D01*
X42055059Y-60727390D01*
X41974965Y-60920280D01*
X41974782Y-61129138D01*
X26283000Y-61129138D01*
X26283000Y-59854925D01*
X45976835Y-59854925D01*
X46056593Y-60047954D01*
X46204149Y-60195768D01*
X46397039Y-60275862D01*
X46605897Y-60276045D01*
X46798926Y-60196287D01*
X46946740Y-60048731D01*
X47026834Y-59855841D01*
X47027017Y-59646983D01*
X46947259Y-59453954D01*
X46799703Y-59306140D01*
X46606813Y-59226046D01*
X46397955Y-59225863D01*
X46204926Y-59305621D01*
X46057112Y-59453177D01*
X45977018Y-59646067D01*
X45976835Y-59854925D01*
X26283000Y-59854925D01*
X26283000Y-59429306D01*
X30625653Y-59429306D01*
X30705411Y-59622335D01*
X30852967Y-59770149D01*
X31045857Y-59850243D01*
X31254715Y-59850426D01*
X31447744Y-59770668D01*
X31595558Y-59623112D01*
X31675652Y-59430222D01*
X31675835Y-59221364D01*
X31668888Y-59204550D01*
X47600825Y-59204550D01*
X47680583Y-59397579D01*
X47828139Y-59545393D01*
X48021029Y-59625487D01*
X48229887Y-59625670D01*
X48386080Y-59561132D01*
X63725571Y-59561132D01*
X63805329Y-59754161D01*
X63952885Y-59901975D01*
X64004454Y-59923388D01*
X63975696Y-59992647D01*
X63975513Y-60201505D01*
X64013041Y-60292329D01*
X63965156Y-60312115D01*
X63817342Y-60459671D01*
X63737248Y-60652561D01*
X63737065Y-60861419D01*
X63816823Y-61054448D01*
X63964379Y-61202262D01*
X64157269Y-61282356D01*
X64366127Y-61282539D01*
X64559156Y-61202781D01*
X64706970Y-61055225D01*
X64715795Y-61033971D01*
X88274909Y-61033971D01*
X88354667Y-61227000D01*
X88502223Y-61374814D01*
X88695113Y-61454908D01*
X88903971Y-61455091D01*
X89097000Y-61375333D01*
X89244814Y-61227777D01*
X89324908Y-61034887D01*
X89325091Y-60826029D01*
X89245333Y-60633000D01*
X89097777Y-60485186D01*
X88904887Y-60405092D01*
X88696029Y-60404909D01*
X88503000Y-60484667D01*
X88355186Y-60632223D01*
X88275092Y-60825113D01*
X88274909Y-61033971D01*
X64715795Y-61033971D01*
X64787064Y-60862335D01*
X64787247Y-60653477D01*
X64749719Y-60562653D01*
X64758748Y-60558922D01*
X71079905Y-60558922D01*
X71163461Y-60761143D01*
X71318043Y-60915995D01*
X71520118Y-60999904D01*
X71738922Y-61000095D01*
X71941143Y-60916539D01*
X72095995Y-60761957D01*
X72179904Y-60559882D01*
X72180095Y-60341078D01*
X72123243Y-60203485D01*
X96072431Y-60203485D01*
X96152189Y-60396514D01*
X96181593Y-60425969D01*
X96155776Y-60451741D01*
X96075682Y-60644631D01*
X96075499Y-60853489D01*
X96155257Y-61046518D01*
X96302813Y-61194332D01*
X96495703Y-61274426D01*
X96704561Y-61274609D01*
X96897590Y-61194851D01*
X97045404Y-61047295D01*
X97125498Y-60854405D01*
X97125681Y-60645547D01*
X97045923Y-60452518D01*
X97016519Y-60423063D01*
X97042336Y-60397291D01*
X97122430Y-60204401D01*
X97122613Y-59995543D01*
X97042855Y-59802514D01*
X97016218Y-59775831D01*
X97044815Y-59747284D01*
X97124909Y-59554394D01*
X97125092Y-59345536D01*
X97045334Y-59152507D01*
X96897778Y-59004693D01*
X96704888Y-58924599D01*
X96496030Y-58924416D01*
X96303001Y-59004174D01*
X96155187Y-59151730D01*
X96075093Y-59344620D01*
X96074910Y-59553478D01*
X96154668Y-59746507D01*
X96181305Y-59773190D01*
X96152708Y-59801737D01*
X96072614Y-59994627D01*
X96072431Y-60203485D01*
X72123243Y-60203485D01*
X72096539Y-60138857D01*
X71941957Y-59984005D01*
X71739882Y-59900096D01*
X71521078Y-59899905D01*
X71318857Y-59983461D01*
X71164005Y-60138043D01*
X71080096Y-60340118D01*
X71079905Y-60558922D01*
X64758748Y-60558922D01*
X64797604Y-60542867D01*
X64945418Y-60395311D01*
X65025512Y-60202421D01*
X65025695Y-59993563D01*
X64945937Y-59800534D01*
X64798381Y-59652720D01*
X64746812Y-59631307D01*
X64775570Y-59562048D01*
X64775753Y-59353190D01*
X64749080Y-59288636D01*
X64836530Y-59252502D01*
X64984344Y-59104946D01*
X65006756Y-59050971D01*
X91865909Y-59050971D01*
X91945667Y-59244000D01*
X92093223Y-59391814D01*
X92286113Y-59471908D01*
X92494971Y-59472091D01*
X92688000Y-59392333D01*
X92835814Y-59244777D01*
X92915908Y-59051887D01*
X92916091Y-58843029D01*
X92836333Y-58650000D01*
X92688777Y-58502186D01*
X92495887Y-58422092D01*
X92287029Y-58421909D01*
X92094000Y-58501667D01*
X91946186Y-58649223D01*
X91866092Y-58842113D01*
X91865909Y-59050971D01*
X65006756Y-59050971D01*
X65064438Y-58912056D01*
X65064621Y-58703198D01*
X65025667Y-58608922D01*
X71069905Y-58608922D01*
X71153461Y-58811143D01*
X71308043Y-58965995D01*
X71510118Y-59049904D01*
X71728922Y-59050095D01*
X71931143Y-58966539D01*
X72085995Y-58811957D01*
X72169904Y-58609882D01*
X72170095Y-58391078D01*
X72127886Y-58288922D01*
X87829905Y-58288922D01*
X87913461Y-58491143D01*
X88068043Y-58645995D01*
X88270118Y-58729904D01*
X88488922Y-58730095D01*
X88691143Y-58646539D01*
X88845995Y-58491957D01*
X88929904Y-58289882D01*
X88930095Y-58071078D01*
X88846539Y-57868857D01*
X88691957Y-57714005D01*
X88489882Y-57630096D01*
X88271078Y-57629905D01*
X88068857Y-57713461D01*
X87914005Y-57868043D01*
X87830096Y-58070118D01*
X87829905Y-58288922D01*
X72127886Y-58288922D01*
X72086539Y-58188857D01*
X71931957Y-58034005D01*
X71729882Y-57950096D01*
X71511078Y-57949905D01*
X71308857Y-58033461D01*
X71154005Y-58188043D01*
X71070096Y-58390118D01*
X71069905Y-58608922D01*
X65025667Y-58608922D01*
X64984863Y-58510169D01*
X64837307Y-58362355D01*
X64644417Y-58282261D01*
X64435559Y-58282078D01*
X64242530Y-58361836D01*
X64094716Y-58509392D01*
X64014622Y-58702282D01*
X64014439Y-58911140D01*
X64041112Y-58975694D01*
X63953662Y-59011828D01*
X63805848Y-59159384D01*
X63725754Y-59352274D01*
X63725571Y-59561132D01*
X48386080Y-59561132D01*
X48422916Y-59545912D01*
X48570730Y-59398356D01*
X48650824Y-59205466D01*
X48651007Y-58996608D01*
X48571249Y-58803579D01*
X48423693Y-58655765D01*
X48230803Y-58575671D01*
X48021945Y-58575488D01*
X47828916Y-58655246D01*
X47681102Y-58802802D01*
X47601008Y-58995692D01*
X47600825Y-59204550D01*
X31668888Y-59204550D01*
X31596077Y-59028335D01*
X31448521Y-58880521D01*
X31255631Y-58800427D01*
X31046773Y-58800244D01*
X30853744Y-58880002D01*
X30705930Y-59027558D01*
X30625836Y-59220448D01*
X30625653Y-59429306D01*
X26283000Y-59429306D01*
X26283000Y-58629470D01*
X29699782Y-58629470D01*
X29779540Y-58822499D01*
X29927096Y-58970313D01*
X30119986Y-59050407D01*
X30328844Y-59050590D01*
X30521873Y-58970832D01*
X30669687Y-58823276D01*
X30749781Y-58630386D01*
X30749848Y-58553576D01*
X50801172Y-58553576D01*
X50880930Y-58746605D01*
X51028486Y-58894419D01*
X51221376Y-58974513D01*
X51430234Y-58974696D01*
X51623263Y-58894938D01*
X51771077Y-58747382D01*
X51851171Y-58554492D01*
X51851354Y-58345634D01*
X51771596Y-58152605D01*
X51624040Y-58004791D01*
X51431150Y-57924697D01*
X51222292Y-57924514D01*
X51029263Y-58004272D01*
X50881449Y-58151828D01*
X50801355Y-58344718D01*
X50801172Y-58553576D01*
X30749848Y-58553576D01*
X30749964Y-58421528D01*
X30670206Y-58228499D01*
X30522650Y-58080685D01*
X30329760Y-58000591D01*
X30120902Y-58000408D01*
X29927873Y-58080166D01*
X29780059Y-58227722D01*
X29699965Y-58420612D01*
X29699782Y-58629470D01*
X26283000Y-58629470D01*
X26283000Y-57828072D01*
X28726245Y-57828072D01*
X28806003Y-58021101D01*
X28953559Y-58168915D01*
X29146449Y-58249009D01*
X29355307Y-58249192D01*
X29548336Y-58169434D01*
X29696150Y-58021878D01*
X29739697Y-57917003D01*
X52399909Y-57917003D01*
X52479667Y-58110032D01*
X52627223Y-58257846D01*
X52820113Y-58337940D01*
X53028971Y-58338123D01*
X53222000Y-58258365D01*
X53369814Y-58110809D01*
X53449908Y-57917919D01*
X53450091Y-57709061D01*
X53370333Y-57516032D01*
X53222777Y-57368218D01*
X53029887Y-57288124D01*
X52821029Y-57287941D01*
X52628000Y-57367699D01*
X52480186Y-57515255D01*
X52400092Y-57708145D01*
X52399909Y-57917003D01*
X29739697Y-57917003D01*
X29776244Y-57828988D01*
X29776427Y-57620130D01*
X29696669Y-57427101D01*
X29549113Y-57279287D01*
X29356223Y-57199193D01*
X29147365Y-57199010D01*
X28954336Y-57278768D01*
X28806522Y-57426324D01*
X28726428Y-57619214D01*
X28726245Y-57828072D01*
X26283000Y-57828072D01*
X26283000Y-56970482D01*
X63705799Y-56970482D01*
X63785557Y-57163511D01*
X63933113Y-57311325D01*
X64126003Y-57391419D01*
X64334861Y-57391602D01*
X64527890Y-57311844D01*
X64675704Y-57164288D01*
X64755798Y-56971398D01*
X64755981Y-56762540D01*
X64712136Y-56656428D01*
X64727485Y-56650086D01*
X64875299Y-56502530D01*
X64955393Y-56309640D01*
X64955576Y-56100782D01*
X64875818Y-55907753D01*
X64728262Y-55759939D01*
X64535372Y-55679845D01*
X64326514Y-55679662D01*
X64133485Y-55759420D01*
X63985671Y-55906976D01*
X63905577Y-56099866D01*
X63905394Y-56308724D01*
X63949239Y-56414836D01*
X63933890Y-56421178D01*
X63786076Y-56568734D01*
X63705982Y-56761624D01*
X63705799Y-56970482D01*
X26283000Y-56970482D01*
X26283000Y-55403971D01*
X28724909Y-55403971D01*
X28804667Y-55597000D01*
X28952223Y-55744814D01*
X29145113Y-55824908D01*
X29353971Y-55825091D01*
X29547000Y-55745333D01*
X29694814Y-55597777D01*
X29774908Y-55404887D01*
X29775018Y-55278922D01*
X77519905Y-55278922D01*
X77603461Y-55481143D01*
X77758043Y-55635995D01*
X77960118Y-55719904D01*
X78178922Y-55720095D01*
X78363156Y-55643971D01*
X96204909Y-55643971D01*
X96284667Y-55837000D01*
X96432223Y-55984814D01*
X96625113Y-56064908D01*
X96833971Y-56065091D01*
X97027000Y-55985333D01*
X97174814Y-55837777D01*
X97254908Y-55644887D01*
X97255091Y-55436029D01*
X97175333Y-55243000D01*
X97027777Y-55095186D01*
X96834887Y-55015092D01*
X96626029Y-55014909D01*
X96433000Y-55094667D01*
X96285186Y-55242223D01*
X96205092Y-55435113D01*
X96204909Y-55643971D01*
X78363156Y-55643971D01*
X78381143Y-55636539D01*
X78535995Y-55481957D01*
X78619904Y-55279882D01*
X78620095Y-55061078D01*
X78536539Y-54858857D01*
X78381957Y-54704005D01*
X78179882Y-54620096D01*
X77961078Y-54619905D01*
X77758857Y-54703461D01*
X77604005Y-54858043D01*
X77520096Y-55060118D01*
X77519905Y-55278922D01*
X29775018Y-55278922D01*
X29775091Y-55196029D01*
X29695333Y-55003000D01*
X29592938Y-54900426D01*
X29696150Y-54797394D01*
X29776244Y-54604504D01*
X29776427Y-54395646D01*
X29757739Y-54350416D01*
X63705842Y-54350416D01*
X63785600Y-54543445D01*
X63933156Y-54691259D01*
X64126046Y-54771353D01*
X64334904Y-54771536D01*
X64527933Y-54691778D01*
X64615893Y-54603971D01*
X99699909Y-54603971D01*
X99779667Y-54797000D01*
X99927223Y-54944814D01*
X100120113Y-55024908D01*
X100328971Y-55025091D01*
X100522000Y-54945333D01*
X100669814Y-54797777D01*
X100749908Y-54604887D01*
X100750091Y-54396029D01*
X100670333Y-54203000D01*
X100522777Y-54055186D01*
X100329887Y-53975092D01*
X100121029Y-53974909D01*
X99928000Y-54054667D01*
X99780186Y-54202223D01*
X99700092Y-54395113D01*
X99699909Y-54603971D01*
X64615893Y-54603971D01*
X64675747Y-54544222D01*
X64755841Y-54351332D01*
X64756024Y-54142474D01*
X64720294Y-54056000D01*
X64728450Y-54052630D01*
X64876264Y-53905074D01*
X64956358Y-53712184D01*
X64956541Y-53503326D01*
X64876783Y-53310297D01*
X64729227Y-53162483D01*
X64536337Y-53082389D01*
X64327479Y-53082206D01*
X64134450Y-53161964D01*
X63986636Y-53309520D01*
X63906542Y-53502410D01*
X63906359Y-53711268D01*
X63942089Y-53797742D01*
X63933933Y-53801112D01*
X63786119Y-53948668D01*
X63706025Y-54141558D01*
X63705842Y-54350416D01*
X29757739Y-54350416D01*
X29696669Y-54202617D01*
X29605172Y-54110960D01*
X29696150Y-54020141D01*
X29776244Y-53827251D01*
X29776427Y-53618393D01*
X29696669Y-53425364D01*
X29549113Y-53277550D01*
X29356223Y-53197456D01*
X29147365Y-53197273D01*
X28954336Y-53277031D01*
X28806522Y-53424587D01*
X28726428Y-53617477D01*
X28726245Y-53826335D01*
X28806003Y-54019364D01*
X28897500Y-54111021D01*
X28806522Y-54201840D01*
X28726428Y-54394730D01*
X28726245Y-54603588D01*
X28806003Y-54796617D01*
X28908398Y-54899191D01*
X28805186Y-55002223D01*
X28725092Y-55195113D01*
X28724909Y-55403971D01*
X26283000Y-55403971D01*
X26283000Y-50603971D01*
X28724909Y-50603971D01*
X28804667Y-50797000D01*
X28907537Y-50900050D01*
X28805186Y-51002223D01*
X28725092Y-51195113D01*
X28724909Y-51403971D01*
X28804667Y-51597000D01*
X28952223Y-51744814D01*
X29145113Y-51824908D01*
X29353971Y-51825091D01*
X29547000Y-51745333D01*
X29694814Y-51597777D01*
X29774908Y-51404887D01*
X29775091Y-51196029D01*
X29730836Y-51088922D01*
X56229905Y-51088922D01*
X56313461Y-51291143D01*
X56468043Y-51445995D01*
X56670118Y-51529904D01*
X56888922Y-51530095D01*
X57091143Y-51446539D01*
X57108741Y-51428971D01*
X57974909Y-51428971D01*
X58054667Y-51622000D01*
X58157537Y-51725050D01*
X58055186Y-51827223D01*
X57975092Y-52020113D01*
X57974909Y-52228971D01*
X58054667Y-52422000D01*
X58157537Y-52525050D01*
X58055186Y-52627223D01*
X57975092Y-52820113D01*
X57974909Y-53028971D01*
X58054667Y-53222000D01*
X58145037Y-53312528D01*
X58055186Y-53402223D01*
X57975092Y-53595113D01*
X57974909Y-53803971D01*
X58054667Y-53997000D01*
X58202223Y-54144814D01*
X58395113Y-54224908D01*
X58603971Y-54225091D01*
X58797000Y-54145333D01*
X58944814Y-53997777D01*
X59024908Y-53804887D01*
X59025091Y-53596029D01*
X58945333Y-53403000D01*
X58854963Y-53312472D01*
X58944814Y-53222777D01*
X59024908Y-53029887D01*
X59025091Y-52821029D01*
X58945333Y-52628000D01*
X58842463Y-52524950D01*
X58944814Y-52422777D01*
X59024908Y-52229887D01*
X59025091Y-52021029D01*
X58945333Y-51828000D01*
X58842463Y-51724950D01*
X58944814Y-51622777D01*
X59024908Y-51429887D01*
X59025091Y-51221029D01*
X58945333Y-51028000D01*
X58797777Y-50880186D01*
X58604887Y-50800092D01*
X58396029Y-50799909D01*
X58203000Y-50879667D01*
X58055186Y-51027223D01*
X57975092Y-51220113D01*
X57974909Y-51428971D01*
X57108741Y-51428971D01*
X57245995Y-51291957D01*
X57329904Y-51089882D01*
X57330095Y-50871078D01*
X57246539Y-50668857D01*
X57091957Y-50514005D01*
X56889882Y-50430096D01*
X56671078Y-50429905D01*
X56468857Y-50513461D01*
X56314005Y-50668043D01*
X56230096Y-50870118D01*
X56229905Y-51088922D01*
X29730836Y-51088922D01*
X29695333Y-51003000D01*
X29592463Y-50899950D01*
X29694814Y-50797777D01*
X29774908Y-50604887D01*
X29775091Y-50396029D01*
X29695333Y-50203000D01*
X29598425Y-50105922D01*
X62400905Y-50105922D01*
X62484461Y-50308143D01*
X62639043Y-50462995D01*
X62841118Y-50546904D01*
X63059922Y-50547095D01*
X63262143Y-50463539D01*
X63416995Y-50308957D01*
X63500904Y-50106882D01*
X63501095Y-49888078D01*
X63417539Y-49685857D01*
X63262957Y-49531005D01*
X63060882Y-49447096D01*
X62842078Y-49446905D01*
X62639857Y-49530461D01*
X62485005Y-49685043D01*
X62401096Y-49887118D01*
X62400905Y-50105922D01*
X29598425Y-50105922D01*
X29547777Y-50055186D01*
X29354887Y-49975092D01*
X29146029Y-49974909D01*
X28953000Y-50054667D01*
X28805186Y-50202223D01*
X28725092Y-50395113D01*
X28724909Y-50603971D01*
X26283000Y-50603971D01*
X26283000Y-48158922D01*
X76529905Y-48158922D01*
X76613461Y-48361143D01*
X76768043Y-48515995D01*
X76970118Y-48599904D01*
X77188922Y-48600095D01*
X77391143Y-48516539D01*
X77545995Y-48361957D01*
X77629904Y-48159882D01*
X77630095Y-47941078D01*
X77546539Y-47738857D01*
X77391957Y-47584005D01*
X77189882Y-47500096D01*
X76971078Y-47499905D01*
X76768857Y-47583461D01*
X76614005Y-47738043D01*
X76530096Y-47940118D01*
X76529905Y-48158922D01*
X26283000Y-48158922D01*
X26283000Y-47455504D01*
X28685161Y-47455504D01*
X28764919Y-47648533D01*
X28912475Y-47796347D01*
X29105365Y-47876441D01*
X29314223Y-47876624D01*
X29507252Y-47796866D01*
X29655066Y-47649310D01*
X29735160Y-47456420D01*
X29735343Y-47247562D01*
X29655585Y-47054533D01*
X29508029Y-46906719D01*
X29315139Y-46826625D01*
X29106281Y-46826442D01*
X28913252Y-46906200D01*
X28765438Y-47053756D01*
X28685344Y-47246646D01*
X28685161Y-47455504D01*
X26283000Y-47455504D01*
X26283000Y-46708922D01*
X76949905Y-46708922D01*
X77033461Y-46911143D01*
X77188043Y-47065995D01*
X77390118Y-47149904D01*
X77608922Y-47150095D01*
X77811143Y-47066539D01*
X77965995Y-46911957D01*
X78049904Y-46709882D01*
X78050095Y-46491078D01*
X77966539Y-46288857D01*
X77811957Y-46134005D01*
X77609882Y-46050096D01*
X77391078Y-46049905D01*
X77188857Y-46133461D01*
X77034005Y-46288043D01*
X76950096Y-46490118D01*
X76949905Y-46708922D01*
X26283000Y-46708922D01*
X26283000Y-45894121D01*
X95575590Y-45894121D01*
X95655348Y-46087150D01*
X95802904Y-46234964D01*
X95995794Y-46315058D01*
X96204652Y-46315241D01*
X96397681Y-46235483D01*
X96545495Y-46087927D01*
X96625589Y-45895037D01*
X96625772Y-45686179D01*
X96546014Y-45493150D01*
X96398458Y-45345336D01*
X96205568Y-45265242D01*
X95996710Y-45265059D01*
X95803681Y-45344817D01*
X95655867Y-45492373D01*
X95575773Y-45685263D01*
X95575590Y-45894121D01*
X26283000Y-45894121D01*
X26283000Y-44172971D01*
X28684909Y-44172971D01*
X28764667Y-44366000D01*
X28912037Y-44513628D01*
X28765186Y-44660223D01*
X28685092Y-44853113D01*
X28684909Y-45061971D01*
X28764667Y-45255000D01*
X28912223Y-45402814D01*
X29105113Y-45482908D01*
X29313971Y-45483091D01*
X29507000Y-45403333D01*
X29654814Y-45255777D01*
X29734908Y-45062887D01*
X29735091Y-44854029D01*
X29655333Y-44661000D01*
X29507963Y-44513372D01*
X29654814Y-44366777D01*
X29668456Y-44333922D01*
X71049905Y-44333922D01*
X71133461Y-44536143D01*
X71288043Y-44690995D01*
X71490118Y-44774904D01*
X71708922Y-44775095D01*
X71911143Y-44691539D01*
X72065995Y-44536957D01*
X72149904Y-44334882D01*
X72150095Y-44116078D01*
X72066539Y-43913857D01*
X71911957Y-43759005D01*
X71709882Y-43675096D01*
X71491078Y-43674905D01*
X71288857Y-43758461D01*
X71134005Y-43913043D01*
X71050096Y-44115118D01*
X71049905Y-44333922D01*
X29668456Y-44333922D01*
X29734908Y-44173887D01*
X29735091Y-43965029D01*
X29655333Y-43772000D01*
X29507777Y-43624186D01*
X29314887Y-43544092D01*
X29106029Y-43543909D01*
X28913000Y-43623667D01*
X28765186Y-43771223D01*
X28685092Y-43964113D01*
X28684909Y-44172971D01*
X26283000Y-44172971D01*
X26283000Y-42298922D01*
X83269905Y-42298922D01*
X83353461Y-42501143D01*
X83508043Y-42655995D01*
X83710118Y-42739904D01*
X83928922Y-42740095D01*
X84131143Y-42656539D01*
X84285995Y-42501957D01*
X84369904Y-42299882D01*
X84370095Y-42081078D01*
X84286539Y-41878857D01*
X84131957Y-41724005D01*
X83929882Y-41640096D01*
X83711078Y-41639905D01*
X83508857Y-41723461D01*
X83354005Y-41878043D01*
X83270096Y-42080118D01*
X83269905Y-42298922D01*
X26283000Y-42298922D01*
X26283000Y-41759971D01*
X28684909Y-41759971D01*
X28764667Y-41953000D01*
X28912223Y-42100814D01*
X29105113Y-42180908D01*
X29313971Y-42181091D01*
X29507000Y-42101333D01*
X29654814Y-41953777D01*
X29734908Y-41760887D01*
X29735091Y-41552029D01*
X29655333Y-41359000D01*
X29655256Y-41358922D01*
X63429905Y-41358922D01*
X63513461Y-41561143D01*
X63668043Y-41715995D01*
X63870118Y-41799904D01*
X64088922Y-41800095D01*
X64291143Y-41716539D01*
X64445995Y-41561957D01*
X64529904Y-41359882D01*
X64530049Y-41193379D01*
X70576518Y-41193379D01*
X70656276Y-41386408D01*
X70803832Y-41534222D01*
X70996722Y-41614316D01*
X71205580Y-41614499D01*
X71398609Y-41534741D01*
X71546423Y-41387185D01*
X71626517Y-41194295D01*
X71626700Y-40985437D01*
X71546942Y-40792408D01*
X71399386Y-40644594D01*
X71295531Y-40601470D01*
X85723832Y-40601470D01*
X85803590Y-40794499D01*
X85951146Y-40942313D01*
X86046948Y-40982093D01*
X85978860Y-41146069D01*
X85978677Y-41354927D01*
X86058435Y-41547956D01*
X86205991Y-41695770D01*
X86297442Y-41733743D01*
X86228973Y-41898636D01*
X86228790Y-42107494D01*
X86308548Y-42300523D01*
X86456104Y-42448337D01*
X86648994Y-42528431D01*
X86729197Y-42528501D01*
X86729127Y-42607831D01*
X86808885Y-42800860D01*
X86956441Y-42948674D01*
X87149331Y-43028768D01*
X87358189Y-43028951D01*
X87551218Y-42949193D01*
X87699032Y-42801637D01*
X87779126Y-42608747D01*
X87779309Y-42399889D01*
X87699551Y-42206860D01*
X87551995Y-42059046D01*
X87359105Y-41978952D01*
X87278902Y-41978882D01*
X87278972Y-41899552D01*
X87199214Y-41706523D01*
X87051658Y-41558709D01*
X86960207Y-41520736D01*
X87028676Y-41355843D01*
X87028859Y-41146985D01*
X86949101Y-40953956D01*
X86801545Y-40806142D01*
X86705743Y-40766362D01*
X86773831Y-40602386D01*
X86774014Y-40393528D01*
X86694256Y-40200499D01*
X86546700Y-40052685D01*
X86353810Y-39972591D01*
X86144952Y-39972408D01*
X85951923Y-40052166D01*
X85804109Y-40199722D01*
X85724015Y-40392612D01*
X85723832Y-40601470D01*
X71295531Y-40601470D01*
X71206496Y-40564500D01*
X70997638Y-40564317D01*
X70804609Y-40644075D01*
X70656795Y-40791631D01*
X70576701Y-40984521D01*
X70576518Y-41193379D01*
X64530049Y-41193379D01*
X64530095Y-41141078D01*
X64446539Y-40938857D01*
X64291957Y-40784005D01*
X64089882Y-40700096D01*
X63871078Y-40699905D01*
X63668857Y-40783461D01*
X63514005Y-40938043D01*
X63430096Y-41140118D01*
X63429905Y-41358922D01*
X29655256Y-41358922D01*
X29507777Y-41211186D01*
X29314887Y-41131092D01*
X29106029Y-41130909D01*
X28913000Y-41210667D01*
X28765186Y-41358223D01*
X28685092Y-41551113D01*
X28684909Y-41759971D01*
X26283000Y-41759971D01*
X26283000Y-40235971D01*
X28684909Y-40235971D01*
X28764667Y-40429000D01*
X28912223Y-40576814D01*
X29105113Y-40656908D01*
X29313971Y-40657091D01*
X29507000Y-40577333D01*
X29654814Y-40429777D01*
X29734908Y-40236887D01*
X29735091Y-40028029D01*
X29655333Y-39835000D01*
X29507777Y-39687186D01*
X29314887Y-39607092D01*
X29106029Y-39606909D01*
X28913000Y-39686667D01*
X28765186Y-39834223D01*
X28685092Y-40027113D01*
X28684909Y-40235971D01*
X26283000Y-40235971D01*
X26283000Y-36479693D01*
X68850748Y-36479693D01*
X68930506Y-36672722D01*
X69078062Y-36820536D01*
X69270952Y-36900630D01*
X69479810Y-36900813D01*
X69523695Y-36882680D01*
X69523599Y-36991911D01*
X69481566Y-36974458D01*
X69272708Y-36974275D01*
X69079679Y-37054033D01*
X68931865Y-37201589D01*
X68851771Y-37394479D01*
X68851588Y-37603337D01*
X68931346Y-37796366D01*
X69078902Y-37944180D01*
X69271792Y-38024274D01*
X69480650Y-38024457D01*
X69673679Y-37944699D01*
X69696555Y-37921863D01*
X69676105Y-37971112D01*
X69675929Y-38171942D01*
X69506251Y-38101486D01*
X69297393Y-38101303D01*
X69104364Y-38181061D01*
X68956550Y-38328617D01*
X68876456Y-38521507D01*
X68876273Y-38730365D01*
X68956031Y-38923394D01*
X69103587Y-39071208D01*
X69296477Y-39151302D01*
X69505335Y-39151485D01*
X69686090Y-39076798D01*
X69682097Y-39086415D01*
X69681914Y-39295273D01*
X69682728Y-39297243D01*
X69506251Y-39223964D01*
X69297393Y-39223781D01*
X69104364Y-39303539D01*
X68956550Y-39451095D01*
X68876456Y-39643985D01*
X68876273Y-39852843D01*
X68956031Y-40045872D01*
X69103587Y-40193686D01*
X69296477Y-40273780D01*
X69505335Y-40273963D01*
X69698364Y-40194205D01*
X69700099Y-40192473D01*
X69698571Y-40196153D01*
X69698388Y-40405011D01*
X69778146Y-40598040D01*
X69925702Y-40745854D01*
X70118592Y-40825948D01*
X70327450Y-40826131D01*
X70520479Y-40746373D01*
X70668293Y-40598817D01*
X70748387Y-40405927D01*
X70748570Y-40197069D01*
X70668812Y-40004040D01*
X70521256Y-39856226D01*
X70505463Y-39849668D01*
X84974668Y-39849668D01*
X85054426Y-40042697D01*
X85201982Y-40190511D01*
X85394872Y-40270605D01*
X85603730Y-40270788D01*
X85796759Y-40191030D01*
X85944573Y-40043474D01*
X86024667Y-39850584D01*
X86024850Y-39641726D01*
X85945092Y-39448697D01*
X85797536Y-39300883D01*
X85604646Y-39220789D01*
X85395788Y-39220606D01*
X85202759Y-39300364D01*
X85054945Y-39447920D01*
X84974851Y-39640810D01*
X84974668Y-39849668D01*
X70505463Y-39849668D01*
X70328366Y-39776132D01*
X70119508Y-39775949D01*
X69926479Y-39855707D01*
X69924744Y-39857439D01*
X69926272Y-39853759D01*
X69926455Y-39644901D01*
X69925641Y-39642931D01*
X70102118Y-39716210D01*
X70310976Y-39716393D01*
X70504005Y-39636635D01*
X70651819Y-39489079D01*
X70731913Y-39296189D01*
X70732096Y-39087331D01*
X70652338Y-38894302D01*
X70504782Y-38746488D01*
X70311892Y-38666394D01*
X70103034Y-38666211D01*
X69922279Y-38740898D01*
X69926272Y-38731281D01*
X69926448Y-38530451D01*
X70096126Y-38600907D01*
X70304984Y-38601090D01*
X70498013Y-38521332D01*
X70645827Y-38373776D01*
X70725921Y-38180886D01*
X70725989Y-38102532D01*
X83474435Y-38102532D01*
X83554193Y-38295561D01*
X83701749Y-38443375D01*
X83894639Y-38523469D01*
X84103497Y-38523652D01*
X84296526Y-38443894D01*
X84444340Y-38296338D01*
X84524434Y-38103448D01*
X84524617Y-37894590D01*
X84444859Y-37701561D01*
X84297303Y-37553747D01*
X84104413Y-37473653D01*
X83895555Y-37473470D01*
X83702526Y-37553228D01*
X83554712Y-37700784D01*
X83474618Y-37893674D01*
X83474435Y-38102532D01*
X70725989Y-38102532D01*
X70726104Y-37972028D01*
X70646346Y-37778999D01*
X70498790Y-37631185D01*
X70305900Y-37551091D01*
X70097042Y-37550908D01*
X69904013Y-37630666D01*
X69881137Y-37653502D01*
X69901587Y-37604253D01*
X69901715Y-37458319D01*
X69943748Y-37475772D01*
X70152606Y-37475955D01*
X70345635Y-37396197D01*
X70493449Y-37248641D01*
X70514093Y-37198922D01*
X76559905Y-37198922D01*
X76643461Y-37401143D01*
X76798043Y-37555995D01*
X77000118Y-37639904D01*
X77218922Y-37640095D01*
X77421143Y-37556539D01*
X77575995Y-37401957D01*
X77659904Y-37199882D01*
X77660095Y-36981078D01*
X77576539Y-36778857D01*
X77421957Y-36624005D01*
X77366815Y-36601108D01*
X82223245Y-36601108D01*
X82303003Y-36794137D01*
X82450559Y-36941951D01*
X82643449Y-37022045D01*
X82774066Y-37022159D01*
X82723905Y-37142962D01*
X82723722Y-37351820D01*
X82803480Y-37544849D01*
X82951036Y-37692663D01*
X83143926Y-37772757D01*
X83352784Y-37772940D01*
X83545813Y-37693182D01*
X83693627Y-37545626D01*
X83773721Y-37352736D01*
X83773904Y-37143878D01*
X83694146Y-36950849D01*
X83546590Y-36803035D01*
X83353700Y-36722941D01*
X83223083Y-36722827D01*
X83273244Y-36602024D01*
X83273427Y-36393166D01*
X83193669Y-36200137D01*
X83046113Y-36052323D01*
X82878527Y-35982736D01*
X84285198Y-35982736D01*
X84364956Y-36175765D01*
X84512512Y-36323579D01*
X84705402Y-36403673D01*
X84914260Y-36403856D01*
X85107289Y-36324098D01*
X85255103Y-36176542D01*
X85333062Y-35988793D01*
X91727620Y-35988793D01*
X91807378Y-36181822D01*
X91954934Y-36329636D01*
X92147824Y-36409730D01*
X92356682Y-36409913D01*
X92549711Y-36330155D01*
X92697525Y-36182599D01*
X92777619Y-35989709D01*
X92777802Y-35780851D01*
X92698044Y-35587822D01*
X92550488Y-35440008D01*
X92357598Y-35359914D01*
X92148740Y-35359731D01*
X91955711Y-35439489D01*
X91807897Y-35587045D01*
X91727803Y-35779935D01*
X91727620Y-35988793D01*
X85333062Y-35988793D01*
X85335197Y-35983652D01*
X85335380Y-35774794D01*
X85255622Y-35581765D01*
X85108066Y-35433951D01*
X84915176Y-35353857D01*
X84706318Y-35353674D01*
X84513289Y-35433432D01*
X84365475Y-35580988D01*
X84285381Y-35773878D01*
X84285198Y-35982736D01*
X82878527Y-35982736D01*
X82853223Y-35972229D01*
X82644365Y-35972046D01*
X82451336Y-36051804D01*
X82303522Y-36199360D01*
X82223428Y-36392250D01*
X82223245Y-36601108D01*
X77366815Y-36601108D01*
X77219882Y-36540096D01*
X77001078Y-36539905D01*
X76798857Y-36623461D01*
X76644005Y-36778043D01*
X76560096Y-36980118D01*
X76559905Y-37198922D01*
X70514093Y-37198922D01*
X70573543Y-37055751D01*
X70573726Y-36846893D01*
X70493968Y-36653864D01*
X70346412Y-36506050D01*
X70153522Y-36425956D01*
X69944664Y-36425773D01*
X69900779Y-36443906D01*
X69900878Y-36331551D01*
X69945842Y-36350222D01*
X70154700Y-36350405D01*
X70347729Y-36270647D01*
X70495543Y-36123091D01*
X70575637Y-35930201D01*
X70575715Y-35841069D01*
X73375918Y-35841069D01*
X73448080Y-36015714D01*
X73581583Y-36149451D01*
X73756102Y-36221918D01*
X73945069Y-36222082D01*
X74119714Y-36149920D01*
X74253451Y-36016417D01*
X74325918Y-35841898D01*
X74326082Y-35652931D01*
X74253920Y-35478286D01*
X74120417Y-35344549D01*
X73945898Y-35272082D01*
X73756931Y-35271918D01*
X73582286Y-35344080D01*
X73448549Y-35477583D01*
X73376082Y-35652102D01*
X73375918Y-35841069D01*
X70575715Y-35841069D01*
X70575820Y-35721343D01*
X70496062Y-35528314D01*
X70348506Y-35380500D01*
X70155616Y-35300406D01*
X69946758Y-35300223D01*
X69753729Y-35379981D01*
X69605915Y-35527537D01*
X69525821Y-35720427D01*
X69525690Y-35869485D01*
X69480726Y-35850814D01*
X69271868Y-35850631D01*
X69078839Y-35930389D01*
X68931025Y-36077945D01*
X68850931Y-36270835D01*
X68850748Y-36479693D01*
X26283000Y-36479693D01*
X26283000Y-32428527D01*
X33975616Y-32428527D01*
X34055374Y-32621556D01*
X34202930Y-32769370D01*
X34395820Y-32849464D01*
X34604678Y-32849647D01*
X34797707Y-32769889D01*
X34945521Y-32622333D01*
X35000917Y-32488922D01*
X65069905Y-32488922D01*
X65153461Y-32691143D01*
X65308043Y-32845995D01*
X65510118Y-32929904D01*
X65728922Y-32930095D01*
X65931143Y-32846539D01*
X66085995Y-32691957D01*
X66140344Y-32561069D01*
X79645918Y-32561069D01*
X79718080Y-32735714D01*
X79851583Y-32869451D01*
X80026102Y-32941918D01*
X80215069Y-32942082D01*
X80389714Y-32869920D01*
X80523451Y-32736417D01*
X80595918Y-32561898D01*
X80595946Y-32528922D01*
X89329905Y-32528922D01*
X89413461Y-32731143D01*
X89568043Y-32885995D01*
X89770118Y-32969904D01*
X89988922Y-32970095D01*
X90191143Y-32886539D01*
X90345995Y-32731957D01*
X90429904Y-32529882D01*
X90429904Y-32528922D01*
X93239905Y-32528922D01*
X93323461Y-32731143D01*
X93478043Y-32885995D01*
X93680118Y-32969904D01*
X93898922Y-32970095D01*
X94101143Y-32886539D01*
X94255995Y-32731957D01*
X94339904Y-32529882D01*
X94340095Y-32311078D01*
X94256539Y-32108857D01*
X94101957Y-31954005D01*
X93899882Y-31870096D01*
X93681078Y-31869905D01*
X93478857Y-31953461D01*
X93324005Y-32108043D01*
X93240096Y-32310118D01*
X93239905Y-32528922D01*
X90429904Y-32528922D01*
X90430095Y-32311078D01*
X90346539Y-32108857D01*
X90191957Y-31954005D01*
X89989882Y-31870096D01*
X89771078Y-31869905D01*
X89568857Y-31953461D01*
X89414005Y-32108043D01*
X89330096Y-32310118D01*
X89329905Y-32528922D01*
X80595946Y-32528922D01*
X80596082Y-32372931D01*
X80523920Y-32198286D01*
X80390417Y-32064549D01*
X80215898Y-31992082D01*
X80026931Y-31991918D01*
X79852286Y-32064080D01*
X79718549Y-32197583D01*
X79646082Y-32372102D01*
X79645918Y-32561069D01*
X66140344Y-32561069D01*
X66169904Y-32489882D01*
X66170095Y-32271078D01*
X66086539Y-32068857D01*
X65931957Y-31914005D01*
X65729882Y-31830096D01*
X65511078Y-31829905D01*
X65308857Y-31913461D01*
X65154005Y-32068043D01*
X65070096Y-32270118D01*
X65069905Y-32488922D01*
X35000917Y-32488922D01*
X35025615Y-32429443D01*
X35025798Y-32220585D01*
X34946040Y-32027556D01*
X34798484Y-31879742D01*
X34605594Y-31799648D01*
X34396736Y-31799465D01*
X34203707Y-31879223D01*
X34055893Y-32026779D01*
X33975799Y-32219669D01*
X33975616Y-32428527D01*
X26283000Y-32428527D01*
X26283000Y-31120971D01*
X73605909Y-31120971D01*
X73685667Y-31314000D01*
X73833223Y-31461814D01*
X74026113Y-31541908D01*
X74234971Y-31542091D01*
X74428000Y-31462333D01*
X74575814Y-31314777D01*
X74655908Y-31121887D01*
X74656091Y-30913029D01*
X74651150Y-30901069D01*
X86725918Y-30901069D01*
X86798080Y-31075714D01*
X86931583Y-31209451D01*
X87106102Y-31281918D01*
X87295069Y-31282082D01*
X87469714Y-31209920D01*
X87603451Y-31076417D01*
X87675918Y-30901898D01*
X87676082Y-30712931D01*
X87603920Y-30538286D01*
X87470417Y-30404549D01*
X87295898Y-30332082D01*
X87106931Y-30331918D01*
X86932286Y-30404080D01*
X86798549Y-30537583D01*
X86726082Y-30712102D01*
X86725918Y-30901069D01*
X74651150Y-30901069D01*
X74576333Y-30720000D01*
X74428777Y-30572186D01*
X74235887Y-30492092D01*
X74027029Y-30491909D01*
X73834000Y-30571667D01*
X73686186Y-30719223D01*
X73606092Y-30912113D01*
X73605909Y-31120971D01*
X26283000Y-31120971D01*
X26283000Y-30408536D01*
X74736487Y-30408536D01*
X74816245Y-30601565D01*
X74963801Y-30749379D01*
X75156691Y-30829473D01*
X75365549Y-30829656D01*
X75558578Y-30749898D01*
X75706392Y-30602342D01*
X75762316Y-30467661D01*
X75817644Y-30601565D01*
X75965200Y-30749379D01*
X76158090Y-30829473D01*
X76366948Y-30829656D01*
X76559977Y-30749898D01*
X76707791Y-30602342D01*
X76761154Y-30473828D01*
X76813934Y-30601565D01*
X76961490Y-30749379D01*
X77154380Y-30829473D01*
X77363238Y-30829656D01*
X77556267Y-30749898D01*
X77704081Y-30602342D01*
X77760005Y-30467661D01*
X77815333Y-30601565D01*
X77962889Y-30749379D01*
X78155779Y-30829473D01*
X78364637Y-30829656D01*
X78557666Y-30749898D01*
X78705480Y-30602342D01*
X78785574Y-30409452D01*
X78785757Y-30200594D01*
X78705999Y-30007565D01*
X78558443Y-29859751D01*
X78365553Y-29779657D01*
X78156695Y-29779474D01*
X77963666Y-29859232D01*
X77815852Y-30006788D01*
X77759928Y-30141469D01*
X77704600Y-30007565D01*
X77557044Y-29859751D01*
X77364154Y-29779657D01*
X77155296Y-29779474D01*
X76962267Y-29859232D01*
X76814453Y-30006788D01*
X76761090Y-30135302D01*
X76708310Y-30007565D01*
X76560754Y-29859751D01*
X76367864Y-29779657D01*
X76159006Y-29779474D01*
X75965977Y-29859232D01*
X75818163Y-30006788D01*
X75762239Y-30141469D01*
X75706911Y-30007565D01*
X75559355Y-29859751D01*
X75366465Y-29779657D01*
X75157607Y-29779474D01*
X74964578Y-29859232D01*
X74816764Y-30006788D01*
X74736670Y-30199678D01*
X74736487Y-30408536D01*
X26283000Y-30408536D01*
X26283000Y-29259936D01*
X32523854Y-29259936D01*
X32607410Y-29462157D01*
X32761992Y-29617009D01*
X32964067Y-29700918D01*
X33182871Y-29701109D01*
X33385092Y-29617553D01*
X33539944Y-29462971D01*
X33623853Y-29260896D01*
X33624044Y-29042092D01*
X33540488Y-28839871D01*
X33385906Y-28685019D01*
X33183831Y-28601110D01*
X32965027Y-28600919D01*
X32762806Y-28684475D01*
X32607954Y-28839057D01*
X32524045Y-29041132D01*
X32523854Y-29259936D01*
X26283000Y-29259936D01*
X26283000Y-26976961D01*
X26897732Y-26976961D01*
X27133208Y-27546857D01*
X27568849Y-27983260D01*
X28138333Y-28219730D01*
X28754961Y-28220268D01*
X29324857Y-27984792D01*
X29761260Y-27549151D01*
X29997730Y-26979667D01*
X29998268Y-26363039D01*
X29762792Y-25793143D01*
X29619899Y-25650000D01*
X31500000Y-25650000D01*
X31500000Y-27850000D01*
X35338096Y-27850000D01*
X35338096Y-26976961D01*
X65124732Y-26976961D01*
X65360208Y-27546857D01*
X65795849Y-27983260D01*
X66365333Y-28219730D01*
X66981961Y-28220268D01*
X67551857Y-27984792D01*
X67988260Y-27549151D01*
X68069764Y-27352865D01*
X77025103Y-27352865D01*
X77104861Y-27545894D01*
X77252417Y-27693708D01*
X77445307Y-27773802D01*
X77654165Y-27773985D01*
X77847194Y-27694227D01*
X77949610Y-27591990D01*
X78051150Y-27693708D01*
X78244040Y-27773802D01*
X78452898Y-27773985D01*
X78645927Y-27694227D01*
X78743073Y-27597250D01*
X78850500Y-27704865D01*
X79043390Y-27784959D01*
X79252248Y-27785142D01*
X79445277Y-27705384D01*
X79549988Y-27600856D01*
X79653816Y-27704865D01*
X79846706Y-27784959D01*
X80055564Y-27785142D01*
X80248593Y-27705384D01*
X80350510Y-27603645D01*
X80451553Y-27704865D01*
X80644443Y-27784959D01*
X80853301Y-27785142D01*
X81046330Y-27705384D01*
X81100746Y-27651063D01*
X81154455Y-27704865D01*
X81347345Y-27784959D01*
X81556203Y-27785142D01*
X81749232Y-27705384D01*
X81897046Y-27557828D01*
X81977140Y-27364938D01*
X81977154Y-27348847D01*
X83225894Y-27348847D01*
X83305652Y-27541876D01*
X83453208Y-27689690D01*
X83646098Y-27769784D01*
X83854956Y-27769967D01*
X84047985Y-27690209D01*
X84195799Y-27542653D01*
X84248690Y-27415276D01*
X84301000Y-27541876D01*
X84448556Y-27689690D01*
X84641446Y-27769784D01*
X84850304Y-27769967D01*
X85043333Y-27690209D01*
X85191147Y-27542653D01*
X85271241Y-27349763D01*
X85271424Y-27140905D01*
X85191666Y-26947876D01*
X85044110Y-26800062D01*
X84851220Y-26719968D01*
X84642362Y-26719785D01*
X84449333Y-26799543D01*
X84301519Y-26947099D01*
X84248628Y-27074476D01*
X84196318Y-26947876D01*
X84048762Y-26800062D01*
X83855872Y-26719968D01*
X83647014Y-26719785D01*
X83453985Y-26799543D01*
X83306171Y-26947099D01*
X83226077Y-27139989D01*
X83225894Y-27348847D01*
X81977154Y-27348847D01*
X81977323Y-27156080D01*
X81897565Y-26963051D01*
X81750009Y-26815237D01*
X81557119Y-26735143D01*
X81348261Y-26734960D01*
X81155232Y-26814718D01*
X81100816Y-26869039D01*
X81047107Y-26815237D01*
X80854217Y-26735143D01*
X80645359Y-26734960D01*
X80452330Y-26814718D01*
X80350413Y-26916457D01*
X80249370Y-26815237D01*
X80056480Y-26735143D01*
X79847622Y-26734960D01*
X79654593Y-26814718D01*
X79549882Y-26919246D01*
X79446054Y-26815237D01*
X79253164Y-26735143D01*
X79044306Y-26734960D01*
X78851277Y-26814718D01*
X78754131Y-26911695D01*
X78646704Y-26804080D01*
X78453814Y-26723986D01*
X78244956Y-26723803D01*
X78051927Y-26803561D01*
X77949511Y-26905798D01*
X77847971Y-26804080D01*
X77655081Y-26723986D01*
X77446223Y-26723803D01*
X77253194Y-26803561D01*
X77105380Y-26951117D01*
X77025286Y-27144007D01*
X77025103Y-27352865D01*
X68069764Y-27352865D01*
X68224730Y-26979667D01*
X68225268Y-26363039D01*
X67989792Y-25793143D01*
X67554151Y-25356740D01*
X66984667Y-25120270D01*
X66368039Y-25119732D01*
X65798143Y-25355208D01*
X65361740Y-25790849D01*
X65125270Y-26360333D01*
X65124732Y-26976961D01*
X35338096Y-26976961D01*
X35338096Y-25650000D01*
X31500000Y-25650000D01*
X29619899Y-25650000D01*
X29327151Y-25356740D01*
X28757667Y-25120270D01*
X28141039Y-25119732D01*
X27571143Y-25355208D01*
X27134740Y-25790849D01*
X26898270Y-26360333D01*
X26897732Y-26976961D01*
X26283000Y-26976961D01*
X26283000Y-26706932D01*
X26454588Y-25844303D01*
X26922309Y-25144309D01*
X27622303Y-24676588D01*
X28484932Y-24505000D01*
X101059695Y-24505000D01*
X101050096Y-24528118D01*
M02*
