G04 #@! TF.FileFunction,Copper,L2,Inr,Plane*
%FSLAX46Y46*%
G04 Gerber Fmt 4.6, Leading zero omitted, Abs format (unit mm)*
G04 Created by KiCad (PCBNEW 4.0.6) date Tue Sep 12 13:32:53 2017*
%MOMM*%
%LPD*%
G01*
G04 APERTURE LIST*
%ADD10C,0.100000*%
%ADD11C,0.500000*%
%ADD12C,1.500000*%
%ADD13C,0.350000*%
%ADD14C,2.500000*%
%ADD15R,1.700000X1.700000*%
%ADD16O,1.700000X1.700000*%
%ADD17C,0.450000*%
%ADD18C,0.750000*%
%ADD19C,0.350000*%
%ADD20C,1.500000*%
%ADD21C,0.200000*%
G04 APERTURE END LIST*
D10*
X32752381Y-26247619D02*
X32800000Y-26200000D01*
X32895238Y-26152381D01*
X33133334Y-26152381D01*
X33228572Y-26200000D01*
X33276191Y-26247619D01*
X33323810Y-26342857D01*
X33323810Y-26438095D01*
X33276191Y-26580952D01*
X32704762Y-27152381D01*
X33323810Y-27152381D01*
D11*
X81400000Y-50100000D03*
X81400000Y-49600000D03*
X81900000Y-49600000D03*
X81900000Y-50100000D03*
X43500000Y-49110000D03*
X43500000Y-49610000D03*
X44000000Y-49610000D03*
X44000000Y-49110000D03*
D12*
X67471000Y-75300000D03*
X67471000Y-70420000D03*
D13*
X73851000Y-35747000D03*
X87201000Y-30807000D03*
X80121000Y-32467000D03*
D11*
X77110000Y-37090000D03*
X63980000Y-41250000D03*
X83820000Y-42190000D03*
X50510000Y-66470000D03*
X40910000Y-66470000D03*
X65620000Y-32380000D03*
X56780000Y-50980000D03*
X78070000Y-55170000D03*
X77080000Y-48050000D03*
X101600000Y-24638000D03*
X88380000Y-58180000D03*
X71600000Y-44225000D03*
X77500000Y-46600000D03*
D14*
X99568000Y-76200000D03*
X66675000Y-26670000D03*
X28448000Y-26670000D03*
D15*
X30700000Y-76580000D03*
D16*
X28160000Y-76580000D03*
X30700000Y-74040000D03*
X28160000Y-74040000D03*
D17*
X58500000Y-51325000D03*
X58500000Y-53700000D03*
X58500000Y-52925000D03*
X58500000Y-52125000D03*
D11*
X32461000Y-74537000D03*
X31961000Y-74537000D03*
X31951000Y-73537000D03*
X32451000Y-73537000D03*
X32451000Y-74037000D03*
X31951682Y-74035902D03*
X62951000Y-49997000D03*
X89880000Y-32420000D03*
X33073949Y-29151014D03*
X71630000Y-60450000D03*
X71620000Y-58500000D03*
D17*
X96730000Y-55540000D03*
X88800000Y-60930000D03*
D11*
X91179714Y-76740155D03*
X91179714Y-76240312D03*
X90680000Y-76240000D03*
X90680000Y-76740000D03*
X60060000Y-76060000D03*
X60060000Y-74060000D03*
X60060555Y-75559437D03*
X60050000Y-74560000D03*
X60060000Y-75060000D03*
X93801000Y-75067000D03*
D17*
X71101609Y-41089408D03*
X29250000Y-55300000D03*
X29251336Y-54499617D03*
X70223479Y-40301040D03*
X29251336Y-53722364D03*
X69401364Y-39748872D03*
X29250000Y-51300000D03*
X70207005Y-39191302D03*
X29250000Y-50500000D03*
X69401364Y-38626394D03*
X29210252Y-47351533D03*
X70201013Y-38075999D03*
X29210000Y-44958000D03*
X69376679Y-37499366D03*
X70048635Y-36950864D03*
X29210000Y-44069000D03*
X29210000Y-41656000D03*
X69375839Y-36375722D03*
X70050729Y-35825314D03*
X29210000Y-40132000D03*
X69074416Y-64225012D03*
X37725015Y-64099673D03*
X34500077Y-64100232D03*
X69749447Y-63975222D03*
X30224873Y-58525499D03*
X70375934Y-66425508D03*
X29251336Y-57724101D03*
X71050164Y-66674435D03*
X64431450Y-53607297D03*
X52925000Y-57813032D03*
X64230933Y-54246445D03*
X51326263Y-58449605D03*
X64430485Y-56204753D03*
X48125916Y-59100579D03*
X64230890Y-56866511D03*
X46501926Y-59750954D03*
X64539530Y-58807169D03*
X44126066Y-60422538D03*
X64250662Y-59457161D03*
X42499873Y-61025167D03*
X64500604Y-60097534D03*
X41700558Y-61748658D03*
X64262156Y-60757448D03*
X39299453Y-62399486D03*
D11*
X85920000Y-58180000D03*
X51611000Y-73157000D03*
X31941000Y-76077000D03*
X31941000Y-76580000D03*
X31941365Y-77076989D03*
X32441000Y-77087000D03*
X32440999Y-76086785D03*
X32441000Y-76587281D03*
X79241000Y-75917000D03*
X71181000Y-70177000D03*
X97691000Y-71427000D03*
X85991000Y-66317000D03*
X86631000Y-66317000D03*
X53711000Y-64217000D03*
X28811000Y-39317000D03*
X28811000Y-38517000D03*
X51111000Y-73157000D03*
X49341000Y-73157000D03*
X50341000Y-73157000D03*
X49841000Y-73157000D03*
X51611000Y-73787000D03*
X51611000Y-72507000D03*
X51111000Y-73787000D03*
X51111000Y-72507000D03*
X61901000Y-47757000D03*
X64001000Y-47747000D03*
X62951000Y-46997000D03*
X64811000Y-47747000D03*
X64811000Y-49707000D03*
X64801000Y-52947000D03*
X64811000Y-55547000D03*
X64811000Y-58157000D03*
X64801000Y-62047000D03*
X73681000Y-57207000D03*
X74171000Y-75917000D03*
X77981000Y-75917000D03*
X83060004Y-75908950D03*
X88140000Y-73020000D03*
X91950000Y-72320000D03*
X72330000Y-66320000D03*
X74950000Y-66320000D03*
X82100000Y-66320000D03*
X83380000Y-66320000D03*
X89250000Y-66320000D03*
X98400000Y-65100000D03*
X98400000Y-67000000D03*
X101200000Y-64050000D03*
X96700000Y-62050000D03*
X96700000Y-56870000D03*
X96700000Y-54260000D03*
X96700000Y-51650000D03*
X96700000Y-45150000D03*
X96700000Y-43860000D03*
X96750000Y-48410000D03*
X75060000Y-42990000D03*
D17*
X80450000Y-37640000D03*
X86840000Y-30240000D03*
X86525000Y-29925000D03*
D11*
X90029808Y-27700005D03*
X90520000Y-27700000D03*
D17*
X90520000Y-28180000D03*
X90030000Y-28180000D03*
D11*
X82030000Y-26020000D03*
X82530000Y-26020000D03*
D17*
X82530000Y-26500000D03*
X82030000Y-26500000D03*
D11*
X96700000Y-38660000D03*
X89260000Y-34420000D03*
X84690000Y-34420000D03*
X79500000Y-34430000D03*
X74920000Y-34430000D03*
X71040000Y-34430000D03*
X66810000Y-41250000D03*
X66810000Y-42540000D03*
X28810000Y-46500000D03*
X28820000Y-56930000D03*
X32110000Y-64210000D03*
X36120000Y-64210000D03*
X38510000Y-64210000D03*
X40110000Y-64210000D03*
X43310000Y-64210000D03*
X44920902Y-64218979D03*
X48910000Y-64210000D03*
X49710000Y-64210000D03*
X54510000Y-64210000D03*
X58610000Y-60910000D03*
X58620137Y-57719633D03*
X58610000Y-49730000D03*
X54730000Y-47620000D03*
X53820000Y-48230000D03*
X55630000Y-48230000D03*
X58600344Y-46519666D03*
X51320000Y-34420000D03*
X38510000Y-34420000D03*
X40910000Y-34420000D03*
X33710000Y-34420000D03*
X48110000Y-34410000D03*
X57810000Y-40900000D03*
X58310000Y-40900000D03*
X58610899Y-43299119D03*
X96660000Y-33380000D03*
X94926554Y-39324947D03*
X32110000Y-34420000D03*
X28810000Y-43320000D03*
X28810000Y-52910000D03*
X28810000Y-60910000D03*
X28820000Y-49700000D03*
X36920000Y-34420000D03*
X54529362Y-34408777D03*
X44910000Y-34420000D03*
D17*
X86025000Y-26050000D03*
X86525000Y-26050000D03*
X86525000Y-26500000D03*
X86025000Y-26500000D03*
X75261578Y-30304565D03*
X77259267Y-30304565D03*
X77550194Y-27248894D03*
X79148277Y-27260051D03*
X80749330Y-27260051D03*
X83750985Y-27244876D03*
X82748336Y-36497137D03*
X86248923Y-40497499D03*
X86753881Y-42003523D03*
X96100681Y-45790150D03*
X76262977Y-30304565D03*
X78260666Y-30304565D03*
X78348927Y-27248894D03*
X79951593Y-27260051D03*
X81452232Y-27260051D03*
X84746333Y-27244876D03*
X83248813Y-37247849D03*
X86503768Y-41250956D03*
X87254218Y-42503860D03*
X34500707Y-32324556D03*
X33700000Y-64100000D03*
X31150744Y-59325335D03*
X96600001Y-59449507D03*
X96597522Y-60099514D03*
X96600590Y-60749518D03*
X74131000Y-31017000D03*
X73711000Y-62957000D03*
X92391000Y-58947000D03*
D11*
X78170000Y-66320000D03*
X86870000Y-75910000D03*
D17*
X84810289Y-35878765D03*
X92252711Y-35884822D03*
X96800000Y-67000000D03*
X96800000Y-65100000D03*
X100200000Y-65550000D03*
X100200000Y-66550000D03*
X100225000Y-54500000D03*
X89411000Y-73027000D03*
X83999526Y-37998561D03*
X85499759Y-39745697D03*
D18*
X91179714Y-76240312D02*
X90680312Y-76240312D01*
D19*
X90680312Y-76240312D02*
X90680000Y-76240000D01*
D18*
X91179714Y-76740155D02*
X91179714Y-76240312D01*
D20*
X60060555Y-75559437D02*
X60060555Y-74060555D01*
D19*
X60060555Y-74060555D02*
X60060000Y-74060000D01*
D20*
X60740000Y-76740000D02*
X61859852Y-77859852D01*
X60060000Y-76060000D02*
X60740000Y-76740000D01*
X89560148Y-77859852D02*
X90680000Y-76740000D01*
X61859852Y-77859852D02*
X89560148Y-77859852D01*
D21*
G36*
X100949888Y-24766726D02*
X101048636Y-25005714D01*
X101231324Y-25188722D01*
X101470140Y-25287887D01*
X101633000Y-25288029D01*
X101633000Y-76153217D01*
X101467214Y-76986680D01*
X101021595Y-77653595D01*
X100354680Y-78099214D01*
X99521217Y-78265000D01*
X90781346Y-78265000D01*
X91493173Y-77553173D01*
X91623889Y-77357542D01*
X91727722Y-77288163D01*
X91895721Y-77036735D01*
X91954714Y-76740155D01*
X91954714Y-76526765D01*
X97917715Y-76526765D01*
X98168383Y-77133429D01*
X98632130Y-77597986D01*
X99238355Y-77849713D01*
X99894765Y-77850285D01*
X100501429Y-77599617D01*
X100965986Y-77135870D01*
X101217713Y-76529645D01*
X101218285Y-75873235D01*
X100967617Y-75266571D01*
X100503870Y-74802014D01*
X99897645Y-74550287D01*
X99241235Y-74549715D01*
X98634571Y-74800383D01*
X98170014Y-75264130D01*
X97918287Y-75870355D01*
X97917715Y-76526765D01*
X91954714Y-76526765D01*
X91954714Y-76240312D01*
X91895721Y-75943732D01*
X91727722Y-75692304D01*
X91476294Y-75524305D01*
X91179714Y-75465312D01*
X90680312Y-75465312D01*
X90383732Y-75524305D01*
X90132304Y-75692304D01*
X90063333Y-75795526D01*
X89866827Y-75926827D01*
X89083802Y-76709852D01*
X62336198Y-76709852D01*
X61206445Y-75580099D01*
X61210555Y-75559437D01*
X61210555Y-75527746D01*
X66320801Y-75527746D01*
X66495509Y-75950572D01*
X66818727Y-76274354D01*
X67241247Y-76449800D01*
X67698746Y-76450199D01*
X68121572Y-76275491D01*
X68358750Y-76038726D01*
X86219888Y-76038726D01*
X86318636Y-76277714D01*
X86501324Y-76460722D01*
X86740140Y-76559887D01*
X86998726Y-76560112D01*
X87237714Y-76461364D01*
X87420722Y-76278676D01*
X87519887Y-76039860D01*
X87520112Y-75781274D01*
X87421364Y-75542286D01*
X87238676Y-75359278D01*
X86999860Y-75260113D01*
X86741274Y-75259888D01*
X86502286Y-75358636D01*
X86319278Y-75541324D01*
X86220113Y-75780140D01*
X86219888Y-76038726D01*
X68358750Y-76038726D01*
X68445354Y-75952273D01*
X68620800Y-75529753D01*
X68621091Y-75195726D01*
X93150888Y-75195726D01*
X93249636Y-75434714D01*
X93432324Y-75617722D01*
X93671140Y-75716887D01*
X93929726Y-75717112D01*
X94168714Y-75618364D01*
X94351722Y-75435676D01*
X94450887Y-75196860D01*
X94451112Y-74938274D01*
X94352364Y-74699286D01*
X94169676Y-74516278D01*
X93930860Y-74417113D01*
X93672274Y-74416888D01*
X93433286Y-74515636D01*
X93250278Y-74698324D01*
X93151113Y-74937140D01*
X93150888Y-75195726D01*
X68621091Y-75195726D01*
X68621199Y-75072254D01*
X68446491Y-74649428D01*
X68123273Y-74325646D01*
X67700753Y-74150200D01*
X67243254Y-74149801D01*
X66820428Y-74324509D01*
X66496646Y-74647727D01*
X66321200Y-75070247D01*
X66320801Y-75527746D01*
X61210555Y-75527746D01*
X61210555Y-74060555D01*
X61123016Y-73620469D01*
X60873728Y-73247382D01*
X60729145Y-73150775D01*
X88785892Y-73150775D01*
X88880842Y-73380571D01*
X89056504Y-73556540D01*
X89286134Y-73651891D01*
X89534775Y-73652108D01*
X89764571Y-73557158D01*
X89940540Y-73381496D01*
X90035891Y-73151866D01*
X90036108Y-72903225D01*
X89941158Y-72673429D01*
X89765496Y-72497460D01*
X89535866Y-72402109D01*
X89287225Y-72401892D01*
X89057429Y-72496842D01*
X88881460Y-72672504D01*
X88786109Y-72902134D01*
X88785892Y-73150775D01*
X60729145Y-73150775D01*
X60500641Y-72998094D01*
X60060555Y-72910555D01*
X59620469Y-72998094D01*
X59247382Y-73247382D01*
X58998094Y-73620469D01*
X58910555Y-74060555D01*
X58910555Y-75559437D01*
X58960062Y-75808323D01*
X58910000Y-76060000D01*
X58997539Y-76500086D01*
X59246827Y-76873173D01*
X60638654Y-78265000D01*
X26383000Y-78265000D01*
X26383000Y-76809114D01*
X27033054Y-76809114D01*
X27201117Y-77214866D01*
X27517060Y-77533488D01*
X27930885Y-77706950D01*
X28110000Y-77653917D01*
X28110000Y-76630000D01*
X28210000Y-76630000D01*
X28210000Y-77653917D01*
X28389115Y-77706950D01*
X28802940Y-77533488D01*
X29118883Y-77214866D01*
X29286946Y-76809114D01*
X29256076Y-76705000D01*
X29550000Y-76705000D01*
X29550000Y-77489673D01*
X29595672Y-77599936D01*
X29680063Y-77684328D01*
X29790326Y-77730000D01*
X30575000Y-77730000D01*
X30650000Y-77655000D01*
X30650000Y-76630000D01*
X30750000Y-76630000D01*
X30750000Y-77655000D01*
X30825000Y-77730000D01*
X31609674Y-77730000D01*
X31719937Y-77684328D01*
X31804328Y-77599936D01*
X31850000Y-77489673D01*
X31850000Y-76705000D01*
X31775000Y-76630000D01*
X30750000Y-76630000D01*
X30650000Y-76630000D01*
X29625000Y-76630000D01*
X29550000Y-76705000D01*
X29256076Y-76705000D01*
X29233837Y-76630000D01*
X28210000Y-76630000D01*
X28110000Y-76630000D01*
X27086163Y-76630000D01*
X27033054Y-76809114D01*
X26383000Y-76809114D01*
X26383000Y-76350886D01*
X27033054Y-76350886D01*
X27086163Y-76530000D01*
X28110000Y-76530000D01*
X28110000Y-75506083D01*
X28210000Y-75506083D01*
X28210000Y-76530000D01*
X29233837Y-76530000D01*
X29286946Y-76350886D01*
X29118883Y-75945134D01*
X28846387Y-75670327D01*
X29550000Y-75670327D01*
X29550000Y-76455000D01*
X29625000Y-76530000D01*
X30650000Y-76530000D01*
X30650000Y-75505000D01*
X30750000Y-75505000D01*
X30750000Y-76530000D01*
X31775000Y-76530000D01*
X31850000Y-76455000D01*
X31850000Y-75670327D01*
X31804328Y-75560064D01*
X31719937Y-75475672D01*
X31609674Y-75430000D01*
X30825000Y-75430000D01*
X30750000Y-75505000D01*
X30650000Y-75505000D01*
X30575000Y-75430000D01*
X29790326Y-75430000D01*
X29680063Y-75475672D01*
X29595672Y-75560064D01*
X29550000Y-75670327D01*
X28846387Y-75670327D01*
X28802940Y-75626512D01*
X28389115Y-75453050D01*
X28210000Y-75506083D01*
X28110000Y-75506083D01*
X27930885Y-75453050D01*
X27517060Y-75626512D01*
X27201117Y-75945134D01*
X27033054Y-76350886D01*
X26383000Y-76350886D01*
X26383000Y-74040000D01*
X26885511Y-74040000D01*
X26980662Y-74518354D01*
X27251628Y-74923883D01*
X27657157Y-75194849D01*
X28135511Y-75290000D01*
X28184489Y-75290000D01*
X28662843Y-75194849D01*
X29068372Y-74923883D01*
X29339338Y-74518354D01*
X29430000Y-74062568D01*
X29520662Y-74518354D01*
X29791628Y-74923883D01*
X30197157Y-75194849D01*
X30675511Y-75290000D01*
X30724489Y-75290000D01*
X31202843Y-75194849D01*
X31500634Y-74995871D01*
X31592324Y-75087722D01*
X31831140Y-75186887D01*
X32089726Y-75187112D01*
X32211002Y-75137002D01*
X32331140Y-75186887D01*
X32589726Y-75187112D01*
X32828714Y-75088364D01*
X33011722Y-74905676D01*
X33110887Y-74666860D01*
X33111112Y-74408274D01*
X33056014Y-74274927D01*
X33100887Y-74166860D01*
X33101112Y-73908274D01*
X33051002Y-73786998D01*
X33100887Y-73666860D01*
X33101112Y-73408274D01*
X33002364Y-73169286D01*
X32819676Y-72986278D01*
X32580860Y-72887113D01*
X32322274Y-72886888D01*
X32200998Y-72936998D01*
X32080860Y-72887113D01*
X31822274Y-72886888D01*
X31583286Y-72985636D01*
X31491041Y-73077719D01*
X31202843Y-72885151D01*
X30724489Y-72790000D01*
X30675511Y-72790000D01*
X30197157Y-72885151D01*
X29791628Y-73156117D01*
X29520662Y-73561646D01*
X29430000Y-74017432D01*
X29339338Y-73561646D01*
X29068372Y-73156117D01*
X28662843Y-72885151D01*
X28184489Y-72790000D01*
X28135511Y-72790000D01*
X27657157Y-72885151D01*
X27251628Y-73156117D01*
X26980662Y-73561646D01*
X26885511Y-74040000D01*
X26383000Y-74040000D01*
X26383000Y-70647746D01*
X66320801Y-70647746D01*
X66495509Y-71070572D01*
X66818727Y-71394354D01*
X67241247Y-71569800D01*
X67698746Y-71570199D01*
X68121572Y-71395491D01*
X68445354Y-71072273D01*
X68620800Y-70649753D01*
X68621199Y-70192254D01*
X68446491Y-69769428D01*
X68123273Y-69445646D01*
X67700753Y-69270200D01*
X67243254Y-69269801D01*
X66820428Y-69444509D01*
X66496646Y-69767727D01*
X66321200Y-70190247D01*
X66320801Y-70647746D01*
X26383000Y-70647746D01*
X26383000Y-66598726D01*
X40259888Y-66598726D01*
X40358636Y-66837714D01*
X40541324Y-67020722D01*
X40780140Y-67119887D01*
X41038726Y-67120112D01*
X41277714Y-67021364D01*
X41460722Y-66838676D01*
X41559887Y-66599860D01*
X41559887Y-66598726D01*
X49859888Y-66598726D01*
X49958636Y-66837714D01*
X50141324Y-67020722D01*
X50380140Y-67119887D01*
X50638726Y-67120112D01*
X50877714Y-67021364D01*
X51060722Y-66838676D01*
X51159887Y-66599860D01*
X51159931Y-66549283D01*
X69750826Y-66549283D01*
X69845776Y-66779079D01*
X70021438Y-66955048D01*
X70251068Y-67050399D01*
X70499709Y-67050616D01*
X70530058Y-67038076D01*
X70695668Y-67203975D01*
X70925298Y-67299326D01*
X71173939Y-67299543D01*
X71403735Y-67204593D01*
X71484694Y-67123775D01*
X96174892Y-67123775D01*
X96269842Y-67353571D01*
X96445504Y-67529540D01*
X96675134Y-67624891D01*
X96923775Y-67625108D01*
X97153571Y-67530158D01*
X97329540Y-67354496D01*
X97424891Y-67124866D01*
X97425108Y-66876225D01*
X97330158Y-66646429D01*
X97154496Y-66470460D01*
X96924866Y-66375109D01*
X96676225Y-66374892D01*
X96446429Y-66469842D01*
X96270460Y-66645504D01*
X96175109Y-66875134D01*
X96174892Y-67123775D01*
X71484694Y-67123775D01*
X71579704Y-67028931D01*
X71675055Y-66799301D01*
X71675272Y-66550660D01*
X71633154Y-66448726D01*
X77519888Y-66448726D01*
X77618636Y-66687714D01*
X77801324Y-66870722D01*
X78040140Y-66969887D01*
X78298726Y-66970112D01*
X78537714Y-66871364D01*
X78720722Y-66688676D01*
X78819887Y-66449860D01*
X78820112Y-66191274D01*
X78721364Y-65952286D01*
X78538676Y-65769278D01*
X78299860Y-65670113D01*
X78041274Y-65669888D01*
X77802286Y-65768636D01*
X77619278Y-65951324D01*
X77520113Y-66190140D01*
X77519888Y-66448726D01*
X71633154Y-66448726D01*
X71580322Y-66320864D01*
X71404660Y-66144895D01*
X71175030Y-66049544D01*
X70926389Y-66049327D01*
X70896040Y-66061867D01*
X70730430Y-65895968D01*
X70500800Y-65800617D01*
X70252159Y-65800400D01*
X70022363Y-65895350D01*
X69846394Y-66071012D01*
X69751043Y-66300642D01*
X69750826Y-66549283D01*
X51159931Y-66549283D01*
X51160112Y-66341274D01*
X51061364Y-66102286D01*
X50878676Y-65919278D01*
X50639860Y-65820113D01*
X50381274Y-65819888D01*
X50142286Y-65918636D01*
X49959278Y-66101324D01*
X49860113Y-66340140D01*
X49859888Y-66598726D01*
X41559887Y-66598726D01*
X41560112Y-66341274D01*
X41461364Y-66102286D01*
X41278676Y-65919278D01*
X41039860Y-65820113D01*
X40781274Y-65819888D01*
X40542286Y-65918636D01*
X40359278Y-66101324D01*
X40260113Y-66340140D01*
X40259888Y-66598726D01*
X26383000Y-66598726D01*
X26383000Y-65223775D01*
X96174892Y-65223775D01*
X96269842Y-65453571D01*
X96445504Y-65629540D01*
X96675134Y-65724891D01*
X96923775Y-65725108D01*
X97048010Y-65673775D01*
X99574892Y-65673775D01*
X99669842Y-65903571D01*
X99816117Y-66050101D01*
X99670460Y-66195504D01*
X99575109Y-66425134D01*
X99574892Y-66673775D01*
X99669842Y-66903571D01*
X99845504Y-67079540D01*
X100075134Y-67174891D01*
X100323775Y-67175108D01*
X100553571Y-67080158D01*
X100729540Y-66904496D01*
X100824891Y-66674866D01*
X100825108Y-66426225D01*
X100730158Y-66196429D01*
X100583883Y-66049899D01*
X100729540Y-65904496D01*
X100824891Y-65674866D01*
X100825108Y-65426225D01*
X100730158Y-65196429D01*
X100554496Y-65020460D01*
X100324866Y-64925109D01*
X100076225Y-64924892D01*
X99846429Y-65019842D01*
X99670460Y-65195504D01*
X99575109Y-65425134D01*
X99574892Y-65673775D01*
X97048010Y-65673775D01*
X97153571Y-65630158D01*
X97329540Y-65454496D01*
X97424891Y-65224866D01*
X97425108Y-64976225D01*
X97330158Y-64746429D01*
X97154496Y-64570460D01*
X96924866Y-64475109D01*
X96676225Y-64474892D01*
X96446429Y-64569842D01*
X96270460Y-64745504D01*
X96175109Y-64975134D01*
X96174892Y-65223775D01*
X26383000Y-65223775D01*
X26383000Y-64223775D01*
X33074892Y-64223775D01*
X33169842Y-64453571D01*
X33345504Y-64629540D01*
X33575134Y-64724891D01*
X33823775Y-64725108D01*
X34053571Y-64630158D01*
X34099849Y-64583960D01*
X34145581Y-64629772D01*
X34375211Y-64725123D01*
X34623852Y-64725340D01*
X34853648Y-64630390D01*
X35029617Y-64454728D01*
X35124968Y-64225098D01*
X35124969Y-64223448D01*
X37099907Y-64223448D01*
X37194857Y-64453244D01*
X37370519Y-64629213D01*
X37600149Y-64724564D01*
X37848790Y-64724781D01*
X38078586Y-64629831D01*
X38254555Y-64454169D01*
X38298313Y-64348787D01*
X68449308Y-64348787D01*
X68544258Y-64578583D01*
X68719920Y-64754552D01*
X68949550Y-64849903D01*
X69198191Y-64850120D01*
X69427987Y-64755170D01*
X69595438Y-64588012D01*
X69624581Y-64600113D01*
X69873222Y-64600330D01*
X70103018Y-64505380D01*
X70278987Y-64329718D01*
X70374338Y-64100088D01*
X70374555Y-63851447D01*
X70279605Y-63621651D01*
X70103943Y-63445682D01*
X69874313Y-63350331D01*
X69625672Y-63350114D01*
X69395876Y-63445064D01*
X69228425Y-63612222D01*
X69199282Y-63600121D01*
X68950641Y-63599904D01*
X68720845Y-63694854D01*
X68544876Y-63870516D01*
X68449525Y-64100146D01*
X68449308Y-64348787D01*
X38298313Y-64348787D01*
X38349906Y-64224539D01*
X38350123Y-63975898D01*
X38255173Y-63746102D01*
X38079511Y-63570133D01*
X37849881Y-63474782D01*
X37601240Y-63474565D01*
X37371444Y-63569515D01*
X37195475Y-63745177D01*
X37100124Y-63974807D01*
X37099907Y-64223448D01*
X35124969Y-64223448D01*
X35125185Y-63976457D01*
X35030235Y-63746661D01*
X34854573Y-63570692D01*
X34624943Y-63475341D01*
X34376302Y-63475124D01*
X34146506Y-63570074D01*
X34100228Y-63616272D01*
X34054496Y-63570460D01*
X33824866Y-63475109D01*
X33576225Y-63474892D01*
X33346429Y-63569842D01*
X33170460Y-63745504D01*
X33075109Y-63975134D01*
X33074892Y-64223775D01*
X26383000Y-64223775D01*
X26383000Y-63080775D01*
X73085892Y-63080775D01*
X73180842Y-63310571D01*
X73356504Y-63486540D01*
X73586134Y-63581891D01*
X73834775Y-63582108D01*
X74064571Y-63487158D01*
X74240540Y-63311496D01*
X74335891Y-63081866D01*
X74336108Y-62833225D01*
X74241158Y-62603429D01*
X74065496Y-62427460D01*
X73835866Y-62332109D01*
X73587225Y-62331892D01*
X73357429Y-62426842D01*
X73181460Y-62602504D01*
X73086109Y-62832134D01*
X73085892Y-63080775D01*
X26383000Y-63080775D01*
X26383000Y-62523261D01*
X38674345Y-62523261D01*
X38769295Y-62753057D01*
X38944957Y-62929026D01*
X39174587Y-63024377D01*
X39423228Y-63024594D01*
X39653024Y-62929644D01*
X39828993Y-62753982D01*
X39924344Y-62524352D01*
X39924561Y-62275711D01*
X39829611Y-62045915D01*
X39656432Y-61872433D01*
X41075450Y-61872433D01*
X41170400Y-62102229D01*
X41346062Y-62278198D01*
X41575692Y-62373549D01*
X41824333Y-62373766D01*
X42054129Y-62278816D01*
X42230098Y-62103154D01*
X42325449Y-61873524D01*
X42325662Y-61629568D01*
X42375007Y-61650058D01*
X42623648Y-61650275D01*
X42853444Y-61555325D01*
X43029413Y-61379663D01*
X43124764Y-61150033D01*
X43124981Y-60901392D01*
X43030031Y-60671596D01*
X42904967Y-60546313D01*
X43500958Y-60546313D01*
X43595908Y-60776109D01*
X43771570Y-60952078D01*
X44001200Y-61047429D01*
X44249841Y-61047646D01*
X44479637Y-60952696D01*
X44655606Y-60777034D01*
X44750957Y-60547404D01*
X44751174Y-60298763D01*
X44656224Y-60068967D01*
X44480562Y-59892998D01*
X44436566Y-59874729D01*
X45876818Y-59874729D01*
X45971768Y-60104525D01*
X46147430Y-60280494D01*
X46377060Y-60375845D01*
X46625701Y-60376062D01*
X46855497Y-60281112D01*
X47031466Y-60105450D01*
X47126817Y-59875820D01*
X47127034Y-59627179D01*
X47032084Y-59397383D01*
X46859357Y-59224354D01*
X47500808Y-59224354D01*
X47595758Y-59454150D01*
X47771420Y-59630119D01*
X48001050Y-59725470D01*
X48249691Y-59725687D01*
X48479487Y-59630737D01*
X48529375Y-59580936D01*
X63625554Y-59580936D01*
X63720504Y-59810732D01*
X63877606Y-59968109D01*
X63875713Y-59972668D01*
X63875496Y-60221309D01*
X63886908Y-60248929D01*
X63732616Y-60402952D01*
X63637265Y-60632582D01*
X63637048Y-60881223D01*
X63731998Y-61111019D01*
X63907660Y-61286988D01*
X64137290Y-61382339D01*
X64385931Y-61382556D01*
X64615727Y-61287606D01*
X64791696Y-61111944D01*
X64887047Y-60882314D01*
X64887264Y-60633673D01*
X64875852Y-60606053D01*
X64903226Y-60578726D01*
X70979888Y-60578726D01*
X71078636Y-60817714D01*
X71261324Y-61000722D01*
X71500140Y-61099887D01*
X71758726Y-61100112D01*
X71870869Y-61053775D01*
X88174892Y-61053775D01*
X88269842Y-61283571D01*
X88445504Y-61459540D01*
X88675134Y-61554891D01*
X88923775Y-61555108D01*
X89153571Y-61460158D01*
X89329540Y-61284496D01*
X89424891Y-61054866D01*
X89425108Y-60806225D01*
X89330158Y-60576429D01*
X89154496Y-60400460D01*
X88924866Y-60305109D01*
X88676225Y-60304892D01*
X88446429Y-60399842D01*
X88270460Y-60575504D01*
X88175109Y-60805134D01*
X88174892Y-61053775D01*
X71870869Y-61053775D01*
X71997714Y-61001364D01*
X72180722Y-60818676D01*
X72279887Y-60579860D01*
X72280112Y-60321274D01*
X72239626Y-60223289D01*
X95972414Y-60223289D01*
X96057177Y-60428431D01*
X95975699Y-60624652D01*
X95975482Y-60873293D01*
X96070432Y-61103089D01*
X96246094Y-61279058D01*
X96475724Y-61374409D01*
X96724365Y-61374626D01*
X96954161Y-61279676D01*
X97130130Y-61104014D01*
X97225481Y-60874384D01*
X97225698Y-60625743D01*
X97140935Y-60420601D01*
X97222413Y-60224380D01*
X97222630Y-59975739D01*
X97140633Y-59777291D01*
X97224892Y-59574373D01*
X97225109Y-59325732D01*
X97130159Y-59095936D01*
X96954497Y-58919967D01*
X96724867Y-58824616D01*
X96476226Y-58824399D01*
X96246430Y-58919349D01*
X96070461Y-59095011D01*
X95975110Y-59324641D01*
X95974893Y-59573282D01*
X96056890Y-59771730D01*
X95972631Y-59974648D01*
X95972414Y-60223289D01*
X72239626Y-60223289D01*
X72181364Y-60082286D01*
X71998676Y-59899278D01*
X71759860Y-59800113D01*
X71501274Y-59799888D01*
X71262286Y-59898636D01*
X71079278Y-60081324D01*
X70980113Y-60320140D01*
X70979888Y-60578726D01*
X64903226Y-60578726D01*
X65030144Y-60452030D01*
X65125495Y-60222400D01*
X65125712Y-59973759D01*
X65030762Y-59743963D01*
X64873660Y-59586586D01*
X64875553Y-59582027D01*
X64875760Y-59344492D01*
X64893101Y-59337327D01*
X65069070Y-59161665D01*
X65164421Y-58932035D01*
X65164638Y-58683394D01*
X65142050Y-58628726D01*
X70969888Y-58628726D01*
X71068636Y-58867714D01*
X71251324Y-59050722D01*
X71490140Y-59149887D01*
X71748726Y-59150112D01*
X71940735Y-59070775D01*
X91765892Y-59070775D01*
X91860842Y-59300571D01*
X92036504Y-59476540D01*
X92266134Y-59571891D01*
X92514775Y-59572108D01*
X92744571Y-59477158D01*
X92920540Y-59301496D01*
X93015891Y-59071866D01*
X93016108Y-58823225D01*
X92921158Y-58593429D01*
X92745496Y-58417460D01*
X92515866Y-58322109D01*
X92267225Y-58321892D01*
X92037429Y-58416842D01*
X91861460Y-58592504D01*
X91766109Y-58822134D01*
X91765892Y-59070775D01*
X71940735Y-59070775D01*
X71987714Y-59051364D01*
X72170722Y-58868676D01*
X72269887Y-58629860D01*
X72270112Y-58371274D01*
X72244268Y-58308726D01*
X87729888Y-58308726D01*
X87828636Y-58547714D01*
X88011324Y-58730722D01*
X88250140Y-58829887D01*
X88508726Y-58830112D01*
X88747714Y-58731364D01*
X88930722Y-58548676D01*
X89029887Y-58309860D01*
X89030112Y-58051274D01*
X88931364Y-57812286D01*
X88748676Y-57629278D01*
X88509860Y-57530113D01*
X88251274Y-57529888D01*
X88012286Y-57628636D01*
X87829278Y-57811324D01*
X87730113Y-58050140D01*
X87729888Y-58308726D01*
X72244268Y-58308726D01*
X72171364Y-58132286D01*
X71988676Y-57949278D01*
X71749860Y-57850113D01*
X71491274Y-57849888D01*
X71252286Y-57948636D01*
X71069278Y-58131324D01*
X70970113Y-58370140D01*
X70969888Y-58628726D01*
X65142050Y-58628726D01*
X65069688Y-58453598D01*
X64894026Y-58277629D01*
X64664396Y-58182278D01*
X64415755Y-58182061D01*
X64185959Y-58277011D01*
X64009990Y-58452673D01*
X63914639Y-58682303D01*
X63914432Y-58919838D01*
X63897091Y-58927003D01*
X63721122Y-59102665D01*
X63625771Y-59332295D01*
X63625554Y-59580936D01*
X48529375Y-59580936D01*
X48655456Y-59455075D01*
X48750807Y-59225445D01*
X48751024Y-58976804D01*
X48656074Y-58747008D01*
X48482749Y-58573380D01*
X50701155Y-58573380D01*
X50796105Y-58803176D01*
X50971767Y-58979145D01*
X51201397Y-59074496D01*
X51450038Y-59074713D01*
X51679834Y-58979763D01*
X51855803Y-58804101D01*
X51951154Y-58574471D01*
X51951371Y-58325830D01*
X51856421Y-58096034D01*
X51697472Y-57936807D01*
X52299892Y-57936807D01*
X52394842Y-58166603D01*
X52570504Y-58342572D01*
X52800134Y-58437923D01*
X53048775Y-58438140D01*
X53278571Y-58343190D01*
X53454540Y-58167528D01*
X53549891Y-57937898D01*
X53550108Y-57689257D01*
X53455158Y-57459461D01*
X53279496Y-57283492D01*
X53049866Y-57188141D01*
X52801225Y-57187924D01*
X52571429Y-57282874D01*
X52395460Y-57458536D01*
X52300109Y-57688166D01*
X52299892Y-57936807D01*
X51697472Y-57936807D01*
X51680759Y-57920065D01*
X51451129Y-57824714D01*
X51202488Y-57824497D01*
X50972692Y-57919447D01*
X50796723Y-58095109D01*
X50701372Y-58324739D01*
X50701155Y-58573380D01*
X48482749Y-58573380D01*
X48480412Y-58571039D01*
X48250782Y-58475688D01*
X48002141Y-58475471D01*
X47772345Y-58570421D01*
X47596376Y-58746083D01*
X47501025Y-58975713D01*
X47500808Y-59224354D01*
X46859357Y-59224354D01*
X46856422Y-59221414D01*
X46626792Y-59126063D01*
X46378151Y-59125846D01*
X46148355Y-59220796D01*
X45972386Y-59396458D01*
X45877035Y-59626088D01*
X45876818Y-59874729D01*
X44436566Y-59874729D01*
X44250932Y-59797647D01*
X44002291Y-59797430D01*
X43772495Y-59892380D01*
X43596526Y-60068042D01*
X43501175Y-60297672D01*
X43500958Y-60546313D01*
X42904967Y-60546313D01*
X42854369Y-60495627D01*
X42624739Y-60400276D01*
X42376098Y-60400059D01*
X42146302Y-60495009D01*
X41970333Y-60670671D01*
X41874982Y-60900301D01*
X41874769Y-61144257D01*
X41825424Y-61123767D01*
X41576783Y-61123550D01*
X41346987Y-61218500D01*
X41171018Y-61394162D01*
X41075667Y-61623792D01*
X41075450Y-61872433D01*
X39656432Y-61872433D01*
X39653949Y-61869946D01*
X39424319Y-61774595D01*
X39175678Y-61774378D01*
X38945882Y-61869328D01*
X38769913Y-62044990D01*
X38674562Y-62274620D01*
X38674345Y-62523261D01*
X26383000Y-62523261D01*
X26383000Y-58649274D01*
X29599765Y-58649274D01*
X29694715Y-58879070D01*
X29870377Y-59055039D01*
X30100007Y-59150390D01*
X30348648Y-59150607D01*
X30578444Y-59055657D01*
X30591323Y-59042801D01*
X30525853Y-59200469D01*
X30525636Y-59449110D01*
X30620586Y-59678906D01*
X30796248Y-59854875D01*
X31025878Y-59950226D01*
X31274519Y-59950443D01*
X31504315Y-59855493D01*
X31680284Y-59679831D01*
X31775635Y-59450201D01*
X31775852Y-59201560D01*
X31680902Y-58971764D01*
X31505240Y-58795795D01*
X31275610Y-58700444D01*
X31026969Y-58700227D01*
X30797173Y-58795177D01*
X30784294Y-58808033D01*
X30849764Y-58650365D01*
X30849981Y-58401724D01*
X30755031Y-58171928D01*
X30579369Y-57995959D01*
X30349739Y-57900608D01*
X30101098Y-57900391D01*
X29871302Y-57995341D01*
X29695333Y-58171003D01*
X29599982Y-58400633D01*
X29599765Y-58649274D01*
X26383000Y-58649274D01*
X26383000Y-57847876D01*
X28626228Y-57847876D01*
X28721178Y-58077672D01*
X28896840Y-58253641D01*
X29126470Y-58348992D01*
X29375111Y-58349209D01*
X29604907Y-58254259D01*
X29780876Y-58078597D01*
X29876227Y-57848967D01*
X29876444Y-57600326D01*
X29781494Y-57370530D01*
X29605832Y-57194561D01*
X29376202Y-57099210D01*
X29127561Y-57098993D01*
X28897765Y-57193943D01*
X28721796Y-57369605D01*
X28626445Y-57599235D01*
X28626228Y-57847876D01*
X26383000Y-57847876D01*
X26383000Y-56990286D01*
X63605782Y-56990286D01*
X63700732Y-57220082D01*
X63876394Y-57396051D01*
X64106024Y-57491402D01*
X64354665Y-57491619D01*
X64584461Y-57396669D01*
X64760430Y-57221007D01*
X64855781Y-56991377D01*
X64855998Y-56742736D01*
X64832700Y-56686352D01*
X64960025Y-56559249D01*
X65055376Y-56329619D01*
X65055593Y-56080978D01*
X64960643Y-55851182D01*
X64784981Y-55675213D01*
X64555351Y-55579862D01*
X64306710Y-55579645D01*
X64076914Y-55674595D01*
X63900945Y-55850257D01*
X63805594Y-56079887D01*
X63805377Y-56328528D01*
X63828675Y-56384912D01*
X63701350Y-56512015D01*
X63605999Y-56741645D01*
X63605782Y-56990286D01*
X26383000Y-56990286D01*
X26383000Y-55423775D01*
X28624892Y-55423775D01*
X28719842Y-55653571D01*
X28895504Y-55829540D01*
X29125134Y-55924891D01*
X29373775Y-55925108D01*
X29603571Y-55830158D01*
X29779540Y-55654496D01*
X29874891Y-55424866D01*
X29875001Y-55298726D01*
X77419888Y-55298726D01*
X77518636Y-55537714D01*
X77701324Y-55720722D01*
X77940140Y-55819887D01*
X78198726Y-55820112D01*
X78437714Y-55721364D01*
X78495403Y-55663775D01*
X96104892Y-55663775D01*
X96199842Y-55893571D01*
X96375504Y-56069540D01*
X96605134Y-56164891D01*
X96853775Y-56165108D01*
X97083571Y-56070158D01*
X97259540Y-55894496D01*
X97354891Y-55664866D01*
X97355108Y-55416225D01*
X97260158Y-55186429D01*
X97084496Y-55010460D01*
X96854866Y-54915109D01*
X96606225Y-54914892D01*
X96376429Y-55009842D01*
X96200460Y-55185504D01*
X96105109Y-55415134D01*
X96104892Y-55663775D01*
X78495403Y-55663775D01*
X78620722Y-55538676D01*
X78719887Y-55299860D01*
X78720112Y-55041274D01*
X78621364Y-54802286D01*
X78443166Y-54623775D01*
X99599892Y-54623775D01*
X99694842Y-54853571D01*
X99870504Y-55029540D01*
X100100134Y-55124891D01*
X100348775Y-55125108D01*
X100578571Y-55030158D01*
X100754540Y-54854496D01*
X100849891Y-54624866D01*
X100850108Y-54376225D01*
X100755158Y-54146429D01*
X100579496Y-53970460D01*
X100349866Y-53875109D01*
X100101225Y-53874892D01*
X99871429Y-53969842D01*
X99695460Y-54145504D01*
X99600109Y-54375134D01*
X99599892Y-54623775D01*
X78443166Y-54623775D01*
X78438676Y-54619278D01*
X78199860Y-54520113D01*
X77941274Y-54519888D01*
X77702286Y-54618636D01*
X77519278Y-54801324D01*
X77420113Y-55040140D01*
X77419888Y-55298726D01*
X29875001Y-55298726D01*
X29875108Y-55176225D01*
X29780158Y-54946429D01*
X29734358Y-54900549D01*
X29780876Y-54854113D01*
X29876227Y-54624483D01*
X29876444Y-54375842D01*
X29874122Y-54370220D01*
X63605825Y-54370220D01*
X63700775Y-54600016D01*
X63876437Y-54775985D01*
X64106067Y-54871336D01*
X64354708Y-54871553D01*
X64584504Y-54776603D01*
X64760473Y-54600941D01*
X64855824Y-54371311D01*
X64856041Y-54122670D01*
X64839627Y-54082945D01*
X64960990Y-53961793D01*
X65056341Y-53732163D01*
X65056558Y-53483522D01*
X64961608Y-53253726D01*
X64785946Y-53077757D01*
X64556316Y-52982406D01*
X64307675Y-52982189D01*
X64077879Y-53077139D01*
X63901910Y-53252801D01*
X63806559Y-53482431D01*
X63806342Y-53731072D01*
X63822756Y-53770797D01*
X63701393Y-53891949D01*
X63606042Y-54121579D01*
X63605825Y-54370220D01*
X29874122Y-54370220D01*
X29781494Y-54146046D01*
X29746593Y-54111084D01*
X29780876Y-54076860D01*
X29876227Y-53847230D01*
X29876444Y-53598589D01*
X29781494Y-53368793D01*
X29605832Y-53192824D01*
X29376202Y-53097473D01*
X29127561Y-53097256D01*
X28897765Y-53192206D01*
X28721796Y-53367868D01*
X28626445Y-53597498D01*
X28626228Y-53846139D01*
X28721178Y-54075935D01*
X28756079Y-54110897D01*
X28721796Y-54145121D01*
X28626445Y-54374751D01*
X28626228Y-54623392D01*
X28721178Y-54853188D01*
X28766978Y-54899068D01*
X28720460Y-54945504D01*
X28625109Y-55175134D01*
X28624892Y-55423775D01*
X26383000Y-55423775D01*
X26383000Y-50623775D01*
X28624892Y-50623775D01*
X28719842Y-50853571D01*
X28766117Y-50899927D01*
X28720460Y-50945504D01*
X28625109Y-51175134D01*
X28624892Y-51423775D01*
X28719842Y-51653571D01*
X28895504Y-51829540D01*
X29125134Y-51924891D01*
X29373775Y-51925108D01*
X29603571Y-51830158D01*
X29779540Y-51654496D01*
X29874891Y-51424866D01*
X29875108Y-51176225D01*
X29847218Y-51108726D01*
X56129888Y-51108726D01*
X56228636Y-51347714D01*
X56411324Y-51530722D01*
X56650140Y-51629887D01*
X56908726Y-51630112D01*
X57147714Y-51531364D01*
X57230447Y-51448775D01*
X57874892Y-51448775D01*
X57969842Y-51678571D01*
X58016117Y-51724927D01*
X57970460Y-51770504D01*
X57875109Y-52000134D01*
X57874892Y-52248775D01*
X57969842Y-52478571D01*
X58016117Y-52524927D01*
X57970460Y-52570504D01*
X57875109Y-52800134D01*
X57874892Y-53048775D01*
X57969842Y-53278571D01*
X58003617Y-53312405D01*
X57970460Y-53345504D01*
X57875109Y-53575134D01*
X57874892Y-53823775D01*
X57969842Y-54053571D01*
X58145504Y-54229540D01*
X58375134Y-54324891D01*
X58623775Y-54325108D01*
X58853571Y-54230158D01*
X59029540Y-54054496D01*
X59124891Y-53824866D01*
X59125108Y-53576225D01*
X59030158Y-53346429D01*
X58996383Y-53312595D01*
X59029540Y-53279496D01*
X59124891Y-53049866D01*
X59125108Y-52801225D01*
X59030158Y-52571429D01*
X58983883Y-52525073D01*
X59029540Y-52479496D01*
X59124891Y-52249866D01*
X59125108Y-52001225D01*
X59030158Y-51771429D01*
X58983883Y-51725073D01*
X59029540Y-51679496D01*
X59124891Y-51449866D01*
X59125108Y-51201225D01*
X59030158Y-50971429D01*
X58854496Y-50795460D01*
X58624866Y-50700109D01*
X58376225Y-50699892D01*
X58146429Y-50794842D01*
X57970460Y-50970504D01*
X57875109Y-51200134D01*
X57874892Y-51448775D01*
X57230447Y-51448775D01*
X57330722Y-51348676D01*
X57429887Y-51109860D01*
X57430112Y-50851274D01*
X57331364Y-50612286D01*
X57148676Y-50429278D01*
X56909860Y-50330113D01*
X56651274Y-50329888D01*
X56412286Y-50428636D01*
X56229278Y-50611324D01*
X56130113Y-50850140D01*
X56129888Y-51108726D01*
X29847218Y-51108726D01*
X29780158Y-50946429D01*
X29733883Y-50900073D01*
X29779540Y-50854496D01*
X29874891Y-50624866D01*
X29875108Y-50376225D01*
X29780158Y-50146429D01*
X29604496Y-49970460D01*
X29374866Y-49875109D01*
X29126225Y-49874892D01*
X28896429Y-49969842D01*
X28720460Y-50145504D01*
X28625109Y-50375134D01*
X28624892Y-50623775D01*
X26383000Y-50623775D01*
X26383000Y-49238726D01*
X42849888Y-49238726D01*
X42899998Y-49360002D01*
X42850113Y-49480140D01*
X42849888Y-49738726D01*
X42948636Y-49977714D01*
X43131324Y-50160722D01*
X43370140Y-50259887D01*
X43628726Y-50260112D01*
X43750002Y-50210002D01*
X43870140Y-50259887D01*
X44128726Y-50260112D01*
X44367714Y-50161364D01*
X44403414Y-50125726D01*
X62300888Y-50125726D01*
X62399636Y-50364714D01*
X62582324Y-50547722D01*
X62821140Y-50646887D01*
X63079726Y-50647112D01*
X63318714Y-50548364D01*
X63501722Y-50365676D01*
X63600887Y-50126860D01*
X63601112Y-49868274D01*
X63543452Y-49728726D01*
X80749888Y-49728726D01*
X80799998Y-49850002D01*
X80750113Y-49970140D01*
X80749888Y-50228726D01*
X80848636Y-50467714D01*
X81031324Y-50650722D01*
X81270140Y-50749887D01*
X81528726Y-50750112D01*
X81650002Y-50700002D01*
X81770140Y-50749887D01*
X82028726Y-50750112D01*
X82267714Y-50651364D01*
X82450722Y-50468676D01*
X82549887Y-50229860D01*
X82550112Y-49971274D01*
X82500002Y-49849998D01*
X82549887Y-49729860D01*
X82550112Y-49471274D01*
X82451364Y-49232286D01*
X82268676Y-49049278D01*
X82029860Y-48950113D01*
X81771274Y-48949888D01*
X81649998Y-48999998D01*
X81529860Y-48950113D01*
X81271274Y-48949888D01*
X81032286Y-49048636D01*
X80849278Y-49231324D01*
X80750113Y-49470140D01*
X80749888Y-49728726D01*
X63543452Y-49728726D01*
X63502364Y-49629286D01*
X63319676Y-49446278D01*
X63080860Y-49347113D01*
X62822274Y-49346888D01*
X62583286Y-49445636D01*
X62400278Y-49628324D01*
X62301113Y-49867140D01*
X62300888Y-50125726D01*
X44403414Y-50125726D01*
X44550722Y-49978676D01*
X44649887Y-49739860D01*
X44650112Y-49481274D01*
X44600002Y-49359998D01*
X44649887Y-49239860D01*
X44650112Y-48981274D01*
X44551364Y-48742286D01*
X44368676Y-48559278D01*
X44129860Y-48460113D01*
X43871274Y-48459888D01*
X43749998Y-48509998D01*
X43629860Y-48460113D01*
X43371274Y-48459888D01*
X43132286Y-48558636D01*
X42949278Y-48741324D01*
X42850113Y-48980140D01*
X42849888Y-49238726D01*
X26383000Y-49238726D01*
X26383000Y-48178726D01*
X76429888Y-48178726D01*
X76528636Y-48417714D01*
X76711324Y-48600722D01*
X76950140Y-48699887D01*
X77208726Y-48700112D01*
X77447714Y-48601364D01*
X77630722Y-48418676D01*
X77729887Y-48179860D01*
X77730112Y-47921274D01*
X77631364Y-47682286D01*
X77448676Y-47499278D01*
X77209860Y-47400113D01*
X76951274Y-47399888D01*
X76712286Y-47498636D01*
X76529278Y-47681324D01*
X76430113Y-47920140D01*
X76429888Y-48178726D01*
X26383000Y-48178726D01*
X26383000Y-47475308D01*
X28585144Y-47475308D01*
X28680094Y-47705104D01*
X28855756Y-47881073D01*
X29085386Y-47976424D01*
X29334027Y-47976641D01*
X29563823Y-47881691D01*
X29739792Y-47706029D01*
X29835143Y-47476399D01*
X29835360Y-47227758D01*
X29740410Y-46997962D01*
X29564748Y-46821993D01*
X29340137Y-46728726D01*
X76849888Y-46728726D01*
X76948636Y-46967714D01*
X77131324Y-47150722D01*
X77370140Y-47249887D01*
X77628726Y-47250112D01*
X77867714Y-47151364D01*
X78050722Y-46968676D01*
X78149887Y-46729860D01*
X78150112Y-46471274D01*
X78051364Y-46232286D01*
X77868676Y-46049278D01*
X77629860Y-45950113D01*
X77371274Y-45949888D01*
X77132286Y-46048636D01*
X76949278Y-46231324D01*
X76850113Y-46470140D01*
X76849888Y-46728726D01*
X29340137Y-46728726D01*
X29335118Y-46726642D01*
X29086477Y-46726425D01*
X28856681Y-46821375D01*
X28680712Y-46997037D01*
X28585361Y-47226667D01*
X28585144Y-47475308D01*
X26383000Y-47475308D01*
X26383000Y-45913925D01*
X95475573Y-45913925D01*
X95570523Y-46143721D01*
X95746185Y-46319690D01*
X95975815Y-46415041D01*
X96224456Y-46415258D01*
X96454252Y-46320308D01*
X96630221Y-46144646D01*
X96725572Y-45915016D01*
X96725789Y-45666375D01*
X96630839Y-45436579D01*
X96455177Y-45260610D01*
X96225547Y-45165259D01*
X95976906Y-45165042D01*
X95747110Y-45259992D01*
X95571141Y-45435654D01*
X95475790Y-45665284D01*
X95475573Y-45913925D01*
X26383000Y-45913925D01*
X26383000Y-44192775D01*
X28584892Y-44192775D01*
X28679842Y-44422571D01*
X28770617Y-44513504D01*
X28680460Y-44603504D01*
X28585109Y-44833134D01*
X28584892Y-45081775D01*
X28679842Y-45311571D01*
X28855504Y-45487540D01*
X29085134Y-45582891D01*
X29333775Y-45583108D01*
X29563571Y-45488158D01*
X29739540Y-45312496D01*
X29834891Y-45082866D01*
X29835108Y-44834225D01*
X29740158Y-44604429D01*
X29649383Y-44513496D01*
X29739540Y-44423496D01*
X29768511Y-44353726D01*
X70949888Y-44353726D01*
X71048636Y-44592714D01*
X71231324Y-44775722D01*
X71470140Y-44874887D01*
X71728726Y-44875112D01*
X71967714Y-44776364D01*
X72150722Y-44593676D01*
X72249887Y-44354860D01*
X72250112Y-44096274D01*
X72151364Y-43857286D01*
X71968676Y-43674278D01*
X71729860Y-43575113D01*
X71471274Y-43574888D01*
X71232286Y-43673636D01*
X71049278Y-43856324D01*
X70950113Y-44095140D01*
X70949888Y-44353726D01*
X29768511Y-44353726D01*
X29834891Y-44193866D01*
X29835108Y-43945225D01*
X29740158Y-43715429D01*
X29564496Y-43539460D01*
X29334866Y-43444109D01*
X29086225Y-43443892D01*
X28856429Y-43538842D01*
X28680460Y-43714504D01*
X28585109Y-43944134D01*
X28584892Y-44192775D01*
X26383000Y-44192775D01*
X26383000Y-42318726D01*
X83169888Y-42318726D01*
X83268636Y-42557714D01*
X83451324Y-42740722D01*
X83690140Y-42839887D01*
X83948726Y-42840112D01*
X84187714Y-42741364D01*
X84370722Y-42558676D01*
X84469887Y-42319860D01*
X84470112Y-42061274D01*
X84371364Y-41822286D01*
X84188676Y-41639278D01*
X83949860Y-41540113D01*
X83691274Y-41539888D01*
X83452286Y-41638636D01*
X83269278Y-41821324D01*
X83170113Y-42060140D01*
X83169888Y-42318726D01*
X26383000Y-42318726D01*
X26383000Y-41779775D01*
X28584892Y-41779775D01*
X28679842Y-42009571D01*
X28855504Y-42185540D01*
X29085134Y-42280891D01*
X29333775Y-42281108D01*
X29563571Y-42186158D01*
X29739540Y-42010496D01*
X29834891Y-41780866D01*
X29835108Y-41532225D01*
X29771684Y-41378726D01*
X63329888Y-41378726D01*
X63428636Y-41617714D01*
X63611324Y-41800722D01*
X63850140Y-41899887D01*
X64108726Y-41900112D01*
X64347714Y-41801364D01*
X64530722Y-41618676D01*
X64629887Y-41379860D01*
X64630112Y-41121274D01*
X64531364Y-40882286D01*
X64348676Y-40699278D01*
X64109860Y-40600113D01*
X63851274Y-40599888D01*
X63612286Y-40698636D01*
X63429278Y-40881324D01*
X63330113Y-41120140D01*
X63329888Y-41378726D01*
X29771684Y-41378726D01*
X29740158Y-41302429D01*
X29564496Y-41126460D01*
X29334866Y-41031109D01*
X29086225Y-41030892D01*
X28856429Y-41125842D01*
X28680460Y-41301504D01*
X28585109Y-41531134D01*
X28584892Y-41779775D01*
X26383000Y-41779775D01*
X26383000Y-40255775D01*
X28584892Y-40255775D01*
X28679842Y-40485571D01*
X28855504Y-40661540D01*
X29085134Y-40756891D01*
X29333775Y-40757108D01*
X29563571Y-40662158D01*
X29739540Y-40486496D01*
X29834891Y-40256866D01*
X29835108Y-40008225D01*
X29740158Y-39778429D01*
X29564496Y-39602460D01*
X29334866Y-39507109D01*
X29086225Y-39506892D01*
X28856429Y-39601842D01*
X28680460Y-39777504D01*
X28585109Y-40007134D01*
X28584892Y-40255775D01*
X26383000Y-40255775D01*
X26383000Y-36499497D01*
X68750731Y-36499497D01*
X68845681Y-36729293D01*
X69021343Y-36905262D01*
X69099413Y-36937679D01*
X69023108Y-36969208D01*
X68847139Y-37144870D01*
X68751788Y-37374500D01*
X68751571Y-37623141D01*
X68846521Y-37852937D01*
X69022183Y-38028906D01*
X69116231Y-38067958D01*
X69047793Y-38096236D01*
X68871824Y-38271898D01*
X68776473Y-38501528D01*
X68776256Y-38750169D01*
X68871206Y-38979965D01*
X69046868Y-39155934D01*
X69123111Y-39187593D01*
X69047793Y-39218714D01*
X68871824Y-39394376D01*
X68776473Y-39624006D01*
X68776256Y-39872647D01*
X68871206Y-40102443D01*
X69046868Y-40278412D01*
X69276498Y-40373763D01*
X69525139Y-40373980D01*
X69598442Y-40343692D01*
X69598371Y-40424815D01*
X69693321Y-40654611D01*
X69868983Y-40830580D01*
X70098613Y-40925931D01*
X70347254Y-40926148D01*
X70522775Y-40853624D01*
X70476718Y-40964542D01*
X70476501Y-41213183D01*
X70571451Y-41442979D01*
X70747113Y-41618948D01*
X70976743Y-41714299D01*
X71225384Y-41714516D01*
X71455180Y-41619566D01*
X71631149Y-41443904D01*
X71726500Y-41214274D01*
X71726717Y-40965633D01*
X71631767Y-40735837D01*
X71456105Y-40559868D01*
X71226475Y-40464517D01*
X70977834Y-40464300D01*
X70802313Y-40536824D01*
X70848370Y-40425906D01*
X70848587Y-40177265D01*
X70753637Y-39947469D01*
X70675777Y-39869472D01*
X84874651Y-39869472D01*
X84969601Y-40099268D01*
X85145263Y-40275237D01*
X85374893Y-40370588D01*
X85623534Y-40370805D01*
X85625051Y-40370178D01*
X85624032Y-40372633D01*
X85623815Y-40621274D01*
X85718765Y-40851070D01*
X85894427Y-41027039D01*
X85916245Y-41036099D01*
X85878877Y-41126090D01*
X85878660Y-41374731D01*
X85973610Y-41604527D01*
X86149272Y-41780496D01*
X86166739Y-41787749D01*
X86128990Y-41878657D01*
X86128773Y-42127298D01*
X86223723Y-42357094D01*
X86399385Y-42533063D01*
X86629015Y-42628414D01*
X86629432Y-42628414D01*
X86724060Y-42857431D01*
X86899722Y-43033400D01*
X87129352Y-43128751D01*
X87377993Y-43128968D01*
X87607789Y-43034018D01*
X87783758Y-42858356D01*
X87879109Y-42628726D01*
X87879326Y-42380085D01*
X87784376Y-42150289D01*
X87608714Y-41974320D01*
X87379084Y-41878969D01*
X87378667Y-41878969D01*
X87284039Y-41649952D01*
X87108377Y-41473983D01*
X87090910Y-41466730D01*
X87128659Y-41375822D01*
X87128876Y-41127181D01*
X87033926Y-40897385D01*
X86858264Y-40721416D01*
X86836446Y-40712356D01*
X86873814Y-40622365D01*
X86874031Y-40373724D01*
X86779081Y-40143928D01*
X86603419Y-39967959D01*
X86373789Y-39872608D01*
X86125148Y-39872391D01*
X86123631Y-39873018D01*
X86124650Y-39870563D01*
X86124867Y-39621922D01*
X86029917Y-39392126D01*
X85854255Y-39216157D01*
X85624625Y-39120806D01*
X85375984Y-39120589D01*
X85146188Y-39215539D01*
X84970219Y-39391201D01*
X84874868Y-39620831D01*
X84874651Y-39869472D01*
X70675777Y-39869472D01*
X70577975Y-39771500D01*
X70508894Y-39742815D01*
X70560576Y-39721460D01*
X70736545Y-39545798D01*
X70831896Y-39316168D01*
X70832113Y-39067527D01*
X70737163Y-38837731D01*
X70561501Y-38661762D01*
X70490930Y-38632458D01*
X70554584Y-38606157D01*
X70730553Y-38430495D01*
X70825904Y-38200865D01*
X70826121Y-37952224D01*
X70731171Y-37722428D01*
X70555509Y-37546459D01*
X70400058Y-37481910D01*
X70402206Y-37481022D01*
X70578175Y-37305360D01*
X70614148Y-37218726D01*
X76459888Y-37218726D01*
X76558636Y-37457714D01*
X76741324Y-37640722D01*
X76980140Y-37739887D01*
X77238726Y-37740112D01*
X77477714Y-37641364D01*
X77660722Y-37458676D01*
X77759887Y-37219860D01*
X77760112Y-36961274D01*
X77661364Y-36722286D01*
X77560168Y-36620912D01*
X82123228Y-36620912D01*
X82218178Y-36850708D01*
X82393840Y-37026677D01*
X82623470Y-37122028D01*
X82624318Y-37122029D01*
X82623922Y-37122983D01*
X82623705Y-37371624D01*
X82718655Y-37601420D01*
X82894317Y-37777389D01*
X83123947Y-37872740D01*
X83372588Y-37872957D01*
X83375429Y-37871783D01*
X83374635Y-37873695D01*
X83374418Y-38122336D01*
X83469368Y-38352132D01*
X83645030Y-38528101D01*
X83874660Y-38623452D01*
X84123301Y-38623669D01*
X84353097Y-38528719D01*
X84529066Y-38353057D01*
X84624417Y-38123427D01*
X84624634Y-37874786D01*
X84529684Y-37644990D01*
X84354022Y-37469021D01*
X84124392Y-37373670D01*
X83875751Y-37373453D01*
X83872910Y-37374627D01*
X83873704Y-37372715D01*
X83873921Y-37124074D01*
X83778971Y-36894278D01*
X83603309Y-36718309D01*
X83373679Y-36622958D01*
X83372831Y-36622957D01*
X83373227Y-36622003D01*
X83373444Y-36373362D01*
X83278494Y-36143566D01*
X83137715Y-36002540D01*
X84185181Y-36002540D01*
X84280131Y-36232336D01*
X84455793Y-36408305D01*
X84685423Y-36503656D01*
X84934064Y-36503873D01*
X85163860Y-36408923D01*
X85339829Y-36233261D01*
X85433117Y-36008597D01*
X91627603Y-36008597D01*
X91722553Y-36238393D01*
X91898215Y-36414362D01*
X92127845Y-36509713D01*
X92376486Y-36509930D01*
X92606282Y-36414980D01*
X92782251Y-36239318D01*
X92877602Y-36009688D01*
X92877819Y-35761047D01*
X92782869Y-35531251D01*
X92607207Y-35355282D01*
X92377577Y-35259931D01*
X92128936Y-35259714D01*
X91899140Y-35354664D01*
X91723171Y-35530326D01*
X91627820Y-35759956D01*
X91627603Y-36008597D01*
X85433117Y-36008597D01*
X85435180Y-36003631D01*
X85435397Y-35754990D01*
X85340447Y-35525194D01*
X85164785Y-35349225D01*
X84935155Y-35253874D01*
X84686514Y-35253657D01*
X84456718Y-35348607D01*
X84280749Y-35524269D01*
X84185398Y-35753899D01*
X84185181Y-36002540D01*
X83137715Y-36002540D01*
X83102832Y-35967597D01*
X82873202Y-35872246D01*
X82624561Y-35872029D01*
X82394765Y-35966979D01*
X82218796Y-36142641D01*
X82123445Y-36372271D01*
X82123228Y-36620912D01*
X77560168Y-36620912D01*
X77478676Y-36539278D01*
X77239860Y-36440113D01*
X76981274Y-36439888D01*
X76742286Y-36538636D01*
X76559278Y-36721324D01*
X76460113Y-36960140D01*
X76459888Y-37218726D01*
X70614148Y-37218726D01*
X70673526Y-37075730D01*
X70673743Y-36827089D01*
X70578793Y-36597293D01*
X70403131Y-36421324D01*
X70324224Y-36388559D01*
X70404300Y-36355472D01*
X70580269Y-36179810D01*
X70675620Y-35950180D01*
X70675697Y-35860873D01*
X73275900Y-35860873D01*
X73363254Y-36072286D01*
X73524863Y-36234177D01*
X73736124Y-36321900D01*
X73964873Y-36322100D01*
X74176286Y-36234746D01*
X74338177Y-36073137D01*
X74425900Y-35861876D01*
X74426100Y-35633127D01*
X74338746Y-35421714D01*
X74177137Y-35259823D01*
X73965876Y-35172100D01*
X73737127Y-35171900D01*
X73525714Y-35259254D01*
X73363823Y-35420863D01*
X73276100Y-35632124D01*
X73275900Y-35860873D01*
X70675697Y-35860873D01*
X70675837Y-35701539D01*
X70580887Y-35471743D01*
X70405225Y-35295774D01*
X70175595Y-35200423D01*
X69926954Y-35200206D01*
X69697158Y-35295156D01*
X69521189Y-35470818D01*
X69425838Y-35700448D01*
X69425794Y-35750766D01*
X69252064Y-35750614D01*
X69022268Y-35845564D01*
X68846299Y-36021226D01*
X68750948Y-36250856D01*
X68750731Y-36499497D01*
X26383000Y-36499497D01*
X26383000Y-32448331D01*
X33875599Y-32448331D01*
X33970549Y-32678127D01*
X34146211Y-32854096D01*
X34375841Y-32949447D01*
X34624482Y-32949664D01*
X34854278Y-32854714D01*
X35030247Y-32679052D01*
X35100972Y-32508726D01*
X64969888Y-32508726D01*
X65068636Y-32747714D01*
X65251324Y-32930722D01*
X65490140Y-33029887D01*
X65748726Y-33030112D01*
X65987714Y-32931364D01*
X66170722Y-32748676D01*
X66240399Y-32580873D01*
X79545900Y-32580873D01*
X79633254Y-32792286D01*
X79794863Y-32954177D01*
X80006124Y-33041900D01*
X80234873Y-33042100D01*
X80446286Y-32954746D01*
X80608177Y-32793137D01*
X80695900Y-32581876D01*
X80695928Y-32548726D01*
X89229888Y-32548726D01*
X89328636Y-32787714D01*
X89511324Y-32970722D01*
X89750140Y-33069887D01*
X90008726Y-33070112D01*
X90247714Y-32971364D01*
X90430722Y-32788676D01*
X90529887Y-32549860D01*
X90530112Y-32291274D01*
X90431364Y-32052286D01*
X90248676Y-31869278D01*
X90009860Y-31770113D01*
X89751274Y-31769888D01*
X89512286Y-31868636D01*
X89329278Y-32051324D01*
X89230113Y-32290140D01*
X89229888Y-32548726D01*
X80695928Y-32548726D01*
X80696100Y-32353127D01*
X80608746Y-32141714D01*
X80447137Y-31979823D01*
X80235876Y-31892100D01*
X80007127Y-31891900D01*
X79795714Y-31979254D01*
X79633823Y-32140863D01*
X79546100Y-32352124D01*
X79545900Y-32580873D01*
X66240399Y-32580873D01*
X66269887Y-32509860D01*
X66270112Y-32251274D01*
X66171364Y-32012286D01*
X65988676Y-31829278D01*
X65749860Y-31730113D01*
X65491274Y-31729888D01*
X65252286Y-31828636D01*
X65069278Y-32011324D01*
X64970113Y-32250140D01*
X64969888Y-32508726D01*
X35100972Y-32508726D01*
X35125598Y-32449422D01*
X35125815Y-32200781D01*
X35030865Y-31970985D01*
X34855203Y-31795016D01*
X34625573Y-31699665D01*
X34376932Y-31699448D01*
X34147136Y-31794398D01*
X33971167Y-31970060D01*
X33875816Y-32199690D01*
X33875599Y-32448331D01*
X26383000Y-32448331D01*
X26383000Y-31140775D01*
X73505892Y-31140775D01*
X73600842Y-31370571D01*
X73776504Y-31546540D01*
X74006134Y-31641891D01*
X74254775Y-31642108D01*
X74484571Y-31547158D01*
X74660540Y-31371496D01*
X74755891Y-31141866D01*
X74756108Y-30893225D01*
X74661158Y-30663429D01*
X74485496Y-30487460D01*
X74343120Y-30428340D01*
X74636470Y-30428340D01*
X74731420Y-30658136D01*
X74907082Y-30834105D01*
X75136712Y-30929456D01*
X75385353Y-30929673D01*
X75615149Y-30834723D01*
X75762380Y-30687749D01*
X75908481Y-30834105D01*
X76138111Y-30929456D01*
X76386752Y-30929673D01*
X76616548Y-30834723D01*
X76761220Y-30690303D01*
X76904771Y-30834105D01*
X77134401Y-30929456D01*
X77383042Y-30929673D01*
X77612838Y-30834723D01*
X77760069Y-30687749D01*
X77906170Y-30834105D01*
X78135800Y-30929456D01*
X78384441Y-30929673D01*
X78405738Y-30920873D01*
X86625900Y-30920873D01*
X86713254Y-31132286D01*
X86874863Y-31294177D01*
X87086124Y-31381900D01*
X87314873Y-31382100D01*
X87526286Y-31294746D01*
X87688177Y-31133137D01*
X87775900Y-30921876D01*
X87776100Y-30693127D01*
X87688746Y-30481714D01*
X87527137Y-30319823D01*
X87315876Y-30232100D01*
X87087127Y-30231900D01*
X86875714Y-30319254D01*
X86713823Y-30480863D01*
X86626100Y-30692124D01*
X86625900Y-30920873D01*
X78405738Y-30920873D01*
X78614237Y-30834723D01*
X78790206Y-30659061D01*
X78885557Y-30429431D01*
X78885774Y-30180790D01*
X78790824Y-29950994D01*
X78615162Y-29775025D01*
X78385532Y-29679674D01*
X78136891Y-29679457D01*
X77907095Y-29774407D01*
X77759864Y-29921381D01*
X77613763Y-29775025D01*
X77384133Y-29679674D01*
X77135492Y-29679457D01*
X76905696Y-29774407D01*
X76761024Y-29918827D01*
X76617473Y-29775025D01*
X76387843Y-29679674D01*
X76139202Y-29679457D01*
X75909406Y-29774407D01*
X75762175Y-29921381D01*
X75616074Y-29775025D01*
X75386444Y-29679674D01*
X75137803Y-29679457D01*
X74908007Y-29774407D01*
X74732038Y-29950069D01*
X74636687Y-30179699D01*
X74636470Y-30428340D01*
X74343120Y-30428340D01*
X74255866Y-30392109D01*
X74007225Y-30391892D01*
X73777429Y-30486842D01*
X73601460Y-30662504D01*
X73506109Y-30892134D01*
X73505892Y-31140775D01*
X26383000Y-31140775D01*
X26383000Y-29279740D01*
X32423837Y-29279740D01*
X32522585Y-29518728D01*
X32705273Y-29701736D01*
X32944089Y-29800901D01*
X33202675Y-29801126D01*
X33441663Y-29702378D01*
X33624671Y-29519690D01*
X33723836Y-29280874D01*
X33724061Y-29022288D01*
X33625313Y-28783300D01*
X33442625Y-28600292D01*
X33203809Y-28501127D01*
X32945223Y-28500902D01*
X32706235Y-28599650D01*
X32523227Y-28782338D01*
X32424062Y-29021154D01*
X32423837Y-29279740D01*
X26383000Y-29279740D01*
X26383000Y-26996765D01*
X26797715Y-26996765D01*
X27048383Y-27603429D01*
X27512130Y-28067986D01*
X28118355Y-28319713D01*
X28774765Y-28320285D01*
X29381429Y-28069617D01*
X29845986Y-27605870D01*
X30097713Y-26999645D01*
X30098285Y-26343235D01*
X29847617Y-25736571D01*
X29661372Y-25550000D01*
X31400000Y-25550000D01*
X31400000Y-27950000D01*
X35438096Y-27950000D01*
X35438096Y-26996765D01*
X65024715Y-26996765D01*
X65275383Y-27603429D01*
X65739130Y-28067986D01*
X66345355Y-28319713D01*
X67001765Y-28320285D01*
X67608429Y-28069617D01*
X68072986Y-27605870D01*
X68169819Y-27372669D01*
X76925086Y-27372669D01*
X77020036Y-27602465D01*
X77195698Y-27778434D01*
X77425328Y-27873785D01*
X77673969Y-27874002D01*
X77903765Y-27779052D01*
X77949486Y-27733411D01*
X77994431Y-27778434D01*
X78224061Y-27873785D01*
X78472702Y-27874002D01*
X78702498Y-27779052D01*
X78742950Y-27738671D01*
X78793781Y-27789591D01*
X79023411Y-27884942D01*
X79272052Y-27885159D01*
X79501848Y-27790209D01*
X79549865Y-27742276D01*
X79597097Y-27789591D01*
X79826727Y-27884942D01*
X80075368Y-27885159D01*
X80305164Y-27790209D01*
X80350386Y-27745066D01*
X80394834Y-27789591D01*
X80624464Y-27884942D01*
X80873105Y-27885159D01*
X81101058Y-27790970D01*
X81327366Y-27884942D01*
X81576007Y-27885159D01*
X81805803Y-27790209D01*
X81981772Y-27614547D01*
X82077123Y-27384917D01*
X82077137Y-27368651D01*
X83125877Y-27368651D01*
X83220827Y-27598447D01*
X83396489Y-27774416D01*
X83626119Y-27869767D01*
X83874760Y-27869984D01*
X84104556Y-27775034D01*
X84248756Y-27631085D01*
X84391837Y-27774416D01*
X84621467Y-27869767D01*
X84870108Y-27869984D01*
X85099904Y-27775034D01*
X85275873Y-27599372D01*
X85371224Y-27369742D01*
X85371441Y-27121101D01*
X85276491Y-26891305D01*
X85100829Y-26715336D01*
X84871199Y-26619985D01*
X84622558Y-26619768D01*
X84392762Y-26714718D01*
X84248562Y-26858667D01*
X84105481Y-26715336D01*
X83875851Y-26619985D01*
X83627210Y-26619768D01*
X83397414Y-26714718D01*
X83221445Y-26890380D01*
X83126094Y-27120010D01*
X83125877Y-27368651D01*
X82077137Y-27368651D01*
X82077340Y-27136276D01*
X81982390Y-26906480D01*
X81806728Y-26730511D01*
X81577098Y-26635160D01*
X81328457Y-26634943D01*
X81100504Y-26729132D01*
X80874196Y-26635160D01*
X80625555Y-26634943D01*
X80395759Y-26729893D01*
X80350537Y-26775036D01*
X80306089Y-26730511D01*
X80076459Y-26635160D01*
X79827818Y-26634943D01*
X79598022Y-26729893D01*
X79550005Y-26777826D01*
X79502773Y-26730511D01*
X79273143Y-26635160D01*
X79024502Y-26634943D01*
X78794706Y-26729893D01*
X78754254Y-26770274D01*
X78703423Y-26719354D01*
X78473793Y-26624003D01*
X78225152Y-26623786D01*
X77995356Y-26718736D01*
X77949635Y-26764377D01*
X77904690Y-26719354D01*
X77675060Y-26624003D01*
X77426419Y-26623786D01*
X77196623Y-26718736D01*
X77020654Y-26894398D01*
X76925303Y-27124028D01*
X76925086Y-27372669D01*
X68169819Y-27372669D01*
X68324713Y-26999645D01*
X68325285Y-26343235D01*
X68074617Y-25736571D01*
X67610870Y-25272014D01*
X67004645Y-25020287D01*
X66348235Y-25019715D01*
X65741571Y-25270383D01*
X65277014Y-25734130D01*
X65025287Y-26340355D01*
X65024715Y-26996765D01*
X35438096Y-26996765D01*
X35438096Y-25550000D01*
X31400000Y-25550000D01*
X29661372Y-25550000D01*
X29383870Y-25272014D01*
X28777645Y-25020287D01*
X28121235Y-25019715D01*
X27514571Y-25270383D01*
X27050014Y-25734130D01*
X26798287Y-26340355D01*
X26797715Y-26996765D01*
X26383000Y-26996765D01*
X26383000Y-26716783D01*
X26548786Y-25883320D01*
X26994405Y-25216405D01*
X27661320Y-24770786D01*
X28494783Y-24605000D01*
X100950029Y-24605000D01*
X100949888Y-24766726D01*
X100949888Y-24766726D01*
G37*
X100949888Y-24766726D02*
X101048636Y-25005714D01*
X101231324Y-25188722D01*
X101470140Y-25287887D01*
X101633000Y-25288029D01*
X101633000Y-76153217D01*
X101467214Y-76986680D01*
X101021595Y-77653595D01*
X100354680Y-78099214D01*
X99521217Y-78265000D01*
X90781346Y-78265000D01*
X91493173Y-77553173D01*
X91623889Y-77357542D01*
X91727722Y-77288163D01*
X91895721Y-77036735D01*
X91954714Y-76740155D01*
X91954714Y-76526765D01*
X97917715Y-76526765D01*
X98168383Y-77133429D01*
X98632130Y-77597986D01*
X99238355Y-77849713D01*
X99894765Y-77850285D01*
X100501429Y-77599617D01*
X100965986Y-77135870D01*
X101217713Y-76529645D01*
X101218285Y-75873235D01*
X100967617Y-75266571D01*
X100503870Y-74802014D01*
X99897645Y-74550287D01*
X99241235Y-74549715D01*
X98634571Y-74800383D01*
X98170014Y-75264130D01*
X97918287Y-75870355D01*
X97917715Y-76526765D01*
X91954714Y-76526765D01*
X91954714Y-76240312D01*
X91895721Y-75943732D01*
X91727722Y-75692304D01*
X91476294Y-75524305D01*
X91179714Y-75465312D01*
X90680312Y-75465312D01*
X90383732Y-75524305D01*
X90132304Y-75692304D01*
X90063333Y-75795526D01*
X89866827Y-75926827D01*
X89083802Y-76709852D01*
X62336198Y-76709852D01*
X61206445Y-75580099D01*
X61210555Y-75559437D01*
X61210555Y-75527746D01*
X66320801Y-75527746D01*
X66495509Y-75950572D01*
X66818727Y-76274354D01*
X67241247Y-76449800D01*
X67698746Y-76450199D01*
X68121572Y-76275491D01*
X68358750Y-76038726D01*
X86219888Y-76038726D01*
X86318636Y-76277714D01*
X86501324Y-76460722D01*
X86740140Y-76559887D01*
X86998726Y-76560112D01*
X87237714Y-76461364D01*
X87420722Y-76278676D01*
X87519887Y-76039860D01*
X87520112Y-75781274D01*
X87421364Y-75542286D01*
X87238676Y-75359278D01*
X86999860Y-75260113D01*
X86741274Y-75259888D01*
X86502286Y-75358636D01*
X86319278Y-75541324D01*
X86220113Y-75780140D01*
X86219888Y-76038726D01*
X68358750Y-76038726D01*
X68445354Y-75952273D01*
X68620800Y-75529753D01*
X68621091Y-75195726D01*
X93150888Y-75195726D01*
X93249636Y-75434714D01*
X93432324Y-75617722D01*
X93671140Y-75716887D01*
X93929726Y-75717112D01*
X94168714Y-75618364D01*
X94351722Y-75435676D01*
X94450887Y-75196860D01*
X94451112Y-74938274D01*
X94352364Y-74699286D01*
X94169676Y-74516278D01*
X93930860Y-74417113D01*
X93672274Y-74416888D01*
X93433286Y-74515636D01*
X93250278Y-74698324D01*
X93151113Y-74937140D01*
X93150888Y-75195726D01*
X68621091Y-75195726D01*
X68621199Y-75072254D01*
X68446491Y-74649428D01*
X68123273Y-74325646D01*
X67700753Y-74150200D01*
X67243254Y-74149801D01*
X66820428Y-74324509D01*
X66496646Y-74647727D01*
X66321200Y-75070247D01*
X66320801Y-75527746D01*
X61210555Y-75527746D01*
X61210555Y-74060555D01*
X61123016Y-73620469D01*
X60873728Y-73247382D01*
X60729145Y-73150775D01*
X88785892Y-73150775D01*
X88880842Y-73380571D01*
X89056504Y-73556540D01*
X89286134Y-73651891D01*
X89534775Y-73652108D01*
X89764571Y-73557158D01*
X89940540Y-73381496D01*
X90035891Y-73151866D01*
X90036108Y-72903225D01*
X89941158Y-72673429D01*
X89765496Y-72497460D01*
X89535866Y-72402109D01*
X89287225Y-72401892D01*
X89057429Y-72496842D01*
X88881460Y-72672504D01*
X88786109Y-72902134D01*
X88785892Y-73150775D01*
X60729145Y-73150775D01*
X60500641Y-72998094D01*
X60060555Y-72910555D01*
X59620469Y-72998094D01*
X59247382Y-73247382D01*
X58998094Y-73620469D01*
X58910555Y-74060555D01*
X58910555Y-75559437D01*
X58960062Y-75808323D01*
X58910000Y-76060000D01*
X58997539Y-76500086D01*
X59246827Y-76873173D01*
X60638654Y-78265000D01*
X26383000Y-78265000D01*
X26383000Y-76809114D01*
X27033054Y-76809114D01*
X27201117Y-77214866D01*
X27517060Y-77533488D01*
X27930885Y-77706950D01*
X28110000Y-77653917D01*
X28110000Y-76630000D01*
X28210000Y-76630000D01*
X28210000Y-77653917D01*
X28389115Y-77706950D01*
X28802940Y-77533488D01*
X29118883Y-77214866D01*
X29286946Y-76809114D01*
X29256076Y-76705000D01*
X29550000Y-76705000D01*
X29550000Y-77489673D01*
X29595672Y-77599936D01*
X29680063Y-77684328D01*
X29790326Y-77730000D01*
X30575000Y-77730000D01*
X30650000Y-77655000D01*
X30650000Y-76630000D01*
X30750000Y-76630000D01*
X30750000Y-77655000D01*
X30825000Y-77730000D01*
X31609674Y-77730000D01*
X31719937Y-77684328D01*
X31804328Y-77599936D01*
X31850000Y-77489673D01*
X31850000Y-76705000D01*
X31775000Y-76630000D01*
X30750000Y-76630000D01*
X30650000Y-76630000D01*
X29625000Y-76630000D01*
X29550000Y-76705000D01*
X29256076Y-76705000D01*
X29233837Y-76630000D01*
X28210000Y-76630000D01*
X28110000Y-76630000D01*
X27086163Y-76630000D01*
X27033054Y-76809114D01*
X26383000Y-76809114D01*
X26383000Y-76350886D01*
X27033054Y-76350886D01*
X27086163Y-76530000D01*
X28110000Y-76530000D01*
X28110000Y-75506083D01*
X28210000Y-75506083D01*
X28210000Y-76530000D01*
X29233837Y-76530000D01*
X29286946Y-76350886D01*
X29118883Y-75945134D01*
X28846387Y-75670327D01*
X29550000Y-75670327D01*
X29550000Y-76455000D01*
X29625000Y-76530000D01*
X30650000Y-76530000D01*
X30650000Y-75505000D01*
X30750000Y-75505000D01*
X30750000Y-76530000D01*
X31775000Y-76530000D01*
X31850000Y-76455000D01*
X31850000Y-75670327D01*
X31804328Y-75560064D01*
X31719937Y-75475672D01*
X31609674Y-75430000D01*
X30825000Y-75430000D01*
X30750000Y-75505000D01*
X30650000Y-75505000D01*
X30575000Y-75430000D01*
X29790326Y-75430000D01*
X29680063Y-75475672D01*
X29595672Y-75560064D01*
X29550000Y-75670327D01*
X28846387Y-75670327D01*
X28802940Y-75626512D01*
X28389115Y-75453050D01*
X28210000Y-75506083D01*
X28110000Y-75506083D01*
X27930885Y-75453050D01*
X27517060Y-75626512D01*
X27201117Y-75945134D01*
X27033054Y-76350886D01*
X26383000Y-76350886D01*
X26383000Y-74040000D01*
X26885511Y-74040000D01*
X26980662Y-74518354D01*
X27251628Y-74923883D01*
X27657157Y-75194849D01*
X28135511Y-75290000D01*
X28184489Y-75290000D01*
X28662843Y-75194849D01*
X29068372Y-74923883D01*
X29339338Y-74518354D01*
X29430000Y-74062568D01*
X29520662Y-74518354D01*
X29791628Y-74923883D01*
X30197157Y-75194849D01*
X30675511Y-75290000D01*
X30724489Y-75290000D01*
X31202843Y-75194849D01*
X31500634Y-74995871D01*
X31592324Y-75087722D01*
X31831140Y-75186887D01*
X32089726Y-75187112D01*
X32211002Y-75137002D01*
X32331140Y-75186887D01*
X32589726Y-75187112D01*
X32828714Y-75088364D01*
X33011722Y-74905676D01*
X33110887Y-74666860D01*
X33111112Y-74408274D01*
X33056014Y-74274927D01*
X33100887Y-74166860D01*
X33101112Y-73908274D01*
X33051002Y-73786998D01*
X33100887Y-73666860D01*
X33101112Y-73408274D01*
X33002364Y-73169286D01*
X32819676Y-72986278D01*
X32580860Y-72887113D01*
X32322274Y-72886888D01*
X32200998Y-72936998D01*
X32080860Y-72887113D01*
X31822274Y-72886888D01*
X31583286Y-72985636D01*
X31491041Y-73077719D01*
X31202843Y-72885151D01*
X30724489Y-72790000D01*
X30675511Y-72790000D01*
X30197157Y-72885151D01*
X29791628Y-73156117D01*
X29520662Y-73561646D01*
X29430000Y-74017432D01*
X29339338Y-73561646D01*
X29068372Y-73156117D01*
X28662843Y-72885151D01*
X28184489Y-72790000D01*
X28135511Y-72790000D01*
X27657157Y-72885151D01*
X27251628Y-73156117D01*
X26980662Y-73561646D01*
X26885511Y-74040000D01*
X26383000Y-74040000D01*
X26383000Y-70647746D01*
X66320801Y-70647746D01*
X66495509Y-71070572D01*
X66818727Y-71394354D01*
X67241247Y-71569800D01*
X67698746Y-71570199D01*
X68121572Y-71395491D01*
X68445354Y-71072273D01*
X68620800Y-70649753D01*
X68621199Y-70192254D01*
X68446491Y-69769428D01*
X68123273Y-69445646D01*
X67700753Y-69270200D01*
X67243254Y-69269801D01*
X66820428Y-69444509D01*
X66496646Y-69767727D01*
X66321200Y-70190247D01*
X66320801Y-70647746D01*
X26383000Y-70647746D01*
X26383000Y-66598726D01*
X40259888Y-66598726D01*
X40358636Y-66837714D01*
X40541324Y-67020722D01*
X40780140Y-67119887D01*
X41038726Y-67120112D01*
X41277714Y-67021364D01*
X41460722Y-66838676D01*
X41559887Y-66599860D01*
X41559887Y-66598726D01*
X49859888Y-66598726D01*
X49958636Y-66837714D01*
X50141324Y-67020722D01*
X50380140Y-67119887D01*
X50638726Y-67120112D01*
X50877714Y-67021364D01*
X51060722Y-66838676D01*
X51159887Y-66599860D01*
X51159931Y-66549283D01*
X69750826Y-66549283D01*
X69845776Y-66779079D01*
X70021438Y-66955048D01*
X70251068Y-67050399D01*
X70499709Y-67050616D01*
X70530058Y-67038076D01*
X70695668Y-67203975D01*
X70925298Y-67299326D01*
X71173939Y-67299543D01*
X71403735Y-67204593D01*
X71484694Y-67123775D01*
X96174892Y-67123775D01*
X96269842Y-67353571D01*
X96445504Y-67529540D01*
X96675134Y-67624891D01*
X96923775Y-67625108D01*
X97153571Y-67530158D01*
X97329540Y-67354496D01*
X97424891Y-67124866D01*
X97425108Y-66876225D01*
X97330158Y-66646429D01*
X97154496Y-66470460D01*
X96924866Y-66375109D01*
X96676225Y-66374892D01*
X96446429Y-66469842D01*
X96270460Y-66645504D01*
X96175109Y-66875134D01*
X96174892Y-67123775D01*
X71484694Y-67123775D01*
X71579704Y-67028931D01*
X71675055Y-66799301D01*
X71675272Y-66550660D01*
X71633154Y-66448726D01*
X77519888Y-66448726D01*
X77618636Y-66687714D01*
X77801324Y-66870722D01*
X78040140Y-66969887D01*
X78298726Y-66970112D01*
X78537714Y-66871364D01*
X78720722Y-66688676D01*
X78819887Y-66449860D01*
X78820112Y-66191274D01*
X78721364Y-65952286D01*
X78538676Y-65769278D01*
X78299860Y-65670113D01*
X78041274Y-65669888D01*
X77802286Y-65768636D01*
X77619278Y-65951324D01*
X77520113Y-66190140D01*
X77519888Y-66448726D01*
X71633154Y-66448726D01*
X71580322Y-66320864D01*
X71404660Y-66144895D01*
X71175030Y-66049544D01*
X70926389Y-66049327D01*
X70896040Y-66061867D01*
X70730430Y-65895968D01*
X70500800Y-65800617D01*
X70252159Y-65800400D01*
X70022363Y-65895350D01*
X69846394Y-66071012D01*
X69751043Y-66300642D01*
X69750826Y-66549283D01*
X51159931Y-66549283D01*
X51160112Y-66341274D01*
X51061364Y-66102286D01*
X50878676Y-65919278D01*
X50639860Y-65820113D01*
X50381274Y-65819888D01*
X50142286Y-65918636D01*
X49959278Y-66101324D01*
X49860113Y-66340140D01*
X49859888Y-66598726D01*
X41559887Y-66598726D01*
X41560112Y-66341274D01*
X41461364Y-66102286D01*
X41278676Y-65919278D01*
X41039860Y-65820113D01*
X40781274Y-65819888D01*
X40542286Y-65918636D01*
X40359278Y-66101324D01*
X40260113Y-66340140D01*
X40259888Y-66598726D01*
X26383000Y-66598726D01*
X26383000Y-65223775D01*
X96174892Y-65223775D01*
X96269842Y-65453571D01*
X96445504Y-65629540D01*
X96675134Y-65724891D01*
X96923775Y-65725108D01*
X97048010Y-65673775D01*
X99574892Y-65673775D01*
X99669842Y-65903571D01*
X99816117Y-66050101D01*
X99670460Y-66195504D01*
X99575109Y-66425134D01*
X99574892Y-66673775D01*
X99669842Y-66903571D01*
X99845504Y-67079540D01*
X100075134Y-67174891D01*
X100323775Y-67175108D01*
X100553571Y-67080158D01*
X100729540Y-66904496D01*
X100824891Y-66674866D01*
X100825108Y-66426225D01*
X100730158Y-66196429D01*
X100583883Y-66049899D01*
X100729540Y-65904496D01*
X100824891Y-65674866D01*
X100825108Y-65426225D01*
X100730158Y-65196429D01*
X100554496Y-65020460D01*
X100324866Y-64925109D01*
X100076225Y-64924892D01*
X99846429Y-65019842D01*
X99670460Y-65195504D01*
X99575109Y-65425134D01*
X99574892Y-65673775D01*
X97048010Y-65673775D01*
X97153571Y-65630158D01*
X97329540Y-65454496D01*
X97424891Y-65224866D01*
X97425108Y-64976225D01*
X97330158Y-64746429D01*
X97154496Y-64570460D01*
X96924866Y-64475109D01*
X96676225Y-64474892D01*
X96446429Y-64569842D01*
X96270460Y-64745504D01*
X96175109Y-64975134D01*
X96174892Y-65223775D01*
X26383000Y-65223775D01*
X26383000Y-64223775D01*
X33074892Y-64223775D01*
X33169842Y-64453571D01*
X33345504Y-64629540D01*
X33575134Y-64724891D01*
X33823775Y-64725108D01*
X34053571Y-64630158D01*
X34099849Y-64583960D01*
X34145581Y-64629772D01*
X34375211Y-64725123D01*
X34623852Y-64725340D01*
X34853648Y-64630390D01*
X35029617Y-64454728D01*
X35124968Y-64225098D01*
X35124969Y-64223448D01*
X37099907Y-64223448D01*
X37194857Y-64453244D01*
X37370519Y-64629213D01*
X37600149Y-64724564D01*
X37848790Y-64724781D01*
X38078586Y-64629831D01*
X38254555Y-64454169D01*
X38298313Y-64348787D01*
X68449308Y-64348787D01*
X68544258Y-64578583D01*
X68719920Y-64754552D01*
X68949550Y-64849903D01*
X69198191Y-64850120D01*
X69427987Y-64755170D01*
X69595438Y-64588012D01*
X69624581Y-64600113D01*
X69873222Y-64600330D01*
X70103018Y-64505380D01*
X70278987Y-64329718D01*
X70374338Y-64100088D01*
X70374555Y-63851447D01*
X70279605Y-63621651D01*
X70103943Y-63445682D01*
X69874313Y-63350331D01*
X69625672Y-63350114D01*
X69395876Y-63445064D01*
X69228425Y-63612222D01*
X69199282Y-63600121D01*
X68950641Y-63599904D01*
X68720845Y-63694854D01*
X68544876Y-63870516D01*
X68449525Y-64100146D01*
X68449308Y-64348787D01*
X38298313Y-64348787D01*
X38349906Y-64224539D01*
X38350123Y-63975898D01*
X38255173Y-63746102D01*
X38079511Y-63570133D01*
X37849881Y-63474782D01*
X37601240Y-63474565D01*
X37371444Y-63569515D01*
X37195475Y-63745177D01*
X37100124Y-63974807D01*
X37099907Y-64223448D01*
X35124969Y-64223448D01*
X35125185Y-63976457D01*
X35030235Y-63746661D01*
X34854573Y-63570692D01*
X34624943Y-63475341D01*
X34376302Y-63475124D01*
X34146506Y-63570074D01*
X34100228Y-63616272D01*
X34054496Y-63570460D01*
X33824866Y-63475109D01*
X33576225Y-63474892D01*
X33346429Y-63569842D01*
X33170460Y-63745504D01*
X33075109Y-63975134D01*
X33074892Y-64223775D01*
X26383000Y-64223775D01*
X26383000Y-63080775D01*
X73085892Y-63080775D01*
X73180842Y-63310571D01*
X73356504Y-63486540D01*
X73586134Y-63581891D01*
X73834775Y-63582108D01*
X74064571Y-63487158D01*
X74240540Y-63311496D01*
X74335891Y-63081866D01*
X74336108Y-62833225D01*
X74241158Y-62603429D01*
X74065496Y-62427460D01*
X73835866Y-62332109D01*
X73587225Y-62331892D01*
X73357429Y-62426842D01*
X73181460Y-62602504D01*
X73086109Y-62832134D01*
X73085892Y-63080775D01*
X26383000Y-63080775D01*
X26383000Y-62523261D01*
X38674345Y-62523261D01*
X38769295Y-62753057D01*
X38944957Y-62929026D01*
X39174587Y-63024377D01*
X39423228Y-63024594D01*
X39653024Y-62929644D01*
X39828993Y-62753982D01*
X39924344Y-62524352D01*
X39924561Y-62275711D01*
X39829611Y-62045915D01*
X39656432Y-61872433D01*
X41075450Y-61872433D01*
X41170400Y-62102229D01*
X41346062Y-62278198D01*
X41575692Y-62373549D01*
X41824333Y-62373766D01*
X42054129Y-62278816D01*
X42230098Y-62103154D01*
X42325449Y-61873524D01*
X42325662Y-61629568D01*
X42375007Y-61650058D01*
X42623648Y-61650275D01*
X42853444Y-61555325D01*
X43029413Y-61379663D01*
X43124764Y-61150033D01*
X43124981Y-60901392D01*
X43030031Y-60671596D01*
X42904967Y-60546313D01*
X43500958Y-60546313D01*
X43595908Y-60776109D01*
X43771570Y-60952078D01*
X44001200Y-61047429D01*
X44249841Y-61047646D01*
X44479637Y-60952696D01*
X44655606Y-60777034D01*
X44750957Y-60547404D01*
X44751174Y-60298763D01*
X44656224Y-60068967D01*
X44480562Y-59892998D01*
X44436566Y-59874729D01*
X45876818Y-59874729D01*
X45971768Y-60104525D01*
X46147430Y-60280494D01*
X46377060Y-60375845D01*
X46625701Y-60376062D01*
X46855497Y-60281112D01*
X47031466Y-60105450D01*
X47126817Y-59875820D01*
X47127034Y-59627179D01*
X47032084Y-59397383D01*
X46859357Y-59224354D01*
X47500808Y-59224354D01*
X47595758Y-59454150D01*
X47771420Y-59630119D01*
X48001050Y-59725470D01*
X48249691Y-59725687D01*
X48479487Y-59630737D01*
X48529375Y-59580936D01*
X63625554Y-59580936D01*
X63720504Y-59810732D01*
X63877606Y-59968109D01*
X63875713Y-59972668D01*
X63875496Y-60221309D01*
X63886908Y-60248929D01*
X63732616Y-60402952D01*
X63637265Y-60632582D01*
X63637048Y-60881223D01*
X63731998Y-61111019D01*
X63907660Y-61286988D01*
X64137290Y-61382339D01*
X64385931Y-61382556D01*
X64615727Y-61287606D01*
X64791696Y-61111944D01*
X64887047Y-60882314D01*
X64887264Y-60633673D01*
X64875852Y-60606053D01*
X64903226Y-60578726D01*
X70979888Y-60578726D01*
X71078636Y-60817714D01*
X71261324Y-61000722D01*
X71500140Y-61099887D01*
X71758726Y-61100112D01*
X71870869Y-61053775D01*
X88174892Y-61053775D01*
X88269842Y-61283571D01*
X88445504Y-61459540D01*
X88675134Y-61554891D01*
X88923775Y-61555108D01*
X89153571Y-61460158D01*
X89329540Y-61284496D01*
X89424891Y-61054866D01*
X89425108Y-60806225D01*
X89330158Y-60576429D01*
X89154496Y-60400460D01*
X88924866Y-60305109D01*
X88676225Y-60304892D01*
X88446429Y-60399842D01*
X88270460Y-60575504D01*
X88175109Y-60805134D01*
X88174892Y-61053775D01*
X71870869Y-61053775D01*
X71997714Y-61001364D01*
X72180722Y-60818676D01*
X72279887Y-60579860D01*
X72280112Y-60321274D01*
X72239626Y-60223289D01*
X95972414Y-60223289D01*
X96057177Y-60428431D01*
X95975699Y-60624652D01*
X95975482Y-60873293D01*
X96070432Y-61103089D01*
X96246094Y-61279058D01*
X96475724Y-61374409D01*
X96724365Y-61374626D01*
X96954161Y-61279676D01*
X97130130Y-61104014D01*
X97225481Y-60874384D01*
X97225698Y-60625743D01*
X97140935Y-60420601D01*
X97222413Y-60224380D01*
X97222630Y-59975739D01*
X97140633Y-59777291D01*
X97224892Y-59574373D01*
X97225109Y-59325732D01*
X97130159Y-59095936D01*
X96954497Y-58919967D01*
X96724867Y-58824616D01*
X96476226Y-58824399D01*
X96246430Y-58919349D01*
X96070461Y-59095011D01*
X95975110Y-59324641D01*
X95974893Y-59573282D01*
X96056890Y-59771730D01*
X95972631Y-59974648D01*
X95972414Y-60223289D01*
X72239626Y-60223289D01*
X72181364Y-60082286D01*
X71998676Y-59899278D01*
X71759860Y-59800113D01*
X71501274Y-59799888D01*
X71262286Y-59898636D01*
X71079278Y-60081324D01*
X70980113Y-60320140D01*
X70979888Y-60578726D01*
X64903226Y-60578726D01*
X65030144Y-60452030D01*
X65125495Y-60222400D01*
X65125712Y-59973759D01*
X65030762Y-59743963D01*
X64873660Y-59586586D01*
X64875553Y-59582027D01*
X64875760Y-59344492D01*
X64893101Y-59337327D01*
X65069070Y-59161665D01*
X65164421Y-58932035D01*
X65164638Y-58683394D01*
X65142050Y-58628726D01*
X70969888Y-58628726D01*
X71068636Y-58867714D01*
X71251324Y-59050722D01*
X71490140Y-59149887D01*
X71748726Y-59150112D01*
X71940735Y-59070775D01*
X91765892Y-59070775D01*
X91860842Y-59300571D01*
X92036504Y-59476540D01*
X92266134Y-59571891D01*
X92514775Y-59572108D01*
X92744571Y-59477158D01*
X92920540Y-59301496D01*
X93015891Y-59071866D01*
X93016108Y-58823225D01*
X92921158Y-58593429D01*
X92745496Y-58417460D01*
X92515866Y-58322109D01*
X92267225Y-58321892D01*
X92037429Y-58416842D01*
X91861460Y-58592504D01*
X91766109Y-58822134D01*
X91765892Y-59070775D01*
X71940735Y-59070775D01*
X71987714Y-59051364D01*
X72170722Y-58868676D01*
X72269887Y-58629860D01*
X72270112Y-58371274D01*
X72244268Y-58308726D01*
X87729888Y-58308726D01*
X87828636Y-58547714D01*
X88011324Y-58730722D01*
X88250140Y-58829887D01*
X88508726Y-58830112D01*
X88747714Y-58731364D01*
X88930722Y-58548676D01*
X89029887Y-58309860D01*
X89030112Y-58051274D01*
X88931364Y-57812286D01*
X88748676Y-57629278D01*
X88509860Y-57530113D01*
X88251274Y-57529888D01*
X88012286Y-57628636D01*
X87829278Y-57811324D01*
X87730113Y-58050140D01*
X87729888Y-58308726D01*
X72244268Y-58308726D01*
X72171364Y-58132286D01*
X71988676Y-57949278D01*
X71749860Y-57850113D01*
X71491274Y-57849888D01*
X71252286Y-57948636D01*
X71069278Y-58131324D01*
X70970113Y-58370140D01*
X70969888Y-58628726D01*
X65142050Y-58628726D01*
X65069688Y-58453598D01*
X64894026Y-58277629D01*
X64664396Y-58182278D01*
X64415755Y-58182061D01*
X64185959Y-58277011D01*
X64009990Y-58452673D01*
X63914639Y-58682303D01*
X63914432Y-58919838D01*
X63897091Y-58927003D01*
X63721122Y-59102665D01*
X63625771Y-59332295D01*
X63625554Y-59580936D01*
X48529375Y-59580936D01*
X48655456Y-59455075D01*
X48750807Y-59225445D01*
X48751024Y-58976804D01*
X48656074Y-58747008D01*
X48482749Y-58573380D01*
X50701155Y-58573380D01*
X50796105Y-58803176D01*
X50971767Y-58979145D01*
X51201397Y-59074496D01*
X51450038Y-59074713D01*
X51679834Y-58979763D01*
X51855803Y-58804101D01*
X51951154Y-58574471D01*
X51951371Y-58325830D01*
X51856421Y-58096034D01*
X51697472Y-57936807D01*
X52299892Y-57936807D01*
X52394842Y-58166603D01*
X52570504Y-58342572D01*
X52800134Y-58437923D01*
X53048775Y-58438140D01*
X53278571Y-58343190D01*
X53454540Y-58167528D01*
X53549891Y-57937898D01*
X53550108Y-57689257D01*
X53455158Y-57459461D01*
X53279496Y-57283492D01*
X53049866Y-57188141D01*
X52801225Y-57187924D01*
X52571429Y-57282874D01*
X52395460Y-57458536D01*
X52300109Y-57688166D01*
X52299892Y-57936807D01*
X51697472Y-57936807D01*
X51680759Y-57920065D01*
X51451129Y-57824714D01*
X51202488Y-57824497D01*
X50972692Y-57919447D01*
X50796723Y-58095109D01*
X50701372Y-58324739D01*
X50701155Y-58573380D01*
X48482749Y-58573380D01*
X48480412Y-58571039D01*
X48250782Y-58475688D01*
X48002141Y-58475471D01*
X47772345Y-58570421D01*
X47596376Y-58746083D01*
X47501025Y-58975713D01*
X47500808Y-59224354D01*
X46859357Y-59224354D01*
X46856422Y-59221414D01*
X46626792Y-59126063D01*
X46378151Y-59125846D01*
X46148355Y-59220796D01*
X45972386Y-59396458D01*
X45877035Y-59626088D01*
X45876818Y-59874729D01*
X44436566Y-59874729D01*
X44250932Y-59797647D01*
X44002291Y-59797430D01*
X43772495Y-59892380D01*
X43596526Y-60068042D01*
X43501175Y-60297672D01*
X43500958Y-60546313D01*
X42904967Y-60546313D01*
X42854369Y-60495627D01*
X42624739Y-60400276D01*
X42376098Y-60400059D01*
X42146302Y-60495009D01*
X41970333Y-60670671D01*
X41874982Y-60900301D01*
X41874769Y-61144257D01*
X41825424Y-61123767D01*
X41576783Y-61123550D01*
X41346987Y-61218500D01*
X41171018Y-61394162D01*
X41075667Y-61623792D01*
X41075450Y-61872433D01*
X39656432Y-61872433D01*
X39653949Y-61869946D01*
X39424319Y-61774595D01*
X39175678Y-61774378D01*
X38945882Y-61869328D01*
X38769913Y-62044990D01*
X38674562Y-62274620D01*
X38674345Y-62523261D01*
X26383000Y-62523261D01*
X26383000Y-58649274D01*
X29599765Y-58649274D01*
X29694715Y-58879070D01*
X29870377Y-59055039D01*
X30100007Y-59150390D01*
X30348648Y-59150607D01*
X30578444Y-59055657D01*
X30591323Y-59042801D01*
X30525853Y-59200469D01*
X30525636Y-59449110D01*
X30620586Y-59678906D01*
X30796248Y-59854875D01*
X31025878Y-59950226D01*
X31274519Y-59950443D01*
X31504315Y-59855493D01*
X31680284Y-59679831D01*
X31775635Y-59450201D01*
X31775852Y-59201560D01*
X31680902Y-58971764D01*
X31505240Y-58795795D01*
X31275610Y-58700444D01*
X31026969Y-58700227D01*
X30797173Y-58795177D01*
X30784294Y-58808033D01*
X30849764Y-58650365D01*
X30849981Y-58401724D01*
X30755031Y-58171928D01*
X30579369Y-57995959D01*
X30349739Y-57900608D01*
X30101098Y-57900391D01*
X29871302Y-57995341D01*
X29695333Y-58171003D01*
X29599982Y-58400633D01*
X29599765Y-58649274D01*
X26383000Y-58649274D01*
X26383000Y-57847876D01*
X28626228Y-57847876D01*
X28721178Y-58077672D01*
X28896840Y-58253641D01*
X29126470Y-58348992D01*
X29375111Y-58349209D01*
X29604907Y-58254259D01*
X29780876Y-58078597D01*
X29876227Y-57848967D01*
X29876444Y-57600326D01*
X29781494Y-57370530D01*
X29605832Y-57194561D01*
X29376202Y-57099210D01*
X29127561Y-57098993D01*
X28897765Y-57193943D01*
X28721796Y-57369605D01*
X28626445Y-57599235D01*
X28626228Y-57847876D01*
X26383000Y-57847876D01*
X26383000Y-56990286D01*
X63605782Y-56990286D01*
X63700732Y-57220082D01*
X63876394Y-57396051D01*
X64106024Y-57491402D01*
X64354665Y-57491619D01*
X64584461Y-57396669D01*
X64760430Y-57221007D01*
X64855781Y-56991377D01*
X64855998Y-56742736D01*
X64832700Y-56686352D01*
X64960025Y-56559249D01*
X65055376Y-56329619D01*
X65055593Y-56080978D01*
X64960643Y-55851182D01*
X64784981Y-55675213D01*
X64555351Y-55579862D01*
X64306710Y-55579645D01*
X64076914Y-55674595D01*
X63900945Y-55850257D01*
X63805594Y-56079887D01*
X63805377Y-56328528D01*
X63828675Y-56384912D01*
X63701350Y-56512015D01*
X63605999Y-56741645D01*
X63605782Y-56990286D01*
X26383000Y-56990286D01*
X26383000Y-55423775D01*
X28624892Y-55423775D01*
X28719842Y-55653571D01*
X28895504Y-55829540D01*
X29125134Y-55924891D01*
X29373775Y-55925108D01*
X29603571Y-55830158D01*
X29779540Y-55654496D01*
X29874891Y-55424866D01*
X29875001Y-55298726D01*
X77419888Y-55298726D01*
X77518636Y-55537714D01*
X77701324Y-55720722D01*
X77940140Y-55819887D01*
X78198726Y-55820112D01*
X78437714Y-55721364D01*
X78495403Y-55663775D01*
X96104892Y-55663775D01*
X96199842Y-55893571D01*
X96375504Y-56069540D01*
X96605134Y-56164891D01*
X96853775Y-56165108D01*
X97083571Y-56070158D01*
X97259540Y-55894496D01*
X97354891Y-55664866D01*
X97355108Y-55416225D01*
X97260158Y-55186429D01*
X97084496Y-55010460D01*
X96854866Y-54915109D01*
X96606225Y-54914892D01*
X96376429Y-55009842D01*
X96200460Y-55185504D01*
X96105109Y-55415134D01*
X96104892Y-55663775D01*
X78495403Y-55663775D01*
X78620722Y-55538676D01*
X78719887Y-55299860D01*
X78720112Y-55041274D01*
X78621364Y-54802286D01*
X78443166Y-54623775D01*
X99599892Y-54623775D01*
X99694842Y-54853571D01*
X99870504Y-55029540D01*
X100100134Y-55124891D01*
X100348775Y-55125108D01*
X100578571Y-55030158D01*
X100754540Y-54854496D01*
X100849891Y-54624866D01*
X100850108Y-54376225D01*
X100755158Y-54146429D01*
X100579496Y-53970460D01*
X100349866Y-53875109D01*
X100101225Y-53874892D01*
X99871429Y-53969842D01*
X99695460Y-54145504D01*
X99600109Y-54375134D01*
X99599892Y-54623775D01*
X78443166Y-54623775D01*
X78438676Y-54619278D01*
X78199860Y-54520113D01*
X77941274Y-54519888D01*
X77702286Y-54618636D01*
X77519278Y-54801324D01*
X77420113Y-55040140D01*
X77419888Y-55298726D01*
X29875001Y-55298726D01*
X29875108Y-55176225D01*
X29780158Y-54946429D01*
X29734358Y-54900549D01*
X29780876Y-54854113D01*
X29876227Y-54624483D01*
X29876444Y-54375842D01*
X29874122Y-54370220D01*
X63605825Y-54370220D01*
X63700775Y-54600016D01*
X63876437Y-54775985D01*
X64106067Y-54871336D01*
X64354708Y-54871553D01*
X64584504Y-54776603D01*
X64760473Y-54600941D01*
X64855824Y-54371311D01*
X64856041Y-54122670D01*
X64839627Y-54082945D01*
X64960990Y-53961793D01*
X65056341Y-53732163D01*
X65056558Y-53483522D01*
X64961608Y-53253726D01*
X64785946Y-53077757D01*
X64556316Y-52982406D01*
X64307675Y-52982189D01*
X64077879Y-53077139D01*
X63901910Y-53252801D01*
X63806559Y-53482431D01*
X63806342Y-53731072D01*
X63822756Y-53770797D01*
X63701393Y-53891949D01*
X63606042Y-54121579D01*
X63605825Y-54370220D01*
X29874122Y-54370220D01*
X29781494Y-54146046D01*
X29746593Y-54111084D01*
X29780876Y-54076860D01*
X29876227Y-53847230D01*
X29876444Y-53598589D01*
X29781494Y-53368793D01*
X29605832Y-53192824D01*
X29376202Y-53097473D01*
X29127561Y-53097256D01*
X28897765Y-53192206D01*
X28721796Y-53367868D01*
X28626445Y-53597498D01*
X28626228Y-53846139D01*
X28721178Y-54075935D01*
X28756079Y-54110897D01*
X28721796Y-54145121D01*
X28626445Y-54374751D01*
X28626228Y-54623392D01*
X28721178Y-54853188D01*
X28766978Y-54899068D01*
X28720460Y-54945504D01*
X28625109Y-55175134D01*
X28624892Y-55423775D01*
X26383000Y-55423775D01*
X26383000Y-50623775D01*
X28624892Y-50623775D01*
X28719842Y-50853571D01*
X28766117Y-50899927D01*
X28720460Y-50945504D01*
X28625109Y-51175134D01*
X28624892Y-51423775D01*
X28719842Y-51653571D01*
X28895504Y-51829540D01*
X29125134Y-51924891D01*
X29373775Y-51925108D01*
X29603571Y-51830158D01*
X29779540Y-51654496D01*
X29874891Y-51424866D01*
X29875108Y-51176225D01*
X29847218Y-51108726D01*
X56129888Y-51108726D01*
X56228636Y-51347714D01*
X56411324Y-51530722D01*
X56650140Y-51629887D01*
X56908726Y-51630112D01*
X57147714Y-51531364D01*
X57230447Y-51448775D01*
X57874892Y-51448775D01*
X57969842Y-51678571D01*
X58016117Y-51724927D01*
X57970460Y-51770504D01*
X57875109Y-52000134D01*
X57874892Y-52248775D01*
X57969842Y-52478571D01*
X58016117Y-52524927D01*
X57970460Y-52570504D01*
X57875109Y-52800134D01*
X57874892Y-53048775D01*
X57969842Y-53278571D01*
X58003617Y-53312405D01*
X57970460Y-53345504D01*
X57875109Y-53575134D01*
X57874892Y-53823775D01*
X57969842Y-54053571D01*
X58145504Y-54229540D01*
X58375134Y-54324891D01*
X58623775Y-54325108D01*
X58853571Y-54230158D01*
X59029540Y-54054496D01*
X59124891Y-53824866D01*
X59125108Y-53576225D01*
X59030158Y-53346429D01*
X58996383Y-53312595D01*
X59029540Y-53279496D01*
X59124891Y-53049866D01*
X59125108Y-52801225D01*
X59030158Y-52571429D01*
X58983883Y-52525073D01*
X59029540Y-52479496D01*
X59124891Y-52249866D01*
X59125108Y-52001225D01*
X59030158Y-51771429D01*
X58983883Y-51725073D01*
X59029540Y-51679496D01*
X59124891Y-51449866D01*
X59125108Y-51201225D01*
X59030158Y-50971429D01*
X58854496Y-50795460D01*
X58624866Y-50700109D01*
X58376225Y-50699892D01*
X58146429Y-50794842D01*
X57970460Y-50970504D01*
X57875109Y-51200134D01*
X57874892Y-51448775D01*
X57230447Y-51448775D01*
X57330722Y-51348676D01*
X57429887Y-51109860D01*
X57430112Y-50851274D01*
X57331364Y-50612286D01*
X57148676Y-50429278D01*
X56909860Y-50330113D01*
X56651274Y-50329888D01*
X56412286Y-50428636D01*
X56229278Y-50611324D01*
X56130113Y-50850140D01*
X56129888Y-51108726D01*
X29847218Y-51108726D01*
X29780158Y-50946429D01*
X29733883Y-50900073D01*
X29779540Y-50854496D01*
X29874891Y-50624866D01*
X29875108Y-50376225D01*
X29780158Y-50146429D01*
X29604496Y-49970460D01*
X29374866Y-49875109D01*
X29126225Y-49874892D01*
X28896429Y-49969842D01*
X28720460Y-50145504D01*
X28625109Y-50375134D01*
X28624892Y-50623775D01*
X26383000Y-50623775D01*
X26383000Y-49238726D01*
X42849888Y-49238726D01*
X42899998Y-49360002D01*
X42850113Y-49480140D01*
X42849888Y-49738726D01*
X42948636Y-49977714D01*
X43131324Y-50160722D01*
X43370140Y-50259887D01*
X43628726Y-50260112D01*
X43750002Y-50210002D01*
X43870140Y-50259887D01*
X44128726Y-50260112D01*
X44367714Y-50161364D01*
X44403414Y-50125726D01*
X62300888Y-50125726D01*
X62399636Y-50364714D01*
X62582324Y-50547722D01*
X62821140Y-50646887D01*
X63079726Y-50647112D01*
X63318714Y-50548364D01*
X63501722Y-50365676D01*
X63600887Y-50126860D01*
X63601112Y-49868274D01*
X63543452Y-49728726D01*
X80749888Y-49728726D01*
X80799998Y-49850002D01*
X80750113Y-49970140D01*
X80749888Y-50228726D01*
X80848636Y-50467714D01*
X81031324Y-50650722D01*
X81270140Y-50749887D01*
X81528726Y-50750112D01*
X81650002Y-50700002D01*
X81770140Y-50749887D01*
X82028726Y-50750112D01*
X82267714Y-50651364D01*
X82450722Y-50468676D01*
X82549887Y-50229860D01*
X82550112Y-49971274D01*
X82500002Y-49849998D01*
X82549887Y-49729860D01*
X82550112Y-49471274D01*
X82451364Y-49232286D01*
X82268676Y-49049278D01*
X82029860Y-48950113D01*
X81771274Y-48949888D01*
X81649998Y-48999998D01*
X81529860Y-48950113D01*
X81271274Y-48949888D01*
X81032286Y-49048636D01*
X80849278Y-49231324D01*
X80750113Y-49470140D01*
X80749888Y-49728726D01*
X63543452Y-49728726D01*
X63502364Y-49629286D01*
X63319676Y-49446278D01*
X63080860Y-49347113D01*
X62822274Y-49346888D01*
X62583286Y-49445636D01*
X62400278Y-49628324D01*
X62301113Y-49867140D01*
X62300888Y-50125726D01*
X44403414Y-50125726D01*
X44550722Y-49978676D01*
X44649887Y-49739860D01*
X44650112Y-49481274D01*
X44600002Y-49359998D01*
X44649887Y-49239860D01*
X44650112Y-48981274D01*
X44551364Y-48742286D01*
X44368676Y-48559278D01*
X44129860Y-48460113D01*
X43871274Y-48459888D01*
X43749998Y-48509998D01*
X43629860Y-48460113D01*
X43371274Y-48459888D01*
X43132286Y-48558636D01*
X42949278Y-48741324D01*
X42850113Y-48980140D01*
X42849888Y-49238726D01*
X26383000Y-49238726D01*
X26383000Y-48178726D01*
X76429888Y-48178726D01*
X76528636Y-48417714D01*
X76711324Y-48600722D01*
X76950140Y-48699887D01*
X77208726Y-48700112D01*
X77447714Y-48601364D01*
X77630722Y-48418676D01*
X77729887Y-48179860D01*
X77730112Y-47921274D01*
X77631364Y-47682286D01*
X77448676Y-47499278D01*
X77209860Y-47400113D01*
X76951274Y-47399888D01*
X76712286Y-47498636D01*
X76529278Y-47681324D01*
X76430113Y-47920140D01*
X76429888Y-48178726D01*
X26383000Y-48178726D01*
X26383000Y-47475308D01*
X28585144Y-47475308D01*
X28680094Y-47705104D01*
X28855756Y-47881073D01*
X29085386Y-47976424D01*
X29334027Y-47976641D01*
X29563823Y-47881691D01*
X29739792Y-47706029D01*
X29835143Y-47476399D01*
X29835360Y-47227758D01*
X29740410Y-46997962D01*
X29564748Y-46821993D01*
X29340137Y-46728726D01*
X76849888Y-46728726D01*
X76948636Y-46967714D01*
X77131324Y-47150722D01*
X77370140Y-47249887D01*
X77628726Y-47250112D01*
X77867714Y-47151364D01*
X78050722Y-46968676D01*
X78149887Y-46729860D01*
X78150112Y-46471274D01*
X78051364Y-46232286D01*
X77868676Y-46049278D01*
X77629860Y-45950113D01*
X77371274Y-45949888D01*
X77132286Y-46048636D01*
X76949278Y-46231324D01*
X76850113Y-46470140D01*
X76849888Y-46728726D01*
X29340137Y-46728726D01*
X29335118Y-46726642D01*
X29086477Y-46726425D01*
X28856681Y-46821375D01*
X28680712Y-46997037D01*
X28585361Y-47226667D01*
X28585144Y-47475308D01*
X26383000Y-47475308D01*
X26383000Y-45913925D01*
X95475573Y-45913925D01*
X95570523Y-46143721D01*
X95746185Y-46319690D01*
X95975815Y-46415041D01*
X96224456Y-46415258D01*
X96454252Y-46320308D01*
X96630221Y-46144646D01*
X96725572Y-45915016D01*
X96725789Y-45666375D01*
X96630839Y-45436579D01*
X96455177Y-45260610D01*
X96225547Y-45165259D01*
X95976906Y-45165042D01*
X95747110Y-45259992D01*
X95571141Y-45435654D01*
X95475790Y-45665284D01*
X95475573Y-45913925D01*
X26383000Y-45913925D01*
X26383000Y-44192775D01*
X28584892Y-44192775D01*
X28679842Y-44422571D01*
X28770617Y-44513504D01*
X28680460Y-44603504D01*
X28585109Y-44833134D01*
X28584892Y-45081775D01*
X28679842Y-45311571D01*
X28855504Y-45487540D01*
X29085134Y-45582891D01*
X29333775Y-45583108D01*
X29563571Y-45488158D01*
X29739540Y-45312496D01*
X29834891Y-45082866D01*
X29835108Y-44834225D01*
X29740158Y-44604429D01*
X29649383Y-44513496D01*
X29739540Y-44423496D01*
X29768511Y-44353726D01*
X70949888Y-44353726D01*
X71048636Y-44592714D01*
X71231324Y-44775722D01*
X71470140Y-44874887D01*
X71728726Y-44875112D01*
X71967714Y-44776364D01*
X72150722Y-44593676D01*
X72249887Y-44354860D01*
X72250112Y-44096274D01*
X72151364Y-43857286D01*
X71968676Y-43674278D01*
X71729860Y-43575113D01*
X71471274Y-43574888D01*
X71232286Y-43673636D01*
X71049278Y-43856324D01*
X70950113Y-44095140D01*
X70949888Y-44353726D01*
X29768511Y-44353726D01*
X29834891Y-44193866D01*
X29835108Y-43945225D01*
X29740158Y-43715429D01*
X29564496Y-43539460D01*
X29334866Y-43444109D01*
X29086225Y-43443892D01*
X28856429Y-43538842D01*
X28680460Y-43714504D01*
X28585109Y-43944134D01*
X28584892Y-44192775D01*
X26383000Y-44192775D01*
X26383000Y-42318726D01*
X83169888Y-42318726D01*
X83268636Y-42557714D01*
X83451324Y-42740722D01*
X83690140Y-42839887D01*
X83948726Y-42840112D01*
X84187714Y-42741364D01*
X84370722Y-42558676D01*
X84469887Y-42319860D01*
X84470112Y-42061274D01*
X84371364Y-41822286D01*
X84188676Y-41639278D01*
X83949860Y-41540113D01*
X83691274Y-41539888D01*
X83452286Y-41638636D01*
X83269278Y-41821324D01*
X83170113Y-42060140D01*
X83169888Y-42318726D01*
X26383000Y-42318726D01*
X26383000Y-41779775D01*
X28584892Y-41779775D01*
X28679842Y-42009571D01*
X28855504Y-42185540D01*
X29085134Y-42280891D01*
X29333775Y-42281108D01*
X29563571Y-42186158D01*
X29739540Y-42010496D01*
X29834891Y-41780866D01*
X29835108Y-41532225D01*
X29771684Y-41378726D01*
X63329888Y-41378726D01*
X63428636Y-41617714D01*
X63611324Y-41800722D01*
X63850140Y-41899887D01*
X64108726Y-41900112D01*
X64347714Y-41801364D01*
X64530722Y-41618676D01*
X64629887Y-41379860D01*
X64630112Y-41121274D01*
X64531364Y-40882286D01*
X64348676Y-40699278D01*
X64109860Y-40600113D01*
X63851274Y-40599888D01*
X63612286Y-40698636D01*
X63429278Y-40881324D01*
X63330113Y-41120140D01*
X63329888Y-41378726D01*
X29771684Y-41378726D01*
X29740158Y-41302429D01*
X29564496Y-41126460D01*
X29334866Y-41031109D01*
X29086225Y-41030892D01*
X28856429Y-41125842D01*
X28680460Y-41301504D01*
X28585109Y-41531134D01*
X28584892Y-41779775D01*
X26383000Y-41779775D01*
X26383000Y-40255775D01*
X28584892Y-40255775D01*
X28679842Y-40485571D01*
X28855504Y-40661540D01*
X29085134Y-40756891D01*
X29333775Y-40757108D01*
X29563571Y-40662158D01*
X29739540Y-40486496D01*
X29834891Y-40256866D01*
X29835108Y-40008225D01*
X29740158Y-39778429D01*
X29564496Y-39602460D01*
X29334866Y-39507109D01*
X29086225Y-39506892D01*
X28856429Y-39601842D01*
X28680460Y-39777504D01*
X28585109Y-40007134D01*
X28584892Y-40255775D01*
X26383000Y-40255775D01*
X26383000Y-36499497D01*
X68750731Y-36499497D01*
X68845681Y-36729293D01*
X69021343Y-36905262D01*
X69099413Y-36937679D01*
X69023108Y-36969208D01*
X68847139Y-37144870D01*
X68751788Y-37374500D01*
X68751571Y-37623141D01*
X68846521Y-37852937D01*
X69022183Y-38028906D01*
X69116231Y-38067958D01*
X69047793Y-38096236D01*
X68871824Y-38271898D01*
X68776473Y-38501528D01*
X68776256Y-38750169D01*
X68871206Y-38979965D01*
X69046868Y-39155934D01*
X69123111Y-39187593D01*
X69047793Y-39218714D01*
X68871824Y-39394376D01*
X68776473Y-39624006D01*
X68776256Y-39872647D01*
X68871206Y-40102443D01*
X69046868Y-40278412D01*
X69276498Y-40373763D01*
X69525139Y-40373980D01*
X69598442Y-40343692D01*
X69598371Y-40424815D01*
X69693321Y-40654611D01*
X69868983Y-40830580D01*
X70098613Y-40925931D01*
X70347254Y-40926148D01*
X70522775Y-40853624D01*
X70476718Y-40964542D01*
X70476501Y-41213183D01*
X70571451Y-41442979D01*
X70747113Y-41618948D01*
X70976743Y-41714299D01*
X71225384Y-41714516D01*
X71455180Y-41619566D01*
X71631149Y-41443904D01*
X71726500Y-41214274D01*
X71726717Y-40965633D01*
X71631767Y-40735837D01*
X71456105Y-40559868D01*
X71226475Y-40464517D01*
X70977834Y-40464300D01*
X70802313Y-40536824D01*
X70848370Y-40425906D01*
X70848587Y-40177265D01*
X70753637Y-39947469D01*
X70675777Y-39869472D01*
X84874651Y-39869472D01*
X84969601Y-40099268D01*
X85145263Y-40275237D01*
X85374893Y-40370588D01*
X85623534Y-40370805D01*
X85625051Y-40370178D01*
X85624032Y-40372633D01*
X85623815Y-40621274D01*
X85718765Y-40851070D01*
X85894427Y-41027039D01*
X85916245Y-41036099D01*
X85878877Y-41126090D01*
X85878660Y-41374731D01*
X85973610Y-41604527D01*
X86149272Y-41780496D01*
X86166739Y-41787749D01*
X86128990Y-41878657D01*
X86128773Y-42127298D01*
X86223723Y-42357094D01*
X86399385Y-42533063D01*
X86629015Y-42628414D01*
X86629432Y-42628414D01*
X86724060Y-42857431D01*
X86899722Y-43033400D01*
X87129352Y-43128751D01*
X87377993Y-43128968D01*
X87607789Y-43034018D01*
X87783758Y-42858356D01*
X87879109Y-42628726D01*
X87879326Y-42380085D01*
X87784376Y-42150289D01*
X87608714Y-41974320D01*
X87379084Y-41878969D01*
X87378667Y-41878969D01*
X87284039Y-41649952D01*
X87108377Y-41473983D01*
X87090910Y-41466730D01*
X87128659Y-41375822D01*
X87128876Y-41127181D01*
X87033926Y-40897385D01*
X86858264Y-40721416D01*
X86836446Y-40712356D01*
X86873814Y-40622365D01*
X86874031Y-40373724D01*
X86779081Y-40143928D01*
X86603419Y-39967959D01*
X86373789Y-39872608D01*
X86125148Y-39872391D01*
X86123631Y-39873018D01*
X86124650Y-39870563D01*
X86124867Y-39621922D01*
X86029917Y-39392126D01*
X85854255Y-39216157D01*
X85624625Y-39120806D01*
X85375984Y-39120589D01*
X85146188Y-39215539D01*
X84970219Y-39391201D01*
X84874868Y-39620831D01*
X84874651Y-39869472D01*
X70675777Y-39869472D01*
X70577975Y-39771500D01*
X70508894Y-39742815D01*
X70560576Y-39721460D01*
X70736545Y-39545798D01*
X70831896Y-39316168D01*
X70832113Y-39067527D01*
X70737163Y-38837731D01*
X70561501Y-38661762D01*
X70490930Y-38632458D01*
X70554584Y-38606157D01*
X70730553Y-38430495D01*
X70825904Y-38200865D01*
X70826121Y-37952224D01*
X70731171Y-37722428D01*
X70555509Y-37546459D01*
X70400058Y-37481910D01*
X70402206Y-37481022D01*
X70578175Y-37305360D01*
X70614148Y-37218726D01*
X76459888Y-37218726D01*
X76558636Y-37457714D01*
X76741324Y-37640722D01*
X76980140Y-37739887D01*
X77238726Y-37740112D01*
X77477714Y-37641364D01*
X77660722Y-37458676D01*
X77759887Y-37219860D01*
X77760112Y-36961274D01*
X77661364Y-36722286D01*
X77560168Y-36620912D01*
X82123228Y-36620912D01*
X82218178Y-36850708D01*
X82393840Y-37026677D01*
X82623470Y-37122028D01*
X82624318Y-37122029D01*
X82623922Y-37122983D01*
X82623705Y-37371624D01*
X82718655Y-37601420D01*
X82894317Y-37777389D01*
X83123947Y-37872740D01*
X83372588Y-37872957D01*
X83375429Y-37871783D01*
X83374635Y-37873695D01*
X83374418Y-38122336D01*
X83469368Y-38352132D01*
X83645030Y-38528101D01*
X83874660Y-38623452D01*
X84123301Y-38623669D01*
X84353097Y-38528719D01*
X84529066Y-38353057D01*
X84624417Y-38123427D01*
X84624634Y-37874786D01*
X84529684Y-37644990D01*
X84354022Y-37469021D01*
X84124392Y-37373670D01*
X83875751Y-37373453D01*
X83872910Y-37374627D01*
X83873704Y-37372715D01*
X83873921Y-37124074D01*
X83778971Y-36894278D01*
X83603309Y-36718309D01*
X83373679Y-36622958D01*
X83372831Y-36622957D01*
X83373227Y-36622003D01*
X83373444Y-36373362D01*
X83278494Y-36143566D01*
X83137715Y-36002540D01*
X84185181Y-36002540D01*
X84280131Y-36232336D01*
X84455793Y-36408305D01*
X84685423Y-36503656D01*
X84934064Y-36503873D01*
X85163860Y-36408923D01*
X85339829Y-36233261D01*
X85433117Y-36008597D01*
X91627603Y-36008597D01*
X91722553Y-36238393D01*
X91898215Y-36414362D01*
X92127845Y-36509713D01*
X92376486Y-36509930D01*
X92606282Y-36414980D01*
X92782251Y-36239318D01*
X92877602Y-36009688D01*
X92877819Y-35761047D01*
X92782869Y-35531251D01*
X92607207Y-35355282D01*
X92377577Y-35259931D01*
X92128936Y-35259714D01*
X91899140Y-35354664D01*
X91723171Y-35530326D01*
X91627820Y-35759956D01*
X91627603Y-36008597D01*
X85433117Y-36008597D01*
X85435180Y-36003631D01*
X85435397Y-35754990D01*
X85340447Y-35525194D01*
X85164785Y-35349225D01*
X84935155Y-35253874D01*
X84686514Y-35253657D01*
X84456718Y-35348607D01*
X84280749Y-35524269D01*
X84185398Y-35753899D01*
X84185181Y-36002540D01*
X83137715Y-36002540D01*
X83102832Y-35967597D01*
X82873202Y-35872246D01*
X82624561Y-35872029D01*
X82394765Y-35966979D01*
X82218796Y-36142641D01*
X82123445Y-36372271D01*
X82123228Y-36620912D01*
X77560168Y-36620912D01*
X77478676Y-36539278D01*
X77239860Y-36440113D01*
X76981274Y-36439888D01*
X76742286Y-36538636D01*
X76559278Y-36721324D01*
X76460113Y-36960140D01*
X76459888Y-37218726D01*
X70614148Y-37218726D01*
X70673526Y-37075730D01*
X70673743Y-36827089D01*
X70578793Y-36597293D01*
X70403131Y-36421324D01*
X70324224Y-36388559D01*
X70404300Y-36355472D01*
X70580269Y-36179810D01*
X70675620Y-35950180D01*
X70675697Y-35860873D01*
X73275900Y-35860873D01*
X73363254Y-36072286D01*
X73524863Y-36234177D01*
X73736124Y-36321900D01*
X73964873Y-36322100D01*
X74176286Y-36234746D01*
X74338177Y-36073137D01*
X74425900Y-35861876D01*
X74426100Y-35633127D01*
X74338746Y-35421714D01*
X74177137Y-35259823D01*
X73965876Y-35172100D01*
X73737127Y-35171900D01*
X73525714Y-35259254D01*
X73363823Y-35420863D01*
X73276100Y-35632124D01*
X73275900Y-35860873D01*
X70675697Y-35860873D01*
X70675837Y-35701539D01*
X70580887Y-35471743D01*
X70405225Y-35295774D01*
X70175595Y-35200423D01*
X69926954Y-35200206D01*
X69697158Y-35295156D01*
X69521189Y-35470818D01*
X69425838Y-35700448D01*
X69425794Y-35750766D01*
X69252064Y-35750614D01*
X69022268Y-35845564D01*
X68846299Y-36021226D01*
X68750948Y-36250856D01*
X68750731Y-36499497D01*
X26383000Y-36499497D01*
X26383000Y-32448331D01*
X33875599Y-32448331D01*
X33970549Y-32678127D01*
X34146211Y-32854096D01*
X34375841Y-32949447D01*
X34624482Y-32949664D01*
X34854278Y-32854714D01*
X35030247Y-32679052D01*
X35100972Y-32508726D01*
X64969888Y-32508726D01*
X65068636Y-32747714D01*
X65251324Y-32930722D01*
X65490140Y-33029887D01*
X65748726Y-33030112D01*
X65987714Y-32931364D01*
X66170722Y-32748676D01*
X66240399Y-32580873D01*
X79545900Y-32580873D01*
X79633254Y-32792286D01*
X79794863Y-32954177D01*
X80006124Y-33041900D01*
X80234873Y-33042100D01*
X80446286Y-32954746D01*
X80608177Y-32793137D01*
X80695900Y-32581876D01*
X80695928Y-32548726D01*
X89229888Y-32548726D01*
X89328636Y-32787714D01*
X89511324Y-32970722D01*
X89750140Y-33069887D01*
X90008726Y-33070112D01*
X90247714Y-32971364D01*
X90430722Y-32788676D01*
X90529887Y-32549860D01*
X90530112Y-32291274D01*
X90431364Y-32052286D01*
X90248676Y-31869278D01*
X90009860Y-31770113D01*
X89751274Y-31769888D01*
X89512286Y-31868636D01*
X89329278Y-32051324D01*
X89230113Y-32290140D01*
X89229888Y-32548726D01*
X80695928Y-32548726D01*
X80696100Y-32353127D01*
X80608746Y-32141714D01*
X80447137Y-31979823D01*
X80235876Y-31892100D01*
X80007127Y-31891900D01*
X79795714Y-31979254D01*
X79633823Y-32140863D01*
X79546100Y-32352124D01*
X79545900Y-32580873D01*
X66240399Y-32580873D01*
X66269887Y-32509860D01*
X66270112Y-32251274D01*
X66171364Y-32012286D01*
X65988676Y-31829278D01*
X65749860Y-31730113D01*
X65491274Y-31729888D01*
X65252286Y-31828636D01*
X65069278Y-32011324D01*
X64970113Y-32250140D01*
X64969888Y-32508726D01*
X35100972Y-32508726D01*
X35125598Y-32449422D01*
X35125815Y-32200781D01*
X35030865Y-31970985D01*
X34855203Y-31795016D01*
X34625573Y-31699665D01*
X34376932Y-31699448D01*
X34147136Y-31794398D01*
X33971167Y-31970060D01*
X33875816Y-32199690D01*
X33875599Y-32448331D01*
X26383000Y-32448331D01*
X26383000Y-31140775D01*
X73505892Y-31140775D01*
X73600842Y-31370571D01*
X73776504Y-31546540D01*
X74006134Y-31641891D01*
X74254775Y-31642108D01*
X74484571Y-31547158D01*
X74660540Y-31371496D01*
X74755891Y-31141866D01*
X74756108Y-30893225D01*
X74661158Y-30663429D01*
X74485496Y-30487460D01*
X74343120Y-30428340D01*
X74636470Y-30428340D01*
X74731420Y-30658136D01*
X74907082Y-30834105D01*
X75136712Y-30929456D01*
X75385353Y-30929673D01*
X75615149Y-30834723D01*
X75762380Y-30687749D01*
X75908481Y-30834105D01*
X76138111Y-30929456D01*
X76386752Y-30929673D01*
X76616548Y-30834723D01*
X76761220Y-30690303D01*
X76904771Y-30834105D01*
X77134401Y-30929456D01*
X77383042Y-30929673D01*
X77612838Y-30834723D01*
X77760069Y-30687749D01*
X77906170Y-30834105D01*
X78135800Y-30929456D01*
X78384441Y-30929673D01*
X78405738Y-30920873D01*
X86625900Y-30920873D01*
X86713254Y-31132286D01*
X86874863Y-31294177D01*
X87086124Y-31381900D01*
X87314873Y-31382100D01*
X87526286Y-31294746D01*
X87688177Y-31133137D01*
X87775900Y-30921876D01*
X87776100Y-30693127D01*
X87688746Y-30481714D01*
X87527137Y-30319823D01*
X87315876Y-30232100D01*
X87087127Y-30231900D01*
X86875714Y-30319254D01*
X86713823Y-30480863D01*
X86626100Y-30692124D01*
X86625900Y-30920873D01*
X78405738Y-30920873D01*
X78614237Y-30834723D01*
X78790206Y-30659061D01*
X78885557Y-30429431D01*
X78885774Y-30180790D01*
X78790824Y-29950994D01*
X78615162Y-29775025D01*
X78385532Y-29679674D01*
X78136891Y-29679457D01*
X77907095Y-29774407D01*
X77759864Y-29921381D01*
X77613763Y-29775025D01*
X77384133Y-29679674D01*
X77135492Y-29679457D01*
X76905696Y-29774407D01*
X76761024Y-29918827D01*
X76617473Y-29775025D01*
X76387843Y-29679674D01*
X76139202Y-29679457D01*
X75909406Y-29774407D01*
X75762175Y-29921381D01*
X75616074Y-29775025D01*
X75386444Y-29679674D01*
X75137803Y-29679457D01*
X74908007Y-29774407D01*
X74732038Y-29950069D01*
X74636687Y-30179699D01*
X74636470Y-30428340D01*
X74343120Y-30428340D01*
X74255866Y-30392109D01*
X74007225Y-30391892D01*
X73777429Y-30486842D01*
X73601460Y-30662504D01*
X73506109Y-30892134D01*
X73505892Y-31140775D01*
X26383000Y-31140775D01*
X26383000Y-29279740D01*
X32423837Y-29279740D01*
X32522585Y-29518728D01*
X32705273Y-29701736D01*
X32944089Y-29800901D01*
X33202675Y-29801126D01*
X33441663Y-29702378D01*
X33624671Y-29519690D01*
X33723836Y-29280874D01*
X33724061Y-29022288D01*
X33625313Y-28783300D01*
X33442625Y-28600292D01*
X33203809Y-28501127D01*
X32945223Y-28500902D01*
X32706235Y-28599650D01*
X32523227Y-28782338D01*
X32424062Y-29021154D01*
X32423837Y-29279740D01*
X26383000Y-29279740D01*
X26383000Y-26996765D01*
X26797715Y-26996765D01*
X27048383Y-27603429D01*
X27512130Y-28067986D01*
X28118355Y-28319713D01*
X28774765Y-28320285D01*
X29381429Y-28069617D01*
X29845986Y-27605870D01*
X30097713Y-26999645D01*
X30098285Y-26343235D01*
X29847617Y-25736571D01*
X29661372Y-25550000D01*
X31400000Y-25550000D01*
X31400000Y-27950000D01*
X35438096Y-27950000D01*
X35438096Y-26996765D01*
X65024715Y-26996765D01*
X65275383Y-27603429D01*
X65739130Y-28067986D01*
X66345355Y-28319713D01*
X67001765Y-28320285D01*
X67608429Y-28069617D01*
X68072986Y-27605870D01*
X68169819Y-27372669D01*
X76925086Y-27372669D01*
X77020036Y-27602465D01*
X77195698Y-27778434D01*
X77425328Y-27873785D01*
X77673969Y-27874002D01*
X77903765Y-27779052D01*
X77949486Y-27733411D01*
X77994431Y-27778434D01*
X78224061Y-27873785D01*
X78472702Y-27874002D01*
X78702498Y-27779052D01*
X78742950Y-27738671D01*
X78793781Y-27789591D01*
X79023411Y-27884942D01*
X79272052Y-27885159D01*
X79501848Y-27790209D01*
X79549865Y-27742276D01*
X79597097Y-27789591D01*
X79826727Y-27884942D01*
X80075368Y-27885159D01*
X80305164Y-27790209D01*
X80350386Y-27745066D01*
X80394834Y-27789591D01*
X80624464Y-27884942D01*
X80873105Y-27885159D01*
X81101058Y-27790970D01*
X81327366Y-27884942D01*
X81576007Y-27885159D01*
X81805803Y-27790209D01*
X81981772Y-27614547D01*
X82077123Y-27384917D01*
X82077137Y-27368651D01*
X83125877Y-27368651D01*
X83220827Y-27598447D01*
X83396489Y-27774416D01*
X83626119Y-27869767D01*
X83874760Y-27869984D01*
X84104556Y-27775034D01*
X84248756Y-27631085D01*
X84391837Y-27774416D01*
X84621467Y-27869767D01*
X84870108Y-27869984D01*
X85099904Y-27775034D01*
X85275873Y-27599372D01*
X85371224Y-27369742D01*
X85371441Y-27121101D01*
X85276491Y-26891305D01*
X85100829Y-26715336D01*
X84871199Y-26619985D01*
X84622558Y-26619768D01*
X84392762Y-26714718D01*
X84248562Y-26858667D01*
X84105481Y-26715336D01*
X83875851Y-26619985D01*
X83627210Y-26619768D01*
X83397414Y-26714718D01*
X83221445Y-26890380D01*
X83126094Y-27120010D01*
X83125877Y-27368651D01*
X82077137Y-27368651D01*
X82077340Y-27136276D01*
X81982390Y-26906480D01*
X81806728Y-26730511D01*
X81577098Y-26635160D01*
X81328457Y-26634943D01*
X81100504Y-26729132D01*
X80874196Y-26635160D01*
X80625555Y-26634943D01*
X80395759Y-26729893D01*
X80350537Y-26775036D01*
X80306089Y-26730511D01*
X80076459Y-26635160D01*
X79827818Y-26634943D01*
X79598022Y-26729893D01*
X79550005Y-26777826D01*
X79502773Y-26730511D01*
X79273143Y-26635160D01*
X79024502Y-26634943D01*
X78794706Y-26729893D01*
X78754254Y-26770274D01*
X78703423Y-26719354D01*
X78473793Y-26624003D01*
X78225152Y-26623786D01*
X77995356Y-26718736D01*
X77949635Y-26764377D01*
X77904690Y-26719354D01*
X77675060Y-26624003D01*
X77426419Y-26623786D01*
X77196623Y-26718736D01*
X77020654Y-26894398D01*
X76925303Y-27124028D01*
X76925086Y-27372669D01*
X68169819Y-27372669D01*
X68324713Y-26999645D01*
X68325285Y-26343235D01*
X68074617Y-25736571D01*
X67610870Y-25272014D01*
X67004645Y-25020287D01*
X66348235Y-25019715D01*
X65741571Y-25270383D01*
X65277014Y-25734130D01*
X65025287Y-26340355D01*
X65024715Y-26996765D01*
X35438096Y-26996765D01*
X35438096Y-25550000D01*
X31400000Y-25550000D01*
X29661372Y-25550000D01*
X29383870Y-25272014D01*
X28777645Y-25020287D01*
X28121235Y-25019715D01*
X27514571Y-25270383D01*
X27050014Y-25734130D01*
X26798287Y-26340355D01*
X26797715Y-26996765D01*
X26383000Y-26996765D01*
X26383000Y-26716783D01*
X26548786Y-25883320D01*
X26994405Y-25216405D01*
X27661320Y-24770786D01*
X28494783Y-24605000D01*
X100950029Y-24605000D01*
X100949888Y-24766726D01*
M02*
