G04 #@! TF.FileFunction,Legend,Top*
%FSLAX46Y46*%
G04 Gerber Fmt 4.6, Leading zero omitted, Abs format (unit mm)*
G04 Created by KiCad (PCBNEW 4.0.6) date Tue Sep 12 13:32:53 2017*
%MOMM*%
%LPD*%
G01*
G04 APERTURE LIST*
%ADD10C,0.100000*%
%ADD11C,0.120000*%
%ADD12C,0.150000*%
%ADD13C,0.127000*%
%ADD14C,0.010000*%
G04 APERTURE END LIST*
D10*
X33847667Y-73867000D02*
X33781001Y-73833667D01*
X33681001Y-73833667D01*
X33581001Y-73867000D01*
X33514334Y-73933667D01*
X33481001Y-74000333D01*
X33447667Y-74133667D01*
X33447667Y-74233667D01*
X33481001Y-74367000D01*
X33514334Y-74433667D01*
X33581001Y-74500333D01*
X33681001Y-74533667D01*
X33747667Y-74533667D01*
X33847667Y-74500333D01*
X33881001Y-74467000D01*
X33881001Y-74233667D01*
X33747667Y-74233667D01*
X34181001Y-74533667D02*
X34181001Y-73833667D01*
X34581001Y-74533667D01*
X34581001Y-73833667D01*
X34914334Y-74533667D02*
X34914334Y-73833667D01*
X35081000Y-73833667D01*
X35181000Y-73867000D01*
X35247667Y-73933667D01*
X35281000Y-74000333D01*
X35314334Y-74133667D01*
X35314334Y-74233667D01*
X35281000Y-74367000D01*
X35247667Y-74433667D01*
X35181000Y-74500333D01*
X35081000Y-74533667D01*
X34914334Y-74533667D01*
X33514333Y-76133667D02*
X33947666Y-76133667D01*
X33714333Y-76400333D01*
X33814333Y-76400333D01*
X33881000Y-76433667D01*
X33914333Y-76467000D01*
X33947666Y-76533667D01*
X33947666Y-76700333D01*
X33914333Y-76767000D01*
X33881000Y-76800333D01*
X33814333Y-76833667D01*
X33614333Y-76833667D01*
X33547666Y-76800333D01*
X33514333Y-76767000D01*
X34147667Y-76133667D02*
X34381000Y-76833667D01*
X34614333Y-76133667D01*
X34781000Y-76133667D02*
X35214333Y-76133667D01*
X34981000Y-76400333D01*
X35081000Y-76400333D01*
X35147667Y-76433667D01*
X35181000Y-76467000D01*
X35214333Y-76533667D01*
X35214333Y-76700333D01*
X35181000Y-76767000D01*
X35147667Y-76800333D01*
X35081000Y-76833667D01*
X34881000Y-76833667D01*
X34814333Y-76800333D01*
X34781000Y-76767000D01*
D11*
X67071000Y-74397000D02*
X66371000Y-74397000D01*
X66371000Y-73197000D02*
X67071000Y-73197000D01*
X67071000Y-72517000D02*
X66371000Y-72517000D01*
X66371000Y-71317000D02*
X67071000Y-71317000D01*
X96926777Y-33678249D02*
X97421751Y-34173223D01*
X96573223Y-35021751D02*
X96078249Y-34526777D01*
X92350000Y-76125000D02*
X93050000Y-76125000D01*
X93050000Y-77325000D02*
X92350000Y-77325000D01*
X94681000Y-72907000D02*
X94681000Y-74107000D01*
X92921000Y-74107000D02*
X92921000Y-72907000D01*
X97650000Y-64420000D02*
X98650000Y-64420000D01*
X98650000Y-65780000D02*
X97650000Y-65780000D01*
X97650000Y-66320000D02*
X98650000Y-66320000D01*
X98650000Y-67680000D02*
X97650000Y-67680000D01*
D12*
X72988000Y-25577000D02*
G75*
G03X72988000Y-25577000I-127000J0D01*
G01*
D11*
X76163000Y-26212000D02*
X76163000Y-24815000D01*
X73369000Y-26212000D02*
X73369000Y-24815000D01*
D12*
X95826000Y-62171400D02*
X94556000Y-63441400D01*
X67682800Y-35298200D02*
X67682800Y-63441400D01*
X95826000Y-62171400D02*
X95826000Y-35298200D01*
X95826000Y-35298200D02*
X67682800Y-35298200D01*
X67682800Y-63441400D02*
X94556000Y-63441400D01*
X94606798Y-61432156D02*
G75*
G03X94606798Y-61432156I-650000J0D01*
G01*
X57500000Y-35500000D02*
X57500000Y-62000000D01*
X57500000Y-35500000D02*
X29900000Y-35500000D01*
X29900000Y-63100000D02*
X29900000Y-35500000D01*
X56400000Y-63100000D02*
X29900000Y-63100000D01*
X56676588Y-61713011D02*
G75*
G03X56676588Y-61713011I-565685J0D01*
G01*
X57500000Y-62000000D02*
X56400000Y-63100000D01*
X99134793Y-72011000D02*
G75*
G03X99134793Y-72011000I-108793J0D01*
G01*
X97883000Y-71757000D02*
X97883000Y-69217000D01*
X97883000Y-69217000D02*
X98899000Y-69217000D01*
X98899000Y-69217000D02*
X98899000Y-71757000D01*
X98899000Y-71757000D02*
X97883000Y-71757000D01*
X101327000Y-68350000D02*
G75*
G03X101327000Y-68350000I-127000J0D01*
G01*
D11*
X101900000Y-64050000D02*
X100503000Y-64050000D01*
X101900000Y-68050000D02*
X100503000Y-68050000D01*
X47209000Y-76191000D02*
X46009000Y-76191000D01*
X46009000Y-74431000D02*
X47209000Y-74431000D01*
X46009000Y-76463000D02*
X47209000Y-76463000D01*
X47209000Y-78223000D02*
X46009000Y-78223000D01*
D13*
X57391300Y-72351900D02*
X58585100Y-72351900D01*
X58585100Y-72351900D02*
X58585100Y-77762100D01*
X58585100Y-77762100D02*
X57378600Y-77762100D01*
X51384200Y-78409800D02*
X57378600Y-78409800D01*
X57378600Y-78409800D02*
X57378600Y-71704200D01*
X57378600Y-71704200D02*
X51384200Y-71704200D01*
X51384200Y-78409800D02*
X51384200Y-71704200D01*
D11*
X32090000Y-75310000D02*
X32090000Y-72650000D01*
X32090000Y-72650000D02*
X26770000Y-72650000D01*
X26770000Y-72650000D02*
X26770000Y-77970000D01*
X26770000Y-77970000D02*
X29430000Y-77970000D01*
X29430000Y-77970000D02*
X29430000Y-75310000D01*
X29430000Y-75310000D02*
X32090000Y-75310000D01*
X32090000Y-76580000D02*
X32090000Y-77970000D01*
X32090000Y-77970000D02*
X30700000Y-77970000D01*
X61360000Y-74480000D02*
X62060000Y-74480000D01*
X62060000Y-75680000D02*
X61360000Y-75680000D01*
D12*
X101346000Y-56299000D02*
G75*
G03X101346000Y-56299000I-127000J0D01*
G01*
D11*
X101919000Y-45999000D02*
X100522000Y-45999000D01*
X101919000Y-55999000D02*
X100522000Y-55999000D01*
D12*
X101346000Y-61331000D02*
G75*
G03X101346000Y-61331000I-127000J0D01*
G01*
D11*
X101919000Y-57031000D02*
X100522000Y-57031000D01*
X101919000Y-61031000D02*
X100522000Y-61031000D01*
D14*
G36*
X41447822Y-77217822D02*
X37927029Y-77217822D01*
X37927029Y-76350198D01*
X41447822Y-76350198D01*
X41447822Y-77217822D01*
X41447822Y-77217822D01*
G37*
X41447822Y-77217822D02*
X37927029Y-77217822D01*
X37927029Y-76350198D01*
X41447822Y-76350198D01*
X41447822Y-77217822D01*
G36*
X41824430Y-71264848D02*
X41823811Y-71351931D01*
X41372086Y-71810891D01*
X40920361Y-72269852D01*
X40920032Y-72480471D01*
X40919703Y-72691089D01*
X40644610Y-72691089D01*
X40637522Y-72744530D01*
X40634838Y-72768888D01*
X40630313Y-72814759D01*
X40624191Y-72879405D01*
X40616712Y-72960091D01*
X40608119Y-73054081D01*
X40598654Y-73158637D01*
X40588558Y-73271025D01*
X40578074Y-73388507D01*
X40567444Y-73508348D01*
X40556909Y-73627811D01*
X40546713Y-73744159D01*
X40537095Y-73854657D01*
X40528300Y-73956569D01*
X40520568Y-74047158D01*
X40514142Y-74123687D01*
X40509263Y-74183421D01*
X40506175Y-74223624D01*
X40505117Y-74241559D01*
X40505118Y-74241644D01*
X40512827Y-74256035D01*
X40535981Y-74285748D01*
X40574895Y-74331131D01*
X40629884Y-74392529D01*
X40701264Y-74470288D01*
X40789349Y-74564754D01*
X40894454Y-74676272D01*
X41016895Y-74805188D01*
X41051310Y-74841287D01*
X41597137Y-75413416D01*
X41508881Y-75501436D01*
X41437485Y-75423758D01*
X41411366Y-75395686D01*
X41370566Y-75352274D01*
X41317777Y-75296366D01*
X41255691Y-75230808D01*
X41187000Y-75158441D01*
X41114396Y-75082112D01*
X41070960Y-75036524D01*
X40989416Y-74951119D01*
X40923504Y-74882710D01*
X40871544Y-74830053D01*
X40831855Y-74791905D01*
X40802757Y-74767020D01*
X40782569Y-74754156D01*
X40769610Y-74752068D01*
X40762200Y-74759513D01*
X40758658Y-74775246D01*
X40757303Y-74798023D01*
X40757121Y-74804239D01*
X40747703Y-74847061D01*
X40724497Y-74898819D01*
X40692136Y-74951328D01*
X40655252Y-74996403D01*
X40640493Y-75010328D01*
X40564767Y-75059047D01*
X40476308Y-75086306D01*
X40398100Y-75092773D01*
X40309468Y-75080576D01*
X40227612Y-75044813D01*
X40155164Y-74986722D01*
X40141797Y-74972262D01*
X40092918Y-74916733D01*
X39247326Y-74916733D01*
X39247326Y-75092773D01*
X39020990Y-75092773D01*
X39020990Y-75010531D01*
X39018150Y-74954386D01*
X39008607Y-74915416D01*
X38997009Y-74894219D01*
X38988723Y-74879052D01*
X38981627Y-74857062D01*
X38975252Y-74824987D01*
X38969128Y-74779569D01*
X38962784Y-74717548D01*
X38955750Y-74635662D01*
X38950934Y-74574746D01*
X38928839Y-74289343D01*
X38386435Y-74838805D01*
X38288363Y-74938228D01*
X38194216Y-75033815D01*
X38105715Y-75123810D01*
X38024580Y-75206457D01*
X37952531Y-75280001D01*
X37891288Y-75342684D01*
X37842573Y-75392752D01*
X37808104Y-75428448D01*
X37789621Y-75447995D01*
X37759257Y-75478944D01*
X37733929Y-75500530D01*
X37720305Y-75507723D01*
X37702905Y-75499297D01*
X37677540Y-75478245D01*
X37668942Y-75469671D01*
X37632486Y-75431620D01*
X37833198Y-75227658D01*
X37884404Y-75175699D01*
X37950431Y-75108820D01*
X38028382Y-75029950D01*
X38115362Y-74942014D01*
X38208474Y-74847941D01*
X38304821Y-74750658D01*
X38401508Y-74653093D01*
X38470866Y-74583145D01*
X38576297Y-74476550D01*
X38664871Y-74386307D01*
X38737719Y-74311192D01*
X38795977Y-74249986D01*
X38840775Y-74201466D01*
X38862979Y-74176129D01*
X39041276Y-74176129D01*
X39063599Y-74461555D01*
X39070331Y-74545219D01*
X39076843Y-74621727D01*
X39082766Y-74687081D01*
X39087732Y-74737281D01*
X39091371Y-74768329D01*
X39092542Y-74775273D01*
X39099162Y-74803565D01*
X40048636Y-74803565D01*
X40054974Y-74724606D01*
X40074110Y-74631315D01*
X40114154Y-74548791D01*
X40172582Y-74480038D01*
X40246871Y-74428063D01*
X40330252Y-74396863D01*
X40357302Y-74382228D01*
X40370844Y-74350819D01*
X40371128Y-74349434D01*
X40372753Y-74336174D01*
X40370744Y-74322595D01*
X40363142Y-74306181D01*
X40347984Y-74284411D01*
X40323312Y-74254767D01*
X40287164Y-74214732D01*
X40237580Y-74161785D01*
X40172599Y-74093409D01*
X40168401Y-74089005D01*
X40098507Y-74015611D01*
X40024200Y-73937437D01*
X39950586Y-73859864D01*
X39882771Y-73788275D01*
X39825860Y-73728051D01*
X39813168Y-73714587D01*
X39764513Y-73663820D01*
X39721291Y-73620375D01*
X39686605Y-73587241D01*
X39663556Y-73567405D01*
X39655818Y-73563046D01*
X39644278Y-73572170D01*
X39617290Y-73597200D01*
X39576979Y-73636052D01*
X39525471Y-73686643D01*
X39464891Y-73746888D01*
X39397364Y-73814704D01*
X39342174Y-73870565D01*
X39041276Y-74176129D01*
X38862979Y-74176129D01*
X38873249Y-74164411D01*
X38894529Y-74137599D01*
X38905749Y-74119808D01*
X38908246Y-74111570D01*
X38907300Y-74093590D01*
X38904427Y-74052892D01*
X38899813Y-73991819D01*
X38893642Y-73912713D01*
X38886102Y-73817914D01*
X38877379Y-73709767D01*
X38867657Y-73590612D01*
X38857124Y-73462791D01*
X38848635Y-73360635D01*
X38800604Y-72784674D01*
X38924195Y-72784674D01*
X38924727Y-72797104D01*
X38927231Y-72832110D01*
X38931504Y-72887215D01*
X38937347Y-72959943D01*
X38944557Y-73047814D01*
X38952934Y-73148351D01*
X38962277Y-73259077D01*
X38971242Y-73364205D01*
X38981398Y-73483483D01*
X38990858Y-73596080D01*
X38999404Y-73699305D01*
X39006821Y-73790473D01*
X39012892Y-73866895D01*
X39017399Y-73925883D01*
X39020127Y-73964749D01*
X39020884Y-73979844D01*
X39022065Y-73989238D01*
X39026744Y-73992966D01*
X39036724Y-73989471D01*
X39053810Y-73977199D01*
X39079804Y-73954594D01*
X39116510Y-73920100D01*
X39165733Y-73872162D01*
X39229274Y-73809224D01*
X39296695Y-73741968D01*
X39572399Y-73466477D01*
X39570467Y-73464406D01*
X39752710Y-73464406D01*
X39761016Y-73475780D01*
X39784267Y-73502563D01*
X39820135Y-73542292D01*
X39866287Y-73592507D01*
X39920394Y-73650746D01*
X39980126Y-73714547D01*
X40043152Y-73781449D01*
X40107142Y-73848990D01*
X40169764Y-73914710D01*
X40228690Y-73976146D01*
X40281588Y-74030837D01*
X40326128Y-74076322D01*
X40359980Y-74110138D01*
X40380812Y-74129826D01*
X40386494Y-74133837D01*
X40388366Y-74120891D01*
X40392254Y-74085134D01*
X40397943Y-74028804D01*
X40405219Y-73954140D01*
X40413869Y-73863380D01*
X40423678Y-73758762D01*
X40434434Y-73642526D01*
X40445921Y-73516908D01*
X40455093Y-73415618D01*
X40466826Y-73284279D01*
X40477665Y-73160552D01*
X40487430Y-73046681D01*
X40495937Y-72944911D01*
X40503005Y-72857487D01*
X40508451Y-72786653D01*
X40512092Y-72734653D01*
X40513747Y-72703732D01*
X40513558Y-72695703D01*
X40503666Y-72702854D01*
X40478476Y-72725841D01*
X40440190Y-72762439D01*
X40391011Y-72810422D01*
X40333139Y-72867566D01*
X40268778Y-72931647D01*
X40200129Y-73000438D01*
X40129395Y-73071716D01*
X40058778Y-73143255D01*
X39990480Y-73212830D01*
X39926704Y-73278217D01*
X39869650Y-73337191D01*
X39821522Y-73387527D01*
X39784522Y-73426999D01*
X39760852Y-73453383D01*
X39752710Y-73464406D01*
X39570467Y-73464406D01*
X39469591Y-73356295D01*
X39417232Y-73300377D01*
X39358465Y-73237948D01*
X39295615Y-73171443D01*
X39231005Y-73103298D01*
X39166958Y-73035948D01*
X39105797Y-72971828D01*
X39049847Y-72913372D01*
X39001430Y-72863018D01*
X38962870Y-72823198D01*
X38936491Y-72796350D01*
X38924616Y-72784908D01*
X38924195Y-72784674D01*
X38800604Y-72784674D01*
X38788599Y-72640726D01*
X38188062Y-72009158D01*
X37587525Y-71377589D01*
X37587966Y-71289315D01*
X37588408Y-71201040D01*
X37685417Y-71304666D01*
X37739709Y-71362463D01*
X37803808Y-71430368D01*
X37875984Y-71506572D01*
X37954508Y-71589269D01*
X38037651Y-71676653D01*
X38123681Y-71766915D01*
X38210870Y-71858250D01*
X38297487Y-71948849D01*
X38381803Y-72036907D01*
X38462088Y-72120615D01*
X38536613Y-72198167D01*
X38603646Y-72267757D01*
X38661459Y-72327576D01*
X38708321Y-72375818D01*
X38742504Y-72410676D01*
X38762276Y-72430343D01*
X38766610Y-72434116D01*
X38766908Y-72420992D01*
X38765269Y-72387389D01*
X38761977Y-72337880D01*
X38757318Y-72277037D01*
X38755318Y-72252732D01*
X38740423Y-72074951D01*
X38857045Y-72074951D01*
X38863066Y-72103243D01*
X38866137Y-72125618D01*
X38870452Y-72167717D01*
X38875512Y-72224178D01*
X38880819Y-72289635D01*
X38882656Y-72313862D01*
X38888073Y-72383421D01*
X38893541Y-72448018D01*
X38898512Y-72501548D01*
X38902439Y-72537910D01*
X38903325Y-72544509D01*
X38906666Y-72558056D01*
X38913899Y-72573914D01*
X38926560Y-72593861D01*
X38946189Y-72619673D01*
X38974322Y-72653129D01*
X39012498Y-72696007D01*
X39062254Y-72750083D01*
X39125129Y-72817136D01*
X39202659Y-72898943D01*
X39281749Y-72981950D01*
X39360436Y-73064094D01*
X39433888Y-73140169D01*
X39500276Y-73208325D01*
X39557773Y-73266712D01*
X39604549Y-73313481D01*
X39638776Y-73346782D01*
X39658627Y-73364767D01*
X39662860Y-73367442D01*
X39673997Y-73357741D01*
X39700029Y-73332441D01*
X39738430Y-73294082D01*
X39786672Y-73245200D01*
X39842230Y-73188334D01*
X39882408Y-73146906D01*
X40092169Y-72930000D01*
X39473663Y-72930000D01*
X39473663Y-72691089D01*
X40228119Y-72691089D01*
X40228119Y-72797542D01*
X40366435Y-72659654D01*
X40464553Y-72561840D01*
X40655643Y-72561840D01*
X40657471Y-72577270D01*
X40666723Y-72585867D01*
X40689050Y-72589613D01*
X40730105Y-72590489D01*
X40737376Y-72590495D01*
X40819109Y-72590495D01*
X40819109Y-72371172D01*
X40737376Y-72452179D01*
X40691270Y-72501428D01*
X40663694Y-72539159D01*
X40655643Y-72561840D01*
X40464553Y-72561840D01*
X40504752Y-72521766D01*
X40504752Y-72398952D01*
X40505137Y-72342450D01*
X40506900Y-72306505D01*
X40510950Y-72286530D01*
X40518199Y-72277937D01*
X40529130Y-72276139D01*
X40541288Y-72273498D01*
X40550273Y-72262912D01*
X40557174Y-72240381D01*
X40563076Y-72201909D01*
X40569065Y-72143498D01*
X40570987Y-72122104D01*
X40575148Y-72074951D01*
X38857045Y-72074951D01*
X38740423Y-72074951D01*
X38580891Y-72074951D01*
X38580891Y-71961782D01*
X38648686Y-71961782D01*
X38688338Y-71960696D01*
X38709884Y-71955454D01*
X38712520Y-71952334D01*
X38851384Y-71952334D01*
X38858692Y-71959462D01*
X38884007Y-71961662D01*
X38901092Y-71961782D01*
X38958119Y-71961782D01*
X39170779Y-71961782D01*
X40585302Y-71961782D01*
X40537458Y-71912786D01*
X40463150Y-71852324D01*
X40371184Y-71805691D01*
X40260002Y-71772249D01*
X40149529Y-71753753D01*
X40077227Y-71745122D01*
X40077227Y-71836040D01*
X39498812Y-71836040D01*
X39498812Y-71732893D01*
X39413935Y-71741496D01*
X39354632Y-71748756D01*
X39291449Y-71758379D01*
X39253614Y-71765252D01*
X39178168Y-71780407D01*
X39174474Y-71871095D01*
X39170779Y-71961782D01*
X38958119Y-71961782D01*
X38958119Y-71911485D01*
X38956456Y-71879976D01*
X38952303Y-71862463D01*
X38950629Y-71861188D01*
X38932013Y-71869254D01*
X38904817Y-71888820D01*
X38877552Y-71912944D01*
X38858733Y-71934682D01*
X38857057Y-71937508D01*
X38851384Y-71952334D01*
X38712520Y-71952334D01*
X38720338Y-71943081D01*
X38724558Y-71929604D01*
X38741781Y-71894627D01*
X38774862Y-71852579D01*
X38818107Y-71809356D01*
X38865826Y-71770854D01*
X38897170Y-71750801D01*
X38932877Y-71728851D01*
X38951181Y-71710411D01*
X38957612Y-71688668D01*
X38958106Y-71675718D01*
X38958106Y-71672575D01*
X39599406Y-71672575D01*
X39599406Y-71735446D01*
X39976633Y-71735446D01*
X39976633Y-71672575D01*
X39599406Y-71672575D01*
X38958106Y-71672575D01*
X38958119Y-71634852D01*
X39063952Y-71634852D01*
X39112645Y-71636029D01*
X39150595Y-71639165D01*
X39171692Y-71643671D01*
X39173977Y-71645495D01*
X39187359Y-71648295D01*
X39219926Y-71647148D01*
X39266084Y-71642393D01*
X39297624Y-71638003D01*
X39354812Y-71629378D01*
X39407114Y-71621591D01*
X39446418Y-71615847D01*
X39457945Y-71614215D01*
X39488063Y-71604888D01*
X39498812Y-71590272D01*
X39502080Y-71584320D01*
X39513770Y-71579778D01*
X39536712Y-71576470D01*
X39573735Y-71574215D01*
X39627668Y-71572834D01*
X39701340Y-71572150D01*
X39788020Y-71571980D01*
X39880529Y-71572077D01*
X39950906Y-71572530D01*
X40002164Y-71573590D01*
X40037320Y-71575503D01*
X40059389Y-71578519D01*
X40071385Y-71582885D01*
X40076324Y-71588849D01*
X40077227Y-71595784D01*
X40084921Y-71617795D01*
X40110121Y-71630321D01*
X40156009Y-71634788D01*
X40164264Y-71634852D01*
X40241973Y-71642868D01*
X40330233Y-71664936D01*
X40421085Y-71698084D01*
X40506570Y-71739339D01*
X40578726Y-71785731D01*
X40588072Y-71793082D01*
X40618533Y-71816998D01*
X40636572Y-71826576D01*
X40649169Y-71823480D01*
X40662100Y-71810704D01*
X40700293Y-71785678D01*
X40749998Y-71776071D01*
X40803524Y-71781067D01*
X40853178Y-71799851D01*
X40891267Y-71831606D01*
X40894025Y-71835297D01*
X40922526Y-71894575D01*
X40927828Y-71955934D01*
X40910518Y-72014427D01*
X40871180Y-72065104D01*
X40866370Y-72069289D01*
X40838440Y-72089167D01*
X40810102Y-72097921D01*
X40770263Y-72098553D01*
X40760311Y-72097992D01*
X40721332Y-72096562D01*
X40701254Y-72099839D01*
X40693985Y-72109728D01*
X40693240Y-72118961D01*
X40691716Y-72145744D01*
X40687935Y-72186025D01*
X40685218Y-72210124D01*
X40681277Y-72248401D01*
X40682916Y-72267996D01*
X40692421Y-72275158D01*
X40709351Y-72276139D01*
X40719392Y-72272901D01*
X40735590Y-72262420D01*
X40759145Y-72243548D01*
X40791257Y-72215135D01*
X40833128Y-72176035D01*
X40885957Y-72125097D01*
X40950945Y-72061173D01*
X41029291Y-71983114D01*
X41122197Y-71889772D01*
X41230863Y-71779998D01*
X41283231Y-71726952D01*
X41825049Y-71177767D01*
X41824430Y-71264848D01*
X41824430Y-71264848D01*
G37*
X41824430Y-71264848D02*
X41823811Y-71351931D01*
X41372086Y-71810891D01*
X40920361Y-72269852D01*
X40920032Y-72480471D01*
X40919703Y-72691089D01*
X40644610Y-72691089D01*
X40637522Y-72744530D01*
X40634838Y-72768888D01*
X40630313Y-72814759D01*
X40624191Y-72879405D01*
X40616712Y-72960091D01*
X40608119Y-73054081D01*
X40598654Y-73158637D01*
X40588558Y-73271025D01*
X40578074Y-73388507D01*
X40567444Y-73508348D01*
X40556909Y-73627811D01*
X40546713Y-73744159D01*
X40537095Y-73854657D01*
X40528300Y-73956569D01*
X40520568Y-74047158D01*
X40514142Y-74123687D01*
X40509263Y-74183421D01*
X40506175Y-74223624D01*
X40505117Y-74241559D01*
X40505118Y-74241644D01*
X40512827Y-74256035D01*
X40535981Y-74285748D01*
X40574895Y-74331131D01*
X40629884Y-74392529D01*
X40701264Y-74470288D01*
X40789349Y-74564754D01*
X40894454Y-74676272D01*
X41016895Y-74805188D01*
X41051310Y-74841287D01*
X41597137Y-75413416D01*
X41508881Y-75501436D01*
X41437485Y-75423758D01*
X41411366Y-75395686D01*
X41370566Y-75352274D01*
X41317777Y-75296366D01*
X41255691Y-75230808D01*
X41187000Y-75158441D01*
X41114396Y-75082112D01*
X41070960Y-75036524D01*
X40989416Y-74951119D01*
X40923504Y-74882710D01*
X40871544Y-74830053D01*
X40831855Y-74791905D01*
X40802757Y-74767020D01*
X40782569Y-74754156D01*
X40769610Y-74752068D01*
X40762200Y-74759513D01*
X40758658Y-74775246D01*
X40757303Y-74798023D01*
X40757121Y-74804239D01*
X40747703Y-74847061D01*
X40724497Y-74898819D01*
X40692136Y-74951328D01*
X40655252Y-74996403D01*
X40640493Y-75010328D01*
X40564767Y-75059047D01*
X40476308Y-75086306D01*
X40398100Y-75092773D01*
X40309468Y-75080576D01*
X40227612Y-75044813D01*
X40155164Y-74986722D01*
X40141797Y-74972262D01*
X40092918Y-74916733D01*
X39247326Y-74916733D01*
X39247326Y-75092773D01*
X39020990Y-75092773D01*
X39020990Y-75010531D01*
X39018150Y-74954386D01*
X39008607Y-74915416D01*
X38997009Y-74894219D01*
X38988723Y-74879052D01*
X38981627Y-74857062D01*
X38975252Y-74824987D01*
X38969128Y-74779569D01*
X38962784Y-74717548D01*
X38955750Y-74635662D01*
X38950934Y-74574746D01*
X38928839Y-74289343D01*
X38386435Y-74838805D01*
X38288363Y-74938228D01*
X38194216Y-75033815D01*
X38105715Y-75123810D01*
X38024580Y-75206457D01*
X37952531Y-75280001D01*
X37891288Y-75342684D01*
X37842573Y-75392752D01*
X37808104Y-75428448D01*
X37789621Y-75447995D01*
X37759257Y-75478944D01*
X37733929Y-75500530D01*
X37720305Y-75507723D01*
X37702905Y-75499297D01*
X37677540Y-75478245D01*
X37668942Y-75469671D01*
X37632486Y-75431620D01*
X37833198Y-75227658D01*
X37884404Y-75175699D01*
X37950431Y-75108820D01*
X38028382Y-75029950D01*
X38115362Y-74942014D01*
X38208474Y-74847941D01*
X38304821Y-74750658D01*
X38401508Y-74653093D01*
X38470866Y-74583145D01*
X38576297Y-74476550D01*
X38664871Y-74386307D01*
X38737719Y-74311192D01*
X38795977Y-74249986D01*
X38840775Y-74201466D01*
X38862979Y-74176129D01*
X39041276Y-74176129D01*
X39063599Y-74461555D01*
X39070331Y-74545219D01*
X39076843Y-74621727D01*
X39082766Y-74687081D01*
X39087732Y-74737281D01*
X39091371Y-74768329D01*
X39092542Y-74775273D01*
X39099162Y-74803565D01*
X40048636Y-74803565D01*
X40054974Y-74724606D01*
X40074110Y-74631315D01*
X40114154Y-74548791D01*
X40172582Y-74480038D01*
X40246871Y-74428063D01*
X40330252Y-74396863D01*
X40357302Y-74382228D01*
X40370844Y-74350819D01*
X40371128Y-74349434D01*
X40372753Y-74336174D01*
X40370744Y-74322595D01*
X40363142Y-74306181D01*
X40347984Y-74284411D01*
X40323312Y-74254767D01*
X40287164Y-74214732D01*
X40237580Y-74161785D01*
X40172599Y-74093409D01*
X40168401Y-74089005D01*
X40098507Y-74015611D01*
X40024200Y-73937437D01*
X39950586Y-73859864D01*
X39882771Y-73788275D01*
X39825860Y-73728051D01*
X39813168Y-73714587D01*
X39764513Y-73663820D01*
X39721291Y-73620375D01*
X39686605Y-73587241D01*
X39663556Y-73567405D01*
X39655818Y-73563046D01*
X39644278Y-73572170D01*
X39617290Y-73597200D01*
X39576979Y-73636052D01*
X39525471Y-73686643D01*
X39464891Y-73746888D01*
X39397364Y-73814704D01*
X39342174Y-73870565D01*
X39041276Y-74176129D01*
X38862979Y-74176129D01*
X38873249Y-74164411D01*
X38894529Y-74137599D01*
X38905749Y-74119808D01*
X38908246Y-74111570D01*
X38907300Y-74093590D01*
X38904427Y-74052892D01*
X38899813Y-73991819D01*
X38893642Y-73912713D01*
X38886102Y-73817914D01*
X38877379Y-73709767D01*
X38867657Y-73590612D01*
X38857124Y-73462791D01*
X38848635Y-73360635D01*
X38800604Y-72784674D01*
X38924195Y-72784674D01*
X38924727Y-72797104D01*
X38927231Y-72832110D01*
X38931504Y-72887215D01*
X38937347Y-72959943D01*
X38944557Y-73047814D01*
X38952934Y-73148351D01*
X38962277Y-73259077D01*
X38971242Y-73364205D01*
X38981398Y-73483483D01*
X38990858Y-73596080D01*
X38999404Y-73699305D01*
X39006821Y-73790473D01*
X39012892Y-73866895D01*
X39017399Y-73925883D01*
X39020127Y-73964749D01*
X39020884Y-73979844D01*
X39022065Y-73989238D01*
X39026744Y-73992966D01*
X39036724Y-73989471D01*
X39053810Y-73977199D01*
X39079804Y-73954594D01*
X39116510Y-73920100D01*
X39165733Y-73872162D01*
X39229274Y-73809224D01*
X39296695Y-73741968D01*
X39572399Y-73466477D01*
X39570467Y-73464406D01*
X39752710Y-73464406D01*
X39761016Y-73475780D01*
X39784267Y-73502563D01*
X39820135Y-73542292D01*
X39866287Y-73592507D01*
X39920394Y-73650746D01*
X39980126Y-73714547D01*
X40043152Y-73781449D01*
X40107142Y-73848990D01*
X40169764Y-73914710D01*
X40228690Y-73976146D01*
X40281588Y-74030837D01*
X40326128Y-74076322D01*
X40359980Y-74110138D01*
X40380812Y-74129826D01*
X40386494Y-74133837D01*
X40388366Y-74120891D01*
X40392254Y-74085134D01*
X40397943Y-74028804D01*
X40405219Y-73954140D01*
X40413869Y-73863380D01*
X40423678Y-73758762D01*
X40434434Y-73642526D01*
X40445921Y-73516908D01*
X40455093Y-73415618D01*
X40466826Y-73284279D01*
X40477665Y-73160552D01*
X40487430Y-73046681D01*
X40495937Y-72944911D01*
X40503005Y-72857487D01*
X40508451Y-72786653D01*
X40512092Y-72734653D01*
X40513747Y-72703732D01*
X40513558Y-72695703D01*
X40503666Y-72702854D01*
X40478476Y-72725841D01*
X40440190Y-72762439D01*
X40391011Y-72810422D01*
X40333139Y-72867566D01*
X40268778Y-72931647D01*
X40200129Y-73000438D01*
X40129395Y-73071716D01*
X40058778Y-73143255D01*
X39990480Y-73212830D01*
X39926704Y-73278217D01*
X39869650Y-73337191D01*
X39821522Y-73387527D01*
X39784522Y-73426999D01*
X39760852Y-73453383D01*
X39752710Y-73464406D01*
X39570467Y-73464406D01*
X39469591Y-73356295D01*
X39417232Y-73300377D01*
X39358465Y-73237948D01*
X39295615Y-73171443D01*
X39231005Y-73103298D01*
X39166958Y-73035948D01*
X39105797Y-72971828D01*
X39049847Y-72913372D01*
X39001430Y-72863018D01*
X38962870Y-72823198D01*
X38936491Y-72796350D01*
X38924616Y-72784908D01*
X38924195Y-72784674D01*
X38800604Y-72784674D01*
X38788599Y-72640726D01*
X38188062Y-72009158D01*
X37587525Y-71377589D01*
X37587966Y-71289315D01*
X37588408Y-71201040D01*
X37685417Y-71304666D01*
X37739709Y-71362463D01*
X37803808Y-71430368D01*
X37875984Y-71506572D01*
X37954508Y-71589269D01*
X38037651Y-71676653D01*
X38123681Y-71766915D01*
X38210870Y-71858250D01*
X38297487Y-71948849D01*
X38381803Y-72036907D01*
X38462088Y-72120615D01*
X38536613Y-72198167D01*
X38603646Y-72267757D01*
X38661459Y-72327576D01*
X38708321Y-72375818D01*
X38742504Y-72410676D01*
X38762276Y-72430343D01*
X38766610Y-72434116D01*
X38766908Y-72420992D01*
X38765269Y-72387389D01*
X38761977Y-72337880D01*
X38757318Y-72277037D01*
X38755318Y-72252732D01*
X38740423Y-72074951D01*
X38857045Y-72074951D01*
X38863066Y-72103243D01*
X38866137Y-72125618D01*
X38870452Y-72167717D01*
X38875512Y-72224178D01*
X38880819Y-72289635D01*
X38882656Y-72313862D01*
X38888073Y-72383421D01*
X38893541Y-72448018D01*
X38898512Y-72501548D01*
X38902439Y-72537910D01*
X38903325Y-72544509D01*
X38906666Y-72558056D01*
X38913899Y-72573914D01*
X38926560Y-72593861D01*
X38946189Y-72619673D01*
X38974322Y-72653129D01*
X39012498Y-72696007D01*
X39062254Y-72750083D01*
X39125129Y-72817136D01*
X39202659Y-72898943D01*
X39281749Y-72981950D01*
X39360436Y-73064094D01*
X39433888Y-73140169D01*
X39500276Y-73208325D01*
X39557773Y-73266712D01*
X39604549Y-73313481D01*
X39638776Y-73346782D01*
X39658627Y-73364767D01*
X39662860Y-73367442D01*
X39673997Y-73357741D01*
X39700029Y-73332441D01*
X39738430Y-73294082D01*
X39786672Y-73245200D01*
X39842230Y-73188334D01*
X39882408Y-73146906D01*
X40092169Y-72930000D01*
X39473663Y-72930000D01*
X39473663Y-72691089D01*
X40228119Y-72691089D01*
X40228119Y-72797542D01*
X40366435Y-72659654D01*
X40464553Y-72561840D01*
X40655643Y-72561840D01*
X40657471Y-72577270D01*
X40666723Y-72585867D01*
X40689050Y-72589613D01*
X40730105Y-72590489D01*
X40737376Y-72590495D01*
X40819109Y-72590495D01*
X40819109Y-72371172D01*
X40737376Y-72452179D01*
X40691270Y-72501428D01*
X40663694Y-72539159D01*
X40655643Y-72561840D01*
X40464553Y-72561840D01*
X40504752Y-72521766D01*
X40504752Y-72398952D01*
X40505137Y-72342450D01*
X40506900Y-72306505D01*
X40510950Y-72286530D01*
X40518199Y-72277937D01*
X40529130Y-72276139D01*
X40541288Y-72273498D01*
X40550273Y-72262912D01*
X40557174Y-72240381D01*
X40563076Y-72201909D01*
X40569065Y-72143498D01*
X40570987Y-72122104D01*
X40575148Y-72074951D01*
X38857045Y-72074951D01*
X38740423Y-72074951D01*
X38580891Y-72074951D01*
X38580891Y-71961782D01*
X38648686Y-71961782D01*
X38688338Y-71960696D01*
X38709884Y-71955454D01*
X38712520Y-71952334D01*
X38851384Y-71952334D01*
X38858692Y-71959462D01*
X38884007Y-71961662D01*
X38901092Y-71961782D01*
X38958119Y-71961782D01*
X39170779Y-71961782D01*
X40585302Y-71961782D01*
X40537458Y-71912786D01*
X40463150Y-71852324D01*
X40371184Y-71805691D01*
X40260002Y-71772249D01*
X40149529Y-71753753D01*
X40077227Y-71745122D01*
X40077227Y-71836040D01*
X39498812Y-71836040D01*
X39498812Y-71732893D01*
X39413935Y-71741496D01*
X39354632Y-71748756D01*
X39291449Y-71758379D01*
X39253614Y-71765252D01*
X39178168Y-71780407D01*
X39174474Y-71871095D01*
X39170779Y-71961782D01*
X38958119Y-71961782D01*
X38958119Y-71911485D01*
X38956456Y-71879976D01*
X38952303Y-71862463D01*
X38950629Y-71861188D01*
X38932013Y-71869254D01*
X38904817Y-71888820D01*
X38877552Y-71912944D01*
X38858733Y-71934682D01*
X38857057Y-71937508D01*
X38851384Y-71952334D01*
X38712520Y-71952334D01*
X38720338Y-71943081D01*
X38724558Y-71929604D01*
X38741781Y-71894627D01*
X38774862Y-71852579D01*
X38818107Y-71809356D01*
X38865826Y-71770854D01*
X38897170Y-71750801D01*
X38932877Y-71728851D01*
X38951181Y-71710411D01*
X38957612Y-71688668D01*
X38958106Y-71675718D01*
X38958106Y-71672575D01*
X39599406Y-71672575D01*
X39599406Y-71735446D01*
X39976633Y-71735446D01*
X39976633Y-71672575D01*
X39599406Y-71672575D01*
X38958106Y-71672575D01*
X38958119Y-71634852D01*
X39063952Y-71634852D01*
X39112645Y-71636029D01*
X39150595Y-71639165D01*
X39171692Y-71643671D01*
X39173977Y-71645495D01*
X39187359Y-71648295D01*
X39219926Y-71647148D01*
X39266084Y-71642393D01*
X39297624Y-71638003D01*
X39354812Y-71629378D01*
X39407114Y-71621591D01*
X39446418Y-71615847D01*
X39457945Y-71614215D01*
X39488063Y-71604888D01*
X39498812Y-71590272D01*
X39502080Y-71584320D01*
X39513770Y-71579778D01*
X39536712Y-71576470D01*
X39573735Y-71574215D01*
X39627668Y-71572834D01*
X39701340Y-71572150D01*
X39788020Y-71571980D01*
X39880529Y-71572077D01*
X39950906Y-71572530D01*
X40002164Y-71573590D01*
X40037320Y-71575503D01*
X40059389Y-71578519D01*
X40071385Y-71582885D01*
X40076324Y-71588849D01*
X40077227Y-71595784D01*
X40084921Y-71617795D01*
X40110121Y-71630321D01*
X40156009Y-71634788D01*
X40164264Y-71634852D01*
X40241973Y-71642868D01*
X40330233Y-71664936D01*
X40421085Y-71698084D01*
X40506570Y-71739339D01*
X40578726Y-71785731D01*
X40588072Y-71793082D01*
X40618533Y-71816998D01*
X40636572Y-71826576D01*
X40649169Y-71823480D01*
X40662100Y-71810704D01*
X40700293Y-71785678D01*
X40749998Y-71776071D01*
X40803524Y-71781067D01*
X40853178Y-71799851D01*
X40891267Y-71831606D01*
X40894025Y-71835297D01*
X40922526Y-71894575D01*
X40927828Y-71955934D01*
X40910518Y-72014427D01*
X40871180Y-72065104D01*
X40866370Y-72069289D01*
X40838440Y-72089167D01*
X40810102Y-72097921D01*
X40770263Y-72098553D01*
X40760311Y-72097992D01*
X40721332Y-72096562D01*
X40701254Y-72099839D01*
X40693985Y-72109728D01*
X40693240Y-72118961D01*
X40691716Y-72145744D01*
X40687935Y-72186025D01*
X40685218Y-72210124D01*
X40681277Y-72248401D01*
X40682916Y-72267996D01*
X40692421Y-72275158D01*
X40709351Y-72276139D01*
X40719392Y-72272901D01*
X40735590Y-72262420D01*
X40759145Y-72243548D01*
X40791257Y-72215135D01*
X40833128Y-72176035D01*
X40885957Y-72125097D01*
X40950945Y-72061173D01*
X41029291Y-71983114D01*
X41122197Y-71889772D01*
X41230863Y-71779998D01*
X41283231Y-71726952D01*
X41825049Y-71177767D01*
X41824430Y-71264848D01*
D10*
X69039579Y-74361975D02*
X69039578Y-74409115D01*
X68992438Y-74503397D01*
X68945298Y-74550537D01*
X68851017Y-74597677D01*
X68756736Y-74597677D01*
X68686025Y-74574107D01*
X68568174Y-74503397D01*
X68497463Y-74432686D01*
X68426753Y-74314834D01*
X68403183Y-74244124D01*
X68403183Y-74149843D01*
X68450323Y-74055562D01*
X68497463Y-74008422D01*
X68591744Y-73961281D01*
X68638885Y-73961281D01*
X68756736Y-73749149D02*
X69063149Y-73442737D01*
X69086719Y-73796289D01*
X69157429Y-73725579D01*
X69228141Y-73702009D01*
X69275281Y-73702009D01*
X69345991Y-73725579D01*
X69463842Y-73843430D01*
X69487413Y-73914141D01*
X69487413Y-73961281D01*
X69463843Y-74031992D01*
X69322421Y-74173413D01*
X69251710Y-74196983D01*
X69204570Y-74196983D01*
X69793826Y-73702009D02*
X69888107Y-73607728D01*
X69911677Y-73537017D01*
X69911677Y-73489877D01*
X69888107Y-73372025D01*
X69817396Y-73254175D01*
X69628834Y-73065613D01*
X69558123Y-73042042D01*
X69510983Y-73042042D01*
X69440273Y-73065613D01*
X69345992Y-73159893D01*
X69322421Y-73230604D01*
X69322421Y-73277744D01*
X69345991Y-73348455D01*
X69463843Y-73466307D01*
X69534553Y-73489876D01*
X69581694Y-73489877D01*
X69652405Y-73466306D01*
X69746685Y-73372025D01*
X69770256Y-73301315D01*
X69770255Y-73254174D01*
X69746685Y-73183464D01*
X69039579Y-72461975D02*
X69039578Y-72509115D01*
X68992438Y-72603397D01*
X68945298Y-72650537D01*
X68851017Y-72697677D01*
X68756736Y-72697677D01*
X68686025Y-72674107D01*
X68568174Y-72603397D01*
X68497463Y-72532686D01*
X68426753Y-72414834D01*
X68403183Y-72344124D01*
X68403183Y-72249843D01*
X68450323Y-72155562D01*
X68497463Y-72108422D01*
X68591744Y-72061281D01*
X68638885Y-72061281D01*
X69181000Y-71754868D02*
X69510983Y-72084851D01*
X68874587Y-71684157D02*
X69110289Y-72155562D01*
X69416702Y-71849149D01*
X69369562Y-71236323D02*
X69416703Y-71189183D01*
X69487413Y-71165613D01*
X69534553Y-71165612D01*
X69605264Y-71189183D01*
X69723115Y-71259893D01*
X69840966Y-71377745D01*
X69911677Y-71495595D01*
X69935247Y-71566306D01*
X69935247Y-71613447D01*
X69911677Y-71684157D01*
X69864537Y-71731298D01*
X69793825Y-71754868D01*
X69746685Y-71754868D01*
X69675975Y-71731297D01*
X69558123Y-71660587D01*
X69440272Y-71542736D01*
X69369562Y-71424885D01*
X69345991Y-71354174D01*
X69345991Y-71307034D01*
X69369562Y-71236323D01*
X97303901Y-33136134D02*
X97256760Y-33136133D01*
X97162479Y-33088993D01*
X97115339Y-33041853D01*
X97068199Y-32947572D01*
X97068198Y-32853291D01*
X97091769Y-32782581D01*
X97162479Y-32664729D01*
X97233189Y-32594019D01*
X97351041Y-32523308D01*
X97421751Y-32499738D01*
X97516033Y-32499738D01*
X97610313Y-32546879D01*
X97657453Y-32594019D01*
X97704594Y-32688299D01*
X97704595Y-32735440D01*
X97751735Y-33678249D02*
X97822445Y-33277555D01*
X97468892Y-33395407D02*
X97963867Y-32900432D01*
X98152428Y-33088993D01*
X98175999Y-33159704D01*
X98175999Y-33206844D01*
X98152429Y-33277555D01*
X98081718Y-33348266D01*
X98011007Y-33371836D01*
X97963867Y-33371836D01*
X97893156Y-33348265D01*
X97704595Y-33159704D01*
X98670973Y-33607539D02*
X98576692Y-33513257D01*
X98505982Y-33489687D01*
X98458841Y-33489687D01*
X98340991Y-33513257D01*
X98223139Y-33583968D01*
X98034577Y-33772529D01*
X98011007Y-33843241D01*
X98011007Y-33890381D01*
X98034577Y-33961092D01*
X98128858Y-34055373D01*
X98199569Y-34078943D01*
X98246709Y-34078943D01*
X98317420Y-34055372D01*
X98435271Y-33937521D01*
X98458841Y-33866811D01*
X98458841Y-33819671D01*
X98435271Y-33748959D01*
X98340991Y-33654679D01*
X98270279Y-33631109D01*
X98223139Y-33631109D01*
X98152428Y-33654679D01*
X94897667Y-76917000D02*
X94864333Y-76950333D01*
X94764333Y-76983667D01*
X94697667Y-76983667D01*
X94597667Y-76950333D01*
X94531000Y-76883667D01*
X94497667Y-76817000D01*
X94464333Y-76683667D01*
X94464333Y-76583667D01*
X94497667Y-76450333D01*
X94531000Y-76383667D01*
X94597667Y-76317000D01*
X94697667Y-76283667D01*
X94764333Y-76283667D01*
X94864333Y-76317000D01*
X94897667Y-76350333D01*
X95097667Y-76283667D02*
X95331000Y-76983667D01*
X95564333Y-76283667D01*
X95697667Y-76283667D02*
X96097667Y-76283667D01*
X95897667Y-76983667D02*
X95897667Y-76283667D01*
X96297666Y-76350333D02*
X96331000Y-76317000D01*
X96397666Y-76283667D01*
X96564333Y-76283667D01*
X96631000Y-76317000D01*
X96664333Y-76350333D01*
X96697666Y-76417000D01*
X96697666Y-76483667D01*
X96664333Y-76583667D01*
X96264333Y-76983667D01*
X96697666Y-76983667D01*
X71564334Y-75283667D02*
X71564334Y-74583667D01*
X71831000Y-74583667D01*
X71897667Y-74617000D01*
X71931000Y-74650333D01*
X71964334Y-74717000D01*
X71964334Y-74817000D01*
X71931000Y-74883667D01*
X71897667Y-74917000D01*
X71831000Y-74950333D01*
X71564334Y-74950333D01*
X72631000Y-75283667D02*
X72231000Y-75283667D01*
X72431000Y-75283667D02*
X72431000Y-74583667D01*
X72364334Y-74683667D01*
X72297667Y-74750333D01*
X72231000Y-74783667D01*
X95797667Y-73917000D02*
X95464333Y-74150334D01*
X95797667Y-74317000D02*
X95097667Y-74317000D01*
X95097667Y-74050334D01*
X95131000Y-73983667D01*
X95164333Y-73950334D01*
X95231000Y-73917000D01*
X95331000Y-73917000D01*
X95397667Y-73950334D01*
X95431000Y-73983667D01*
X95464333Y-74050334D01*
X95464333Y-74317000D01*
X95164333Y-73650334D02*
X95131000Y-73617000D01*
X95097667Y-73550334D01*
X95097667Y-73383667D01*
X95131000Y-73317000D01*
X95164333Y-73283667D01*
X95231000Y-73250334D01*
X95297667Y-73250334D01*
X95397667Y-73283667D01*
X95797667Y-73683667D01*
X95797667Y-73250334D01*
X95331000Y-72650333D02*
X95797667Y-72650333D01*
X95064333Y-72817000D02*
X95564333Y-72983667D01*
X95564333Y-72550333D01*
X97731000Y-64083667D02*
X97497666Y-63750333D01*
X97331000Y-64083667D02*
X97331000Y-63383667D01*
X97597666Y-63383667D01*
X97664333Y-63417000D01*
X97697666Y-63450333D01*
X97731000Y-63517000D01*
X97731000Y-63617000D01*
X97697666Y-63683667D01*
X97664333Y-63717000D01*
X97597666Y-63750333D01*
X97331000Y-63750333D01*
X97964333Y-63383667D02*
X98397666Y-63383667D01*
X98164333Y-63650333D01*
X98264333Y-63650333D01*
X98331000Y-63683667D01*
X98364333Y-63717000D01*
X98397666Y-63783667D01*
X98397666Y-63950333D01*
X98364333Y-64017000D01*
X98331000Y-64050333D01*
X98264333Y-64083667D01*
X98064333Y-64083667D01*
X97997666Y-64050333D01*
X97964333Y-64017000D01*
X98631000Y-63383667D02*
X99097667Y-63383667D01*
X98797667Y-64083667D01*
X97731000Y-68683667D02*
X97497666Y-68350333D01*
X97331000Y-68683667D02*
X97331000Y-67983667D01*
X97597666Y-67983667D01*
X97664333Y-68017000D01*
X97697666Y-68050333D01*
X97731000Y-68117000D01*
X97731000Y-68217000D01*
X97697666Y-68283667D01*
X97664333Y-68317000D01*
X97597666Y-68350333D01*
X97331000Y-68350333D01*
X97964333Y-67983667D02*
X98397666Y-67983667D01*
X98164333Y-68250333D01*
X98264333Y-68250333D01*
X98331000Y-68283667D01*
X98364333Y-68317000D01*
X98397666Y-68383667D01*
X98397666Y-68550333D01*
X98364333Y-68617000D01*
X98331000Y-68650333D01*
X98264333Y-68683667D01*
X98064333Y-68683667D01*
X97997666Y-68650333D01*
X97964333Y-68617000D01*
X98797667Y-68283667D02*
X98731000Y-68250333D01*
X98697667Y-68217000D01*
X98664333Y-68150333D01*
X98664333Y-68117000D01*
X98697667Y-68050333D01*
X98731000Y-68017000D01*
X98797667Y-67983667D01*
X98931000Y-67983667D01*
X98997667Y-68017000D01*
X99031000Y-68050333D01*
X99064333Y-68117000D01*
X99064333Y-68150333D01*
X99031000Y-68217000D01*
X98997667Y-68250333D01*
X98931000Y-68283667D01*
X98797667Y-68283667D01*
X98731000Y-68317000D01*
X98697667Y-68350333D01*
X98664333Y-68417000D01*
X98664333Y-68550333D01*
X98697667Y-68617000D01*
X98731000Y-68650333D01*
X98797667Y-68683667D01*
X98931000Y-68683667D01*
X98997667Y-68650333D01*
X99031000Y-68617000D01*
X99064333Y-68550333D01*
X99064333Y-68417000D01*
X99031000Y-68350333D01*
X98997667Y-68317000D01*
X98931000Y-68283667D01*
X76914334Y-25883667D02*
X76681000Y-25550333D01*
X76514334Y-25883667D02*
X76514334Y-25183667D01*
X76781000Y-25183667D01*
X76847667Y-25217000D01*
X76881000Y-25250333D01*
X76914334Y-25317000D01*
X76914334Y-25417000D01*
X76881000Y-25483667D01*
X76847667Y-25517000D01*
X76781000Y-25550333D01*
X76514334Y-25550333D01*
X77481000Y-25850333D02*
X77414334Y-25883667D01*
X77281000Y-25883667D01*
X77214334Y-25850333D01*
X77181000Y-25783667D01*
X77181000Y-25517000D01*
X77214334Y-25450333D01*
X77281000Y-25417000D01*
X77414334Y-25417000D01*
X77481000Y-25450333D01*
X77514334Y-25517000D01*
X77514334Y-25583667D01*
X77181000Y-25650333D01*
X77781000Y-25850333D02*
X77847667Y-25883667D01*
X77981000Y-25883667D01*
X78047667Y-25850333D01*
X78081000Y-25783667D01*
X78081000Y-25750333D01*
X78047667Y-25683667D01*
X77981000Y-25650333D01*
X77881000Y-25650333D01*
X77814334Y-25617000D01*
X77781000Y-25550333D01*
X77781000Y-25517000D01*
X77814334Y-25450333D01*
X77881000Y-25417000D01*
X77981000Y-25417000D01*
X78047667Y-25450333D01*
X78647667Y-25850333D02*
X78581001Y-25883667D01*
X78447667Y-25883667D01*
X78381001Y-25850333D01*
X78347667Y-25783667D01*
X78347667Y-25517000D01*
X78381001Y-25450333D01*
X78447667Y-25417000D01*
X78581001Y-25417000D01*
X78647667Y-25450333D01*
X78681001Y-25517000D01*
X78681001Y-25583667D01*
X78347667Y-25650333D01*
X78881001Y-25417000D02*
X79147667Y-25417000D01*
X78981001Y-25183667D02*
X78981001Y-25783667D01*
X79014334Y-25850333D01*
X79081001Y-25883667D01*
X79147667Y-25883667D01*
X81073465Y-47498823D02*
X81073465Y-48065489D01*
X81106798Y-48132156D01*
X81140131Y-48165489D01*
X81206798Y-48198823D01*
X81340131Y-48198823D01*
X81406798Y-48165489D01*
X81440131Y-48132156D01*
X81473465Y-48065489D01*
X81473465Y-47498823D01*
X81840131Y-48198823D02*
X81973464Y-48198823D01*
X82040131Y-48165489D01*
X82073464Y-48132156D01*
X82140131Y-48032156D01*
X82173464Y-47898823D01*
X82173464Y-47632156D01*
X82140131Y-47565489D01*
X82106798Y-47532156D01*
X82040131Y-47498823D01*
X81906798Y-47498823D01*
X81840131Y-47532156D01*
X81806798Y-47565489D01*
X81773464Y-47632156D01*
X81773464Y-47798823D01*
X81806798Y-47865489D01*
X81840131Y-47898823D01*
X81906798Y-47932156D01*
X82040131Y-47932156D01*
X82106798Y-47898823D01*
X82140131Y-47865489D01*
X82173464Y-47798823D01*
X79623465Y-51998823D02*
X79390131Y-51665489D01*
X79223465Y-51998823D02*
X79223465Y-51298823D01*
X79490131Y-51298823D01*
X79556798Y-51332156D01*
X79590131Y-51365489D01*
X79623465Y-51432156D01*
X79623465Y-51532156D01*
X79590131Y-51598823D01*
X79556798Y-51632156D01*
X79490131Y-51665489D01*
X79223465Y-51665489D01*
X80323465Y-51932156D02*
X80290131Y-51965489D01*
X80190131Y-51998823D01*
X80123465Y-51998823D01*
X80023465Y-51965489D01*
X79956798Y-51898823D01*
X79923465Y-51832156D01*
X79890131Y-51698823D01*
X79890131Y-51598823D01*
X79923465Y-51465489D01*
X79956798Y-51398823D01*
X80023465Y-51332156D01*
X80123465Y-51298823D01*
X80190131Y-51298823D01*
X80290131Y-51332156D01*
X80323465Y-51365489D01*
X80623465Y-51998823D02*
X80623465Y-51298823D01*
X80890131Y-51298823D01*
X80956798Y-51332156D01*
X80990131Y-51365489D01*
X81023465Y-51432156D01*
X81023465Y-51532156D01*
X80990131Y-51598823D01*
X80956798Y-51632156D01*
X80890131Y-51665489D01*
X80623465Y-51665489D01*
X81323465Y-51732156D02*
X81856798Y-51732156D01*
X82190132Y-51998823D02*
X82190132Y-51298823D01*
X82590132Y-51998823D01*
X82590132Y-51298823D01*
X82923465Y-51298823D02*
X82923465Y-51865489D01*
X82956798Y-51932156D01*
X82990131Y-51965489D01*
X83056798Y-51998823D01*
X83190131Y-51998823D01*
X83256798Y-51965489D01*
X83290131Y-51932156D01*
X83323465Y-51865489D01*
X83323465Y-51298823D01*
X83623464Y-51965489D02*
X83723464Y-51998823D01*
X83890131Y-51998823D01*
X83956798Y-51965489D01*
X83990131Y-51932156D01*
X84023464Y-51865489D01*
X84023464Y-51798823D01*
X83990131Y-51732156D01*
X83956798Y-51698823D01*
X83890131Y-51665489D01*
X83756798Y-51632156D01*
X83690131Y-51598823D01*
X83656798Y-51565489D01*
X83623464Y-51498823D01*
X83623464Y-51432156D01*
X83656798Y-51365489D01*
X83690131Y-51332156D01*
X83756798Y-51298823D01*
X83923464Y-51298823D01*
X84023464Y-51332156D01*
X42733334Y-47416667D02*
X42733334Y-47983333D01*
X42766667Y-48050000D01*
X42800000Y-48083333D01*
X42866667Y-48116667D01*
X43000000Y-48116667D01*
X43066667Y-48083333D01*
X43100000Y-48050000D01*
X43133334Y-47983333D01*
X43133334Y-47416667D01*
X43833333Y-48116667D02*
X43433333Y-48116667D01*
X43633333Y-48116667D02*
X43633333Y-47416667D01*
X43566667Y-47516667D01*
X43500000Y-47583333D01*
X43433333Y-47616667D01*
X44266667Y-47416667D02*
X44333334Y-47416667D01*
X44400000Y-47450000D01*
X44433334Y-47483333D01*
X44466667Y-47550000D01*
X44500000Y-47683333D01*
X44500000Y-47850000D01*
X44466667Y-47983333D01*
X44433334Y-48050000D01*
X44400000Y-48083333D01*
X44333334Y-48116667D01*
X44266667Y-48116667D01*
X44200000Y-48083333D01*
X44166667Y-48050000D01*
X44133334Y-47983333D01*
X44100000Y-47850000D01*
X44100000Y-47683333D01*
X44133334Y-47550000D01*
X44166667Y-47483333D01*
X44200000Y-47450000D01*
X44266667Y-47416667D01*
X41700001Y-51050000D02*
X41666667Y-51083333D01*
X41566667Y-51116667D01*
X41500001Y-51116667D01*
X41400001Y-51083333D01*
X41333334Y-51016667D01*
X41300001Y-50950000D01*
X41266667Y-50816667D01*
X41266667Y-50716667D01*
X41300001Y-50583333D01*
X41333334Y-50516667D01*
X41400001Y-50450000D01*
X41500001Y-50416667D01*
X41566667Y-50416667D01*
X41666667Y-50450000D01*
X41700001Y-50483333D01*
X42000001Y-51116667D02*
X42000001Y-50416667D01*
X42266667Y-50416667D01*
X42333334Y-50450000D01*
X42366667Y-50483333D01*
X42400001Y-50550000D01*
X42400001Y-50650000D01*
X42366667Y-50716667D01*
X42333334Y-50750000D01*
X42266667Y-50783333D01*
X42000001Y-50783333D01*
X42700001Y-50416667D02*
X42700001Y-50983333D01*
X42733334Y-51050000D01*
X42766667Y-51083333D01*
X42833334Y-51116667D01*
X42966667Y-51116667D01*
X43033334Y-51083333D01*
X43066667Y-51050000D01*
X43100001Y-50983333D01*
X43100001Y-50416667D01*
X43433334Y-50850000D02*
X43966667Y-50850000D01*
X44300001Y-51116667D02*
X44300001Y-50416667D01*
X44700001Y-51116667D01*
X44700001Y-50416667D01*
X45033334Y-50416667D02*
X45033334Y-50983333D01*
X45066667Y-51050000D01*
X45100000Y-51083333D01*
X45166667Y-51116667D01*
X45300000Y-51116667D01*
X45366667Y-51083333D01*
X45400000Y-51050000D01*
X45433334Y-50983333D01*
X45433334Y-50416667D01*
X45733333Y-51083333D02*
X45833333Y-51116667D01*
X46000000Y-51116667D01*
X46066667Y-51083333D01*
X46100000Y-51050000D01*
X46133333Y-50983333D01*
X46133333Y-50916667D01*
X46100000Y-50850000D01*
X46066667Y-50816667D01*
X46000000Y-50783333D01*
X45866667Y-50750000D01*
X45800000Y-50716667D01*
X45766667Y-50683333D01*
X45733333Y-50616667D01*
X45733333Y-50550000D01*
X45766667Y-50483333D01*
X45800000Y-50450000D01*
X45866667Y-50416667D01*
X46033333Y-50416667D01*
X46133333Y-50450000D01*
X97847667Y-72583667D02*
X97847667Y-73150333D01*
X97881000Y-73217000D01*
X97914333Y-73250333D01*
X97981000Y-73283667D01*
X98114333Y-73283667D01*
X98181000Y-73250333D01*
X98214333Y-73217000D01*
X98247667Y-73150333D01*
X98247667Y-72583667D01*
X98514333Y-72583667D02*
X98947666Y-72583667D01*
X98714333Y-72850333D01*
X98814333Y-72850333D01*
X98881000Y-72883667D01*
X98914333Y-72917000D01*
X98947666Y-72983667D01*
X98947666Y-73150333D01*
X98914333Y-73217000D01*
X98881000Y-73250333D01*
X98814333Y-73283667D01*
X98614333Y-73283667D01*
X98547666Y-73250333D01*
X98514333Y-73217000D01*
X100797667Y-72333666D02*
X101297667Y-72333666D01*
X101397667Y-72367000D01*
X101464333Y-72433666D01*
X101497667Y-72533666D01*
X101497667Y-72600333D01*
X100797667Y-71867000D02*
X100797667Y-71733667D01*
X100831000Y-71667000D01*
X100897667Y-71600333D01*
X101031000Y-71567000D01*
X101264333Y-71567000D01*
X101397667Y-71600333D01*
X101464333Y-71667000D01*
X101497667Y-71733667D01*
X101497667Y-71867000D01*
X101464333Y-71933667D01*
X101397667Y-72000333D01*
X101264333Y-72033667D01*
X101031000Y-72033667D01*
X100897667Y-72000333D01*
X100831000Y-71933667D01*
X100797667Y-71867000D01*
X101164333Y-71133667D02*
X101497667Y-71133667D01*
X100797667Y-71367000D02*
X101164333Y-71133667D01*
X100797667Y-70900334D01*
X101497667Y-70667000D02*
X100797667Y-70667000D01*
X100797667Y-70400334D01*
X100831000Y-70333667D01*
X100864333Y-70300334D01*
X100931000Y-70267000D01*
X101031000Y-70267000D01*
X101097667Y-70300334D01*
X101131000Y-70333667D01*
X101164333Y-70400334D01*
X101164333Y-70667000D01*
X101297667Y-70000334D02*
X101297667Y-69667000D01*
X101497667Y-70067000D02*
X100797667Y-69833667D01*
X101497667Y-69600334D01*
X101497667Y-69367000D02*
X100797667Y-69367000D01*
X100797667Y-69200334D01*
X100831000Y-69100334D01*
X100897667Y-69033667D01*
X100964333Y-69000334D01*
X101097667Y-68967000D01*
X101197667Y-68967000D01*
X101331000Y-69000334D01*
X101397667Y-69033667D01*
X101464333Y-69100334D01*
X101497667Y-69200334D01*
X101497667Y-69367000D01*
X46131000Y-72483667D02*
X45897666Y-72150333D01*
X45731000Y-72483667D02*
X45731000Y-71783667D01*
X45997666Y-71783667D01*
X46064333Y-71817000D01*
X46097666Y-71850333D01*
X46131000Y-71917000D01*
X46131000Y-72017000D01*
X46097666Y-72083667D01*
X46064333Y-72117000D01*
X45997666Y-72150333D01*
X45731000Y-72150333D01*
X46397666Y-71850333D02*
X46431000Y-71817000D01*
X46497666Y-71783667D01*
X46664333Y-71783667D01*
X46731000Y-71817000D01*
X46764333Y-71850333D01*
X46797666Y-71917000D01*
X46797666Y-71983667D01*
X46764333Y-72083667D01*
X46364333Y-72483667D01*
X46797666Y-72483667D01*
X47397667Y-71783667D02*
X47264333Y-71783667D01*
X47197667Y-71817000D01*
X47164333Y-71850333D01*
X47097667Y-71950333D01*
X47064333Y-72083667D01*
X47064333Y-72350333D01*
X47097667Y-72417000D01*
X47131000Y-72450333D01*
X47197667Y-72483667D01*
X47331000Y-72483667D01*
X47397667Y-72450333D01*
X47431000Y-72417000D01*
X47464333Y-72350333D01*
X47464333Y-72183667D01*
X47431000Y-72117000D01*
X47397667Y-72083667D01*
X47331000Y-72050333D01*
X47197667Y-72050333D01*
X47131000Y-72083667D01*
X47097667Y-72117000D01*
X47064333Y-72183667D01*
X46131000Y-73683667D02*
X45897666Y-73350333D01*
X45731000Y-73683667D02*
X45731000Y-72983667D01*
X45997666Y-72983667D01*
X46064333Y-73017000D01*
X46097666Y-73050333D01*
X46131000Y-73117000D01*
X46131000Y-73217000D01*
X46097666Y-73283667D01*
X46064333Y-73317000D01*
X45997666Y-73350333D01*
X45731000Y-73350333D01*
X46397666Y-73050333D02*
X46431000Y-73017000D01*
X46497666Y-72983667D01*
X46664333Y-72983667D01*
X46731000Y-73017000D01*
X46764333Y-73050333D01*
X46797666Y-73117000D01*
X46797666Y-73183667D01*
X46764333Y-73283667D01*
X46364333Y-73683667D01*
X46797666Y-73683667D01*
X47031000Y-72983667D02*
X47497667Y-72983667D01*
X47197667Y-73683667D01*
X53514334Y-70483667D02*
X53514334Y-71050333D01*
X53547667Y-71117000D01*
X53581000Y-71150333D01*
X53647667Y-71183667D01*
X53781000Y-71183667D01*
X53847667Y-71150333D01*
X53881000Y-71117000D01*
X53914334Y-71050333D01*
X53914334Y-70483667D01*
X54614333Y-71183667D02*
X54214333Y-71183667D01*
X54414333Y-71183667D02*
X54414333Y-70483667D01*
X54347667Y-70583667D01*
X54281000Y-70650333D01*
X54214333Y-70683667D01*
X54881000Y-70550333D02*
X54914334Y-70517000D01*
X54981000Y-70483667D01*
X55147667Y-70483667D01*
X55214334Y-70517000D01*
X55247667Y-70550333D01*
X55281000Y-70617000D01*
X55281000Y-70683667D01*
X55247667Y-70783667D01*
X54847667Y-71183667D01*
X55281000Y-71183667D01*
X61282000Y-76671000D02*
X61248666Y-76704333D01*
X61148666Y-76737667D01*
X61082000Y-76737667D01*
X60982000Y-76704333D01*
X60915333Y-76637667D01*
X60882000Y-76571000D01*
X60848666Y-76437667D01*
X60848666Y-76337667D01*
X60882000Y-76204333D01*
X60915333Y-76137667D01*
X60982000Y-76071000D01*
X61082000Y-76037667D01*
X61148666Y-76037667D01*
X61248666Y-76071000D01*
X61282000Y-76104333D01*
X61515333Y-76037667D02*
X61948666Y-76037667D01*
X61715333Y-76304333D01*
X61815333Y-76304333D01*
X61882000Y-76337667D01*
X61915333Y-76371000D01*
X61948666Y-76437667D01*
X61948666Y-76604333D01*
X61915333Y-76671000D01*
X61882000Y-76704333D01*
X61815333Y-76737667D01*
X61615333Y-76737667D01*
X61548666Y-76704333D01*
X61515333Y-76671000D01*
X62182000Y-76037667D02*
X62648667Y-76037667D01*
X62348667Y-76737667D01*
X99997667Y-54150332D02*
X99297667Y-54150332D01*
X99297667Y-53983666D01*
X99331000Y-53883666D01*
X99397667Y-53816999D01*
X99464333Y-53783666D01*
X99597667Y-53750332D01*
X99697667Y-53750332D01*
X99831000Y-53783666D01*
X99897667Y-53816999D01*
X99964333Y-53883666D01*
X99997667Y-53983666D01*
X99997667Y-54150332D01*
X99997667Y-53450332D02*
X99297667Y-53450332D01*
X99331000Y-52750333D02*
X99297667Y-52816999D01*
X99297667Y-52916999D01*
X99331000Y-53016999D01*
X99397667Y-53083666D01*
X99464333Y-53116999D01*
X99597667Y-53150333D01*
X99697667Y-53150333D01*
X99831000Y-53116999D01*
X99897667Y-53083666D01*
X99964333Y-53016999D01*
X99997667Y-52916999D01*
X99997667Y-52850333D01*
X99964333Y-52750333D01*
X99931000Y-52716999D01*
X99697667Y-52716999D01*
X99697667Y-52850333D01*
X99997667Y-52416999D02*
X99297667Y-52416999D01*
X99297667Y-52183666D02*
X99297667Y-51783666D01*
X99997667Y-51983666D02*
X99297667Y-51983666D01*
X99797667Y-51583667D02*
X99797667Y-51250333D01*
X99997667Y-51650333D02*
X99297667Y-51417000D01*
X99997667Y-51183667D01*
X99997667Y-50617000D02*
X99997667Y-50950333D01*
X99297667Y-50950333D01*
X99297667Y-49950333D02*
X99997667Y-49717000D01*
X99297667Y-49483667D01*
X99997667Y-49250333D02*
X99297667Y-49250333D01*
X99997667Y-48917000D02*
X99297667Y-48917000D01*
X99297667Y-48750334D01*
X99331000Y-48650334D01*
X99397667Y-48583667D01*
X99464333Y-48550334D01*
X99597667Y-48517000D01*
X99697667Y-48517000D01*
X99831000Y-48550334D01*
X99897667Y-48583667D01*
X99964333Y-48650334D01*
X99997667Y-48750334D01*
X99997667Y-48917000D01*
X99631000Y-48217000D02*
X99631000Y-47983667D01*
X99997667Y-47883667D02*
X99997667Y-48217000D01*
X99297667Y-48217000D01*
X99297667Y-47883667D01*
X99297667Y-47450334D02*
X99297667Y-47317001D01*
X99331000Y-47250334D01*
X99397667Y-47183667D01*
X99531000Y-47150334D01*
X99764333Y-47150334D01*
X99897667Y-47183667D01*
X99964333Y-47250334D01*
X99997667Y-47317001D01*
X99997667Y-47450334D01*
X99964333Y-47517001D01*
X99897667Y-47583667D01*
X99764333Y-47617001D01*
X99531000Y-47617001D01*
X99397667Y-47583667D01*
X99331000Y-47517001D01*
X99297667Y-47450334D01*
X99997667Y-60700332D02*
X99297667Y-60700332D01*
X99297667Y-60533666D01*
X99331000Y-60433666D01*
X99397667Y-60366999D01*
X99464333Y-60333666D01*
X99597667Y-60300332D01*
X99697667Y-60300332D01*
X99831000Y-60333666D01*
X99897667Y-60366999D01*
X99964333Y-60433666D01*
X99997667Y-60533666D01*
X99997667Y-60700332D01*
X99797667Y-60033666D02*
X99797667Y-59700332D01*
X99997667Y-60100332D02*
X99297667Y-59866999D01*
X99997667Y-59633666D01*
X99297667Y-59400332D02*
X99864333Y-59400332D01*
X99931000Y-59366999D01*
X99964333Y-59333666D01*
X99997667Y-59266999D01*
X99997667Y-59133666D01*
X99964333Y-59066999D01*
X99931000Y-59033666D01*
X99864333Y-59000332D01*
X99297667Y-59000332D01*
X99997667Y-58666999D02*
X99297667Y-58666999D01*
X99297667Y-58500333D01*
X99331000Y-58400333D01*
X99397667Y-58333666D01*
X99464333Y-58300333D01*
X99597667Y-58266999D01*
X99697667Y-58266999D01*
X99831000Y-58300333D01*
X99897667Y-58333666D01*
X99964333Y-58400333D01*
X99997667Y-58500333D01*
X99997667Y-58666999D01*
X99997667Y-57966999D02*
X99297667Y-57966999D01*
X99297667Y-57500333D02*
X99297667Y-57367000D01*
X99331000Y-57300333D01*
X99397667Y-57233666D01*
X99531000Y-57200333D01*
X99764333Y-57200333D01*
X99897667Y-57233666D01*
X99964333Y-57300333D01*
X99997667Y-57367000D01*
X99997667Y-57500333D01*
X99964333Y-57567000D01*
X99897667Y-57633666D01*
X99764333Y-57667000D01*
X99531000Y-57667000D01*
X99397667Y-57633666D01*
X99331000Y-57567000D01*
X99297667Y-57500333D01*
M02*
