G04 #@! TF.FileFunction,Copper,L2,Inr,Plane*
%FSLAX46Y46*%
G04 Gerber Fmt 4.6, Leading zero omitted, Abs format (unit mm)*
G04 Created by KiCad (PCBNEW 4.0.6) date Mon Aug 28 23:47:59 2017*
%MOMM*%
%LPD*%
G01*
G04 APERTURE LIST*
%ADD10C,0.100000*%
%ADD11C,1.500000*%
%ADD12C,1.422400*%
%ADD13C,0.950000*%
%ADD14C,0.450000*%
%ADD15C,0.200000*%
G04 APERTURE END LIST*
D10*
D11*
X25400000Y-27432000D03*
X66158500Y-71882000D03*
X66158530Y-60452000D03*
D12*
X61087000Y-64135000D03*
X61087000Y-69215000D03*
D11*
X25400000Y-47268000D03*
X53340000Y-27432000D03*
X25400000Y-71882000D03*
X53331500Y-46506000D03*
D13*
X47410000Y-69235400D03*
X46140000Y-69235400D03*
X44870589Y-69235400D03*
X43600589Y-69235400D03*
X42330000Y-69231623D03*
X41060000Y-69235400D03*
X39790000Y-69235400D03*
X38520589Y-69235400D03*
X37250589Y-69235400D03*
X35980000Y-69235400D03*
X34710000Y-69235400D03*
X33440589Y-69235400D03*
X32170589Y-69235400D03*
X30900000Y-69235400D03*
X29630000Y-69235400D03*
X47410000Y-70505400D03*
X46140589Y-70505400D03*
X44870000Y-70505400D03*
X43600000Y-70505400D03*
X42330000Y-70501623D03*
X41060000Y-70505400D03*
X39790000Y-70505400D03*
X38520589Y-70505400D03*
X37250589Y-70501623D03*
X35980000Y-70501623D03*
X34710000Y-70501623D03*
X33440589Y-70501623D03*
X32170589Y-70501623D03*
X30900000Y-70501623D03*
X29630000Y-70501623D03*
D14*
X42426001Y-43331000D03*
X42426001Y-43839000D03*
X42420000Y-44347000D03*
X42420000Y-49517000D03*
X42425500Y-53547000D03*
X42420000Y-50037000D03*
X42425500Y-50557000D03*
X42425500Y-53027000D03*
X42425500Y-52507000D03*
X48277120Y-32256715D03*
X48911683Y-32256715D03*
X30065100Y-31266000D03*
X31360500Y-31266000D03*
X32694000Y-31266000D03*
X35272100Y-31266000D03*
X37888300Y-31266000D03*
X40479100Y-31266000D03*
X44365300Y-31240600D03*
X45686100Y-31240600D03*
X46981500Y-31240600D03*
X48276895Y-49401476D03*
X48937004Y-49402606D03*
X46981500Y-48741200D03*
X45686100Y-48741200D03*
X44390700Y-48741200D03*
X43069900Y-48741200D03*
X40479100Y-48741200D03*
X30091157Y-48740024D03*
X31385010Y-48741631D03*
X32680966Y-48741633D03*
X37888300Y-48741631D03*
X35272878Y-48741631D03*
X46956100Y-60831600D03*
X45686100Y-60831600D03*
X44365956Y-60831155D03*
X40453700Y-60831600D03*
X37862900Y-60831040D03*
X30090500Y-60857000D03*
X31361048Y-60856297D03*
X32675168Y-60861789D03*
X35272100Y-62812800D03*
X48911899Y-45388905D03*
X48251500Y-45388400D03*
X46981500Y-45388400D03*
X45660700Y-45388400D03*
X44365300Y-45363000D03*
X40453700Y-45363000D03*
X37862900Y-45388400D03*
X35272100Y-45337600D03*
X32655900Y-44372400D03*
X31360500Y-44347000D03*
X30065100Y-44347000D03*
X44314500Y-28345000D03*
X41748811Y-31519244D03*
X51503724Y-49019342D03*
X50791500Y-49757200D03*
X27550500Y-44982000D03*
X28185500Y-44347000D03*
X28820500Y-27329000D03*
X27550500Y-27329000D03*
X28185500Y-26694000D03*
X40885500Y-28599000D03*
X40250500Y-27964000D03*
X44314500Y-26313000D03*
X45203500Y-27329000D03*
X49648500Y-68604000D03*
X51934500Y-68578600D03*
X64113800Y-67702300D03*
X65421900Y-67702300D03*
X64774200Y-67054600D03*
X65434600Y-65644900D03*
X64113800Y-65644900D03*
X64774200Y-66318000D03*
X35297500Y-67715000D03*
X29087200Y-67715000D03*
X28452200Y-67041900D03*
X29709500Y-67041900D03*
X49140500Y-62000000D03*
X48378500Y-62000000D03*
X55363500Y-65175000D03*
X55363500Y-66826000D03*
X39370000Y-72517000D03*
X47625500Y-29302000D03*
X46325500Y-29302000D03*
X45025500Y-29302000D03*
X43725500Y-29302000D03*
X41125500Y-29302000D03*
X39825500Y-29302000D03*
X38525500Y-29302000D03*
X37225500Y-29302000D03*
X35925500Y-29302000D03*
X34625500Y-29302000D03*
X33325219Y-29302275D03*
X32024431Y-29301698D03*
X30727006Y-29303377D03*
X40513000Y-65278000D03*
X41783000Y-65278000D03*
X39243000Y-65278000D03*
X44314500Y-66318000D03*
X49013500Y-70001000D03*
X48518200Y-70001000D03*
X49013500Y-71017000D03*
X48518200Y-71017000D03*
X49013500Y-70509000D03*
X48518200Y-70509000D03*
X45711500Y-66318000D03*
X46981500Y-66318000D03*
X49013500Y-66318000D03*
X48505500Y-66318000D03*
X49022000Y-65786000D03*
X49022000Y-65278000D03*
X48514000Y-65786000D03*
X48514000Y-65278000D03*
X31369000Y-65786000D03*
X31369000Y-65278000D03*
X46990000Y-65786000D03*
X46990000Y-65278000D03*
X45720000Y-65786000D03*
X45720000Y-65278000D03*
X44323000Y-65786000D03*
X44323000Y-65278000D03*
X27686000Y-64770000D03*
X28194000Y-64770000D03*
X29972000Y-65278000D03*
X29972000Y-65786000D03*
X36576000Y-65278000D03*
X36576000Y-65786000D03*
X33909000Y-65786000D03*
X32639000Y-65786000D03*
X27686000Y-65278000D03*
X27686000Y-65786000D03*
X28194000Y-65278000D03*
X28194000Y-65786000D03*
X32639000Y-65278000D03*
X33909000Y-65278000D03*
X40513000Y-65786000D03*
X41783000Y-65786000D03*
X39243000Y-65786000D03*
X41774500Y-28853000D03*
X39158300Y-31266000D03*
X36567500Y-31266000D03*
X33976700Y-31266000D03*
X49572300Y-31240600D03*
X39183700Y-48741200D03*
X49587303Y-48741200D03*
X33976922Y-48741631D03*
X36568836Y-48741631D03*
X41761800Y-60844300D03*
X39171000Y-60844300D03*
X36567500Y-60844300D03*
X33964000Y-60844300D03*
X29417400Y-62139700D03*
X39183700Y-45363000D03*
X36567500Y-45388400D03*
X29404617Y-45388281D03*
X33976700Y-45363000D03*
X28185500Y-47649000D03*
X28185500Y-30123000D03*
X50791500Y-46633000D03*
X50810500Y-64142000D03*
X52578000Y-65532000D03*
X52578000Y-66548000D03*
X52578000Y-66040000D03*
D15*
G36*
X54079163Y-25650985D02*
X54712999Y-26074501D01*
X55136515Y-26708337D01*
X55296500Y-27512635D01*
X55296500Y-55523000D01*
X55307548Y-55578542D01*
X55307548Y-55635177D01*
X55500894Y-56607193D01*
X55586751Y-56814469D01*
X56137354Y-57638504D01*
X56295996Y-57797147D01*
X56296000Y-57797149D01*
X57120031Y-58347749D01*
X57327307Y-58433606D01*
X58299323Y-58626952D01*
X58355958Y-58626952D01*
X58411500Y-58638000D01*
X66101865Y-58638000D01*
X66906163Y-58797985D01*
X67539999Y-59221501D01*
X67963515Y-59855337D01*
X68123500Y-60659635D01*
X68123500Y-71976365D01*
X67963515Y-72780663D01*
X67539999Y-73414499D01*
X66906163Y-73838015D01*
X66101865Y-73998000D01*
X25448135Y-73998000D01*
X24643837Y-73838015D01*
X24010001Y-73414499D01*
X23586485Y-72780663D01*
X23565453Y-72674924D01*
X24677787Y-72674924D01*
X24751882Y-72859123D01*
X25175146Y-73032768D01*
X25632642Y-73031219D01*
X26048118Y-72859123D01*
X26122213Y-72674924D01*
X65436287Y-72674924D01*
X65510382Y-72859123D01*
X65933646Y-73032768D01*
X66391142Y-73031219D01*
X66806618Y-72859123D01*
X66880713Y-72674924D01*
X66158500Y-71952711D01*
X65436287Y-72674924D01*
X26122213Y-72674924D01*
X25400000Y-71952711D01*
X24677787Y-72674924D01*
X23565453Y-72674924D01*
X23426500Y-71976365D01*
X23426500Y-71657146D01*
X24249232Y-71657146D01*
X24250781Y-72114642D01*
X24422877Y-72530118D01*
X24607076Y-72604213D01*
X25329289Y-71882000D01*
X25470711Y-71882000D01*
X26192924Y-72604213D01*
X26377123Y-72530118D01*
X26550768Y-72106854D01*
X26549219Y-71649358D01*
X26377123Y-71233882D01*
X26192924Y-71159787D01*
X25470711Y-71882000D01*
X25329289Y-71882000D01*
X24607076Y-71159787D01*
X24422877Y-71233882D01*
X24249232Y-71657146D01*
X23426500Y-71657146D01*
X23426500Y-71089076D01*
X24677787Y-71089076D01*
X25400000Y-71811289D01*
X26122213Y-71089076D01*
X26048118Y-70904877D01*
X25624854Y-70731232D01*
X25167358Y-70732781D01*
X24751882Y-70904877D01*
X24677787Y-71089076D01*
X23426500Y-71089076D01*
X23426500Y-69428489D01*
X28654831Y-69428489D01*
X28802954Y-69786971D01*
X28884254Y-69868413D01*
X28803918Y-69948609D01*
X28655170Y-70306833D01*
X28654831Y-70694712D01*
X28802954Y-71053194D01*
X29076986Y-71327705D01*
X29435210Y-71476453D01*
X29823089Y-71476792D01*
X30181571Y-71328669D01*
X30384250Y-71126343D01*
X30416887Y-71251636D01*
X30740680Y-71379425D01*
X31088728Y-71373575D01*
X31383113Y-71251636D01*
X31423656Y-71095990D01*
X30900000Y-70572334D01*
X30885858Y-70586476D01*
X30815147Y-70515765D01*
X30829289Y-70501623D01*
X30815147Y-70487481D01*
X30885858Y-70416770D01*
X30900000Y-70430912D01*
X30914142Y-70416770D01*
X30984853Y-70487481D01*
X30970711Y-70501623D01*
X31397066Y-70927978D01*
X31420576Y-70984736D01*
X31465535Y-70996447D01*
X31494367Y-71025279D01*
X31535295Y-71014618D01*
X31576222Y-71025279D01*
X31605054Y-70996447D01*
X31650013Y-70984736D01*
X31671690Y-70929811D01*
X32099878Y-70501623D01*
X32085736Y-70487481D01*
X32156447Y-70416770D01*
X32170589Y-70430912D01*
X32184731Y-70416770D01*
X32255442Y-70487481D01*
X32241300Y-70501623D01*
X32255442Y-70515765D01*
X32184731Y-70586476D01*
X32170589Y-70572334D01*
X31646933Y-71095990D01*
X31687476Y-71251636D01*
X32011269Y-71379425D01*
X32359317Y-71373575D01*
X32653702Y-71251636D01*
X32686385Y-71126164D01*
X32887575Y-71327705D01*
X33245799Y-71476453D01*
X33633678Y-71476792D01*
X33992160Y-71328669D01*
X34075199Y-71245775D01*
X34156986Y-71327705D01*
X34515210Y-71476453D01*
X34903089Y-71476792D01*
X35261571Y-71328669D01*
X35464250Y-71126343D01*
X35496887Y-71251636D01*
X35820680Y-71379425D01*
X36168728Y-71373575D01*
X36463113Y-71251636D01*
X36503656Y-71095990D01*
X35980000Y-70572334D01*
X35965858Y-70586476D01*
X35895147Y-70515765D01*
X35909289Y-70501623D01*
X35895147Y-70487481D01*
X35965858Y-70416770D01*
X35980000Y-70430912D01*
X35994142Y-70416770D01*
X36064853Y-70487481D01*
X36050711Y-70501623D01*
X36477066Y-70927978D01*
X36500576Y-70984736D01*
X36545535Y-70996447D01*
X36574367Y-71025279D01*
X36615295Y-71014618D01*
X36656222Y-71025279D01*
X36685054Y-70996447D01*
X36730013Y-70984736D01*
X36751690Y-70929811D01*
X37179878Y-70501623D01*
X37165736Y-70487481D01*
X37236447Y-70416770D01*
X37250589Y-70430912D01*
X37264731Y-70416770D01*
X37335442Y-70487481D01*
X37321300Y-70501623D01*
X37335442Y-70515765D01*
X37264731Y-70586476D01*
X37250589Y-70572334D01*
X36726933Y-71095990D01*
X36767476Y-71251636D01*
X37091269Y-71379425D01*
X37439317Y-71373575D01*
X37733702Y-71251636D01*
X37765605Y-71129159D01*
X37967575Y-71331482D01*
X38325799Y-71480230D01*
X38713678Y-71480569D01*
X39072160Y-71332446D01*
X39274372Y-71130587D01*
X39306887Y-71255413D01*
X39630680Y-71383202D01*
X39978728Y-71377352D01*
X40273113Y-71255413D01*
X40313656Y-71099767D01*
X39790000Y-70576111D01*
X39775858Y-70590253D01*
X39705147Y-70519542D01*
X39719289Y-70505400D01*
X39705147Y-70491258D01*
X39775858Y-70420547D01*
X39790000Y-70434689D01*
X39804142Y-70420547D01*
X39874853Y-70491258D01*
X39860711Y-70505400D01*
X40286060Y-70930749D01*
X40309987Y-70988513D01*
X40355742Y-71000431D01*
X40384367Y-71029056D01*
X40425000Y-71018472D01*
X40465633Y-71029056D01*
X40494258Y-71000431D01*
X40540013Y-70988513D01*
X40562074Y-70932615D01*
X40989289Y-70505400D01*
X40975147Y-70491258D01*
X41045858Y-70420547D01*
X41060000Y-70434689D01*
X41074142Y-70420547D01*
X41144853Y-70491258D01*
X41130711Y-70505400D01*
X41144853Y-70519542D01*
X41074142Y-70590253D01*
X41060000Y-70576111D01*
X40536344Y-71099767D01*
X40576887Y-71255413D01*
X40900680Y-71383202D01*
X41248728Y-71377352D01*
X41543113Y-71255413D01*
X41576577Y-71126945D01*
X41776986Y-71327705D01*
X42135210Y-71476453D01*
X42523089Y-71476792D01*
X42881571Y-71328669D01*
X42963016Y-71247366D01*
X43046986Y-71331482D01*
X43405210Y-71480230D01*
X43793089Y-71480569D01*
X44151571Y-71332446D01*
X44234905Y-71249257D01*
X44316986Y-71331482D01*
X44675210Y-71480230D01*
X45063089Y-71480569D01*
X45421571Y-71332446D01*
X45505200Y-71248963D01*
X45587575Y-71331482D01*
X45945799Y-71480230D01*
X46333678Y-71480569D01*
X46692160Y-71332446D01*
X46775199Y-71249552D01*
X46856986Y-71331482D01*
X47215210Y-71480230D01*
X47603089Y-71480569D01*
X47878304Y-71366851D01*
X47903216Y-71427143D01*
X48106984Y-71631267D01*
X48373356Y-71741874D01*
X48661779Y-71742126D01*
X48765777Y-71699155D01*
X48868656Y-71741874D01*
X49157079Y-71742126D01*
X49362746Y-71657146D01*
X65007732Y-71657146D01*
X65009281Y-72114642D01*
X65181377Y-72530118D01*
X65365576Y-72604213D01*
X66087789Y-71882000D01*
X66229211Y-71882000D01*
X66951424Y-72604213D01*
X67135623Y-72530118D01*
X67309268Y-72106854D01*
X67307719Y-71649358D01*
X67135623Y-71233882D01*
X66951424Y-71159787D01*
X66229211Y-71882000D01*
X66087789Y-71882000D01*
X65365576Y-71159787D01*
X65181377Y-71233882D01*
X65007732Y-71657146D01*
X49362746Y-71657146D01*
X49423643Y-71631984D01*
X49627767Y-71428216D01*
X49738374Y-71161844D01*
X49738437Y-71089076D01*
X65436287Y-71089076D01*
X66158500Y-71811289D01*
X66880713Y-71089076D01*
X66806618Y-70904877D01*
X66383354Y-70731232D01*
X65925858Y-70732781D01*
X65510382Y-70904877D01*
X65436287Y-71089076D01*
X49738437Y-71089076D01*
X49738626Y-70873421D01*
X49693025Y-70763057D01*
X49738374Y-70653844D01*
X49738626Y-70365421D01*
X49693025Y-70255057D01*
X49738374Y-70145844D01*
X49738626Y-69857421D01*
X49628484Y-69590857D01*
X49492731Y-69454866D01*
X59875590Y-69454866D01*
X60059596Y-69900193D01*
X60400014Y-70241207D01*
X60845020Y-70425989D01*
X61326866Y-70426410D01*
X61772193Y-70242404D01*
X62113207Y-69901986D01*
X62297989Y-69456980D01*
X62298410Y-68975134D01*
X62114404Y-68529807D01*
X61773986Y-68188793D01*
X61328980Y-68004011D01*
X60847134Y-68003590D01*
X60401807Y-68187596D01*
X60060793Y-68528014D01*
X59876011Y-68973020D01*
X59875590Y-69454866D01*
X49492731Y-69454866D01*
X49424716Y-69386733D01*
X49158344Y-69276126D01*
X48869921Y-69275874D01*
X48765923Y-69318845D01*
X48663044Y-69276126D01*
X48384965Y-69275883D01*
X48385169Y-69042311D01*
X48237046Y-68683829D01*
X47963014Y-68409318D01*
X47604790Y-68260570D01*
X47216911Y-68260231D01*
X46858429Y-68408354D01*
X46775095Y-68491543D01*
X46693014Y-68409318D01*
X46334790Y-68260570D01*
X45946911Y-68260231D01*
X45588429Y-68408354D01*
X45505390Y-68491248D01*
X45423603Y-68409318D01*
X45065379Y-68260570D01*
X44677500Y-68260231D01*
X44319018Y-68408354D01*
X44235684Y-68491543D01*
X44153603Y-68409318D01*
X43795379Y-68260570D01*
X43407500Y-68260231D01*
X43049018Y-68408354D01*
X42967278Y-68489952D01*
X42883014Y-68405541D01*
X42524790Y-68256793D01*
X42136911Y-68256454D01*
X41778429Y-68404577D01*
X41693207Y-68489651D01*
X41613014Y-68409318D01*
X41254790Y-68260570D01*
X40866911Y-68260231D01*
X40508429Y-68408354D01*
X40425095Y-68491543D01*
X40343014Y-68409318D01*
X39984790Y-68260570D01*
X39596911Y-68260231D01*
X39238429Y-68408354D01*
X39155390Y-68491248D01*
X39073603Y-68409318D01*
X38715379Y-68260570D01*
X38327500Y-68260231D01*
X37969018Y-68408354D01*
X37885684Y-68491543D01*
X37803603Y-68409318D01*
X37445379Y-68260570D01*
X37057500Y-68260231D01*
X36699018Y-68408354D01*
X36615389Y-68491837D01*
X36533014Y-68409318D01*
X36174790Y-68260570D01*
X35786911Y-68260231D01*
X35428429Y-68408354D01*
X35345095Y-68491543D01*
X35263014Y-68409318D01*
X34904790Y-68260570D01*
X34516911Y-68260231D01*
X34158429Y-68408354D01*
X34075390Y-68491248D01*
X33993603Y-68409318D01*
X33635379Y-68260570D01*
X33247500Y-68260231D01*
X32889018Y-68408354D01*
X32805684Y-68491543D01*
X32723603Y-68409318D01*
X32365379Y-68260570D01*
X31977500Y-68260231D01*
X31619018Y-68408354D01*
X31535389Y-68491837D01*
X31453014Y-68409318D01*
X31094790Y-68260570D01*
X30706911Y-68260231D01*
X30348429Y-68408354D01*
X30265095Y-68491543D01*
X30183014Y-68409318D01*
X29824790Y-68260570D01*
X29436911Y-68260231D01*
X29078429Y-68408354D01*
X28803918Y-68682386D01*
X28655170Y-69040610D01*
X28654831Y-69428489D01*
X23426500Y-69428489D01*
X23426500Y-64913579D01*
X26960874Y-64913579D01*
X27006475Y-65023943D01*
X26961126Y-65133156D01*
X26960874Y-65421579D01*
X27006475Y-65531943D01*
X26961126Y-65641156D01*
X26960874Y-65929579D01*
X27071016Y-66196143D01*
X27274784Y-66400267D01*
X27541156Y-66510874D01*
X27829579Y-66511126D01*
X27939943Y-66465525D01*
X28049156Y-66510874D01*
X28337579Y-66511126D01*
X28604143Y-66400984D01*
X28808267Y-66197216D01*
X28918874Y-65930844D01*
X28919126Y-65642421D01*
X28873525Y-65532057D01*
X28918874Y-65422844D01*
X28918875Y-65421579D01*
X29246874Y-65421579D01*
X29292475Y-65531943D01*
X29247126Y-65641156D01*
X29246874Y-65929579D01*
X29357016Y-66196143D01*
X29560784Y-66400267D01*
X29827156Y-66510874D01*
X30115579Y-66511126D01*
X30382143Y-66400984D01*
X30586267Y-66197216D01*
X30670571Y-65994190D01*
X30754016Y-66196143D01*
X30957784Y-66400267D01*
X31224156Y-66510874D01*
X31512579Y-66511126D01*
X31779143Y-66400984D01*
X31983267Y-66197216D01*
X32003914Y-66147492D01*
X32024016Y-66196143D01*
X32227784Y-66400267D01*
X32494156Y-66510874D01*
X32782579Y-66511126D01*
X33049143Y-66400984D01*
X33253267Y-66197216D01*
X33273914Y-66147492D01*
X33294016Y-66196143D01*
X33497784Y-66400267D01*
X33764156Y-66510874D01*
X34052579Y-66511126D01*
X34319143Y-66400984D01*
X34523267Y-66197216D01*
X34633874Y-65930844D01*
X34634126Y-65642421D01*
X34588525Y-65532057D01*
X34633874Y-65422844D01*
X34633875Y-65421579D01*
X35850874Y-65421579D01*
X35896475Y-65531943D01*
X35851126Y-65641156D01*
X35850874Y-65929579D01*
X35961016Y-66196143D01*
X36164784Y-66400267D01*
X36431156Y-66510874D01*
X36719579Y-66511126D01*
X36986143Y-66400984D01*
X37190267Y-66197216D01*
X37300874Y-65930844D01*
X37301126Y-65642421D01*
X37255525Y-65532057D01*
X37300874Y-65422844D01*
X37300875Y-65421579D01*
X38517874Y-65421579D01*
X38563475Y-65531943D01*
X38518126Y-65641156D01*
X38517874Y-65929579D01*
X38628016Y-66196143D01*
X38831784Y-66400267D01*
X39098156Y-66510874D01*
X39386579Y-66511126D01*
X39653143Y-66400984D01*
X39857267Y-66197216D01*
X39877914Y-66147492D01*
X39898016Y-66196143D01*
X40101784Y-66400267D01*
X40368156Y-66510874D01*
X40656579Y-66511126D01*
X40923143Y-66400984D01*
X41127267Y-66197216D01*
X41147914Y-66147492D01*
X41168016Y-66196143D01*
X41371784Y-66400267D01*
X41638156Y-66510874D01*
X41926579Y-66511126D01*
X42046491Y-66461579D01*
X43589374Y-66461579D01*
X43699516Y-66728143D01*
X43903284Y-66932267D01*
X44169656Y-67042874D01*
X44458079Y-67043126D01*
X44724643Y-66932984D01*
X44928767Y-66729216D01*
X45013071Y-66526190D01*
X45096516Y-66728143D01*
X45300284Y-66932267D01*
X45566656Y-67042874D01*
X45855079Y-67043126D01*
X46121643Y-66932984D01*
X46325767Y-66729216D01*
X46346414Y-66679492D01*
X46366516Y-66728143D01*
X46570284Y-66932267D01*
X46836656Y-67042874D01*
X47125079Y-67043126D01*
X47391643Y-66932984D01*
X47595767Y-66729216D01*
X47706374Y-66462844D01*
X47706375Y-66461579D01*
X47780374Y-66461579D01*
X47890516Y-66728143D01*
X48094284Y-66932267D01*
X48360656Y-67042874D01*
X48649079Y-67043126D01*
X48759443Y-66997525D01*
X48868656Y-67042874D01*
X49157079Y-67043126D01*
X49423643Y-66932984D01*
X49627767Y-66729216D01*
X49738374Y-66462844D01*
X49738626Y-66174421D01*
X49692294Y-66062288D01*
X49746874Y-65930844D01*
X49747097Y-65675579D01*
X51852874Y-65675579D01*
X51898475Y-65785943D01*
X51853126Y-65895156D01*
X51852874Y-66183579D01*
X51898475Y-66293943D01*
X51853126Y-66403156D01*
X51852874Y-66691579D01*
X51963016Y-66958143D01*
X52166784Y-67162267D01*
X52433156Y-67272874D01*
X52721579Y-67273126D01*
X52988143Y-67162984D01*
X53192267Y-66959216D01*
X53302874Y-66692844D01*
X53303126Y-66404421D01*
X53257525Y-66294057D01*
X53302874Y-66184844D01*
X53303126Y-65896421D01*
X53257525Y-65786057D01*
X53302874Y-65676844D01*
X53303126Y-65388421D01*
X53192984Y-65121857D01*
X52989216Y-64917733D01*
X52722844Y-64807126D01*
X52434421Y-64806874D01*
X52167857Y-64917016D01*
X51963733Y-65120784D01*
X51853126Y-65387156D01*
X51852874Y-65675579D01*
X49747097Y-65675579D01*
X49747126Y-65642421D01*
X49701525Y-65532057D01*
X49746874Y-65422844D01*
X49747126Y-65134421D01*
X49636984Y-64867857D01*
X49433216Y-64663733D01*
X49166844Y-64553126D01*
X48878421Y-64552874D01*
X48768057Y-64598475D01*
X48658844Y-64553126D01*
X48370421Y-64552874D01*
X48103857Y-64663016D01*
X47899733Y-64866784D01*
X47789126Y-65133156D01*
X47788874Y-65421579D01*
X47834475Y-65531943D01*
X47789126Y-65641156D01*
X47788874Y-65929579D01*
X47835206Y-66041712D01*
X47780626Y-66173156D01*
X47780374Y-66461579D01*
X47706375Y-66461579D01*
X47706626Y-66174421D01*
X47660294Y-66062288D01*
X47714874Y-65930844D01*
X47715126Y-65642421D01*
X47669525Y-65532057D01*
X47714874Y-65422844D01*
X47715126Y-65134421D01*
X47604984Y-64867857D01*
X47401216Y-64663733D01*
X47134844Y-64553126D01*
X46846421Y-64552874D01*
X46579857Y-64663016D01*
X46375733Y-64866784D01*
X46355086Y-64916508D01*
X46334984Y-64867857D01*
X46131216Y-64663733D01*
X45864844Y-64553126D01*
X45576421Y-64552874D01*
X45309857Y-64663016D01*
X45105733Y-64866784D01*
X45021429Y-65069810D01*
X44937984Y-64867857D01*
X44734216Y-64663733D01*
X44467844Y-64553126D01*
X44179421Y-64552874D01*
X43912857Y-64663016D01*
X43708733Y-64866784D01*
X43598126Y-65133156D01*
X43597874Y-65421579D01*
X43643475Y-65531943D01*
X43598126Y-65641156D01*
X43597874Y-65929579D01*
X43644206Y-66041712D01*
X43589626Y-66173156D01*
X43589374Y-66461579D01*
X42046491Y-66461579D01*
X42193143Y-66400984D01*
X42397267Y-66197216D01*
X42507874Y-65930844D01*
X42508126Y-65642421D01*
X42462525Y-65532057D01*
X42507874Y-65422844D01*
X42508126Y-65134421D01*
X42397984Y-64867857D01*
X42194216Y-64663733D01*
X41927844Y-64553126D01*
X41639421Y-64552874D01*
X41372857Y-64663016D01*
X41168733Y-64866784D01*
X41148086Y-64916508D01*
X41127984Y-64867857D01*
X40924216Y-64663733D01*
X40657844Y-64553126D01*
X40369421Y-64552874D01*
X40102857Y-64663016D01*
X39898733Y-64866784D01*
X39878086Y-64916508D01*
X39857984Y-64867857D01*
X39654216Y-64663733D01*
X39387844Y-64553126D01*
X39099421Y-64552874D01*
X38832857Y-64663016D01*
X38628733Y-64866784D01*
X38518126Y-65133156D01*
X38517874Y-65421579D01*
X37300875Y-65421579D01*
X37301126Y-65134421D01*
X37190984Y-64867857D01*
X36987216Y-64663733D01*
X36720844Y-64553126D01*
X36432421Y-64552874D01*
X36165857Y-64663016D01*
X35961733Y-64866784D01*
X35851126Y-65133156D01*
X35850874Y-65421579D01*
X34633875Y-65421579D01*
X34634126Y-65134421D01*
X34523984Y-64867857D01*
X34320216Y-64663733D01*
X34053844Y-64553126D01*
X33765421Y-64552874D01*
X33498857Y-64663016D01*
X33294733Y-64866784D01*
X33274086Y-64916508D01*
X33253984Y-64867857D01*
X33050216Y-64663733D01*
X32783844Y-64553126D01*
X32495421Y-64552874D01*
X32228857Y-64663016D01*
X32024733Y-64866784D01*
X32004086Y-64916508D01*
X31983984Y-64867857D01*
X31780216Y-64663733D01*
X31513844Y-64553126D01*
X31225421Y-64552874D01*
X30958857Y-64663016D01*
X30754733Y-64866784D01*
X30670429Y-65069810D01*
X30586984Y-64867857D01*
X30383216Y-64663733D01*
X30116844Y-64553126D01*
X29828421Y-64552874D01*
X29561857Y-64663016D01*
X29357733Y-64866784D01*
X29247126Y-65133156D01*
X29246874Y-65421579D01*
X28918875Y-65421579D01*
X28919126Y-65134421D01*
X28873525Y-65024057D01*
X28918874Y-64914844D01*
X28919126Y-64626421D01*
X28808984Y-64359857D01*
X28734836Y-64285579D01*
X50085374Y-64285579D01*
X50195516Y-64552143D01*
X50399284Y-64756267D01*
X50665656Y-64866874D01*
X50954079Y-64867126D01*
X51220643Y-64756984D01*
X51424767Y-64553216D01*
X51498824Y-64374866D01*
X59875590Y-64374866D01*
X60059596Y-64820193D01*
X60400014Y-65161207D01*
X60845020Y-65345989D01*
X61326866Y-65346410D01*
X61772193Y-65162404D01*
X62113207Y-64821986D01*
X62297989Y-64376980D01*
X62298410Y-63895134D01*
X62114404Y-63449807D01*
X61773986Y-63108793D01*
X61328980Y-62924011D01*
X60847134Y-62923590D01*
X60401807Y-63107596D01*
X60060793Y-63448014D01*
X59876011Y-63893020D01*
X59875590Y-64374866D01*
X51498824Y-64374866D01*
X51535374Y-64286844D01*
X51535626Y-63998421D01*
X51425484Y-63731857D01*
X51221716Y-63527733D01*
X50955344Y-63417126D01*
X50666921Y-63416874D01*
X50400357Y-63527016D01*
X50196233Y-63730784D01*
X50085626Y-63997156D01*
X50085374Y-64285579D01*
X28734836Y-64285579D01*
X28605216Y-64155733D01*
X28338844Y-64045126D01*
X28050421Y-64044874D01*
X27940057Y-64090475D01*
X27830844Y-64045126D01*
X27542421Y-64044874D01*
X27275857Y-64155016D01*
X27071733Y-64358784D01*
X26961126Y-64625156D01*
X26960874Y-64913579D01*
X23426500Y-64913579D01*
X23426500Y-62283279D01*
X28692274Y-62283279D01*
X28802416Y-62549843D01*
X29006184Y-62753967D01*
X29272556Y-62864574D01*
X29560979Y-62864826D01*
X29827543Y-62754684D01*
X30031667Y-62550916D01*
X30142274Y-62284544D01*
X30142526Y-61996121D01*
X30032384Y-61729557D01*
X29828616Y-61525433D01*
X29562244Y-61414826D01*
X29273821Y-61414574D01*
X29007257Y-61524716D01*
X28803133Y-61728484D01*
X28692526Y-61994856D01*
X28692274Y-62283279D01*
X23426500Y-62283279D01*
X23426500Y-60987879D01*
X33238874Y-60987879D01*
X33349016Y-61254443D01*
X33552784Y-61458567D01*
X33819156Y-61569174D01*
X34107579Y-61569426D01*
X34374143Y-61459284D01*
X34578267Y-61255516D01*
X34688874Y-60989144D01*
X34688875Y-60987879D01*
X35842374Y-60987879D01*
X35952516Y-61254443D01*
X36156284Y-61458567D01*
X36422656Y-61569174D01*
X36711079Y-61569426D01*
X36977643Y-61459284D01*
X37181767Y-61255516D01*
X37292374Y-60989144D01*
X37292375Y-60987879D01*
X38445874Y-60987879D01*
X38556016Y-61254443D01*
X38759784Y-61458567D01*
X39026156Y-61569174D01*
X39314579Y-61569426D01*
X39581143Y-61459284D01*
X39785267Y-61255516D01*
X39895874Y-60989144D01*
X39895875Y-60987879D01*
X41036674Y-60987879D01*
X41146816Y-61254443D01*
X41350584Y-61458567D01*
X41616956Y-61569174D01*
X41905379Y-61569426D01*
X42171943Y-61459284D01*
X42376067Y-61255516D01*
X42380465Y-61244924D01*
X65436317Y-61244924D01*
X65510412Y-61429123D01*
X65933676Y-61602768D01*
X66391172Y-61601219D01*
X66806648Y-61429123D01*
X66880743Y-61244924D01*
X66158530Y-60522711D01*
X65436317Y-61244924D01*
X42380465Y-61244924D01*
X42486674Y-60989144D01*
X42486926Y-60700721D01*
X42376784Y-60434157D01*
X42173016Y-60230033D01*
X42166064Y-60227146D01*
X65007762Y-60227146D01*
X65009311Y-60684642D01*
X65181407Y-61100118D01*
X65365606Y-61174213D01*
X66087819Y-60452000D01*
X66229241Y-60452000D01*
X66951454Y-61174213D01*
X67135653Y-61100118D01*
X67309298Y-60676854D01*
X67307749Y-60219358D01*
X67135653Y-59803882D01*
X66951454Y-59729787D01*
X66229241Y-60452000D01*
X66087819Y-60452000D01*
X65365606Y-59729787D01*
X65181407Y-59803882D01*
X65007762Y-60227146D01*
X42166064Y-60227146D01*
X41906644Y-60119426D01*
X41618221Y-60119174D01*
X41351657Y-60229316D01*
X41147533Y-60433084D01*
X41036926Y-60699456D01*
X41036674Y-60987879D01*
X39895875Y-60987879D01*
X39896126Y-60700721D01*
X39785984Y-60434157D01*
X39582216Y-60230033D01*
X39315844Y-60119426D01*
X39027421Y-60119174D01*
X38760857Y-60229316D01*
X38556733Y-60433084D01*
X38446126Y-60699456D01*
X38445874Y-60987879D01*
X37292375Y-60987879D01*
X37292626Y-60700721D01*
X37182484Y-60434157D01*
X36978716Y-60230033D01*
X36712344Y-60119426D01*
X36423921Y-60119174D01*
X36157357Y-60229316D01*
X35953233Y-60433084D01*
X35842626Y-60699456D01*
X35842374Y-60987879D01*
X34688875Y-60987879D01*
X34689126Y-60700721D01*
X34578984Y-60434157D01*
X34375216Y-60230033D01*
X34108844Y-60119426D01*
X33820421Y-60119174D01*
X33553857Y-60229316D01*
X33349733Y-60433084D01*
X33239126Y-60699456D01*
X33238874Y-60987879D01*
X23426500Y-60987879D01*
X23426500Y-59659076D01*
X65436317Y-59659076D01*
X66158530Y-60381289D01*
X66880743Y-59659076D01*
X66806648Y-59474877D01*
X66383384Y-59301232D01*
X65925888Y-59302781D01*
X65510412Y-59474877D01*
X65436317Y-59659076D01*
X23426500Y-59659076D01*
X23426500Y-52650579D01*
X41700374Y-52650579D01*
X41748461Y-52766957D01*
X41700626Y-52882156D01*
X41700374Y-53170579D01*
X41748461Y-53286957D01*
X41700626Y-53402156D01*
X41700374Y-53690579D01*
X41810516Y-53957143D01*
X42014284Y-54161267D01*
X42280656Y-54271874D01*
X42569079Y-54272126D01*
X42835643Y-54161984D01*
X43039767Y-53958216D01*
X43150374Y-53691844D01*
X43150626Y-53403421D01*
X43102539Y-53287043D01*
X43150374Y-53171844D01*
X43150626Y-52883421D01*
X43102539Y-52767043D01*
X43150374Y-52651844D01*
X43150626Y-52363421D01*
X43040484Y-52096857D01*
X42836716Y-51892733D01*
X42570344Y-51782126D01*
X42281921Y-51781874D01*
X42015357Y-51892016D01*
X41811233Y-52095784D01*
X41700626Y-52362156D01*
X41700374Y-52650579D01*
X23426500Y-52650579D01*
X23426500Y-49660579D01*
X41694874Y-49660579D01*
X41742961Y-49776957D01*
X41695126Y-49892156D01*
X41694874Y-50180579D01*
X41745704Y-50303596D01*
X41700626Y-50412156D01*
X41700374Y-50700579D01*
X41810516Y-50967143D01*
X42014284Y-51171267D01*
X42280656Y-51281874D01*
X42569079Y-51282126D01*
X42835643Y-51171984D01*
X43039767Y-50968216D01*
X43150374Y-50701844D01*
X43150626Y-50413421D01*
X43099796Y-50290404D01*
X43144874Y-50181844D01*
X43145126Y-49893421D01*
X43097039Y-49777043D01*
X43144874Y-49661844D01*
X43145126Y-49373421D01*
X43034984Y-49106857D01*
X42831216Y-48902733D01*
X42787978Y-48884779D01*
X48862177Y-48884779D01*
X48972319Y-49151343D01*
X49176087Y-49355467D01*
X49442459Y-49466074D01*
X49730882Y-49466326D01*
X49997446Y-49356184D01*
X50201570Y-49152416D01*
X50312177Y-48886044D01*
X50312429Y-48597621D01*
X50202287Y-48331057D01*
X49998519Y-48126933D01*
X49732147Y-48016326D01*
X49443724Y-48016074D01*
X49177160Y-48126216D01*
X48973036Y-48329984D01*
X48862429Y-48596356D01*
X48862177Y-48884779D01*
X42787978Y-48884779D01*
X42564844Y-48792126D01*
X42276421Y-48791874D01*
X42009857Y-48902016D01*
X41805733Y-49105784D01*
X41695126Y-49372156D01*
X41694874Y-49660579D01*
X23426500Y-49660579D01*
X23426500Y-48885210D01*
X33251796Y-48885210D01*
X33361938Y-49151774D01*
X33565706Y-49355898D01*
X33832078Y-49466505D01*
X34120501Y-49466757D01*
X34387065Y-49356615D01*
X34591189Y-49152847D01*
X34701796Y-48886475D01*
X34701797Y-48885210D01*
X35843710Y-48885210D01*
X35953852Y-49151774D01*
X36157620Y-49355898D01*
X36423992Y-49466505D01*
X36712415Y-49466757D01*
X36978979Y-49356615D01*
X37183103Y-49152847D01*
X37293710Y-48886475D01*
X37293711Y-48884779D01*
X38458574Y-48884779D01*
X38568716Y-49151343D01*
X38772484Y-49355467D01*
X39038856Y-49466074D01*
X39327279Y-49466326D01*
X39593843Y-49356184D01*
X39797967Y-49152416D01*
X39908574Y-48886044D01*
X39908826Y-48597621D01*
X39798684Y-48331057D01*
X39594916Y-48126933D01*
X39328544Y-48016326D01*
X39040121Y-48016074D01*
X38773557Y-48126216D01*
X38569433Y-48329984D01*
X38458826Y-48596356D01*
X38458574Y-48884779D01*
X37293711Y-48884779D01*
X37293962Y-48598052D01*
X37183820Y-48331488D01*
X36980052Y-48127364D01*
X36713680Y-48016757D01*
X36425257Y-48016505D01*
X36158693Y-48126647D01*
X35954569Y-48330415D01*
X35843962Y-48596787D01*
X35843710Y-48885210D01*
X34701797Y-48885210D01*
X34702048Y-48598052D01*
X34591906Y-48331488D01*
X34388138Y-48127364D01*
X34121766Y-48016757D01*
X33833343Y-48016505D01*
X33566779Y-48126647D01*
X33362655Y-48330415D01*
X33252048Y-48596787D01*
X33251796Y-48885210D01*
X23426500Y-48885210D01*
X23426500Y-48060924D01*
X24677787Y-48060924D01*
X24751882Y-48245123D01*
X25175146Y-48418768D01*
X25632642Y-48417219D01*
X26048118Y-48245123D01*
X26122213Y-48060924D01*
X25400000Y-47338711D01*
X24677787Y-48060924D01*
X23426500Y-48060924D01*
X23426500Y-47043146D01*
X24249232Y-47043146D01*
X24250781Y-47500642D01*
X24422877Y-47916118D01*
X24607076Y-47990213D01*
X25329289Y-47268000D01*
X25470711Y-47268000D01*
X26192924Y-47990213D01*
X26377123Y-47916118D01*
X26427805Y-47792579D01*
X27460374Y-47792579D01*
X27570516Y-48059143D01*
X27774284Y-48263267D01*
X28040656Y-48373874D01*
X28329079Y-48374126D01*
X28595643Y-48263984D01*
X28799767Y-48060216D01*
X28910374Y-47793844D01*
X28910626Y-47505421D01*
X28800484Y-47238857D01*
X28596716Y-47034733D01*
X28330344Y-46924126D01*
X28041921Y-46923874D01*
X27775357Y-47034016D01*
X27571233Y-47237784D01*
X27460626Y-47504156D01*
X27460374Y-47792579D01*
X26427805Y-47792579D01*
X26550768Y-47492854D01*
X26549219Y-47035358D01*
X26442030Y-46776579D01*
X50066374Y-46776579D01*
X50176516Y-47043143D01*
X50380284Y-47247267D01*
X50646656Y-47357874D01*
X50935079Y-47358126D01*
X51078358Y-47298924D01*
X52609287Y-47298924D01*
X52683382Y-47483123D01*
X53106646Y-47656768D01*
X53564142Y-47655219D01*
X53979618Y-47483123D01*
X54053713Y-47298924D01*
X53331500Y-46576711D01*
X52609287Y-47298924D01*
X51078358Y-47298924D01*
X51201643Y-47247984D01*
X51405767Y-47044216D01*
X51516374Y-46777844D01*
X51516626Y-46489421D01*
X51430569Y-46281146D01*
X52180732Y-46281146D01*
X52182281Y-46738642D01*
X52354377Y-47154118D01*
X52538576Y-47228213D01*
X53260789Y-46506000D01*
X53402211Y-46506000D01*
X54124424Y-47228213D01*
X54308623Y-47154118D01*
X54482268Y-46730854D01*
X54480719Y-46273358D01*
X54308623Y-45857882D01*
X54124424Y-45783787D01*
X53402211Y-46506000D01*
X53260789Y-46506000D01*
X52538576Y-45783787D01*
X52354377Y-45857882D01*
X52180732Y-46281146D01*
X51430569Y-46281146D01*
X51406484Y-46222857D01*
X51202716Y-46018733D01*
X50936344Y-45908126D01*
X50647921Y-45907874D01*
X50381357Y-46018016D01*
X50177233Y-46221784D01*
X50066626Y-46488156D01*
X50066374Y-46776579D01*
X26442030Y-46776579D01*
X26377123Y-46619882D01*
X26192924Y-46545787D01*
X25470711Y-47268000D01*
X25329289Y-47268000D01*
X24607076Y-46545787D01*
X24422877Y-46619882D01*
X24249232Y-47043146D01*
X23426500Y-47043146D01*
X23426500Y-46475076D01*
X24677787Y-46475076D01*
X25400000Y-47197289D01*
X26122213Y-46475076D01*
X26048118Y-46290877D01*
X25624854Y-46117232D01*
X25167358Y-46118781D01*
X24751882Y-46290877D01*
X24677787Y-46475076D01*
X23426500Y-46475076D01*
X23426500Y-45531860D01*
X28679491Y-45531860D01*
X28789633Y-45798424D01*
X28993401Y-46002548D01*
X29259773Y-46113155D01*
X29548196Y-46113407D01*
X29814760Y-46003265D01*
X30018884Y-45799497D01*
X30129491Y-45533125D01*
X30129514Y-45506579D01*
X33251574Y-45506579D01*
X33361716Y-45773143D01*
X33565484Y-45977267D01*
X33831856Y-46087874D01*
X34120279Y-46088126D01*
X34386843Y-45977984D01*
X34590967Y-45774216D01*
X34691552Y-45531979D01*
X35842374Y-45531979D01*
X35952516Y-45798543D01*
X36156284Y-46002667D01*
X36422656Y-46113274D01*
X36711079Y-46113526D01*
X36977643Y-46003384D01*
X37181767Y-45799616D01*
X37292374Y-45533244D01*
X37292397Y-45506579D01*
X38458574Y-45506579D01*
X38568716Y-45773143D01*
X38772484Y-45977267D01*
X39038856Y-46087874D01*
X39327279Y-46088126D01*
X39593843Y-45977984D01*
X39797967Y-45774216D01*
X39823354Y-45713076D01*
X52609287Y-45713076D01*
X53331500Y-46435289D01*
X54053713Y-45713076D01*
X53979618Y-45528877D01*
X53556354Y-45355232D01*
X53098858Y-45356781D01*
X52683382Y-45528877D01*
X52609287Y-45713076D01*
X39823354Y-45713076D01*
X39908574Y-45507844D01*
X39908826Y-45219421D01*
X39798684Y-44952857D01*
X39594916Y-44748733D01*
X39328544Y-44638126D01*
X39040121Y-44637874D01*
X38773557Y-44748016D01*
X38569433Y-44951784D01*
X38458826Y-45218156D01*
X38458574Y-45506579D01*
X37292397Y-45506579D01*
X37292626Y-45244821D01*
X37182484Y-44978257D01*
X36978716Y-44774133D01*
X36712344Y-44663526D01*
X36423921Y-44663274D01*
X36157357Y-44773416D01*
X35953233Y-44977184D01*
X35842626Y-45243556D01*
X35842374Y-45531979D01*
X34691552Y-45531979D01*
X34701574Y-45507844D01*
X34701826Y-45219421D01*
X34591684Y-44952857D01*
X34387916Y-44748733D01*
X34121544Y-44638126D01*
X33833121Y-44637874D01*
X33566557Y-44748016D01*
X33362433Y-44951784D01*
X33251826Y-45218156D01*
X33251574Y-45506579D01*
X30129514Y-45506579D01*
X30129743Y-45244702D01*
X30019601Y-44978138D01*
X29815833Y-44774014D01*
X29549461Y-44663407D01*
X29261038Y-44663155D01*
X28994474Y-44773297D01*
X28790350Y-44977065D01*
X28679743Y-45243437D01*
X28679491Y-45531860D01*
X23426500Y-45531860D01*
X23426500Y-44490579D01*
X41694874Y-44490579D01*
X41805016Y-44757143D01*
X42008784Y-44961267D01*
X42275156Y-45071874D01*
X42563579Y-45072126D01*
X42830143Y-44961984D01*
X43034267Y-44758216D01*
X43144874Y-44491844D01*
X43145126Y-44203421D01*
X43102518Y-44100301D01*
X43150875Y-43983844D01*
X43151127Y-43695421D01*
X43105526Y-43585057D01*
X43150875Y-43475844D01*
X43151127Y-43187421D01*
X43040985Y-42920857D01*
X42837217Y-42716733D01*
X42570845Y-42606126D01*
X42282422Y-42605874D01*
X42015858Y-42716016D01*
X41811734Y-42919784D01*
X41701127Y-43186156D01*
X41700875Y-43474579D01*
X41746476Y-43584943D01*
X41701127Y-43694156D01*
X41700875Y-43982579D01*
X41743483Y-44085699D01*
X41695126Y-44202156D01*
X41694874Y-44490579D01*
X23426500Y-44490579D01*
X23426500Y-31409579D01*
X33251574Y-31409579D01*
X33361716Y-31676143D01*
X33565484Y-31880267D01*
X33831856Y-31990874D01*
X34120279Y-31991126D01*
X34386843Y-31880984D01*
X34590967Y-31677216D01*
X34701574Y-31410844D01*
X34701575Y-31409579D01*
X35842374Y-31409579D01*
X35952516Y-31676143D01*
X36156284Y-31880267D01*
X36422656Y-31990874D01*
X36711079Y-31991126D01*
X36977643Y-31880984D01*
X37181767Y-31677216D01*
X37292374Y-31410844D01*
X37292375Y-31409579D01*
X38433174Y-31409579D01*
X38543316Y-31676143D01*
X38747084Y-31880267D01*
X39013456Y-31990874D01*
X39301879Y-31991126D01*
X39568443Y-31880984D01*
X39772567Y-31677216D01*
X39883174Y-31410844D01*
X39883197Y-31384179D01*
X48847174Y-31384179D01*
X48957316Y-31650743D01*
X49161084Y-31854867D01*
X49427456Y-31965474D01*
X49715879Y-31965726D01*
X49982443Y-31855584D01*
X50186567Y-31651816D01*
X50297174Y-31385444D01*
X50297426Y-31097021D01*
X50187284Y-30830457D01*
X49983516Y-30626333D01*
X49717144Y-30515726D01*
X49428721Y-30515474D01*
X49162157Y-30625616D01*
X48958033Y-30829384D01*
X48847426Y-31095756D01*
X48847174Y-31384179D01*
X39883197Y-31384179D01*
X39883426Y-31122421D01*
X39773284Y-30855857D01*
X39569516Y-30651733D01*
X39303144Y-30541126D01*
X39014721Y-30540874D01*
X38748157Y-30651016D01*
X38544033Y-30854784D01*
X38433426Y-31121156D01*
X38433174Y-31409579D01*
X37292375Y-31409579D01*
X37292626Y-31122421D01*
X37182484Y-30855857D01*
X36978716Y-30651733D01*
X36712344Y-30541126D01*
X36423921Y-30540874D01*
X36157357Y-30651016D01*
X35953233Y-30854784D01*
X35842626Y-31121156D01*
X35842374Y-31409579D01*
X34701575Y-31409579D01*
X34701826Y-31122421D01*
X34591684Y-30855857D01*
X34387916Y-30651733D01*
X34121544Y-30541126D01*
X33833121Y-30540874D01*
X33566557Y-30651016D01*
X33362433Y-30854784D01*
X33251826Y-31121156D01*
X33251574Y-31409579D01*
X23426500Y-31409579D01*
X23426500Y-30266579D01*
X27460374Y-30266579D01*
X27570516Y-30533143D01*
X27774284Y-30737267D01*
X28040656Y-30847874D01*
X28329079Y-30848126D01*
X28595643Y-30737984D01*
X28799767Y-30534216D01*
X28910374Y-30267844D01*
X28910626Y-29979421D01*
X28800484Y-29712857D01*
X28596716Y-29508733D01*
X28447941Y-29446956D01*
X30001880Y-29446956D01*
X30112022Y-29713520D01*
X30315790Y-29917644D01*
X30582162Y-30028251D01*
X30870585Y-30028503D01*
X31137149Y-29918361D01*
X31341273Y-29714593D01*
X31376014Y-29630927D01*
X31409447Y-29711841D01*
X31613215Y-29915965D01*
X31879587Y-30026572D01*
X32168010Y-30026824D01*
X32434574Y-29916682D01*
X32638698Y-29712914D01*
X32674657Y-29626314D01*
X32710235Y-29712418D01*
X32914003Y-29916542D01*
X33180375Y-30027149D01*
X33468798Y-30027401D01*
X33735362Y-29917259D01*
X33939486Y-29713491D01*
X33975368Y-29627078D01*
X34010516Y-29712143D01*
X34214284Y-29916267D01*
X34480656Y-30026874D01*
X34769079Y-30027126D01*
X35035643Y-29916984D01*
X35239767Y-29713216D01*
X35275451Y-29627279D01*
X35310516Y-29712143D01*
X35514284Y-29916267D01*
X35780656Y-30026874D01*
X36069079Y-30027126D01*
X36335643Y-29916984D01*
X36539767Y-29713216D01*
X36575451Y-29627279D01*
X36610516Y-29712143D01*
X36814284Y-29916267D01*
X37080656Y-30026874D01*
X37369079Y-30027126D01*
X37635643Y-29916984D01*
X37839767Y-29713216D01*
X37875451Y-29627279D01*
X37910516Y-29712143D01*
X38114284Y-29916267D01*
X38380656Y-30026874D01*
X38669079Y-30027126D01*
X38935643Y-29916984D01*
X39139767Y-29713216D01*
X39175451Y-29627279D01*
X39210516Y-29712143D01*
X39414284Y-29916267D01*
X39680656Y-30026874D01*
X39969079Y-30027126D01*
X40235643Y-29916984D01*
X40439767Y-29713216D01*
X40475451Y-29627279D01*
X40510516Y-29712143D01*
X40714284Y-29916267D01*
X40980656Y-30026874D01*
X41269079Y-30027126D01*
X41535643Y-29916984D01*
X41739767Y-29713216D01*
X41795905Y-29578019D01*
X41918079Y-29578126D01*
X42184643Y-29467984D01*
X42207087Y-29445579D01*
X43000374Y-29445579D01*
X43110516Y-29712143D01*
X43314284Y-29916267D01*
X43580656Y-30026874D01*
X43869079Y-30027126D01*
X44135643Y-29916984D01*
X44339767Y-29713216D01*
X44375451Y-29627279D01*
X44410516Y-29712143D01*
X44614284Y-29916267D01*
X44880656Y-30026874D01*
X45169079Y-30027126D01*
X45435643Y-29916984D01*
X45639767Y-29713216D01*
X45675451Y-29627279D01*
X45710516Y-29712143D01*
X45914284Y-29916267D01*
X46180656Y-30026874D01*
X46469079Y-30027126D01*
X46735643Y-29916984D01*
X46939767Y-29713216D01*
X46975451Y-29627279D01*
X47010516Y-29712143D01*
X47214284Y-29916267D01*
X47480656Y-30026874D01*
X47769079Y-30027126D01*
X48035643Y-29916984D01*
X48239767Y-29713216D01*
X48350374Y-29446844D01*
X48350626Y-29158421D01*
X48240484Y-28891857D01*
X48036716Y-28687733D01*
X47770344Y-28577126D01*
X47481921Y-28576874D01*
X47215357Y-28687016D01*
X47011233Y-28890784D01*
X46975549Y-28976721D01*
X46940484Y-28891857D01*
X46736716Y-28687733D01*
X46470344Y-28577126D01*
X46181921Y-28576874D01*
X45915357Y-28687016D01*
X45711233Y-28890784D01*
X45675549Y-28976721D01*
X45640484Y-28891857D01*
X45436716Y-28687733D01*
X45170344Y-28577126D01*
X44881921Y-28576874D01*
X44615357Y-28687016D01*
X44411233Y-28890784D01*
X44375549Y-28976721D01*
X44340484Y-28891857D01*
X44136716Y-28687733D01*
X43870344Y-28577126D01*
X43581921Y-28576874D01*
X43315357Y-28687016D01*
X43111233Y-28890784D01*
X43000626Y-29157156D01*
X43000374Y-29445579D01*
X42207087Y-29445579D01*
X42388767Y-29264216D01*
X42499374Y-28997844D01*
X42499626Y-28709421D01*
X42389484Y-28442857D01*
X42185716Y-28238733D01*
X42152461Y-28224924D01*
X52617787Y-28224924D01*
X52691882Y-28409123D01*
X53115146Y-28582768D01*
X53572642Y-28581219D01*
X53988118Y-28409123D01*
X54062213Y-28224924D01*
X53340000Y-27502711D01*
X52617787Y-28224924D01*
X42152461Y-28224924D01*
X41919344Y-28128126D01*
X41630921Y-28127874D01*
X41364357Y-28238016D01*
X41160233Y-28441784D01*
X41104095Y-28576981D01*
X40981921Y-28576874D01*
X40715357Y-28687016D01*
X40511233Y-28890784D01*
X40475549Y-28976721D01*
X40440484Y-28891857D01*
X40236716Y-28687733D01*
X39970344Y-28577126D01*
X39681921Y-28576874D01*
X39415357Y-28687016D01*
X39211233Y-28890784D01*
X39175549Y-28976721D01*
X39140484Y-28891857D01*
X38936716Y-28687733D01*
X38670344Y-28577126D01*
X38381921Y-28576874D01*
X38115357Y-28687016D01*
X37911233Y-28890784D01*
X37875549Y-28976721D01*
X37840484Y-28891857D01*
X37636716Y-28687733D01*
X37370344Y-28577126D01*
X37081921Y-28576874D01*
X36815357Y-28687016D01*
X36611233Y-28890784D01*
X36575549Y-28976721D01*
X36540484Y-28891857D01*
X36336716Y-28687733D01*
X36070344Y-28577126D01*
X35781921Y-28576874D01*
X35515357Y-28687016D01*
X35311233Y-28890784D01*
X35275549Y-28976721D01*
X35240484Y-28891857D01*
X35036716Y-28687733D01*
X34770344Y-28577126D01*
X34481921Y-28576874D01*
X34215357Y-28687016D01*
X34011233Y-28890784D01*
X33975351Y-28977197D01*
X33940203Y-28892132D01*
X33736435Y-28688008D01*
X33470063Y-28577401D01*
X33181640Y-28577149D01*
X32915076Y-28687291D01*
X32710952Y-28891059D01*
X32674993Y-28977659D01*
X32639415Y-28891555D01*
X32435647Y-28687431D01*
X32169275Y-28576824D01*
X31880852Y-28576572D01*
X31614288Y-28686714D01*
X31410164Y-28890482D01*
X31375423Y-28974148D01*
X31341990Y-28893234D01*
X31138222Y-28689110D01*
X30871850Y-28578503D01*
X30583427Y-28578251D01*
X30316863Y-28688393D01*
X30112739Y-28892161D01*
X30002132Y-29158533D01*
X30001880Y-29446956D01*
X28447941Y-29446956D01*
X28330344Y-29398126D01*
X28041921Y-29397874D01*
X27775357Y-29508016D01*
X27571233Y-29711784D01*
X27460626Y-29978156D01*
X27460374Y-30266579D01*
X23426500Y-30266579D01*
X23426500Y-28224924D01*
X24677787Y-28224924D01*
X24751882Y-28409123D01*
X25175146Y-28582768D01*
X25632642Y-28581219D01*
X26048118Y-28409123D01*
X26122213Y-28224924D01*
X25400000Y-27502711D01*
X24677787Y-28224924D01*
X23426500Y-28224924D01*
X23426500Y-27512635D01*
X23487265Y-27207146D01*
X24249232Y-27207146D01*
X24250781Y-27664642D01*
X24422877Y-28080118D01*
X24607076Y-28154213D01*
X25329289Y-27432000D01*
X25470711Y-27432000D01*
X26192924Y-28154213D01*
X26377123Y-28080118D01*
X26550768Y-27656854D01*
X26549246Y-27207146D01*
X52189232Y-27207146D01*
X52190781Y-27664642D01*
X52362877Y-28080118D01*
X52547076Y-28154213D01*
X53269289Y-27432000D01*
X53410711Y-27432000D01*
X54132924Y-28154213D01*
X54317123Y-28080118D01*
X54490768Y-27656854D01*
X54489219Y-27199358D01*
X54317123Y-26783882D01*
X54132924Y-26709787D01*
X53410711Y-27432000D01*
X53269289Y-27432000D01*
X52547076Y-26709787D01*
X52362877Y-26783882D01*
X52189232Y-27207146D01*
X26549246Y-27207146D01*
X26549219Y-27199358D01*
X26377123Y-26783882D01*
X26192924Y-26709787D01*
X25470711Y-27432000D01*
X25329289Y-27432000D01*
X24607076Y-26709787D01*
X24422877Y-26783882D01*
X24249232Y-27207146D01*
X23487265Y-27207146D01*
X23586485Y-26708337D01*
X23632763Y-26639076D01*
X24677787Y-26639076D01*
X25400000Y-27361289D01*
X26122213Y-26639076D01*
X52617787Y-26639076D01*
X53340000Y-27361289D01*
X54062213Y-26639076D01*
X53988118Y-26454877D01*
X53564854Y-26281232D01*
X53107358Y-26282781D01*
X52691882Y-26454877D01*
X52617787Y-26639076D01*
X26122213Y-26639076D01*
X26048118Y-26454877D01*
X25624854Y-26281232D01*
X25167358Y-26282781D01*
X24751882Y-26454877D01*
X24677787Y-26639076D01*
X23632763Y-26639076D01*
X24010001Y-26074501D01*
X24643837Y-25650985D01*
X25448135Y-25491000D01*
X53274865Y-25491000D01*
X54079163Y-25650985D01*
X54079163Y-25650985D01*
G37*
X54079163Y-25650985D02*
X54712999Y-26074501D01*
X55136515Y-26708337D01*
X55296500Y-27512635D01*
X55296500Y-55523000D01*
X55307548Y-55578542D01*
X55307548Y-55635177D01*
X55500894Y-56607193D01*
X55586751Y-56814469D01*
X56137354Y-57638504D01*
X56295996Y-57797147D01*
X56296000Y-57797149D01*
X57120031Y-58347749D01*
X57327307Y-58433606D01*
X58299323Y-58626952D01*
X58355958Y-58626952D01*
X58411500Y-58638000D01*
X66101865Y-58638000D01*
X66906163Y-58797985D01*
X67539999Y-59221501D01*
X67963515Y-59855337D01*
X68123500Y-60659635D01*
X68123500Y-71976365D01*
X67963515Y-72780663D01*
X67539999Y-73414499D01*
X66906163Y-73838015D01*
X66101865Y-73998000D01*
X25448135Y-73998000D01*
X24643837Y-73838015D01*
X24010001Y-73414499D01*
X23586485Y-72780663D01*
X23565453Y-72674924D01*
X24677787Y-72674924D01*
X24751882Y-72859123D01*
X25175146Y-73032768D01*
X25632642Y-73031219D01*
X26048118Y-72859123D01*
X26122213Y-72674924D01*
X65436287Y-72674924D01*
X65510382Y-72859123D01*
X65933646Y-73032768D01*
X66391142Y-73031219D01*
X66806618Y-72859123D01*
X66880713Y-72674924D01*
X66158500Y-71952711D01*
X65436287Y-72674924D01*
X26122213Y-72674924D01*
X25400000Y-71952711D01*
X24677787Y-72674924D01*
X23565453Y-72674924D01*
X23426500Y-71976365D01*
X23426500Y-71657146D01*
X24249232Y-71657146D01*
X24250781Y-72114642D01*
X24422877Y-72530118D01*
X24607076Y-72604213D01*
X25329289Y-71882000D01*
X25470711Y-71882000D01*
X26192924Y-72604213D01*
X26377123Y-72530118D01*
X26550768Y-72106854D01*
X26549219Y-71649358D01*
X26377123Y-71233882D01*
X26192924Y-71159787D01*
X25470711Y-71882000D01*
X25329289Y-71882000D01*
X24607076Y-71159787D01*
X24422877Y-71233882D01*
X24249232Y-71657146D01*
X23426500Y-71657146D01*
X23426500Y-71089076D01*
X24677787Y-71089076D01*
X25400000Y-71811289D01*
X26122213Y-71089076D01*
X26048118Y-70904877D01*
X25624854Y-70731232D01*
X25167358Y-70732781D01*
X24751882Y-70904877D01*
X24677787Y-71089076D01*
X23426500Y-71089076D01*
X23426500Y-69428489D01*
X28654831Y-69428489D01*
X28802954Y-69786971D01*
X28884254Y-69868413D01*
X28803918Y-69948609D01*
X28655170Y-70306833D01*
X28654831Y-70694712D01*
X28802954Y-71053194D01*
X29076986Y-71327705D01*
X29435210Y-71476453D01*
X29823089Y-71476792D01*
X30181571Y-71328669D01*
X30384250Y-71126343D01*
X30416887Y-71251636D01*
X30740680Y-71379425D01*
X31088728Y-71373575D01*
X31383113Y-71251636D01*
X31423656Y-71095990D01*
X30900000Y-70572334D01*
X30885858Y-70586476D01*
X30815147Y-70515765D01*
X30829289Y-70501623D01*
X30815147Y-70487481D01*
X30885858Y-70416770D01*
X30900000Y-70430912D01*
X30914142Y-70416770D01*
X30984853Y-70487481D01*
X30970711Y-70501623D01*
X31397066Y-70927978D01*
X31420576Y-70984736D01*
X31465535Y-70996447D01*
X31494367Y-71025279D01*
X31535295Y-71014618D01*
X31576222Y-71025279D01*
X31605054Y-70996447D01*
X31650013Y-70984736D01*
X31671690Y-70929811D01*
X32099878Y-70501623D01*
X32085736Y-70487481D01*
X32156447Y-70416770D01*
X32170589Y-70430912D01*
X32184731Y-70416770D01*
X32255442Y-70487481D01*
X32241300Y-70501623D01*
X32255442Y-70515765D01*
X32184731Y-70586476D01*
X32170589Y-70572334D01*
X31646933Y-71095990D01*
X31687476Y-71251636D01*
X32011269Y-71379425D01*
X32359317Y-71373575D01*
X32653702Y-71251636D01*
X32686385Y-71126164D01*
X32887575Y-71327705D01*
X33245799Y-71476453D01*
X33633678Y-71476792D01*
X33992160Y-71328669D01*
X34075199Y-71245775D01*
X34156986Y-71327705D01*
X34515210Y-71476453D01*
X34903089Y-71476792D01*
X35261571Y-71328669D01*
X35464250Y-71126343D01*
X35496887Y-71251636D01*
X35820680Y-71379425D01*
X36168728Y-71373575D01*
X36463113Y-71251636D01*
X36503656Y-71095990D01*
X35980000Y-70572334D01*
X35965858Y-70586476D01*
X35895147Y-70515765D01*
X35909289Y-70501623D01*
X35895147Y-70487481D01*
X35965858Y-70416770D01*
X35980000Y-70430912D01*
X35994142Y-70416770D01*
X36064853Y-70487481D01*
X36050711Y-70501623D01*
X36477066Y-70927978D01*
X36500576Y-70984736D01*
X36545535Y-70996447D01*
X36574367Y-71025279D01*
X36615295Y-71014618D01*
X36656222Y-71025279D01*
X36685054Y-70996447D01*
X36730013Y-70984736D01*
X36751690Y-70929811D01*
X37179878Y-70501623D01*
X37165736Y-70487481D01*
X37236447Y-70416770D01*
X37250589Y-70430912D01*
X37264731Y-70416770D01*
X37335442Y-70487481D01*
X37321300Y-70501623D01*
X37335442Y-70515765D01*
X37264731Y-70586476D01*
X37250589Y-70572334D01*
X36726933Y-71095990D01*
X36767476Y-71251636D01*
X37091269Y-71379425D01*
X37439317Y-71373575D01*
X37733702Y-71251636D01*
X37765605Y-71129159D01*
X37967575Y-71331482D01*
X38325799Y-71480230D01*
X38713678Y-71480569D01*
X39072160Y-71332446D01*
X39274372Y-71130587D01*
X39306887Y-71255413D01*
X39630680Y-71383202D01*
X39978728Y-71377352D01*
X40273113Y-71255413D01*
X40313656Y-71099767D01*
X39790000Y-70576111D01*
X39775858Y-70590253D01*
X39705147Y-70519542D01*
X39719289Y-70505400D01*
X39705147Y-70491258D01*
X39775858Y-70420547D01*
X39790000Y-70434689D01*
X39804142Y-70420547D01*
X39874853Y-70491258D01*
X39860711Y-70505400D01*
X40286060Y-70930749D01*
X40309987Y-70988513D01*
X40355742Y-71000431D01*
X40384367Y-71029056D01*
X40425000Y-71018472D01*
X40465633Y-71029056D01*
X40494258Y-71000431D01*
X40540013Y-70988513D01*
X40562074Y-70932615D01*
X40989289Y-70505400D01*
X40975147Y-70491258D01*
X41045858Y-70420547D01*
X41060000Y-70434689D01*
X41074142Y-70420547D01*
X41144853Y-70491258D01*
X41130711Y-70505400D01*
X41144853Y-70519542D01*
X41074142Y-70590253D01*
X41060000Y-70576111D01*
X40536344Y-71099767D01*
X40576887Y-71255413D01*
X40900680Y-71383202D01*
X41248728Y-71377352D01*
X41543113Y-71255413D01*
X41576577Y-71126945D01*
X41776986Y-71327705D01*
X42135210Y-71476453D01*
X42523089Y-71476792D01*
X42881571Y-71328669D01*
X42963016Y-71247366D01*
X43046986Y-71331482D01*
X43405210Y-71480230D01*
X43793089Y-71480569D01*
X44151571Y-71332446D01*
X44234905Y-71249257D01*
X44316986Y-71331482D01*
X44675210Y-71480230D01*
X45063089Y-71480569D01*
X45421571Y-71332446D01*
X45505200Y-71248963D01*
X45587575Y-71331482D01*
X45945799Y-71480230D01*
X46333678Y-71480569D01*
X46692160Y-71332446D01*
X46775199Y-71249552D01*
X46856986Y-71331482D01*
X47215210Y-71480230D01*
X47603089Y-71480569D01*
X47878304Y-71366851D01*
X47903216Y-71427143D01*
X48106984Y-71631267D01*
X48373356Y-71741874D01*
X48661779Y-71742126D01*
X48765777Y-71699155D01*
X48868656Y-71741874D01*
X49157079Y-71742126D01*
X49362746Y-71657146D01*
X65007732Y-71657146D01*
X65009281Y-72114642D01*
X65181377Y-72530118D01*
X65365576Y-72604213D01*
X66087789Y-71882000D01*
X66229211Y-71882000D01*
X66951424Y-72604213D01*
X67135623Y-72530118D01*
X67309268Y-72106854D01*
X67307719Y-71649358D01*
X67135623Y-71233882D01*
X66951424Y-71159787D01*
X66229211Y-71882000D01*
X66087789Y-71882000D01*
X65365576Y-71159787D01*
X65181377Y-71233882D01*
X65007732Y-71657146D01*
X49362746Y-71657146D01*
X49423643Y-71631984D01*
X49627767Y-71428216D01*
X49738374Y-71161844D01*
X49738437Y-71089076D01*
X65436287Y-71089076D01*
X66158500Y-71811289D01*
X66880713Y-71089076D01*
X66806618Y-70904877D01*
X66383354Y-70731232D01*
X65925858Y-70732781D01*
X65510382Y-70904877D01*
X65436287Y-71089076D01*
X49738437Y-71089076D01*
X49738626Y-70873421D01*
X49693025Y-70763057D01*
X49738374Y-70653844D01*
X49738626Y-70365421D01*
X49693025Y-70255057D01*
X49738374Y-70145844D01*
X49738626Y-69857421D01*
X49628484Y-69590857D01*
X49492731Y-69454866D01*
X59875590Y-69454866D01*
X60059596Y-69900193D01*
X60400014Y-70241207D01*
X60845020Y-70425989D01*
X61326866Y-70426410D01*
X61772193Y-70242404D01*
X62113207Y-69901986D01*
X62297989Y-69456980D01*
X62298410Y-68975134D01*
X62114404Y-68529807D01*
X61773986Y-68188793D01*
X61328980Y-68004011D01*
X60847134Y-68003590D01*
X60401807Y-68187596D01*
X60060793Y-68528014D01*
X59876011Y-68973020D01*
X59875590Y-69454866D01*
X49492731Y-69454866D01*
X49424716Y-69386733D01*
X49158344Y-69276126D01*
X48869921Y-69275874D01*
X48765923Y-69318845D01*
X48663044Y-69276126D01*
X48384965Y-69275883D01*
X48385169Y-69042311D01*
X48237046Y-68683829D01*
X47963014Y-68409318D01*
X47604790Y-68260570D01*
X47216911Y-68260231D01*
X46858429Y-68408354D01*
X46775095Y-68491543D01*
X46693014Y-68409318D01*
X46334790Y-68260570D01*
X45946911Y-68260231D01*
X45588429Y-68408354D01*
X45505390Y-68491248D01*
X45423603Y-68409318D01*
X45065379Y-68260570D01*
X44677500Y-68260231D01*
X44319018Y-68408354D01*
X44235684Y-68491543D01*
X44153603Y-68409318D01*
X43795379Y-68260570D01*
X43407500Y-68260231D01*
X43049018Y-68408354D01*
X42967278Y-68489952D01*
X42883014Y-68405541D01*
X42524790Y-68256793D01*
X42136911Y-68256454D01*
X41778429Y-68404577D01*
X41693207Y-68489651D01*
X41613014Y-68409318D01*
X41254790Y-68260570D01*
X40866911Y-68260231D01*
X40508429Y-68408354D01*
X40425095Y-68491543D01*
X40343014Y-68409318D01*
X39984790Y-68260570D01*
X39596911Y-68260231D01*
X39238429Y-68408354D01*
X39155390Y-68491248D01*
X39073603Y-68409318D01*
X38715379Y-68260570D01*
X38327500Y-68260231D01*
X37969018Y-68408354D01*
X37885684Y-68491543D01*
X37803603Y-68409318D01*
X37445379Y-68260570D01*
X37057500Y-68260231D01*
X36699018Y-68408354D01*
X36615389Y-68491837D01*
X36533014Y-68409318D01*
X36174790Y-68260570D01*
X35786911Y-68260231D01*
X35428429Y-68408354D01*
X35345095Y-68491543D01*
X35263014Y-68409318D01*
X34904790Y-68260570D01*
X34516911Y-68260231D01*
X34158429Y-68408354D01*
X34075390Y-68491248D01*
X33993603Y-68409318D01*
X33635379Y-68260570D01*
X33247500Y-68260231D01*
X32889018Y-68408354D01*
X32805684Y-68491543D01*
X32723603Y-68409318D01*
X32365379Y-68260570D01*
X31977500Y-68260231D01*
X31619018Y-68408354D01*
X31535389Y-68491837D01*
X31453014Y-68409318D01*
X31094790Y-68260570D01*
X30706911Y-68260231D01*
X30348429Y-68408354D01*
X30265095Y-68491543D01*
X30183014Y-68409318D01*
X29824790Y-68260570D01*
X29436911Y-68260231D01*
X29078429Y-68408354D01*
X28803918Y-68682386D01*
X28655170Y-69040610D01*
X28654831Y-69428489D01*
X23426500Y-69428489D01*
X23426500Y-64913579D01*
X26960874Y-64913579D01*
X27006475Y-65023943D01*
X26961126Y-65133156D01*
X26960874Y-65421579D01*
X27006475Y-65531943D01*
X26961126Y-65641156D01*
X26960874Y-65929579D01*
X27071016Y-66196143D01*
X27274784Y-66400267D01*
X27541156Y-66510874D01*
X27829579Y-66511126D01*
X27939943Y-66465525D01*
X28049156Y-66510874D01*
X28337579Y-66511126D01*
X28604143Y-66400984D01*
X28808267Y-66197216D01*
X28918874Y-65930844D01*
X28919126Y-65642421D01*
X28873525Y-65532057D01*
X28918874Y-65422844D01*
X28918875Y-65421579D01*
X29246874Y-65421579D01*
X29292475Y-65531943D01*
X29247126Y-65641156D01*
X29246874Y-65929579D01*
X29357016Y-66196143D01*
X29560784Y-66400267D01*
X29827156Y-66510874D01*
X30115579Y-66511126D01*
X30382143Y-66400984D01*
X30586267Y-66197216D01*
X30670571Y-65994190D01*
X30754016Y-66196143D01*
X30957784Y-66400267D01*
X31224156Y-66510874D01*
X31512579Y-66511126D01*
X31779143Y-66400984D01*
X31983267Y-66197216D01*
X32003914Y-66147492D01*
X32024016Y-66196143D01*
X32227784Y-66400267D01*
X32494156Y-66510874D01*
X32782579Y-66511126D01*
X33049143Y-66400984D01*
X33253267Y-66197216D01*
X33273914Y-66147492D01*
X33294016Y-66196143D01*
X33497784Y-66400267D01*
X33764156Y-66510874D01*
X34052579Y-66511126D01*
X34319143Y-66400984D01*
X34523267Y-66197216D01*
X34633874Y-65930844D01*
X34634126Y-65642421D01*
X34588525Y-65532057D01*
X34633874Y-65422844D01*
X34633875Y-65421579D01*
X35850874Y-65421579D01*
X35896475Y-65531943D01*
X35851126Y-65641156D01*
X35850874Y-65929579D01*
X35961016Y-66196143D01*
X36164784Y-66400267D01*
X36431156Y-66510874D01*
X36719579Y-66511126D01*
X36986143Y-66400984D01*
X37190267Y-66197216D01*
X37300874Y-65930844D01*
X37301126Y-65642421D01*
X37255525Y-65532057D01*
X37300874Y-65422844D01*
X37300875Y-65421579D01*
X38517874Y-65421579D01*
X38563475Y-65531943D01*
X38518126Y-65641156D01*
X38517874Y-65929579D01*
X38628016Y-66196143D01*
X38831784Y-66400267D01*
X39098156Y-66510874D01*
X39386579Y-66511126D01*
X39653143Y-66400984D01*
X39857267Y-66197216D01*
X39877914Y-66147492D01*
X39898016Y-66196143D01*
X40101784Y-66400267D01*
X40368156Y-66510874D01*
X40656579Y-66511126D01*
X40923143Y-66400984D01*
X41127267Y-66197216D01*
X41147914Y-66147492D01*
X41168016Y-66196143D01*
X41371784Y-66400267D01*
X41638156Y-66510874D01*
X41926579Y-66511126D01*
X42046491Y-66461579D01*
X43589374Y-66461579D01*
X43699516Y-66728143D01*
X43903284Y-66932267D01*
X44169656Y-67042874D01*
X44458079Y-67043126D01*
X44724643Y-66932984D01*
X44928767Y-66729216D01*
X45013071Y-66526190D01*
X45096516Y-66728143D01*
X45300284Y-66932267D01*
X45566656Y-67042874D01*
X45855079Y-67043126D01*
X46121643Y-66932984D01*
X46325767Y-66729216D01*
X46346414Y-66679492D01*
X46366516Y-66728143D01*
X46570284Y-66932267D01*
X46836656Y-67042874D01*
X47125079Y-67043126D01*
X47391643Y-66932984D01*
X47595767Y-66729216D01*
X47706374Y-66462844D01*
X47706375Y-66461579D01*
X47780374Y-66461579D01*
X47890516Y-66728143D01*
X48094284Y-66932267D01*
X48360656Y-67042874D01*
X48649079Y-67043126D01*
X48759443Y-66997525D01*
X48868656Y-67042874D01*
X49157079Y-67043126D01*
X49423643Y-66932984D01*
X49627767Y-66729216D01*
X49738374Y-66462844D01*
X49738626Y-66174421D01*
X49692294Y-66062288D01*
X49746874Y-65930844D01*
X49747097Y-65675579D01*
X51852874Y-65675579D01*
X51898475Y-65785943D01*
X51853126Y-65895156D01*
X51852874Y-66183579D01*
X51898475Y-66293943D01*
X51853126Y-66403156D01*
X51852874Y-66691579D01*
X51963016Y-66958143D01*
X52166784Y-67162267D01*
X52433156Y-67272874D01*
X52721579Y-67273126D01*
X52988143Y-67162984D01*
X53192267Y-66959216D01*
X53302874Y-66692844D01*
X53303126Y-66404421D01*
X53257525Y-66294057D01*
X53302874Y-66184844D01*
X53303126Y-65896421D01*
X53257525Y-65786057D01*
X53302874Y-65676844D01*
X53303126Y-65388421D01*
X53192984Y-65121857D01*
X52989216Y-64917733D01*
X52722844Y-64807126D01*
X52434421Y-64806874D01*
X52167857Y-64917016D01*
X51963733Y-65120784D01*
X51853126Y-65387156D01*
X51852874Y-65675579D01*
X49747097Y-65675579D01*
X49747126Y-65642421D01*
X49701525Y-65532057D01*
X49746874Y-65422844D01*
X49747126Y-65134421D01*
X49636984Y-64867857D01*
X49433216Y-64663733D01*
X49166844Y-64553126D01*
X48878421Y-64552874D01*
X48768057Y-64598475D01*
X48658844Y-64553126D01*
X48370421Y-64552874D01*
X48103857Y-64663016D01*
X47899733Y-64866784D01*
X47789126Y-65133156D01*
X47788874Y-65421579D01*
X47834475Y-65531943D01*
X47789126Y-65641156D01*
X47788874Y-65929579D01*
X47835206Y-66041712D01*
X47780626Y-66173156D01*
X47780374Y-66461579D01*
X47706375Y-66461579D01*
X47706626Y-66174421D01*
X47660294Y-66062288D01*
X47714874Y-65930844D01*
X47715126Y-65642421D01*
X47669525Y-65532057D01*
X47714874Y-65422844D01*
X47715126Y-65134421D01*
X47604984Y-64867857D01*
X47401216Y-64663733D01*
X47134844Y-64553126D01*
X46846421Y-64552874D01*
X46579857Y-64663016D01*
X46375733Y-64866784D01*
X46355086Y-64916508D01*
X46334984Y-64867857D01*
X46131216Y-64663733D01*
X45864844Y-64553126D01*
X45576421Y-64552874D01*
X45309857Y-64663016D01*
X45105733Y-64866784D01*
X45021429Y-65069810D01*
X44937984Y-64867857D01*
X44734216Y-64663733D01*
X44467844Y-64553126D01*
X44179421Y-64552874D01*
X43912857Y-64663016D01*
X43708733Y-64866784D01*
X43598126Y-65133156D01*
X43597874Y-65421579D01*
X43643475Y-65531943D01*
X43598126Y-65641156D01*
X43597874Y-65929579D01*
X43644206Y-66041712D01*
X43589626Y-66173156D01*
X43589374Y-66461579D01*
X42046491Y-66461579D01*
X42193143Y-66400984D01*
X42397267Y-66197216D01*
X42507874Y-65930844D01*
X42508126Y-65642421D01*
X42462525Y-65532057D01*
X42507874Y-65422844D01*
X42508126Y-65134421D01*
X42397984Y-64867857D01*
X42194216Y-64663733D01*
X41927844Y-64553126D01*
X41639421Y-64552874D01*
X41372857Y-64663016D01*
X41168733Y-64866784D01*
X41148086Y-64916508D01*
X41127984Y-64867857D01*
X40924216Y-64663733D01*
X40657844Y-64553126D01*
X40369421Y-64552874D01*
X40102857Y-64663016D01*
X39898733Y-64866784D01*
X39878086Y-64916508D01*
X39857984Y-64867857D01*
X39654216Y-64663733D01*
X39387844Y-64553126D01*
X39099421Y-64552874D01*
X38832857Y-64663016D01*
X38628733Y-64866784D01*
X38518126Y-65133156D01*
X38517874Y-65421579D01*
X37300875Y-65421579D01*
X37301126Y-65134421D01*
X37190984Y-64867857D01*
X36987216Y-64663733D01*
X36720844Y-64553126D01*
X36432421Y-64552874D01*
X36165857Y-64663016D01*
X35961733Y-64866784D01*
X35851126Y-65133156D01*
X35850874Y-65421579D01*
X34633875Y-65421579D01*
X34634126Y-65134421D01*
X34523984Y-64867857D01*
X34320216Y-64663733D01*
X34053844Y-64553126D01*
X33765421Y-64552874D01*
X33498857Y-64663016D01*
X33294733Y-64866784D01*
X33274086Y-64916508D01*
X33253984Y-64867857D01*
X33050216Y-64663733D01*
X32783844Y-64553126D01*
X32495421Y-64552874D01*
X32228857Y-64663016D01*
X32024733Y-64866784D01*
X32004086Y-64916508D01*
X31983984Y-64867857D01*
X31780216Y-64663733D01*
X31513844Y-64553126D01*
X31225421Y-64552874D01*
X30958857Y-64663016D01*
X30754733Y-64866784D01*
X30670429Y-65069810D01*
X30586984Y-64867857D01*
X30383216Y-64663733D01*
X30116844Y-64553126D01*
X29828421Y-64552874D01*
X29561857Y-64663016D01*
X29357733Y-64866784D01*
X29247126Y-65133156D01*
X29246874Y-65421579D01*
X28918875Y-65421579D01*
X28919126Y-65134421D01*
X28873525Y-65024057D01*
X28918874Y-64914844D01*
X28919126Y-64626421D01*
X28808984Y-64359857D01*
X28734836Y-64285579D01*
X50085374Y-64285579D01*
X50195516Y-64552143D01*
X50399284Y-64756267D01*
X50665656Y-64866874D01*
X50954079Y-64867126D01*
X51220643Y-64756984D01*
X51424767Y-64553216D01*
X51498824Y-64374866D01*
X59875590Y-64374866D01*
X60059596Y-64820193D01*
X60400014Y-65161207D01*
X60845020Y-65345989D01*
X61326866Y-65346410D01*
X61772193Y-65162404D01*
X62113207Y-64821986D01*
X62297989Y-64376980D01*
X62298410Y-63895134D01*
X62114404Y-63449807D01*
X61773986Y-63108793D01*
X61328980Y-62924011D01*
X60847134Y-62923590D01*
X60401807Y-63107596D01*
X60060793Y-63448014D01*
X59876011Y-63893020D01*
X59875590Y-64374866D01*
X51498824Y-64374866D01*
X51535374Y-64286844D01*
X51535626Y-63998421D01*
X51425484Y-63731857D01*
X51221716Y-63527733D01*
X50955344Y-63417126D01*
X50666921Y-63416874D01*
X50400357Y-63527016D01*
X50196233Y-63730784D01*
X50085626Y-63997156D01*
X50085374Y-64285579D01*
X28734836Y-64285579D01*
X28605216Y-64155733D01*
X28338844Y-64045126D01*
X28050421Y-64044874D01*
X27940057Y-64090475D01*
X27830844Y-64045126D01*
X27542421Y-64044874D01*
X27275857Y-64155016D01*
X27071733Y-64358784D01*
X26961126Y-64625156D01*
X26960874Y-64913579D01*
X23426500Y-64913579D01*
X23426500Y-62283279D01*
X28692274Y-62283279D01*
X28802416Y-62549843D01*
X29006184Y-62753967D01*
X29272556Y-62864574D01*
X29560979Y-62864826D01*
X29827543Y-62754684D01*
X30031667Y-62550916D01*
X30142274Y-62284544D01*
X30142526Y-61996121D01*
X30032384Y-61729557D01*
X29828616Y-61525433D01*
X29562244Y-61414826D01*
X29273821Y-61414574D01*
X29007257Y-61524716D01*
X28803133Y-61728484D01*
X28692526Y-61994856D01*
X28692274Y-62283279D01*
X23426500Y-62283279D01*
X23426500Y-60987879D01*
X33238874Y-60987879D01*
X33349016Y-61254443D01*
X33552784Y-61458567D01*
X33819156Y-61569174D01*
X34107579Y-61569426D01*
X34374143Y-61459284D01*
X34578267Y-61255516D01*
X34688874Y-60989144D01*
X34688875Y-60987879D01*
X35842374Y-60987879D01*
X35952516Y-61254443D01*
X36156284Y-61458567D01*
X36422656Y-61569174D01*
X36711079Y-61569426D01*
X36977643Y-61459284D01*
X37181767Y-61255516D01*
X37292374Y-60989144D01*
X37292375Y-60987879D01*
X38445874Y-60987879D01*
X38556016Y-61254443D01*
X38759784Y-61458567D01*
X39026156Y-61569174D01*
X39314579Y-61569426D01*
X39581143Y-61459284D01*
X39785267Y-61255516D01*
X39895874Y-60989144D01*
X39895875Y-60987879D01*
X41036674Y-60987879D01*
X41146816Y-61254443D01*
X41350584Y-61458567D01*
X41616956Y-61569174D01*
X41905379Y-61569426D01*
X42171943Y-61459284D01*
X42376067Y-61255516D01*
X42380465Y-61244924D01*
X65436317Y-61244924D01*
X65510412Y-61429123D01*
X65933676Y-61602768D01*
X66391172Y-61601219D01*
X66806648Y-61429123D01*
X66880743Y-61244924D01*
X66158530Y-60522711D01*
X65436317Y-61244924D01*
X42380465Y-61244924D01*
X42486674Y-60989144D01*
X42486926Y-60700721D01*
X42376784Y-60434157D01*
X42173016Y-60230033D01*
X42166064Y-60227146D01*
X65007762Y-60227146D01*
X65009311Y-60684642D01*
X65181407Y-61100118D01*
X65365606Y-61174213D01*
X66087819Y-60452000D01*
X66229241Y-60452000D01*
X66951454Y-61174213D01*
X67135653Y-61100118D01*
X67309298Y-60676854D01*
X67307749Y-60219358D01*
X67135653Y-59803882D01*
X66951454Y-59729787D01*
X66229241Y-60452000D01*
X66087819Y-60452000D01*
X65365606Y-59729787D01*
X65181407Y-59803882D01*
X65007762Y-60227146D01*
X42166064Y-60227146D01*
X41906644Y-60119426D01*
X41618221Y-60119174D01*
X41351657Y-60229316D01*
X41147533Y-60433084D01*
X41036926Y-60699456D01*
X41036674Y-60987879D01*
X39895875Y-60987879D01*
X39896126Y-60700721D01*
X39785984Y-60434157D01*
X39582216Y-60230033D01*
X39315844Y-60119426D01*
X39027421Y-60119174D01*
X38760857Y-60229316D01*
X38556733Y-60433084D01*
X38446126Y-60699456D01*
X38445874Y-60987879D01*
X37292375Y-60987879D01*
X37292626Y-60700721D01*
X37182484Y-60434157D01*
X36978716Y-60230033D01*
X36712344Y-60119426D01*
X36423921Y-60119174D01*
X36157357Y-60229316D01*
X35953233Y-60433084D01*
X35842626Y-60699456D01*
X35842374Y-60987879D01*
X34688875Y-60987879D01*
X34689126Y-60700721D01*
X34578984Y-60434157D01*
X34375216Y-60230033D01*
X34108844Y-60119426D01*
X33820421Y-60119174D01*
X33553857Y-60229316D01*
X33349733Y-60433084D01*
X33239126Y-60699456D01*
X33238874Y-60987879D01*
X23426500Y-60987879D01*
X23426500Y-59659076D01*
X65436317Y-59659076D01*
X66158530Y-60381289D01*
X66880743Y-59659076D01*
X66806648Y-59474877D01*
X66383384Y-59301232D01*
X65925888Y-59302781D01*
X65510412Y-59474877D01*
X65436317Y-59659076D01*
X23426500Y-59659076D01*
X23426500Y-52650579D01*
X41700374Y-52650579D01*
X41748461Y-52766957D01*
X41700626Y-52882156D01*
X41700374Y-53170579D01*
X41748461Y-53286957D01*
X41700626Y-53402156D01*
X41700374Y-53690579D01*
X41810516Y-53957143D01*
X42014284Y-54161267D01*
X42280656Y-54271874D01*
X42569079Y-54272126D01*
X42835643Y-54161984D01*
X43039767Y-53958216D01*
X43150374Y-53691844D01*
X43150626Y-53403421D01*
X43102539Y-53287043D01*
X43150374Y-53171844D01*
X43150626Y-52883421D01*
X43102539Y-52767043D01*
X43150374Y-52651844D01*
X43150626Y-52363421D01*
X43040484Y-52096857D01*
X42836716Y-51892733D01*
X42570344Y-51782126D01*
X42281921Y-51781874D01*
X42015357Y-51892016D01*
X41811233Y-52095784D01*
X41700626Y-52362156D01*
X41700374Y-52650579D01*
X23426500Y-52650579D01*
X23426500Y-49660579D01*
X41694874Y-49660579D01*
X41742961Y-49776957D01*
X41695126Y-49892156D01*
X41694874Y-50180579D01*
X41745704Y-50303596D01*
X41700626Y-50412156D01*
X41700374Y-50700579D01*
X41810516Y-50967143D01*
X42014284Y-51171267D01*
X42280656Y-51281874D01*
X42569079Y-51282126D01*
X42835643Y-51171984D01*
X43039767Y-50968216D01*
X43150374Y-50701844D01*
X43150626Y-50413421D01*
X43099796Y-50290404D01*
X43144874Y-50181844D01*
X43145126Y-49893421D01*
X43097039Y-49777043D01*
X43144874Y-49661844D01*
X43145126Y-49373421D01*
X43034984Y-49106857D01*
X42831216Y-48902733D01*
X42787978Y-48884779D01*
X48862177Y-48884779D01*
X48972319Y-49151343D01*
X49176087Y-49355467D01*
X49442459Y-49466074D01*
X49730882Y-49466326D01*
X49997446Y-49356184D01*
X50201570Y-49152416D01*
X50312177Y-48886044D01*
X50312429Y-48597621D01*
X50202287Y-48331057D01*
X49998519Y-48126933D01*
X49732147Y-48016326D01*
X49443724Y-48016074D01*
X49177160Y-48126216D01*
X48973036Y-48329984D01*
X48862429Y-48596356D01*
X48862177Y-48884779D01*
X42787978Y-48884779D01*
X42564844Y-48792126D01*
X42276421Y-48791874D01*
X42009857Y-48902016D01*
X41805733Y-49105784D01*
X41695126Y-49372156D01*
X41694874Y-49660579D01*
X23426500Y-49660579D01*
X23426500Y-48885210D01*
X33251796Y-48885210D01*
X33361938Y-49151774D01*
X33565706Y-49355898D01*
X33832078Y-49466505D01*
X34120501Y-49466757D01*
X34387065Y-49356615D01*
X34591189Y-49152847D01*
X34701796Y-48886475D01*
X34701797Y-48885210D01*
X35843710Y-48885210D01*
X35953852Y-49151774D01*
X36157620Y-49355898D01*
X36423992Y-49466505D01*
X36712415Y-49466757D01*
X36978979Y-49356615D01*
X37183103Y-49152847D01*
X37293710Y-48886475D01*
X37293711Y-48884779D01*
X38458574Y-48884779D01*
X38568716Y-49151343D01*
X38772484Y-49355467D01*
X39038856Y-49466074D01*
X39327279Y-49466326D01*
X39593843Y-49356184D01*
X39797967Y-49152416D01*
X39908574Y-48886044D01*
X39908826Y-48597621D01*
X39798684Y-48331057D01*
X39594916Y-48126933D01*
X39328544Y-48016326D01*
X39040121Y-48016074D01*
X38773557Y-48126216D01*
X38569433Y-48329984D01*
X38458826Y-48596356D01*
X38458574Y-48884779D01*
X37293711Y-48884779D01*
X37293962Y-48598052D01*
X37183820Y-48331488D01*
X36980052Y-48127364D01*
X36713680Y-48016757D01*
X36425257Y-48016505D01*
X36158693Y-48126647D01*
X35954569Y-48330415D01*
X35843962Y-48596787D01*
X35843710Y-48885210D01*
X34701797Y-48885210D01*
X34702048Y-48598052D01*
X34591906Y-48331488D01*
X34388138Y-48127364D01*
X34121766Y-48016757D01*
X33833343Y-48016505D01*
X33566779Y-48126647D01*
X33362655Y-48330415D01*
X33252048Y-48596787D01*
X33251796Y-48885210D01*
X23426500Y-48885210D01*
X23426500Y-48060924D01*
X24677787Y-48060924D01*
X24751882Y-48245123D01*
X25175146Y-48418768D01*
X25632642Y-48417219D01*
X26048118Y-48245123D01*
X26122213Y-48060924D01*
X25400000Y-47338711D01*
X24677787Y-48060924D01*
X23426500Y-48060924D01*
X23426500Y-47043146D01*
X24249232Y-47043146D01*
X24250781Y-47500642D01*
X24422877Y-47916118D01*
X24607076Y-47990213D01*
X25329289Y-47268000D01*
X25470711Y-47268000D01*
X26192924Y-47990213D01*
X26377123Y-47916118D01*
X26427805Y-47792579D01*
X27460374Y-47792579D01*
X27570516Y-48059143D01*
X27774284Y-48263267D01*
X28040656Y-48373874D01*
X28329079Y-48374126D01*
X28595643Y-48263984D01*
X28799767Y-48060216D01*
X28910374Y-47793844D01*
X28910626Y-47505421D01*
X28800484Y-47238857D01*
X28596716Y-47034733D01*
X28330344Y-46924126D01*
X28041921Y-46923874D01*
X27775357Y-47034016D01*
X27571233Y-47237784D01*
X27460626Y-47504156D01*
X27460374Y-47792579D01*
X26427805Y-47792579D01*
X26550768Y-47492854D01*
X26549219Y-47035358D01*
X26442030Y-46776579D01*
X50066374Y-46776579D01*
X50176516Y-47043143D01*
X50380284Y-47247267D01*
X50646656Y-47357874D01*
X50935079Y-47358126D01*
X51078358Y-47298924D01*
X52609287Y-47298924D01*
X52683382Y-47483123D01*
X53106646Y-47656768D01*
X53564142Y-47655219D01*
X53979618Y-47483123D01*
X54053713Y-47298924D01*
X53331500Y-46576711D01*
X52609287Y-47298924D01*
X51078358Y-47298924D01*
X51201643Y-47247984D01*
X51405767Y-47044216D01*
X51516374Y-46777844D01*
X51516626Y-46489421D01*
X51430569Y-46281146D01*
X52180732Y-46281146D01*
X52182281Y-46738642D01*
X52354377Y-47154118D01*
X52538576Y-47228213D01*
X53260789Y-46506000D01*
X53402211Y-46506000D01*
X54124424Y-47228213D01*
X54308623Y-47154118D01*
X54482268Y-46730854D01*
X54480719Y-46273358D01*
X54308623Y-45857882D01*
X54124424Y-45783787D01*
X53402211Y-46506000D01*
X53260789Y-46506000D01*
X52538576Y-45783787D01*
X52354377Y-45857882D01*
X52180732Y-46281146D01*
X51430569Y-46281146D01*
X51406484Y-46222857D01*
X51202716Y-46018733D01*
X50936344Y-45908126D01*
X50647921Y-45907874D01*
X50381357Y-46018016D01*
X50177233Y-46221784D01*
X50066626Y-46488156D01*
X50066374Y-46776579D01*
X26442030Y-46776579D01*
X26377123Y-46619882D01*
X26192924Y-46545787D01*
X25470711Y-47268000D01*
X25329289Y-47268000D01*
X24607076Y-46545787D01*
X24422877Y-46619882D01*
X24249232Y-47043146D01*
X23426500Y-47043146D01*
X23426500Y-46475076D01*
X24677787Y-46475076D01*
X25400000Y-47197289D01*
X26122213Y-46475076D01*
X26048118Y-46290877D01*
X25624854Y-46117232D01*
X25167358Y-46118781D01*
X24751882Y-46290877D01*
X24677787Y-46475076D01*
X23426500Y-46475076D01*
X23426500Y-45531860D01*
X28679491Y-45531860D01*
X28789633Y-45798424D01*
X28993401Y-46002548D01*
X29259773Y-46113155D01*
X29548196Y-46113407D01*
X29814760Y-46003265D01*
X30018884Y-45799497D01*
X30129491Y-45533125D01*
X30129514Y-45506579D01*
X33251574Y-45506579D01*
X33361716Y-45773143D01*
X33565484Y-45977267D01*
X33831856Y-46087874D01*
X34120279Y-46088126D01*
X34386843Y-45977984D01*
X34590967Y-45774216D01*
X34691552Y-45531979D01*
X35842374Y-45531979D01*
X35952516Y-45798543D01*
X36156284Y-46002667D01*
X36422656Y-46113274D01*
X36711079Y-46113526D01*
X36977643Y-46003384D01*
X37181767Y-45799616D01*
X37292374Y-45533244D01*
X37292397Y-45506579D01*
X38458574Y-45506579D01*
X38568716Y-45773143D01*
X38772484Y-45977267D01*
X39038856Y-46087874D01*
X39327279Y-46088126D01*
X39593843Y-45977984D01*
X39797967Y-45774216D01*
X39823354Y-45713076D01*
X52609287Y-45713076D01*
X53331500Y-46435289D01*
X54053713Y-45713076D01*
X53979618Y-45528877D01*
X53556354Y-45355232D01*
X53098858Y-45356781D01*
X52683382Y-45528877D01*
X52609287Y-45713076D01*
X39823354Y-45713076D01*
X39908574Y-45507844D01*
X39908826Y-45219421D01*
X39798684Y-44952857D01*
X39594916Y-44748733D01*
X39328544Y-44638126D01*
X39040121Y-44637874D01*
X38773557Y-44748016D01*
X38569433Y-44951784D01*
X38458826Y-45218156D01*
X38458574Y-45506579D01*
X37292397Y-45506579D01*
X37292626Y-45244821D01*
X37182484Y-44978257D01*
X36978716Y-44774133D01*
X36712344Y-44663526D01*
X36423921Y-44663274D01*
X36157357Y-44773416D01*
X35953233Y-44977184D01*
X35842626Y-45243556D01*
X35842374Y-45531979D01*
X34691552Y-45531979D01*
X34701574Y-45507844D01*
X34701826Y-45219421D01*
X34591684Y-44952857D01*
X34387916Y-44748733D01*
X34121544Y-44638126D01*
X33833121Y-44637874D01*
X33566557Y-44748016D01*
X33362433Y-44951784D01*
X33251826Y-45218156D01*
X33251574Y-45506579D01*
X30129514Y-45506579D01*
X30129743Y-45244702D01*
X30019601Y-44978138D01*
X29815833Y-44774014D01*
X29549461Y-44663407D01*
X29261038Y-44663155D01*
X28994474Y-44773297D01*
X28790350Y-44977065D01*
X28679743Y-45243437D01*
X28679491Y-45531860D01*
X23426500Y-45531860D01*
X23426500Y-44490579D01*
X41694874Y-44490579D01*
X41805016Y-44757143D01*
X42008784Y-44961267D01*
X42275156Y-45071874D01*
X42563579Y-45072126D01*
X42830143Y-44961984D01*
X43034267Y-44758216D01*
X43144874Y-44491844D01*
X43145126Y-44203421D01*
X43102518Y-44100301D01*
X43150875Y-43983844D01*
X43151127Y-43695421D01*
X43105526Y-43585057D01*
X43150875Y-43475844D01*
X43151127Y-43187421D01*
X43040985Y-42920857D01*
X42837217Y-42716733D01*
X42570845Y-42606126D01*
X42282422Y-42605874D01*
X42015858Y-42716016D01*
X41811734Y-42919784D01*
X41701127Y-43186156D01*
X41700875Y-43474579D01*
X41746476Y-43584943D01*
X41701127Y-43694156D01*
X41700875Y-43982579D01*
X41743483Y-44085699D01*
X41695126Y-44202156D01*
X41694874Y-44490579D01*
X23426500Y-44490579D01*
X23426500Y-31409579D01*
X33251574Y-31409579D01*
X33361716Y-31676143D01*
X33565484Y-31880267D01*
X33831856Y-31990874D01*
X34120279Y-31991126D01*
X34386843Y-31880984D01*
X34590967Y-31677216D01*
X34701574Y-31410844D01*
X34701575Y-31409579D01*
X35842374Y-31409579D01*
X35952516Y-31676143D01*
X36156284Y-31880267D01*
X36422656Y-31990874D01*
X36711079Y-31991126D01*
X36977643Y-31880984D01*
X37181767Y-31677216D01*
X37292374Y-31410844D01*
X37292375Y-31409579D01*
X38433174Y-31409579D01*
X38543316Y-31676143D01*
X38747084Y-31880267D01*
X39013456Y-31990874D01*
X39301879Y-31991126D01*
X39568443Y-31880984D01*
X39772567Y-31677216D01*
X39883174Y-31410844D01*
X39883197Y-31384179D01*
X48847174Y-31384179D01*
X48957316Y-31650743D01*
X49161084Y-31854867D01*
X49427456Y-31965474D01*
X49715879Y-31965726D01*
X49982443Y-31855584D01*
X50186567Y-31651816D01*
X50297174Y-31385444D01*
X50297426Y-31097021D01*
X50187284Y-30830457D01*
X49983516Y-30626333D01*
X49717144Y-30515726D01*
X49428721Y-30515474D01*
X49162157Y-30625616D01*
X48958033Y-30829384D01*
X48847426Y-31095756D01*
X48847174Y-31384179D01*
X39883197Y-31384179D01*
X39883426Y-31122421D01*
X39773284Y-30855857D01*
X39569516Y-30651733D01*
X39303144Y-30541126D01*
X39014721Y-30540874D01*
X38748157Y-30651016D01*
X38544033Y-30854784D01*
X38433426Y-31121156D01*
X38433174Y-31409579D01*
X37292375Y-31409579D01*
X37292626Y-31122421D01*
X37182484Y-30855857D01*
X36978716Y-30651733D01*
X36712344Y-30541126D01*
X36423921Y-30540874D01*
X36157357Y-30651016D01*
X35953233Y-30854784D01*
X35842626Y-31121156D01*
X35842374Y-31409579D01*
X34701575Y-31409579D01*
X34701826Y-31122421D01*
X34591684Y-30855857D01*
X34387916Y-30651733D01*
X34121544Y-30541126D01*
X33833121Y-30540874D01*
X33566557Y-30651016D01*
X33362433Y-30854784D01*
X33251826Y-31121156D01*
X33251574Y-31409579D01*
X23426500Y-31409579D01*
X23426500Y-30266579D01*
X27460374Y-30266579D01*
X27570516Y-30533143D01*
X27774284Y-30737267D01*
X28040656Y-30847874D01*
X28329079Y-30848126D01*
X28595643Y-30737984D01*
X28799767Y-30534216D01*
X28910374Y-30267844D01*
X28910626Y-29979421D01*
X28800484Y-29712857D01*
X28596716Y-29508733D01*
X28447941Y-29446956D01*
X30001880Y-29446956D01*
X30112022Y-29713520D01*
X30315790Y-29917644D01*
X30582162Y-30028251D01*
X30870585Y-30028503D01*
X31137149Y-29918361D01*
X31341273Y-29714593D01*
X31376014Y-29630927D01*
X31409447Y-29711841D01*
X31613215Y-29915965D01*
X31879587Y-30026572D01*
X32168010Y-30026824D01*
X32434574Y-29916682D01*
X32638698Y-29712914D01*
X32674657Y-29626314D01*
X32710235Y-29712418D01*
X32914003Y-29916542D01*
X33180375Y-30027149D01*
X33468798Y-30027401D01*
X33735362Y-29917259D01*
X33939486Y-29713491D01*
X33975368Y-29627078D01*
X34010516Y-29712143D01*
X34214284Y-29916267D01*
X34480656Y-30026874D01*
X34769079Y-30027126D01*
X35035643Y-29916984D01*
X35239767Y-29713216D01*
X35275451Y-29627279D01*
X35310516Y-29712143D01*
X35514284Y-29916267D01*
X35780656Y-30026874D01*
X36069079Y-30027126D01*
X36335643Y-29916984D01*
X36539767Y-29713216D01*
X36575451Y-29627279D01*
X36610516Y-29712143D01*
X36814284Y-29916267D01*
X37080656Y-30026874D01*
X37369079Y-30027126D01*
X37635643Y-29916984D01*
X37839767Y-29713216D01*
X37875451Y-29627279D01*
X37910516Y-29712143D01*
X38114284Y-29916267D01*
X38380656Y-30026874D01*
X38669079Y-30027126D01*
X38935643Y-29916984D01*
X39139767Y-29713216D01*
X39175451Y-29627279D01*
X39210516Y-29712143D01*
X39414284Y-29916267D01*
X39680656Y-30026874D01*
X39969079Y-30027126D01*
X40235643Y-29916984D01*
X40439767Y-29713216D01*
X40475451Y-29627279D01*
X40510516Y-29712143D01*
X40714284Y-29916267D01*
X40980656Y-30026874D01*
X41269079Y-30027126D01*
X41535643Y-29916984D01*
X41739767Y-29713216D01*
X41795905Y-29578019D01*
X41918079Y-29578126D01*
X42184643Y-29467984D01*
X42207087Y-29445579D01*
X43000374Y-29445579D01*
X43110516Y-29712143D01*
X43314284Y-29916267D01*
X43580656Y-30026874D01*
X43869079Y-30027126D01*
X44135643Y-29916984D01*
X44339767Y-29713216D01*
X44375451Y-29627279D01*
X44410516Y-29712143D01*
X44614284Y-29916267D01*
X44880656Y-30026874D01*
X45169079Y-30027126D01*
X45435643Y-29916984D01*
X45639767Y-29713216D01*
X45675451Y-29627279D01*
X45710516Y-29712143D01*
X45914284Y-29916267D01*
X46180656Y-30026874D01*
X46469079Y-30027126D01*
X46735643Y-29916984D01*
X46939767Y-29713216D01*
X46975451Y-29627279D01*
X47010516Y-29712143D01*
X47214284Y-29916267D01*
X47480656Y-30026874D01*
X47769079Y-30027126D01*
X48035643Y-29916984D01*
X48239767Y-29713216D01*
X48350374Y-29446844D01*
X48350626Y-29158421D01*
X48240484Y-28891857D01*
X48036716Y-28687733D01*
X47770344Y-28577126D01*
X47481921Y-28576874D01*
X47215357Y-28687016D01*
X47011233Y-28890784D01*
X46975549Y-28976721D01*
X46940484Y-28891857D01*
X46736716Y-28687733D01*
X46470344Y-28577126D01*
X46181921Y-28576874D01*
X45915357Y-28687016D01*
X45711233Y-28890784D01*
X45675549Y-28976721D01*
X45640484Y-28891857D01*
X45436716Y-28687733D01*
X45170344Y-28577126D01*
X44881921Y-28576874D01*
X44615357Y-28687016D01*
X44411233Y-28890784D01*
X44375549Y-28976721D01*
X44340484Y-28891857D01*
X44136716Y-28687733D01*
X43870344Y-28577126D01*
X43581921Y-28576874D01*
X43315357Y-28687016D01*
X43111233Y-28890784D01*
X43000626Y-29157156D01*
X43000374Y-29445579D01*
X42207087Y-29445579D01*
X42388767Y-29264216D01*
X42499374Y-28997844D01*
X42499626Y-28709421D01*
X42389484Y-28442857D01*
X42185716Y-28238733D01*
X42152461Y-28224924D01*
X52617787Y-28224924D01*
X52691882Y-28409123D01*
X53115146Y-28582768D01*
X53572642Y-28581219D01*
X53988118Y-28409123D01*
X54062213Y-28224924D01*
X53340000Y-27502711D01*
X52617787Y-28224924D01*
X42152461Y-28224924D01*
X41919344Y-28128126D01*
X41630921Y-28127874D01*
X41364357Y-28238016D01*
X41160233Y-28441784D01*
X41104095Y-28576981D01*
X40981921Y-28576874D01*
X40715357Y-28687016D01*
X40511233Y-28890784D01*
X40475549Y-28976721D01*
X40440484Y-28891857D01*
X40236716Y-28687733D01*
X39970344Y-28577126D01*
X39681921Y-28576874D01*
X39415357Y-28687016D01*
X39211233Y-28890784D01*
X39175549Y-28976721D01*
X39140484Y-28891857D01*
X38936716Y-28687733D01*
X38670344Y-28577126D01*
X38381921Y-28576874D01*
X38115357Y-28687016D01*
X37911233Y-28890784D01*
X37875549Y-28976721D01*
X37840484Y-28891857D01*
X37636716Y-28687733D01*
X37370344Y-28577126D01*
X37081921Y-28576874D01*
X36815357Y-28687016D01*
X36611233Y-28890784D01*
X36575549Y-28976721D01*
X36540484Y-28891857D01*
X36336716Y-28687733D01*
X36070344Y-28577126D01*
X35781921Y-28576874D01*
X35515357Y-28687016D01*
X35311233Y-28890784D01*
X35275549Y-28976721D01*
X35240484Y-28891857D01*
X35036716Y-28687733D01*
X34770344Y-28577126D01*
X34481921Y-28576874D01*
X34215357Y-28687016D01*
X34011233Y-28890784D01*
X33975351Y-28977197D01*
X33940203Y-28892132D01*
X33736435Y-28688008D01*
X33470063Y-28577401D01*
X33181640Y-28577149D01*
X32915076Y-28687291D01*
X32710952Y-28891059D01*
X32674993Y-28977659D01*
X32639415Y-28891555D01*
X32435647Y-28687431D01*
X32169275Y-28576824D01*
X31880852Y-28576572D01*
X31614288Y-28686714D01*
X31410164Y-28890482D01*
X31375423Y-28974148D01*
X31341990Y-28893234D01*
X31138222Y-28689110D01*
X30871850Y-28578503D01*
X30583427Y-28578251D01*
X30316863Y-28688393D01*
X30112739Y-28892161D01*
X30002132Y-29158533D01*
X30001880Y-29446956D01*
X28447941Y-29446956D01*
X28330344Y-29398126D01*
X28041921Y-29397874D01*
X27775357Y-29508016D01*
X27571233Y-29711784D01*
X27460626Y-29978156D01*
X27460374Y-30266579D01*
X23426500Y-30266579D01*
X23426500Y-28224924D01*
X24677787Y-28224924D01*
X24751882Y-28409123D01*
X25175146Y-28582768D01*
X25632642Y-28581219D01*
X26048118Y-28409123D01*
X26122213Y-28224924D01*
X25400000Y-27502711D01*
X24677787Y-28224924D01*
X23426500Y-28224924D01*
X23426500Y-27512635D01*
X23487265Y-27207146D01*
X24249232Y-27207146D01*
X24250781Y-27664642D01*
X24422877Y-28080118D01*
X24607076Y-28154213D01*
X25329289Y-27432000D01*
X25470711Y-27432000D01*
X26192924Y-28154213D01*
X26377123Y-28080118D01*
X26550768Y-27656854D01*
X26549246Y-27207146D01*
X52189232Y-27207146D01*
X52190781Y-27664642D01*
X52362877Y-28080118D01*
X52547076Y-28154213D01*
X53269289Y-27432000D01*
X53410711Y-27432000D01*
X54132924Y-28154213D01*
X54317123Y-28080118D01*
X54490768Y-27656854D01*
X54489219Y-27199358D01*
X54317123Y-26783882D01*
X54132924Y-26709787D01*
X53410711Y-27432000D01*
X53269289Y-27432000D01*
X52547076Y-26709787D01*
X52362877Y-26783882D01*
X52189232Y-27207146D01*
X26549246Y-27207146D01*
X26549219Y-27199358D01*
X26377123Y-26783882D01*
X26192924Y-26709787D01*
X25470711Y-27432000D01*
X25329289Y-27432000D01*
X24607076Y-26709787D01*
X24422877Y-26783882D01*
X24249232Y-27207146D01*
X23487265Y-27207146D01*
X23586485Y-26708337D01*
X23632763Y-26639076D01*
X24677787Y-26639076D01*
X25400000Y-27361289D01*
X26122213Y-26639076D01*
X52617787Y-26639076D01*
X53340000Y-27361289D01*
X54062213Y-26639076D01*
X53988118Y-26454877D01*
X53564854Y-26281232D01*
X53107358Y-26282781D01*
X52691882Y-26454877D01*
X52617787Y-26639076D01*
X26122213Y-26639076D01*
X26048118Y-26454877D01*
X25624854Y-26281232D01*
X25167358Y-26282781D01*
X24751882Y-26454877D01*
X24677787Y-26639076D01*
X23632763Y-26639076D01*
X24010001Y-26074501D01*
X24643837Y-25650985D01*
X25448135Y-25491000D01*
X53274865Y-25491000D01*
X54079163Y-25650985D01*
M02*
