G04 #@! TF.FileFunction,Copper,L1,Top,Signal*
%FSLAX46Y46*%
G04 Gerber Fmt 4.6, Leading zero omitted, Abs format (unit mm)*
G04 Created by KiCad (PCBNEW 4.0.6) date Mon Aug 28 23:47:59 2017*
%MOMM*%
%LPD*%
G01*
G04 APERTURE LIST*
%ADD10C,0.100000*%
%ADD11R,0.370000X1.200000*%
%ADD12C,1.500000*%
%ADD13R,0.800000X0.750000*%
%ADD14R,0.750000X0.800000*%
%ADD15C,1.422400*%
%ADD16C,0.950000*%
%ADD17R,0.970000X1.270000*%
%ADD18C,0.450000*%
%ADD19C,0.370000*%
%ADD20C,0.250000*%
G04 APERTURE END LIST*
D10*
D11*
X29419999Y-46535400D03*
X30069999Y-46535400D03*
X30719999Y-46535400D03*
X31369999Y-46535400D03*
X32019999Y-46535400D03*
X32669999Y-46535400D03*
X33319999Y-46535400D03*
X33969999Y-46535400D03*
X34619999Y-46535400D03*
X35269999Y-46535400D03*
X35919999Y-46535400D03*
X36569999Y-46535400D03*
X37219999Y-46535400D03*
X37869999Y-46535400D03*
X38519999Y-46535400D03*
X39169999Y-46535400D03*
X39820000Y-46535400D03*
X40470000Y-46535400D03*
X41120000Y-46535400D03*
X41770000Y-46535400D03*
X42420000Y-46535400D03*
X43070000Y-46535400D03*
X43720000Y-46535400D03*
X44370000Y-46535400D03*
X45020000Y-46535400D03*
X45670000Y-46535400D03*
X46320000Y-46535400D03*
X46970000Y-46535400D03*
X47620000Y-46535400D03*
X48270000Y-46535400D03*
X48920000Y-46535400D03*
X49570000Y-46535400D03*
X50870000Y-33985399D03*
X50220000Y-33985399D03*
X28769999Y-33985399D03*
X28119999Y-33985399D03*
D12*
X25400000Y-27432000D03*
D13*
X42279000Y-72517000D03*
X40779000Y-72517000D03*
D14*
X50791500Y-65187000D03*
X50791500Y-66687000D03*
D13*
X55395500Y-66027000D03*
X53895500Y-66027000D03*
D12*
X66158500Y-71882000D03*
X66158530Y-60452000D03*
D15*
X61087000Y-64135000D03*
X61087000Y-69215000D03*
D12*
X25400000Y-47268000D03*
X53340000Y-27432000D03*
X25400000Y-71882000D03*
X53331500Y-46506000D03*
D16*
X47410000Y-69235400D03*
X46140000Y-69235400D03*
X44870589Y-69235400D03*
X43600589Y-69235400D03*
X42330000Y-69231623D03*
X41060000Y-69235400D03*
X39790000Y-69235400D03*
X38520589Y-69235400D03*
X37250589Y-69235400D03*
X35980000Y-69235400D03*
X34710000Y-69235400D03*
X33440589Y-69235400D03*
X32170589Y-69235400D03*
X30900000Y-69235400D03*
X29630000Y-69235400D03*
X47410000Y-70505400D03*
X46140589Y-70505400D03*
X44870000Y-70505400D03*
X43600000Y-70505400D03*
X42330000Y-70501623D03*
X41060000Y-70505400D03*
X39790000Y-70505400D03*
X38520589Y-70505400D03*
X37250589Y-70501623D03*
X35980000Y-70501623D03*
X34710000Y-70501623D03*
X33440589Y-70501623D03*
X32170589Y-70501623D03*
X30900000Y-70501623D03*
X29630000Y-70501623D03*
D14*
X42028500Y-33794000D03*
X42028500Y-32294000D03*
X50791500Y-47534000D03*
X50791500Y-49034000D03*
D17*
X41774500Y-27329000D03*
X43044500Y-27329000D03*
X44314500Y-27329000D03*
D11*
X29428132Y-64105936D03*
X30078132Y-64105936D03*
X30728132Y-64105936D03*
X31378132Y-64105936D03*
X32028132Y-64105936D03*
X32678132Y-64105936D03*
X33328132Y-64105936D03*
X33978132Y-64105936D03*
X34628132Y-64105936D03*
X35278132Y-64105936D03*
X35928132Y-64105936D03*
X36578132Y-64105936D03*
X37228132Y-64105936D03*
X37878132Y-64105936D03*
X38528132Y-64105936D03*
X39178132Y-64105936D03*
X39828133Y-64105936D03*
X40478133Y-64105936D03*
X41128133Y-64105936D03*
X41778133Y-64105936D03*
X42428133Y-64105936D03*
X43078133Y-64105936D03*
X43728133Y-64105936D03*
X44378133Y-64105936D03*
X45028133Y-64105936D03*
X45678133Y-64105936D03*
X46328133Y-64105936D03*
X46978133Y-64105936D03*
X47628133Y-64105936D03*
X48278133Y-64105936D03*
X48928133Y-64105936D03*
X49578133Y-64105936D03*
X50878133Y-51555935D03*
X50228133Y-51555935D03*
X28778132Y-51555935D03*
X28128132Y-51555935D03*
D18*
X42426001Y-43331000D03*
X42426001Y-43839000D03*
X42420000Y-44347000D03*
X42420000Y-49517000D03*
X42425500Y-53547000D03*
X42420000Y-50037000D03*
X42425500Y-50557000D03*
X42425500Y-53027000D03*
X42425500Y-52507000D03*
X48277120Y-32256715D03*
X48911683Y-32256715D03*
X30065100Y-31266000D03*
X31360500Y-31266000D03*
X32694000Y-31266000D03*
X35272100Y-31266000D03*
X37888300Y-31266000D03*
X40479100Y-31266000D03*
X44365300Y-31240600D03*
X45686100Y-31240600D03*
X46981500Y-31240600D03*
X48276895Y-49401476D03*
X48937004Y-49402606D03*
X46981500Y-48741200D03*
X45686100Y-48741200D03*
X44390700Y-48741200D03*
X43069900Y-48741200D03*
X40479100Y-48741200D03*
X30091157Y-48740024D03*
X31385010Y-48741631D03*
X32680966Y-48741633D03*
X37888300Y-48741631D03*
X35272878Y-48741631D03*
X46956100Y-60831600D03*
X45686100Y-60831600D03*
X44365956Y-60831155D03*
X40453700Y-60831600D03*
X37862900Y-60831040D03*
X30090500Y-60857000D03*
X31361048Y-60856297D03*
X32675168Y-60861789D03*
X35272100Y-62812800D03*
X48911899Y-45388905D03*
X48251500Y-45388400D03*
X46981500Y-45388400D03*
X45660700Y-45388400D03*
X44365300Y-45363000D03*
X40453700Y-45363000D03*
X37862900Y-45388400D03*
X35272100Y-45337600D03*
X32655900Y-44372400D03*
X31360500Y-44347000D03*
X30065100Y-44347000D03*
X44314500Y-28345000D03*
X41748811Y-31519244D03*
X51503724Y-49019342D03*
X50791500Y-49757200D03*
X27550500Y-44982000D03*
X28185500Y-44347000D03*
X28820500Y-27329000D03*
X27550500Y-27329000D03*
X28185500Y-26694000D03*
X40885500Y-28599000D03*
X40250500Y-27964000D03*
X44314500Y-26313000D03*
X45203500Y-27329000D03*
X49648500Y-68604000D03*
X51934500Y-68578600D03*
X64113800Y-67702300D03*
X65421900Y-67702300D03*
X64774200Y-67054600D03*
X65434600Y-65644900D03*
X64113800Y-65644900D03*
X64774200Y-66318000D03*
X35297500Y-67715000D03*
X29087200Y-67715000D03*
X28452200Y-67041900D03*
X29709500Y-67041900D03*
X49140500Y-62000000D03*
X48378500Y-62000000D03*
X55363500Y-65175000D03*
X55363500Y-66826000D03*
X39370000Y-72517000D03*
X47625500Y-29302000D03*
X46325500Y-29302000D03*
X45025500Y-29302000D03*
X43725500Y-29302000D03*
X41125500Y-29302000D03*
X39825500Y-29302000D03*
X38525500Y-29302000D03*
X37225500Y-29302000D03*
X35925500Y-29302000D03*
X34625500Y-29302000D03*
X33325219Y-29302275D03*
X32024431Y-29301698D03*
X30727006Y-29303377D03*
X40513000Y-65278000D03*
X41783000Y-65278000D03*
X39243000Y-65278000D03*
X44314500Y-66318000D03*
X49013500Y-70001000D03*
X48518200Y-70001000D03*
X49013500Y-71017000D03*
X48518200Y-71017000D03*
X49013500Y-70509000D03*
X48518200Y-70509000D03*
X45711500Y-66318000D03*
X46981500Y-66318000D03*
X49013500Y-66318000D03*
X48505500Y-66318000D03*
X49022000Y-65786000D03*
X49022000Y-65278000D03*
X48514000Y-65786000D03*
X48514000Y-65278000D03*
X31369000Y-65786000D03*
X31369000Y-65278000D03*
X46990000Y-65786000D03*
X46990000Y-65278000D03*
X45720000Y-65786000D03*
X45720000Y-65278000D03*
X44323000Y-65786000D03*
X44323000Y-65278000D03*
X27686000Y-64770000D03*
X28194000Y-64770000D03*
X29972000Y-65278000D03*
X29972000Y-65786000D03*
X36576000Y-65278000D03*
X36576000Y-65786000D03*
X33909000Y-65786000D03*
X32639000Y-65786000D03*
X27686000Y-65278000D03*
X27686000Y-65786000D03*
X28194000Y-65278000D03*
X28194000Y-65786000D03*
X32639000Y-65278000D03*
X33909000Y-65278000D03*
X40513000Y-65786000D03*
X41783000Y-65786000D03*
X39243000Y-65786000D03*
X41774500Y-28853000D03*
X39158300Y-31266000D03*
X36567500Y-31266000D03*
X33976700Y-31266000D03*
X49572300Y-31240600D03*
X39183700Y-48741200D03*
X49587303Y-48741200D03*
X33976922Y-48741631D03*
X36568836Y-48741631D03*
X41761800Y-60844300D03*
X39171000Y-60844300D03*
X36567500Y-60844300D03*
X33964000Y-60844300D03*
X29417400Y-62139700D03*
X39183700Y-45363000D03*
X36567500Y-45388400D03*
X29404617Y-45388281D03*
X33976700Y-45363000D03*
X28185500Y-47649000D03*
X28185500Y-30123000D03*
X50791500Y-46633000D03*
X50810500Y-64142000D03*
X52578000Y-65532000D03*
X52578000Y-66548000D03*
X52578000Y-66040000D03*
D19*
X42420000Y-46535400D02*
X42420000Y-44347000D01*
X42420000Y-44347000D02*
X42420000Y-35103820D01*
X42420000Y-35103820D02*
X42028500Y-34712320D01*
X42028500Y-34712320D02*
X42028500Y-33794000D01*
X42420000Y-46535400D02*
X42420000Y-49517000D01*
X42420000Y-49517000D02*
X42420000Y-50037000D01*
X42420000Y-50037000D02*
X42420000Y-50551500D01*
X42425500Y-50557000D02*
X42425500Y-50042500D01*
X42425500Y-50042500D02*
X42420000Y-50037000D01*
X42420000Y-50551500D02*
X42425500Y-50557000D01*
X42420000Y-64085401D02*
X42420000Y-52512500D01*
X42420000Y-52512500D02*
X42425500Y-52507000D01*
X42330000Y-70501623D02*
X42330000Y-69231623D01*
X42279000Y-72517000D02*
X42279000Y-70552623D01*
X42279000Y-70552623D02*
X42330000Y-70501623D01*
X42330000Y-69231623D02*
X42330000Y-68559872D01*
X42330000Y-68559872D02*
X42420000Y-68469872D01*
X42420000Y-68469872D02*
X42420000Y-65055401D01*
X42420000Y-65055401D02*
X42420000Y-64085401D01*
X46970000Y-64085401D02*
X46970000Y-60845500D01*
X46970000Y-60845500D02*
X46956100Y-60831600D01*
X45670000Y-64085401D02*
X45670000Y-60847700D01*
X45670000Y-60847700D02*
X45686100Y-60831600D01*
X44370000Y-60835199D02*
X44365956Y-60831155D01*
X44370000Y-64085401D02*
X44370000Y-60835199D01*
X40470000Y-64085401D02*
X40470000Y-60847900D01*
X40470000Y-60847900D02*
X40453700Y-60831600D01*
X37869999Y-60838139D02*
X37862900Y-60831040D01*
X37869999Y-64085401D02*
X37869999Y-60838139D01*
X30069999Y-64085401D02*
X30069999Y-60877501D01*
X30069999Y-60877501D02*
X30090500Y-60857000D01*
X31369999Y-60865248D02*
X31361048Y-60856297D01*
X31369999Y-64085401D02*
X31369999Y-60865248D01*
X32669999Y-60866958D02*
X32675168Y-60861789D01*
X32669999Y-64085401D02*
X32669999Y-60866958D01*
X35269999Y-64085401D02*
X35269999Y-62814901D01*
X35269999Y-62814901D02*
X35272100Y-62812800D01*
X48920000Y-45397006D02*
X48911899Y-45388905D01*
X48920000Y-46535400D02*
X48920000Y-45397006D01*
X48270000Y-46535400D02*
X48270000Y-45406900D01*
X48270000Y-45406900D02*
X48251500Y-45388400D01*
X46970000Y-46535400D02*
X46970000Y-45399900D01*
X46970000Y-45399900D02*
X46981500Y-45388400D01*
X45670000Y-46535400D02*
X45670000Y-45397700D01*
X45670000Y-45397700D02*
X45660700Y-45388400D01*
X44370000Y-46535400D02*
X44370000Y-45367700D01*
X44370000Y-45367700D02*
X44365300Y-45363000D01*
X40470000Y-46535400D02*
X40470000Y-45379300D01*
X40470000Y-45379300D02*
X40453700Y-45363000D01*
X37869999Y-46535400D02*
X37869999Y-45395499D01*
X37869999Y-45395499D02*
X37862900Y-45388400D01*
X35269999Y-46535400D02*
X35269999Y-45339701D01*
X35269999Y-45339701D02*
X35272100Y-45337600D01*
X32669999Y-46535400D02*
X32669999Y-44386499D01*
X32669999Y-44386499D02*
X32655900Y-44372400D01*
X31369999Y-46535400D02*
X31369999Y-44356499D01*
X31369999Y-44356499D02*
X31360500Y-44347000D01*
X30069999Y-46535400D02*
X30069999Y-44351899D01*
X30069999Y-44351899D02*
X30065100Y-44347000D01*
X44314500Y-27329000D02*
X44314500Y-28345000D01*
X42023744Y-31519244D02*
X41748811Y-31519244D01*
X42028500Y-31524000D02*
X42023744Y-31519244D01*
X42028500Y-32294000D02*
X42028500Y-31524000D01*
X51185526Y-49019342D02*
X51503724Y-49019342D01*
X50806158Y-49019342D02*
X51185526Y-49019342D01*
X50791500Y-49034000D02*
X50806158Y-49019342D01*
X50791500Y-49034000D02*
X50791500Y-49757200D01*
X44314500Y-27329000D02*
X44314500Y-26313000D01*
X44314500Y-27329000D02*
X45203500Y-27329000D01*
X50791500Y-66687000D02*
X50791500Y-67435600D01*
X50791500Y-67435600D02*
X51934500Y-68578600D01*
X50791500Y-66687000D02*
X50791500Y-67461000D01*
X50791500Y-67461000D02*
X49648500Y-68604000D01*
X48920000Y-64085401D02*
X48920000Y-62220500D01*
X48920000Y-62220500D02*
X49140500Y-62000000D01*
X48270000Y-64085401D02*
X48270000Y-62108500D01*
X48270000Y-62108500D02*
X48378500Y-62000000D01*
X55395500Y-66027000D02*
X55395500Y-65207000D01*
X55395500Y-65207000D02*
X55363500Y-65175000D01*
X55395500Y-66027000D02*
X55395500Y-66794000D01*
X55395500Y-66794000D02*
X55363500Y-66826000D01*
X41060000Y-70505400D02*
X39790000Y-70505400D01*
X40779000Y-72517000D02*
X40779000Y-70786400D01*
X40779000Y-70786400D02*
X41060000Y-70505400D01*
X40779000Y-72517000D02*
X39370000Y-72517000D01*
D20*
X43070000Y-46535400D02*
X43070000Y-27354500D01*
X43070000Y-27354500D02*
X43044500Y-27329000D01*
X47620000Y-46535400D02*
X47620000Y-29307500D01*
X47620000Y-29307500D02*
X47625500Y-29302000D01*
X47620000Y-46535400D02*
X47620000Y-64085401D01*
X47620000Y-64085401D02*
X47620000Y-69025400D01*
X47620000Y-69025400D02*
X47410000Y-69235400D01*
X46320000Y-46535400D02*
X46320000Y-29307500D01*
X46320000Y-29307500D02*
X46325500Y-29302000D01*
X46320000Y-64085401D02*
X46320000Y-46535400D01*
X46320000Y-64085401D02*
X46320000Y-69055400D01*
X46320000Y-69055400D02*
X46140000Y-69235400D01*
X45020000Y-46535400D02*
X45020000Y-29307500D01*
X45020000Y-29307500D02*
X45025500Y-29302000D01*
X45020000Y-64085401D02*
X45020000Y-46535400D01*
X45020000Y-64085401D02*
X45020000Y-69085989D01*
X45020000Y-69085989D02*
X44870589Y-69235400D01*
X43720000Y-46535400D02*
X43720000Y-29307500D01*
X43720000Y-29307500D02*
X43725500Y-29302000D01*
X43720000Y-64085401D02*
X43720000Y-46535400D01*
X43720000Y-64085401D02*
X43720000Y-69115989D01*
X43720000Y-69115989D02*
X43600589Y-69235400D01*
X41120000Y-46535400D02*
X41120000Y-29307500D01*
X41120000Y-29307500D02*
X41125500Y-29302000D01*
X41120000Y-64085401D02*
X41120000Y-63235401D01*
X41120000Y-63235401D02*
X41120000Y-46535400D01*
X41120000Y-64085401D02*
X41120000Y-69175400D01*
X41120000Y-69175400D02*
X41060000Y-69235400D01*
X39820000Y-46535400D02*
X39820000Y-29307500D01*
X39820000Y-29307500D02*
X39825500Y-29302000D01*
X39820000Y-46535400D02*
X39820000Y-47385400D01*
X39820000Y-47385400D02*
X39820000Y-64085401D01*
X39820000Y-64085401D02*
X39820000Y-69205400D01*
X39820000Y-69205400D02*
X39790000Y-69235400D01*
X38519999Y-46535400D02*
X38519999Y-29307501D01*
X38519999Y-29307501D02*
X38525500Y-29302000D01*
X38519999Y-64085401D02*
X38519999Y-46535400D01*
X38519999Y-64085401D02*
X38519999Y-69234810D01*
X38519999Y-69234810D02*
X38520589Y-69235400D01*
X37219999Y-46535400D02*
X37219999Y-29307501D01*
X37219999Y-29307501D02*
X37225500Y-29302000D01*
X37219999Y-46535400D02*
X37219999Y-64085401D01*
X37219999Y-64085401D02*
X37219999Y-69204810D01*
X37219999Y-69204810D02*
X37250589Y-69235400D01*
X35919999Y-46535400D02*
X35919999Y-29307501D01*
X35919999Y-29307501D02*
X35925500Y-29302000D01*
X35919999Y-64085401D02*
X35919999Y-46535400D01*
X35919999Y-64085401D02*
X35919999Y-69175399D01*
X35919999Y-69175399D02*
X35980000Y-69235400D01*
X34619999Y-46535400D02*
X34619999Y-29307501D01*
X34619999Y-29307501D02*
X34625500Y-29302000D01*
X34619999Y-46535400D02*
X34619999Y-64085401D01*
X34619999Y-64085401D02*
X34619999Y-69145399D01*
X34619999Y-69145399D02*
X34710000Y-69235400D01*
X33319999Y-46535400D02*
X33319999Y-29307495D01*
X33319999Y-29307495D02*
X33325219Y-29302275D01*
X33319999Y-64085401D02*
X33319999Y-63235401D01*
X33319999Y-63235401D02*
X33319999Y-46535400D01*
X33319999Y-64085401D02*
X33319999Y-69114810D01*
X33319999Y-69114810D02*
X33440589Y-69235400D01*
X32019999Y-29306130D02*
X32024431Y-29301698D01*
X32019999Y-46535400D02*
X32019999Y-29306130D01*
X32019999Y-64085401D02*
X32019999Y-46535400D01*
X32019999Y-69084810D02*
X32170589Y-69235400D01*
X32019999Y-64085401D02*
X32019999Y-69084810D01*
X30719999Y-46535400D02*
X30719999Y-29310384D01*
X30719999Y-29310384D02*
X30727006Y-29303377D01*
X30719999Y-64085401D02*
X30719999Y-63235401D01*
X30719999Y-63235401D02*
X30719999Y-46535400D01*
X30719999Y-64085401D02*
X30719999Y-69055399D01*
X30719999Y-69055399D02*
X30900000Y-69235400D01*
D19*
X46140589Y-70505400D02*
X47410000Y-70505400D01*
D20*
X41770000Y-46535400D02*
X41770000Y-51018131D01*
X41770000Y-51018131D02*
X43070000Y-52318131D01*
X43070000Y-52318131D02*
X43070000Y-64085401D01*
X41774500Y-27329000D02*
X41774500Y-28853000D01*
D19*
X41770000Y-64085401D02*
X41770000Y-60852500D01*
X41770000Y-60852500D02*
X41761800Y-60844300D01*
X39169999Y-64085401D02*
X39169999Y-60845301D01*
X39169999Y-60845301D02*
X39171000Y-60844300D01*
X36569999Y-64085401D02*
X36569999Y-60846799D01*
X36569999Y-60846799D02*
X36567500Y-60844300D01*
X33969999Y-64085401D02*
X33969999Y-60850299D01*
X33969999Y-60850299D02*
X33964000Y-60844300D01*
X29419999Y-64085401D02*
X29419999Y-62142299D01*
X29419999Y-62142299D02*
X29417400Y-62139700D01*
X39169999Y-46535400D02*
X39169999Y-45376701D01*
X39169999Y-45376701D02*
X39183700Y-45363000D01*
X36569999Y-46535400D02*
X36569999Y-45390899D01*
X36569999Y-45390899D02*
X36567500Y-45388400D01*
X29419999Y-45403663D02*
X29404617Y-45388281D01*
X29419999Y-46535400D02*
X29419999Y-45403663D01*
X33969999Y-46535400D02*
X33969999Y-45369701D01*
X33969999Y-45369701D02*
X33976700Y-45363000D01*
X50791500Y-47534000D02*
X50791500Y-46633000D01*
X49570000Y-46535400D02*
X50693900Y-46535400D01*
X50693900Y-46535400D02*
X50791500Y-46633000D01*
X50810500Y-64142000D02*
X50810500Y-65168000D01*
X50810500Y-65168000D02*
X50791500Y-65187000D01*
X49570000Y-64085401D02*
X50753901Y-64085401D01*
X50753901Y-64085401D02*
X50810500Y-64142000D01*
X52578000Y-66548000D02*
X53352000Y-66548000D01*
X53352000Y-66548000D02*
X53848000Y-66052000D01*
X52578000Y-65532000D02*
X53328000Y-65532000D01*
X53328000Y-65532000D02*
X53848000Y-66052000D01*
X52578000Y-65532000D02*
X52578000Y-66040000D01*
X52578000Y-66040000D02*
X52578000Y-66548000D01*
X53848000Y-66052000D02*
X52590000Y-66052000D01*
X52590000Y-66052000D02*
X52578000Y-66040000D01*
X33440589Y-70501623D02*
X34710000Y-70501623D01*
X29630000Y-69235400D02*
X29630000Y-70501623D01*
M02*
