G04 #@! TF.FileFunction,Legend,Top*
%FSLAX46Y46*%
G04 Gerber Fmt 4.6, Leading zero omitted, Abs format (unit mm)*
G04 Created by KiCad (PCBNEW 4.0.6) date Mon Aug 28 23:47:59 2017*
%MOMM*%
%LPD*%
G01*
G04 APERTURE LIST*
%ADD10C,0.100000*%
%ADD11C,0.150000*%
%ADD12C,0.127000*%
%ADD13C,0.120000*%
%ADD14C,0.010000*%
G04 APERTURE END LIST*
D10*
D11*
X44441500Y-28345000D02*
X44441500Y-28599000D01*
X43044500Y-28599000D02*
X43044500Y-28345000D01*
X44441500Y-28599000D02*
X43044500Y-28599000D01*
X43044500Y-26059000D02*
X43044500Y-26313000D01*
X41647500Y-26059000D02*
X43044500Y-26059000D01*
X41647500Y-26313000D02*
X41647500Y-26059000D01*
D10*
X45044786Y-27892619D02*
X45092405Y-27845000D01*
X45187643Y-27797381D01*
X45425739Y-27797381D01*
X45520977Y-27845000D01*
X45568596Y-27892619D01*
X45616215Y-27987857D01*
X45616215Y-28083095D01*
X45568596Y-28225952D01*
X44997167Y-28797381D01*
X45616215Y-28797381D01*
X40821977Y-26225714D02*
X40821977Y-26892381D01*
X40583881Y-25844762D02*
X40345786Y-26559048D01*
X40964834Y-26559048D01*
X32051453Y-27908381D02*
X31718119Y-27432190D01*
X31480024Y-27908381D02*
X31480024Y-26908381D01*
X31860977Y-26908381D01*
X31956215Y-26956000D01*
X32003834Y-27003619D01*
X32051453Y-27098857D01*
X32051453Y-27241714D01*
X32003834Y-27336952D01*
X31956215Y-27384571D01*
X31860977Y-27432190D01*
X31480024Y-27432190D01*
X32432405Y-27622667D02*
X32908596Y-27622667D01*
X32337167Y-27908381D02*
X32670500Y-26908381D01*
X33003834Y-27908381D01*
X33337167Y-27908381D02*
X33337167Y-26908381D01*
X33670501Y-27622667D01*
X34003834Y-26908381D01*
X34003834Y-27908381D01*
X35813358Y-27813143D02*
X35765739Y-27860762D01*
X35622882Y-27908381D01*
X35527644Y-27908381D01*
X35384786Y-27860762D01*
X35289548Y-27765524D01*
X35241929Y-27670286D01*
X35194310Y-27479810D01*
X35194310Y-27336952D01*
X35241929Y-27146476D01*
X35289548Y-27051238D01*
X35384786Y-26956000D01*
X35527644Y-26908381D01*
X35622882Y-26908381D01*
X35765739Y-26956000D01*
X35813358Y-27003619D01*
X36241929Y-27908381D02*
X36241929Y-26908381D01*
X36670501Y-27908381D02*
X36670501Y-27384571D01*
X36622882Y-27289333D01*
X36527644Y-27241714D01*
X36384786Y-27241714D01*
X36289548Y-27289333D01*
X36241929Y-27336952D01*
X37146691Y-27908381D02*
X37146691Y-27241714D01*
X37146691Y-26908381D02*
X37099072Y-26956000D01*
X37146691Y-27003619D01*
X37194310Y-26956000D01*
X37146691Y-26908381D01*
X37146691Y-27003619D01*
X37622881Y-27241714D02*
X37622881Y-28241714D01*
X37622881Y-27289333D02*
X37718119Y-27241714D01*
X37908596Y-27241714D01*
X38003834Y-27289333D01*
X38051453Y-27336952D01*
X38099072Y-27432190D01*
X38099072Y-27717905D01*
X38051453Y-27813143D01*
X38003834Y-27860762D01*
X37908596Y-27908381D01*
X37718119Y-27908381D01*
X37622881Y-27860762D01*
X38480024Y-27860762D02*
X38575262Y-27908381D01*
X38765738Y-27908381D01*
X38860977Y-27860762D01*
X38908596Y-27765524D01*
X38908596Y-27717905D01*
X38860977Y-27622667D01*
X38765738Y-27575048D01*
X38622881Y-27575048D01*
X38527643Y-27527429D01*
X38480024Y-27432190D01*
X38480024Y-27384571D01*
X38527643Y-27289333D01*
X38622881Y-27241714D01*
X38765738Y-27241714D01*
X38860977Y-27289333D01*
X53418881Y-61777381D02*
X53418881Y-61682142D01*
X53466500Y-61586904D01*
X53514119Y-61539285D01*
X53609357Y-61491666D01*
X53799833Y-61444047D01*
X54037929Y-61444047D01*
X54228405Y-61491666D01*
X54323643Y-61539285D01*
X54371262Y-61586904D01*
X54418881Y-61682142D01*
X54418881Y-61777381D01*
X54371262Y-61872619D01*
X54323643Y-61920238D01*
X54228405Y-61967857D01*
X54037929Y-62015476D01*
X53799833Y-62015476D01*
X53609357Y-61967857D01*
X53514119Y-61920238D01*
X53466500Y-61872619D01*
X53418881Y-61777381D01*
X53847452Y-60872619D02*
X53799833Y-60967857D01*
X53752214Y-61015476D01*
X53656976Y-61063095D01*
X53609357Y-61063095D01*
X53514119Y-61015476D01*
X53466500Y-60967857D01*
X53418881Y-60872619D01*
X53418881Y-60682142D01*
X53466500Y-60586904D01*
X53514119Y-60539285D01*
X53609357Y-60491666D01*
X53656976Y-60491666D01*
X53752214Y-60539285D01*
X53799833Y-60586904D01*
X53847452Y-60682142D01*
X53847452Y-60872619D01*
X53895071Y-60967857D01*
X53942690Y-61015476D01*
X54037929Y-61063095D01*
X54228405Y-61063095D01*
X54323643Y-61015476D01*
X54371262Y-60967857D01*
X54418881Y-60872619D01*
X54418881Y-60682142D01*
X54371262Y-60586904D01*
X54323643Y-60539285D01*
X54228405Y-60491666D01*
X54037929Y-60491666D01*
X53942690Y-60539285D01*
X53895071Y-60586904D01*
X53847452Y-60682142D01*
X53371262Y-59348809D02*
X54656976Y-60205952D01*
X53514119Y-59063095D02*
X53466500Y-59015476D01*
X53418881Y-58920238D01*
X53418881Y-58682142D01*
X53466500Y-58586904D01*
X53514119Y-58539285D01*
X53609357Y-58491666D01*
X53704595Y-58491666D01*
X53847452Y-58539285D01*
X54418881Y-59110714D01*
X54418881Y-58491666D01*
X53418881Y-57872619D02*
X53418881Y-57777380D01*
X53466500Y-57682142D01*
X53514119Y-57634523D01*
X53609357Y-57586904D01*
X53799833Y-57539285D01*
X54037929Y-57539285D01*
X54228405Y-57586904D01*
X54323643Y-57634523D01*
X54371262Y-57682142D01*
X54418881Y-57777380D01*
X54418881Y-57872619D01*
X54371262Y-57967857D01*
X54323643Y-58015476D01*
X54228405Y-58063095D01*
X54037929Y-58110714D01*
X53799833Y-58110714D01*
X53609357Y-58063095D01*
X53514119Y-58015476D01*
X53466500Y-57967857D01*
X53418881Y-57872619D01*
X54418881Y-56586904D02*
X54418881Y-57158333D01*
X54418881Y-56872619D02*
X53418881Y-56872619D01*
X53561738Y-56967857D01*
X53656976Y-57063095D01*
X53704595Y-57158333D01*
X53418881Y-56253571D02*
X53418881Y-55586904D01*
X54418881Y-56015476D01*
D11*
X28195062Y-44784337D02*
G75*
G03X28195062Y-44784337I-300000J0D01*
G01*
D12*
X27026367Y-34926464D02*
X27026367Y-45726464D01*
X27026367Y-45726464D02*
X51826367Y-45726464D01*
X51826367Y-45726464D02*
X51826367Y-34926464D01*
X51826367Y-34926464D02*
X27026367Y-34926464D01*
D13*
X41879000Y-73117000D02*
X41179000Y-73117000D01*
X41179000Y-71917000D02*
X41879000Y-71917000D01*
X51391500Y-65587000D02*
X51391500Y-66287000D01*
X50191500Y-66287000D02*
X50191500Y-65587000D01*
X54995500Y-66627000D02*
X54295500Y-66627000D01*
X54295500Y-65427000D02*
X54995500Y-65427000D01*
D11*
X35980589Y-71648400D02*
X35980589Y-71394400D01*
X42330589Y-71648400D02*
X42330589Y-71394400D01*
D10*
X48299589Y-68346400D02*
X48299589Y-71394400D01*
X28741589Y-71394400D02*
X48299589Y-71394400D01*
D11*
X42330589Y-68346400D02*
X42330589Y-68092400D01*
X35980589Y-68346400D02*
X35980589Y-68092400D01*
D10*
X28741589Y-68346400D02*
X28741589Y-71394400D01*
X28741589Y-68346400D02*
X48299589Y-68346400D01*
D13*
X41428500Y-33394000D02*
X41428500Y-32694000D01*
X42628500Y-32694000D02*
X42628500Y-33394000D01*
X51391500Y-47934000D02*
X51391500Y-48634000D01*
X50191500Y-48634000D02*
X50191500Y-47934000D01*
D11*
X28203195Y-62354873D02*
G75*
G03X28203195Y-62354873I-300000J0D01*
G01*
D12*
X27034500Y-52497000D02*
X27034500Y-63297000D01*
X27034500Y-63297000D02*
X51834500Y-63297000D01*
X51834500Y-63297000D02*
X51834500Y-52497000D01*
X51834500Y-52497000D02*
X27034500Y-52497000D01*
D14*
G36*
X56984322Y-69777178D02*
X56984322Y-73297971D01*
X56116698Y-73297971D01*
X56116698Y-69777178D01*
X56984322Y-69777178D01*
X56984322Y-69777178D01*
G37*
X56984322Y-69777178D02*
X56984322Y-73297971D01*
X56116698Y-73297971D01*
X56116698Y-69777178D01*
X56984322Y-69777178D01*
G36*
X51031348Y-69400570D02*
X51118431Y-69401189D01*
X51577391Y-69852914D01*
X52036352Y-70304639D01*
X52246971Y-70304968D01*
X52457589Y-70305297D01*
X52457589Y-70580390D01*
X52511030Y-70587478D01*
X52535388Y-70590162D01*
X52581259Y-70594687D01*
X52645905Y-70600809D01*
X52726591Y-70608288D01*
X52820581Y-70616881D01*
X52925137Y-70626346D01*
X53037525Y-70636442D01*
X53155007Y-70646926D01*
X53274848Y-70657556D01*
X53394311Y-70668091D01*
X53510659Y-70678287D01*
X53621157Y-70687905D01*
X53723069Y-70696700D01*
X53813658Y-70704432D01*
X53890187Y-70710858D01*
X53949921Y-70715737D01*
X53990124Y-70718825D01*
X54008059Y-70719883D01*
X54008144Y-70719882D01*
X54022535Y-70712173D01*
X54052248Y-70689019D01*
X54097631Y-70650105D01*
X54159029Y-70595116D01*
X54236788Y-70523736D01*
X54331254Y-70435651D01*
X54442772Y-70330546D01*
X54571688Y-70208105D01*
X54607787Y-70173690D01*
X55179916Y-69627863D01*
X55267936Y-69716119D01*
X55190258Y-69787515D01*
X55162186Y-69813634D01*
X55118774Y-69854434D01*
X55062866Y-69907223D01*
X54997308Y-69969309D01*
X54924941Y-70038000D01*
X54848612Y-70110604D01*
X54803024Y-70154040D01*
X54717619Y-70235584D01*
X54649210Y-70301496D01*
X54596553Y-70353456D01*
X54558405Y-70393145D01*
X54533520Y-70422243D01*
X54520656Y-70442431D01*
X54518568Y-70455390D01*
X54526013Y-70462800D01*
X54541746Y-70466342D01*
X54564523Y-70467697D01*
X54570739Y-70467879D01*
X54613561Y-70477297D01*
X54665319Y-70500503D01*
X54717828Y-70532864D01*
X54762903Y-70569748D01*
X54776828Y-70584507D01*
X54825547Y-70660233D01*
X54852806Y-70748692D01*
X54859273Y-70826900D01*
X54847076Y-70915532D01*
X54811313Y-70997388D01*
X54753222Y-71069836D01*
X54738762Y-71083203D01*
X54683233Y-71132082D01*
X54683233Y-71977674D01*
X54859273Y-71977674D01*
X54859273Y-72204010D01*
X54777031Y-72204010D01*
X54720886Y-72206850D01*
X54681916Y-72216393D01*
X54660719Y-72227991D01*
X54645552Y-72236277D01*
X54623562Y-72243373D01*
X54591487Y-72249748D01*
X54546069Y-72255872D01*
X54484048Y-72262216D01*
X54402162Y-72269250D01*
X54341246Y-72274066D01*
X54055843Y-72296161D01*
X54605305Y-72838565D01*
X54704728Y-72936637D01*
X54800315Y-73030784D01*
X54890310Y-73119285D01*
X54972957Y-73200420D01*
X55046501Y-73272469D01*
X55109184Y-73333712D01*
X55159252Y-73382427D01*
X55194948Y-73416896D01*
X55214495Y-73435379D01*
X55245444Y-73465743D01*
X55267030Y-73491071D01*
X55274223Y-73504695D01*
X55265797Y-73522095D01*
X55244745Y-73547460D01*
X55236171Y-73556058D01*
X55198120Y-73592514D01*
X54994158Y-73391802D01*
X54942199Y-73340596D01*
X54875320Y-73274569D01*
X54796450Y-73196618D01*
X54708514Y-73109638D01*
X54614441Y-73016526D01*
X54517158Y-72920179D01*
X54419593Y-72823492D01*
X54349645Y-72754134D01*
X54243050Y-72648703D01*
X54152807Y-72560129D01*
X54077692Y-72487281D01*
X54016486Y-72429023D01*
X53967966Y-72384225D01*
X53942629Y-72362021D01*
X53942629Y-72183724D01*
X54228055Y-72161401D01*
X54311719Y-72154669D01*
X54388227Y-72148157D01*
X54453581Y-72142234D01*
X54503781Y-72137268D01*
X54534829Y-72133629D01*
X54541773Y-72132458D01*
X54570065Y-72125838D01*
X54570065Y-71176364D01*
X54491106Y-71170026D01*
X54397815Y-71150890D01*
X54315291Y-71110846D01*
X54246538Y-71052418D01*
X54194563Y-70978129D01*
X54163363Y-70894748D01*
X54148728Y-70867698D01*
X54117319Y-70854156D01*
X54115934Y-70853872D01*
X54102674Y-70852247D01*
X54089095Y-70854256D01*
X54072681Y-70861858D01*
X54050911Y-70877016D01*
X54021267Y-70901688D01*
X53981232Y-70937836D01*
X53928285Y-70987420D01*
X53859909Y-71052401D01*
X53855505Y-71056599D01*
X53782111Y-71126493D01*
X53703937Y-71200800D01*
X53626364Y-71274414D01*
X53554775Y-71342229D01*
X53494551Y-71399140D01*
X53481087Y-71411832D01*
X53430320Y-71460487D01*
X53386875Y-71503709D01*
X53353741Y-71538395D01*
X53333905Y-71561444D01*
X53329546Y-71569182D01*
X53338670Y-71580722D01*
X53363700Y-71607710D01*
X53402552Y-71648021D01*
X53453143Y-71699529D01*
X53513388Y-71760109D01*
X53581204Y-71827636D01*
X53637065Y-71882826D01*
X53942629Y-72183724D01*
X53942629Y-72362021D01*
X53930911Y-72351751D01*
X53904099Y-72330471D01*
X53886308Y-72319251D01*
X53878070Y-72316754D01*
X53860090Y-72317700D01*
X53819392Y-72320573D01*
X53758319Y-72325187D01*
X53679213Y-72331358D01*
X53584414Y-72338898D01*
X53476267Y-72347621D01*
X53357112Y-72357343D01*
X53229291Y-72367876D01*
X53127135Y-72376365D01*
X52551174Y-72424396D01*
X52551174Y-72300805D01*
X52563604Y-72300273D01*
X52598610Y-72297769D01*
X52653715Y-72293496D01*
X52726443Y-72287653D01*
X52814314Y-72280443D01*
X52914851Y-72272066D01*
X53025577Y-72262723D01*
X53130705Y-72253758D01*
X53249983Y-72243602D01*
X53362580Y-72234142D01*
X53465805Y-72225596D01*
X53556973Y-72218179D01*
X53633395Y-72212108D01*
X53692383Y-72207601D01*
X53731249Y-72204873D01*
X53746344Y-72204116D01*
X53755738Y-72202935D01*
X53759466Y-72198256D01*
X53755971Y-72188276D01*
X53743699Y-72171190D01*
X53721094Y-72145196D01*
X53686600Y-72108490D01*
X53638662Y-72059267D01*
X53575724Y-71995726D01*
X53508468Y-71928305D01*
X53232977Y-71652601D01*
X53230906Y-71654533D01*
X53230906Y-71472290D01*
X53242280Y-71463984D01*
X53269063Y-71440733D01*
X53308792Y-71404865D01*
X53359007Y-71358713D01*
X53417246Y-71304606D01*
X53481047Y-71244874D01*
X53547949Y-71181848D01*
X53615490Y-71117858D01*
X53681210Y-71055236D01*
X53742646Y-70996310D01*
X53797337Y-70943412D01*
X53842822Y-70898872D01*
X53876638Y-70865020D01*
X53896326Y-70844188D01*
X53900337Y-70838506D01*
X53887391Y-70836634D01*
X53851634Y-70832746D01*
X53795304Y-70827057D01*
X53720640Y-70819781D01*
X53629880Y-70811131D01*
X53525262Y-70801322D01*
X53409026Y-70790566D01*
X53283408Y-70779079D01*
X53182118Y-70769907D01*
X53050779Y-70758174D01*
X52927052Y-70747335D01*
X52813181Y-70737570D01*
X52711411Y-70729063D01*
X52623987Y-70721995D01*
X52553153Y-70716549D01*
X52501153Y-70712908D01*
X52470232Y-70711253D01*
X52462203Y-70711442D01*
X52469354Y-70721334D01*
X52492341Y-70746524D01*
X52528939Y-70784810D01*
X52576922Y-70833989D01*
X52634066Y-70891861D01*
X52698147Y-70956222D01*
X52766938Y-71024871D01*
X52838216Y-71095605D01*
X52909755Y-71166222D01*
X52979330Y-71234520D01*
X53044717Y-71298296D01*
X53103691Y-71355350D01*
X53154027Y-71403478D01*
X53193499Y-71440478D01*
X53219883Y-71464148D01*
X53230906Y-71472290D01*
X53230906Y-71654533D01*
X53122795Y-71755409D01*
X53066877Y-71807768D01*
X53004448Y-71866535D01*
X52937943Y-71929385D01*
X52869798Y-71993995D01*
X52802448Y-72058042D01*
X52738328Y-72119203D01*
X52679872Y-72175153D01*
X52629518Y-72223570D01*
X52589698Y-72262130D01*
X52562850Y-72288509D01*
X52551408Y-72300384D01*
X52551174Y-72300805D01*
X52551174Y-72424396D01*
X52407226Y-72436401D01*
X51775658Y-73036938D01*
X51144089Y-73637475D01*
X51055815Y-73637034D01*
X50967540Y-73636592D01*
X51071166Y-73539583D01*
X51128963Y-73485291D01*
X51196868Y-73421192D01*
X51273072Y-73349016D01*
X51355769Y-73270492D01*
X51443153Y-73187349D01*
X51533415Y-73101319D01*
X51624750Y-73014130D01*
X51715349Y-72927513D01*
X51803407Y-72843197D01*
X51887115Y-72762912D01*
X51964667Y-72688387D01*
X52034257Y-72621354D01*
X52094076Y-72563541D01*
X52142318Y-72516679D01*
X52177176Y-72482496D01*
X52196843Y-72462724D01*
X52200616Y-72458390D01*
X52187492Y-72458092D01*
X52153889Y-72459731D01*
X52104380Y-72463023D01*
X52043537Y-72467682D01*
X52019232Y-72469682D01*
X51841451Y-72484577D01*
X51841451Y-72367955D01*
X51869743Y-72361934D01*
X51892118Y-72358863D01*
X51934217Y-72354548D01*
X51990678Y-72349488D01*
X52056135Y-72344181D01*
X52080362Y-72342344D01*
X52149921Y-72336927D01*
X52214518Y-72331459D01*
X52268048Y-72326488D01*
X52304410Y-72322561D01*
X52311009Y-72321675D01*
X52324556Y-72318334D01*
X52340414Y-72311101D01*
X52360361Y-72298440D01*
X52386173Y-72278811D01*
X52419629Y-72250678D01*
X52462507Y-72212502D01*
X52516583Y-72162746D01*
X52583636Y-72099871D01*
X52665443Y-72022341D01*
X52748450Y-71943251D01*
X52830594Y-71864564D01*
X52906669Y-71791112D01*
X52974825Y-71724724D01*
X53033212Y-71667227D01*
X53079981Y-71620451D01*
X53113282Y-71586224D01*
X53131267Y-71566373D01*
X53133942Y-71562140D01*
X53124241Y-71551003D01*
X53098941Y-71524971D01*
X53060582Y-71486570D01*
X53011700Y-71438328D01*
X52954834Y-71382770D01*
X52913406Y-71342592D01*
X52696500Y-71132831D01*
X52696500Y-71751337D01*
X52457589Y-71751337D01*
X52457589Y-70996881D01*
X52564042Y-70996881D01*
X52426154Y-70858565D01*
X52328340Y-70760447D01*
X52328340Y-70569357D01*
X52343770Y-70567529D01*
X52352367Y-70558277D01*
X52356113Y-70535950D01*
X52356989Y-70494895D01*
X52356995Y-70487624D01*
X52356995Y-70405891D01*
X52137672Y-70405891D01*
X52218679Y-70487624D01*
X52267928Y-70533730D01*
X52305659Y-70561306D01*
X52328340Y-70569357D01*
X52328340Y-70760447D01*
X52288266Y-70720248D01*
X52165452Y-70720248D01*
X52108950Y-70719863D01*
X52073005Y-70718100D01*
X52053030Y-70714050D01*
X52044437Y-70706801D01*
X52042639Y-70695870D01*
X52039998Y-70683712D01*
X52029412Y-70674727D01*
X52006881Y-70667826D01*
X51968409Y-70661924D01*
X51909998Y-70655935D01*
X51888604Y-70654013D01*
X51841451Y-70649852D01*
X51841451Y-72367955D01*
X51841451Y-72484577D01*
X51841451Y-72644109D01*
X51728282Y-72644109D01*
X51728282Y-72576314D01*
X51727196Y-72536662D01*
X51721954Y-72515116D01*
X51718834Y-72512480D01*
X51718834Y-72373616D01*
X51725962Y-72366308D01*
X51728162Y-72340993D01*
X51728282Y-72323908D01*
X51728282Y-72266881D01*
X51728282Y-72054221D01*
X51728282Y-70639698D01*
X51679286Y-70687542D01*
X51618824Y-70761850D01*
X51572191Y-70853816D01*
X51538749Y-70964998D01*
X51520253Y-71075471D01*
X51511622Y-71147773D01*
X51602540Y-71147773D01*
X51602540Y-71726188D01*
X51499393Y-71726188D01*
X51507996Y-71811065D01*
X51515256Y-71870368D01*
X51524879Y-71933551D01*
X51531752Y-71971386D01*
X51546907Y-72046832D01*
X51637595Y-72050526D01*
X51728282Y-72054221D01*
X51728282Y-72266881D01*
X51677985Y-72266881D01*
X51646476Y-72268544D01*
X51628963Y-72272697D01*
X51627688Y-72274371D01*
X51635754Y-72292987D01*
X51655320Y-72320183D01*
X51679444Y-72347448D01*
X51701182Y-72366267D01*
X51704008Y-72367943D01*
X51718834Y-72373616D01*
X51718834Y-72512480D01*
X51709581Y-72504662D01*
X51696104Y-72500442D01*
X51661127Y-72483219D01*
X51619079Y-72450138D01*
X51575856Y-72406893D01*
X51537354Y-72359174D01*
X51517301Y-72327830D01*
X51495351Y-72292123D01*
X51476911Y-72273819D01*
X51455168Y-72267388D01*
X51442218Y-72266894D01*
X51439075Y-72266894D01*
X51439075Y-71625594D01*
X51501946Y-71625594D01*
X51501946Y-71248367D01*
X51439075Y-71248367D01*
X51439075Y-71625594D01*
X51439075Y-72266894D01*
X51401352Y-72266881D01*
X51401352Y-72161048D01*
X51402529Y-72112355D01*
X51405665Y-72074405D01*
X51410171Y-72053308D01*
X51411995Y-72051023D01*
X51414795Y-72037641D01*
X51413648Y-72005074D01*
X51408893Y-71958916D01*
X51404503Y-71927376D01*
X51395878Y-71870188D01*
X51388091Y-71817886D01*
X51382347Y-71778582D01*
X51380715Y-71767055D01*
X51371388Y-71736937D01*
X51356772Y-71726188D01*
X51350820Y-71722920D01*
X51346278Y-71711230D01*
X51342970Y-71688288D01*
X51340715Y-71651265D01*
X51339334Y-71597332D01*
X51338650Y-71523660D01*
X51338480Y-71436980D01*
X51338577Y-71344471D01*
X51339030Y-71274094D01*
X51340090Y-71222836D01*
X51342003Y-71187680D01*
X51345019Y-71165611D01*
X51349385Y-71153615D01*
X51355349Y-71148676D01*
X51362284Y-71147773D01*
X51384295Y-71140079D01*
X51396821Y-71114879D01*
X51401288Y-71068991D01*
X51401352Y-71060736D01*
X51409368Y-70983027D01*
X51431436Y-70894767D01*
X51464584Y-70803915D01*
X51505839Y-70718430D01*
X51552231Y-70646274D01*
X51559582Y-70636928D01*
X51583498Y-70606467D01*
X51593076Y-70588428D01*
X51589980Y-70575831D01*
X51577204Y-70562900D01*
X51552178Y-70524707D01*
X51542571Y-70475002D01*
X51547567Y-70421476D01*
X51566351Y-70371822D01*
X51598106Y-70333733D01*
X51601797Y-70330975D01*
X51661075Y-70302474D01*
X51722434Y-70297172D01*
X51780927Y-70314482D01*
X51831604Y-70353820D01*
X51835789Y-70358630D01*
X51855667Y-70386560D01*
X51864421Y-70414898D01*
X51865053Y-70454737D01*
X51864492Y-70464689D01*
X51863062Y-70503668D01*
X51866339Y-70523746D01*
X51876228Y-70531015D01*
X51885461Y-70531760D01*
X51912244Y-70533284D01*
X51952525Y-70537065D01*
X51976624Y-70539782D01*
X52014901Y-70543723D01*
X52034496Y-70542084D01*
X52041658Y-70532579D01*
X52042639Y-70515649D01*
X52039401Y-70505608D01*
X52028920Y-70489410D01*
X52010048Y-70465855D01*
X51981635Y-70433743D01*
X51942535Y-70391872D01*
X51891597Y-70339043D01*
X51827673Y-70274055D01*
X51749614Y-70195709D01*
X51656272Y-70102803D01*
X51546498Y-69994137D01*
X51493452Y-69941769D01*
X50944267Y-69399951D01*
X51031348Y-69400570D01*
X51031348Y-69400570D01*
G37*
X51031348Y-69400570D02*
X51118431Y-69401189D01*
X51577391Y-69852914D01*
X52036352Y-70304639D01*
X52246971Y-70304968D01*
X52457589Y-70305297D01*
X52457589Y-70580390D01*
X52511030Y-70587478D01*
X52535388Y-70590162D01*
X52581259Y-70594687D01*
X52645905Y-70600809D01*
X52726591Y-70608288D01*
X52820581Y-70616881D01*
X52925137Y-70626346D01*
X53037525Y-70636442D01*
X53155007Y-70646926D01*
X53274848Y-70657556D01*
X53394311Y-70668091D01*
X53510659Y-70678287D01*
X53621157Y-70687905D01*
X53723069Y-70696700D01*
X53813658Y-70704432D01*
X53890187Y-70710858D01*
X53949921Y-70715737D01*
X53990124Y-70718825D01*
X54008059Y-70719883D01*
X54008144Y-70719882D01*
X54022535Y-70712173D01*
X54052248Y-70689019D01*
X54097631Y-70650105D01*
X54159029Y-70595116D01*
X54236788Y-70523736D01*
X54331254Y-70435651D01*
X54442772Y-70330546D01*
X54571688Y-70208105D01*
X54607787Y-70173690D01*
X55179916Y-69627863D01*
X55267936Y-69716119D01*
X55190258Y-69787515D01*
X55162186Y-69813634D01*
X55118774Y-69854434D01*
X55062866Y-69907223D01*
X54997308Y-69969309D01*
X54924941Y-70038000D01*
X54848612Y-70110604D01*
X54803024Y-70154040D01*
X54717619Y-70235584D01*
X54649210Y-70301496D01*
X54596553Y-70353456D01*
X54558405Y-70393145D01*
X54533520Y-70422243D01*
X54520656Y-70442431D01*
X54518568Y-70455390D01*
X54526013Y-70462800D01*
X54541746Y-70466342D01*
X54564523Y-70467697D01*
X54570739Y-70467879D01*
X54613561Y-70477297D01*
X54665319Y-70500503D01*
X54717828Y-70532864D01*
X54762903Y-70569748D01*
X54776828Y-70584507D01*
X54825547Y-70660233D01*
X54852806Y-70748692D01*
X54859273Y-70826900D01*
X54847076Y-70915532D01*
X54811313Y-70997388D01*
X54753222Y-71069836D01*
X54738762Y-71083203D01*
X54683233Y-71132082D01*
X54683233Y-71977674D01*
X54859273Y-71977674D01*
X54859273Y-72204010D01*
X54777031Y-72204010D01*
X54720886Y-72206850D01*
X54681916Y-72216393D01*
X54660719Y-72227991D01*
X54645552Y-72236277D01*
X54623562Y-72243373D01*
X54591487Y-72249748D01*
X54546069Y-72255872D01*
X54484048Y-72262216D01*
X54402162Y-72269250D01*
X54341246Y-72274066D01*
X54055843Y-72296161D01*
X54605305Y-72838565D01*
X54704728Y-72936637D01*
X54800315Y-73030784D01*
X54890310Y-73119285D01*
X54972957Y-73200420D01*
X55046501Y-73272469D01*
X55109184Y-73333712D01*
X55159252Y-73382427D01*
X55194948Y-73416896D01*
X55214495Y-73435379D01*
X55245444Y-73465743D01*
X55267030Y-73491071D01*
X55274223Y-73504695D01*
X55265797Y-73522095D01*
X55244745Y-73547460D01*
X55236171Y-73556058D01*
X55198120Y-73592514D01*
X54994158Y-73391802D01*
X54942199Y-73340596D01*
X54875320Y-73274569D01*
X54796450Y-73196618D01*
X54708514Y-73109638D01*
X54614441Y-73016526D01*
X54517158Y-72920179D01*
X54419593Y-72823492D01*
X54349645Y-72754134D01*
X54243050Y-72648703D01*
X54152807Y-72560129D01*
X54077692Y-72487281D01*
X54016486Y-72429023D01*
X53967966Y-72384225D01*
X53942629Y-72362021D01*
X53942629Y-72183724D01*
X54228055Y-72161401D01*
X54311719Y-72154669D01*
X54388227Y-72148157D01*
X54453581Y-72142234D01*
X54503781Y-72137268D01*
X54534829Y-72133629D01*
X54541773Y-72132458D01*
X54570065Y-72125838D01*
X54570065Y-71176364D01*
X54491106Y-71170026D01*
X54397815Y-71150890D01*
X54315291Y-71110846D01*
X54246538Y-71052418D01*
X54194563Y-70978129D01*
X54163363Y-70894748D01*
X54148728Y-70867698D01*
X54117319Y-70854156D01*
X54115934Y-70853872D01*
X54102674Y-70852247D01*
X54089095Y-70854256D01*
X54072681Y-70861858D01*
X54050911Y-70877016D01*
X54021267Y-70901688D01*
X53981232Y-70937836D01*
X53928285Y-70987420D01*
X53859909Y-71052401D01*
X53855505Y-71056599D01*
X53782111Y-71126493D01*
X53703937Y-71200800D01*
X53626364Y-71274414D01*
X53554775Y-71342229D01*
X53494551Y-71399140D01*
X53481087Y-71411832D01*
X53430320Y-71460487D01*
X53386875Y-71503709D01*
X53353741Y-71538395D01*
X53333905Y-71561444D01*
X53329546Y-71569182D01*
X53338670Y-71580722D01*
X53363700Y-71607710D01*
X53402552Y-71648021D01*
X53453143Y-71699529D01*
X53513388Y-71760109D01*
X53581204Y-71827636D01*
X53637065Y-71882826D01*
X53942629Y-72183724D01*
X53942629Y-72362021D01*
X53930911Y-72351751D01*
X53904099Y-72330471D01*
X53886308Y-72319251D01*
X53878070Y-72316754D01*
X53860090Y-72317700D01*
X53819392Y-72320573D01*
X53758319Y-72325187D01*
X53679213Y-72331358D01*
X53584414Y-72338898D01*
X53476267Y-72347621D01*
X53357112Y-72357343D01*
X53229291Y-72367876D01*
X53127135Y-72376365D01*
X52551174Y-72424396D01*
X52551174Y-72300805D01*
X52563604Y-72300273D01*
X52598610Y-72297769D01*
X52653715Y-72293496D01*
X52726443Y-72287653D01*
X52814314Y-72280443D01*
X52914851Y-72272066D01*
X53025577Y-72262723D01*
X53130705Y-72253758D01*
X53249983Y-72243602D01*
X53362580Y-72234142D01*
X53465805Y-72225596D01*
X53556973Y-72218179D01*
X53633395Y-72212108D01*
X53692383Y-72207601D01*
X53731249Y-72204873D01*
X53746344Y-72204116D01*
X53755738Y-72202935D01*
X53759466Y-72198256D01*
X53755971Y-72188276D01*
X53743699Y-72171190D01*
X53721094Y-72145196D01*
X53686600Y-72108490D01*
X53638662Y-72059267D01*
X53575724Y-71995726D01*
X53508468Y-71928305D01*
X53232977Y-71652601D01*
X53230906Y-71654533D01*
X53230906Y-71472290D01*
X53242280Y-71463984D01*
X53269063Y-71440733D01*
X53308792Y-71404865D01*
X53359007Y-71358713D01*
X53417246Y-71304606D01*
X53481047Y-71244874D01*
X53547949Y-71181848D01*
X53615490Y-71117858D01*
X53681210Y-71055236D01*
X53742646Y-70996310D01*
X53797337Y-70943412D01*
X53842822Y-70898872D01*
X53876638Y-70865020D01*
X53896326Y-70844188D01*
X53900337Y-70838506D01*
X53887391Y-70836634D01*
X53851634Y-70832746D01*
X53795304Y-70827057D01*
X53720640Y-70819781D01*
X53629880Y-70811131D01*
X53525262Y-70801322D01*
X53409026Y-70790566D01*
X53283408Y-70779079D01*
X53182118Y-70769907D01*
X53050779Y-70758174D01*
X52927052Y-70747335D01*
X52813181Y-70737570D01*
X52711411Y-70729063D01*
X52623987Y-70721995D01*
X52553153Y-70716549D01*
X52501153Y-70712908D01*
X52470232Y-70711253D01*
X52462203Y-70711442D01*
X52469354Y-70721334D01*
X52492341Y-70746524D01*
X52528939Y-70784810D01*
X52576922Y-70833989D01*
X52634066Y-70891861D01*
X52698147Y-70956222D01*
X52766938Y-71024871D01*
X52838216Y-71095605D01*
X52909755Y-71166222D01*
X52979330Y-71234520D01*
X53044717Y-71298296D01*
X53103691Y-71355350D01*
X53154027Y-71403478D01*
X53193499Y-71440478D01*
X53219883Y-71464148D01*
X53230906Y-71472290D01*
X53230906Y-71654533D01*
X53122795Y-71755409D01*
X53066877Y-71807768D01*
X53004448Y-71866535D01*
X52937943Y-71929385D01*
X52869798Y-71993995D01*
X52802448Y-72058042D01*
X52738328Y-72119203D01*
X52679872Y-72175153D01*
X52629518Y-72223570D01*
X52589698Y-72262130D01*
X52562850Y-72288509D01*
X52551408Y-72300384D01*
X52551174Y-72300805D01*
X52551174Y-72424396D01*
X52407226Y-72436401D01*
X51775658Y-73036938D01*
X51144089Y-73637475D01*
X51055815Y-73637034D01*
X50967540Y-73636592D01*
X51071166Y-73539583D01*
X51128963Y-73485291D01*
X51196868Y-73421192D01*
X51273072Y-73349016D01*
X51355769Y-73270492D01*
X51443153Y-73187349D01*
X51533415Y-73101319D01*
X51624750Y-73014130D01*
X51715349Y-72927513D01*
X51803407Y-72843197D01*
X51887115Y-72762912D01*
X51964667Y-72688387D01*
X52034257Y-72621354D01*
X52094076Y-72563541D01*
X52142318Y-72516679D01*
X52177176Y-72482496D01*
X52196843Y-72462724D01*
X52200616Y-72458390D01*
X52187492Y-72458092D01*
X52153889Y-72459731D01*
X52104380Y-72463023D01*
X52043537Y-72467682D01*
X52019232Y-72469682D01*
X51841451Y-72484577D01*
X51841451Y-72367955D01*
X51869743Y-72361934D01*
X51892118Y-72358863D01*
X51934217Y-72354548D01*
X51990678Y-72349488D01*
X52056135Y-72344181D01*
X52080362Y-72342344D01*
X52149921Y-72336927D01*
X52214518Y-72331459D01*
X52268048Y-72326488D01*
X52304410Y-72322561D01*
X52311009Y-72321675D01*
X52324556Y-72318334D01*
X52340414Y-72311101D01*
X52360361Y-72298440D01*
X52386173Y-72278811D01*
X52419629Y-72250678D01*
X52462507Y-72212502D01*
X52516583Y-72162746D01*
X52583636Y-72099871D01*
X52665443Y-72022341D01*
X52748450Y-71943251D01*
X52830594Y-71864564D01*
X52906669Y-71791112D01*
X52974825Y-71724724D01*
X53033212Y-71667227D01*
X53079981Y-71620451D01*
X53113282Y-71586224D01*
X53131267Y-71566373D01*
X53133942Y-71562140D01*
X53124241Y-71551003D01*
X53098941Y-71524971D01*
X53060582Y-71486570D01*
X53011700Y-71438328D01*
X52954834Y-71382770D01*
X52913406Y-71342592D01*
X52696500Y-71132831D01*
X52696500Y-71751337D01*
X52457589Y-71751337D01*
X52457589Y-70996881D01*
X52564042Y-70996881D01*
X52426154Y-70858565D01*
X52328340Y-70760447D01*
X52328340Y-70569357D01*
X52343770Y-70567529D01*
X52352367Y-70558277D01*
X52356113Y-70535950D01*
X52356989Y-70494895D01*
X52356995Y-70487624D01*
X52356995Y-70405891D01*
X52137672Y-70405891D01*
X52218679Y-70487624D01*
X52267928Y-70533730D01*
X52305659Y-70561306D01*
X52328340Y-70569357D01*
X52328340Y-70760447D01*
X52288266Y-70720248D01*
X52165452Y-70720248D01*
X52108950Y-70719863D01*
X52073005Y-70718100D01*
X52053030Y-70714050D01*
X52044437Y-70706801D01*
X52042639Y-70695870D01*
X52039998Y-70683712D01*
X52029412Y-70674727D01*
X52006881Y-70667826D01*
X51968409Y-70661924D01*
X51909998Y-70655935D01*
X51888604Y-70654013D01*
X51841451Y-70649852D01*
X51841451Y-72367955D01*
X51841451Y-72484577D01*
X51841451Y-72644109D01*
X51728282Y-72644109D01*
X51728282Y-72576314D01*
X51727196Y-72536662D01*
X51721954Y-72515116D01*
X51718834Y-72512480D01*
X51718834Y-72373616D01*
X51725962Y-72366308D01*
X51728162Y-72340993D01*
X51728282Y-72323908D01*
X51728282Y-72266881D01*
X51728282Y-72054221D01*
X51728282Y-70639698D01*
X51679286Y-70687542D01*
X51618824Y-70761850D01*
X51572191Y-70853816D01*
X51538749Y-70964998D01*
X51520253Y-71075471D01*
X51511622Y-71147773D01*
X51602540Y-71147773D01*
X51602540Y-71726188D01*
X51499393Y-71726188D01*
X51507996Y-71811065D01*
X51515256Y-71870368D01*
X51524879Y-71933551D01*
X51531752Y-71971386D01*
X51546907Y-72046832D01*
X51637595Y-72050526D01*
X51728282Y-72054221D01*
X51728282Y-72266881D01*
X51677985Y-72266881D01*
X51646476Y-72268544D01*
X51628963Y-72272697D01*
X51627688Y-72274371D01*
X51635754Y-72292987D01*
X51655320Y-72320183D01*
X51679444Y-72347448D01*
X51701182Y-72366267D01*
X51704008Y-72367943D01*
X51718834Y-72373616D01*
X51718834Y-72512480D01*
X51709581Y-72504662D01*
X51696104Y-72500442D01*
X51661127Y-72483219D01*
X51619079Y-72450138D01*
X51575856Y-72406893D01*
X51537354Y-72359174D01*
X51517301Y-72327830D01*
X51495351Y-72292123D01*
X51476911Y-72273819D01*
X51455168Y-72267388D01*
X51442218Y-72266894D01*
X51439075Y-72266894D01*
X51439075Y-71625594D01*
X51501946Y-71625594D01*
X51501946Y-71248367D01*
X51439075Y-71248367D01*
X51439075Y-71625594D01*
X51439075Y-72266894D01*
X51401352Y-72266881D01*
X51401352Y-72161048D01*
X51402529Y-72112355D01*
X51405665Y-72074405D01*
X51410171Y-72053308D01*
X51411995Y-72051023D01*
X51414795Y-72037641D01*
X51413648Y-72005074D01*
X51408893Y-71958916D01*
X51404503Y-71927376D01*
X51395878Y-71870188D01*
X51388091Y-71817886D01*
X51382347Y-71778582D01*
X51380715Y-71767055D01*
X51371388Y-71736937D01*
X51356772Y-71726188D01*
X51350820Y-71722920D01*
X51346278Y-71711230D01*
X51342970Y-71688288D01*
X51340715Y-71651265D01*
X51339334Y-71597332D01*
X51338650Y-71523660D01*
X51338480Y-71436980D01*
X51338577Y-71344471D01*
X51339030Y-71274094D01*
X51340090Y-71222836D01*
X51342003Y-71187680D01*
X51345019Y-71165611D01*
X51349385Y-71153615D01*
X51355349Y-71148676D01*
X51362284Y-71147773D01*
X51384295Y-71140079D01*
X51396821Y-71114879D01*
X51401288Y-71068991D01*
X51401352Y-71060736D01*
X51409368Y-70983027D01*
X51431436Y-70894767D01*
X51464584Y-70803915D01*
X51505839Y-70718430D01*
X51552231Y-70646274D01*
X51559582Y-70636928D01*
X51583498Y-70606467D01*
X51593076Y-70588428D01*
X51589980Y-70575831D01*
X51577204Y-70562900D01*
X51552178Y-70524707D01*
X51542571Y-70475002D01*
X51547567Y-70421476D01*
X51566351Y-70371822D01*
X51598106Y-70333733D01*
X51601797Y-70330975D01*
X51661075Y-70302474D01*
X51722434Y-70297172D01*
X51780927Y-70314482D01*
X51831604Y-70353820D01*
X51835789Y-70358630D01*
X51855667Y-70386560D01*
X51864421Y-70414898D01*
X51865053Y-70454737D01*
X51864492Y-70464689D01*
X51863062Y-70503668D01*
X51866339Y-70523746D01*
X51876228Y-70531015D01*
X51885461Y-70531760D01*
X51912244Y-70533284D01*
X51952525Y-70537065D01*
X51976624Y-70539782D01*
X52014901Y-70543723D01*
X52034496Y-70542084D01*
X52041658Y-70532579D01*
X52042639Y-70515649D01*
X52039401Y-70505608D01*
X52028920Y-70489410D01*
X52010048Y-70465855D01*
X51981635Y-70433743D01*
X51942535Y-70391872D01*
X51891597Y-70339043D01*
X51827673Y-70274055D01*
X51749614Y-70195709D01*
X51656272Y-70102803D01*
X51546498Y-69994137D01*
X51493452Y-69941769D01*
X50944267Y-69399951D01*
X51031348Y-69400570D01*
D10*
X25359881Y-45251905D02*
X26169405Y-45251905D01*
X26264643Y-45204286D01*
X26312262Y-45156667D01*
X26359881Y-45061429D01*
X26359881Y-44870952D01*
X26312262Y-44775714D01*
X26264643Y-44728095D01*
X26169405Y-44680476D01*
X25359881Y-44680476D01*
X26359881Y-43680476D02*
X26359881Y-44251905D01*
X26359881Y-43966191D02*
X25359881Y-43966191D01*
X25502738Y-44061429D01*
X25597976Y-44156667D01*
X25645595Y-44251905D01*
X26359881Y-42728095D02*
X26359881Y-43299524D01*
X26359881Y-43013810D02*
X25359881Y-43013810D01*
X25502738Y-43109048D01*
X25597976Y-43204286D01*
X25645595Y-43299524D01*
D11*
X34456024Y-41378381D02*
X34122690Y-40902190D01*
X33884595Y-41378381D02*
X33884595Y-40378381D01*
X34265548Y-40378381D01*
X34360786Y-40426000D01*
X34408405Y-40473619D01*
X34456024Y-40568857D01*
X34456024Y-40711714D01*
X34408405Y-40806952D01*
X34360786Y-40854571D01*
X34265548Y-40902190D01*
X33884595Y-40902190D01*
X34884595Y-41378381D02*
X34884595Y-40378381D01*
X35122690Y-40378381D01*
X35265548Y-40426000D01*
X35360786Y-40521238D01*
X35408405Y-40616476D01*
X35456024Y-40806952D01*
X35456024Y-40949810D01*
X35408405Y-41140286D01*
X35360786Y-41235524D01*
X35265548Y-41330762D01*
X35122690Y-41378381D01*
X34884595Y-41378381D01*
X36456024Y-41378381D02*
X36122690Y-40902190D01*
X35884595Y-41378381D02*
X35884595Y-40378381D01*
X36265548Y-40378381D01*
X36360786Y-40426000D01*
X36408405Y-40473619D01*
X36456024Y-40568857D01*
X36456024Y-40711714D01*
X36408405Y-40806952D01*
X36360786Y-40854571D01*
X36265548Y-40902190D01*
X35884595Y-40902190D01*
X36836976Y-41092667D02*
X37313167Y-41092667D01*
X36741738Y-41378381D02*
X37075071Y-40378381D01*
X37408405Y-41378381D01*
X37741738Y-41378381D02*
X37741738Y-40378381D01*
X38075072Y-41092667D01*
X38408405Y-40378381D01*
X38408405Y-41378381D01*
X39408405Y-41378381D02*
X38836976Y-41378381D01*
X39122690Y-41378381D02*
X39122690Y-40378381D01*
X39027452Y-40521238D01*
X38932214Y-40616476D01*
X38836976Y-40664095D01*
X39979833Y-40806952D02*
X39884595Y-40759333D01*
X39836976Y-40711714D01*
X39789357Y-40616476D01*
X39789357Y-40568857D01*
X39836976Y-40473619D01*
X39884595Y-40426000D01*
X39979833Y-40378381D01*
X40170310Y-40378381D01*
X40265548Y-40426000D01*
X40313167Y-40473619D01*
X40360786Y-40568857D01*
X40360786Y-40616476D01*
X40313167Y-40711714D01*
X40265548Y-40759333D01*
X40170310Y-40806952D01*
X39979833Y-40806952D01*
X39884595Y-40854571D01*
X39836976Y-40902190D01*
X39789357Y-40997429D01*
X39789357Y-41187905D01*
X39836976Y-41283143D01*
X39884595Y-41330762D01*
X39979833Y-41378381D01*
X40170310Y-41378381D01*
X40265548Y-41330762D01*
X40313167Y-41283143D01*
X40360786Y-41187905D01*
X40360786Y-40997429D01*
X40313167Y-40902190D01*
X40265548Y-40854571D01*
X40170310Y-40806952D01*
X40789357Y-40997429D02*
X41551262Y-40997429D01*
X42027452Y-41378381D02*
X42027452Y-40378381D01*
X42598881Y-41378381D01*
X42598881Y-40378381D01*
X43075071Y-40378381D02*
X43075071Y-41187905D01*
X43122690Y-41283143D01*
X43170309Y-41330762D01*
X43265547Y-41378381D01*
X43456024Y-41378381D01*
X43551262Y-41330762D01*
X43598881Y-41283143D01*
X43646500Y-41187905D01*
X43646500Y-40378381D01*
X44075071Y-41330762D02*
X44217928Y-41378381D01*
X44456024Y-41378381D01*
X44551262Y-41330762D01*
X44598881Y-41283143D01*
X44646500Y-41187905D01*
X44646500Y-41092667D01*
X44598881Y-40997429D01*
X44551262Y-40949810D01*
X44456024Y-40902190D01*
X44265547Y-40854571D01*
X44170309Y-40806952D01*
X44122690Y-40759333D01*
X44075071Y-40664095D01*
X44075071Y-40568857D01*
X44122690Y-40473619D01*
X44170309Y-40426000D01*
X44265547Y-40378381D01*
X44503643Y-40378381D01*
X44646500Y-40426000D01*
D10*
X43483500Y-72791000D02*
X43450166Y-72824333D01*
X43350166Y-72857667D01*
X43283500Y-72857667D01*
X43183500Y-72824333D01*
X43116833Y-72757667D01*
X43083500Y-72691000D01*
X43050166Y-72557667D01*
X43050166Y-72457667D01*
X43083500Y-72324333D01*
X43116833Y-72257667D01*
X43183500Y-72191000D01*
X43283500Y-72157667D01*
X43350166Y-72157667D01*
X43450166Y-72191000D01*
X43483500Y-72224333D01*
X43716833Y-72157667D02*
X44183500Y-72157667D01*
X43883500Y-72857667D01*
X44816833Y-72857667D02*
X44416833Y-72857667D01*
X44616833Y-72857667D02*
X44616833Y-72157667D01*
X44550167Y-72257667D01*
X44483500Y-72324333D01*
X44416833Y-72357667D01*
X47942834Y-67584000D02*
X47909500Y-67617333D01*
X47809500Y-67650667D01*
X47742834Y-67650667D01*
X47642834Y-67617333D01*
X47576167Y-67550667D01*
X47542834Y-67484000D01*
X47509500Y-67350667D01*
X47509500Y-67250667D01*
X47542834Y-67117333D01*
X47576167Y-67050667D01*
X47642834Y-66984000D01*
X47742834Y-66950667D01*
X47809500Y-66950667D01*
X47909500Y-66984000D01*
X47942834Y-67017333D01*
X48642834Y-67650667D02*
X48409500Y-67317333D01*
X48242834Y-67650667D02*
X48242834Y-66950667D01*
X48509500Y-66950667D01*
X48576167Y-66984000D01*
X48609500Y-67017333D01*
X48642834Y-67084000D01*
X48642834Y-67184000D01*
X48609500Y-67250667D01*
X48576167Y-67284000D01*
X48509500Y-67317333D01*
X48242834Y-67317333D01*
X48942834Y-67650667D02*
X48942834Y-66950667D01*
X49109500Y-66950667D01*
X49209500Y-66984000D01*
X49276167Y-67050667D01*
X49309500Y-67117333D01*
X49342834Y-67250667D01*
X49342834Y-67350667D01*
X49309500Y-67484000D01*
X49276167Y-67550667D01*
X49209500Y-67617333D01*
X49109500Y-67650667D01*
X48942834Y-67650667D01*
X50009500Y-67650667D02*
X49609500Y-67650667D01*
X49809500Y-67650667D02*
X49809500Y-66950667D01*
X49742834Y-67050667D01*
X49676167Y-67117333D01*
X49609500Y-67150667D01*
X53784834Y-67965000D02*
X53751500Y-67998333D01*
X53651500Y-68031667D01*
X53584834Y-68031667D01*
X53484834Y-67998333D01*
X53418167Y-67931667D01*
X53384834Y-67865000D01*
X53351500Y-67731667D01*
X53351500Y-67631667D01*
X53384834Y-67498333D01*
X53418167Y-67431667D01*
X53484834Y-67365000D01*
X53584834Y-67331667D01*
X53651500Y-67331667D01*
X53751500Y-67365000D01*
X53784834Y-67398333D01*
X54084834Y-67331667D02*
X54084834Y-67898333D01*
X54118167Y-67965000D01*
X54151500Y-67998333D01*
X54218167Y-68031667D01*
X54351500Y-68031667D01*
X54418167Y-67998333D01*
X54451500Y-67965000D01*
X54484834Y-67898333D01*
X54484834Y-67331667D01*
X55184833Y-68031667D02*
X54784833Y-68031667D01*
X54984833Y-68031667D02*
X54984833Y-67331667D01*
X54918167Y-67431667D01*
X54851500Y-67498333D01*
X54784833Y-67531667D01*
X55818167Y-67331667D02*
X55484834Y-67331667D01*
X55451500Y-67665000D01*
X55484834Y-67631667D01*
X55551500Y-67598333D01*
X55718167Y-67598333D01*
X55784834Y-67631667D01*
X55818167Y-67665000D01*
X55851500Y-67731667D01*
X55851500Y-67898333D01*
X55818167Y-67965000D01*
X55784834Y-67998333D01*
X55718167Y-68031667D01*
X55551500Y-68031667D01*
X55484834Y-67998333D01*
X55451500Y-67965000D01*
X28938834Y-72476667D02*
X28938834Y-71776667D01*
X29205500Y-71776667D01*
X29272167Y-71810000D01*
X29305500Y-71843333D01*
X29338834Y-71910000D01*
X29338834Y-72010000D01*
X29305500Y-72076667D01*
X29272167Y-72110000D01*
X29205500Y-72143333D01*
X28938834Y-72143333D01*
X30005500Y-72476667D02*
X29605500Y-72476667D01*
X29805500Y-72476667D02*
X29805500Y-71776667D01*
X29738834Y-71876667D01*
X29672167Y-71943333D01*
X29605500Y-71976667D01*
X27364833Y-70506667D02*
X27798166Y-70506667D01*
X27564833Y-70773333D01*
X27664833Y-70773333D01*
X27731500Y-70806667D01*
X27764833Y-70840000D01*
X27798166Y-70906667D01*
X27798166Y-71073333D01*
X27764833Y-71140000D01*
X27731500Y-71173333D01*
X27664833Y-71206667D01*
X27464833Y-71206667D01*
X27398166Y-71173333D01*
X27364833Y-71140000D01*
X28231500Y-70506667D02*
X28298167Y-70506667D01*
X28364833Y-70540000D01*
X28398167Y-70573333D01*
X28431500Y-70640000D01*
X28464833Y-70773333D01*
X28464833Y-70940000D01*
X28431500Y-71073333D01*
X28398167Y-71140000D01*
X28364833Y-71173333D01*
X28298167Y-71206667D01*
X28231500Y-71206667D01*
X28164833Y-71173333D01*
X28131500Y-71140000D01*
X28098167Y-71073333D01*
X28064833Y-70940000D01*
X28064833Y-70773333D01*
X28098167Y-70640000D01*
X28131500Y-70573333D01*
X28164833Y-70540000D01*
X28231500Y-70506667D01*
X47610166Y-72476667D02*
X47210166Y-72476667D01*
X47410166Y-72476667D02*
X47410166Y-71776667D01*
X47343500Y-71876667D01*
X47276833Y-71943333D01*
X47210166Y-71976667D01*
X48210167Y-71776667D02*
X48076833Y-71776667D01*
X48010167Y-71810000D01*
X47976833Y-71843333D01*
X47910167Y-71943333D01*
X47876833Y-72076667D01*
X47876833Y-72343333D01*
X47910167Y-72410000D01*
X47943500Y-72443333D01*
X48010167Y-72476667D01*
X48143500Y-72476667D01*
X48210167Y-72443333D01*
X48243500Y-72410000D01*
X48276833Y-72343333D01*
X48276833Y-72176667D01*
X48243500Y-72110000D01*
X48210167Y-72076667D01*
X48143500Y-72043333D01*
X48010167Y-72043333D01*
X47943500Y-72076667D01*
X47910167Y-72110000D01*
X47876833Y-72176667D01*
X27798166Y-69174667D02*
X27398166Y-69174667D01*
X27598166Y-69174667D02*
X27598166Y-68474667D01*
X27531500Y-68574667D01*
X27464833Y-68641333D01*
X27398166Y-68674667D01*
X28431500Y-68474667D02*
X28098167Y-68474667D01*
X28064833Y-68808000D01*
X28098167Y-68774667D01*
X28164833Y-68741333D01*
X28331500Y-68741333D01*
X28398167Y-68774667D01*
X28431500Y-68808000D01*
X28464833Y-68874667D01*
X28464833Y-69041333D01*
X28431500Y-69108000D01*
X28398167Y-69141333D01*
X28331500Y-69174667D01*
X28164833Y-69174667D01*
X28098167Y-69141333D01*
X28064833Y-69108000D01*
X49086500Y-69301667D02*
X48686500Y-69301667D01*
X48886500Y-69301667D02*
X48886500Y-68601667D01*
X48819834Y-68701667D01*
X48753167Y-68768333D01*
X48686500Y-68801667D01*
X38959167Y-33294000D02*
X38925833Y-33327333D01*
X38825833Y-33360667D01*
X38759167Y-33360667D01*
X38659167Y-33327333D01*
X38592500Y-33260667D01*
X38559167Y-33194000D01*
X38525833Y-33060667D01*
X38525833Y-32960667D01*
X38559167Y-32827333D01*
X38592500Y-32760667D01*
X38659167Y-32694000D01*
X38759167Y-32660667D01*
X38825833Y-32660667D01*
X38925833Y-32694000D01*
X38959167Y-32727333D01*
X39625833Y-33360667D02*
X39225833Y-33360667D01*
X39425833Y-33360667D02*
X39425833Y-32660667D01*
X39359167Y-32760667D01*
X39292500Y-32827333D01*
X39225833Y-32860667D01*
X39859167Y-32660667D02*
X40292500Y-32660667D01*
X40059167Y-32927333D01*
X40159167Y-32927333D01*
X40225834Y-32960667D01*
X40259167Y-32994000D01*
X40292500Y-33060667D01*
X40292500Y-33227333D01*
X40259167Y-33294000D01*
X40225834Y-33327333D01*
X40159167Y-33360667D01*
X39959167Y-33360667D01*
X39892500Y-33327333D01*
X39859167Y-33294000D01*
X40559167Y-32727333D02*
X40592501Y-32694000D01*
X40659167Y-32660667D01*
X40825834Y-32660667D01*
X40892501Y-32694000D01*
X40925834Y-32727333D01*
X40959167Y-32794000D01*
X40959167Y-32860667D01*
X40925834Y-32960667D01*
X40525834Y-33360667D01*
X40959167Y-33360667D01*
X48196834Y-50439000D02*
X48163500Y-50472333D01*
X48063500Y-50505667D01*
X47996834Y-50505667D01*
X47896834Y-50472333D01*
X47830167Y-50405667D01*
X47796834Y-50339000D01*
X47763500Y-50205667D01*
X47763500Y-50105667D01*
X47796834Y-49972333D01*
X47830167Y-49905667D01*
X47896834Y-49839000D01*
X47996834Y-49805667D01*
X48063500Y-49805667D01*
X48163500Y-49839000D01*
X48196834Y-49872333D01*
X48896834Y-50505667D02*
X48663500Y-50172333D01*
X48496834Y-50505667D02*
X48496834Y-49805667D01*
X48763500Y-49805667D01*
X48830167Y-49839000D01*
X48863500Y-49872333D01*
X48896834Y-49939000D01*
X48896834Y-50039000D01*
X48863500Y-50105667D01*
X48830167Y-50139000D01*
X48763500Y-50172333D01*
X48496834Y-50172333D01*
X49196834Y-50505667D02*
X49196834Y-49805667D01*
X49363500Y-49805667D01*
X49463500Y-49839000D01*
X49530167Y-49905667D01*
X49563500Y-49972333D01*
X49596834Y-50105667D01*
X49596834Y-50205667D01*
X49563500Y-50339000D01*
X49530167Y-50405667D01*
X49463500Y-50472333D01*
X49363500Y-50505667D01*
X49196834Y-50505667D01*
X49863500Y-49872333D02*
X49896834Y-49839000D01*
X49963500Y-49805667D01*
X50130167Y-49805667D01*
X50196834Y-49839000D01*
X50230167Y-49872333D01*
X50263500Y-49939000D01*
X50263500Y-50005667D01*
X50230167Y-50105667D01*
X49830167Y-50505667D01*
X50263500Y-50505667D01*
X25359881Y-63031905D02*
X26169405Y-63031905D01*
X26264643Y-62984286D01*
X26312262Y-62936667D01*
X26359881Y-62841429D01*
X26359881Y-62650952D01*
X26312262Y-62555714D01*
X26264643Y-62508095D01*
X26169405Y-62460476D01*
X25359881Y-62460476D01*
X26359881Y-61460476D02*
X26359881Y-62031905D01*
X26359881Y-61746191D02*
X25359881Y-61746191D01*
X25502738Y-61841429D01*
X25597976Y-61936667D01*
X25645595Y-62031905D01*
X25693214Y-60603333D02*
X26359881Y-60603333D01*
X25312262Y-60841429D02*
X26026548Y-61079524D01*
X26026548Y-60460476D01*
D11*
X34456024Y-59158381D02*
X34122690Y-58682190D01*
X33884595Y-59158381D02*
X33884595Y-58158381D01*
X34265548Y-58158381D01*
X34360786Y-58206000D01*
X34408405Y-58253619D01*
X34456024Y-58348857D01*
X34456024Y-58491714D01*
X34408405Y-58586952D01*
X34360786Y-58634571D01*
X34265548Y-58682190D01*
X33884595Y-58682190D01*
X34884595Y-59158381D02*
X34884595Y-58158381D01*
X35122690Y-58158381D01*
X35265548Y-58206000D01*
X35360786Y-58301238D01*
X35408405Y-58396476D01*
X35456024Y-58586952D01*
X35456024Y-58729810D01*
X35408405Y-58920286D01*
X35360786Y-59015524D01*
X35265548Y-59110762D01*
X35122690Y-59158381D01*
X34884595Y-59158381D01*
X36456024Y-59158381D02*
X36122690Y-58682190D01*
X35884595Y-59158381D02*
X35884595Y-58158381D01*
X36265548Y-58158381D01*
X36360786Y-58206000D01*
X36408405Y-58253619D01*
X36456024Y-58348857D01*
X36456024Y-58491714D01*
X36408405Y-58586952D01*
X36360786Y-58634571D01*
X36265548Y-58682190D01*
X35884595Y-58682190D01*
X36836976Y-58872667D02*
X37313167Y-58872667D01*
X36741738Y-59158381D02*
X37075071Y-58158381D01*
X37408405Y-59158381D01*
X37741738Y-59158381D02*
X37741738Y-58158381D01*
X38075072Y-58872667D01*
X38408405Y-58158381D01*
X38408405Y-59158381D01*
X39408405Y-59158381D02*
X38836976Y-59158381D01*
X39122690Y-59158381D02*
X39122690Y-58158381D01*
X39027452Y-58301238D01*
X38932214Y-58396476D01*
X38836976Y-58444095D01*
X39979833Y-58586952D02*
X39884595Y-58539333D01*
X39836976Y-58491714D01*
X39789357Y-58396476D01*
X39789357Y-58348857D01*
X39836976Y-58253619D01*
X39884595Y-58206000D01*
X39979833Y-58158381D01*
X40170310Y-58158381D01*
X40265548Y-58206000D01*
X40313167Y-58253619D01*
X40360786Y-58348857D01*
X40360786Y-58396476D01*
X40313167Y-58491714D01*
X40265548Y-58539333D01*
X40170310Y-58586952D01*
X39979833Y-58586952D01*
X39884595Y-58634571D01*
X39836976Y-58682190D01*
X39789357Y-58777429D01*
X39789357Y-58967905D01*
X39836976Y-59063143D01*
X39884595Y-59110762D01*
X39979833Y-59158381D01*
X40170310Y-59158381D01*
X40265548Y-59110762D01*
X40313167Y-59063143D01*
X40360786Y-58967905D01*
X40360786Y-58777429D01*
X40313167Y-58682190D01*
X40265548Y-58634571D01*
X40170310Y-58586952D01*
X40789357Y-58777429D02*
X41551262Y-58777429D01*
X42027452Y-59158381D02*
X42027452Y-58158381D01*
X42598881Y-59158381D01*
X42598881Y-58158381D01*
X43075071Y-58158381D02*
X43075071Y-58967905D01*
X43122690Y-59063143D01*
X43170309Y-59110762D01*
X43265547Y-59158381D01*
X43456024Y-59158381D01*
X43551262Y-59110762D01*
X43598881Y-59063143D01*
X43646500Y-58967905D01*
X43646500Y-58158381D01*
X44075071Y-59110762D02*
X44217928Y-59158381D01*
X44456024Y-59158381D01*
X44551262Y-59110762D01*
X44598881Y-59063143D01*
X44646500Y-58967905D01*
X44646500Y-58872667D01*
X44598881Y-58777429D01*
X44551262Y-58729810D01*
X44456024Y-58682190D01*
X44265547Y-58634571D01*
X44170309Y-58586952D01*
X44122690Y-58539333D01*
X44075071Y-58444095D01*
X44075071Y-58348857D01*
X44122690Y-58253619D01*
X44170309Y-58206000D01*
X44265547Y-58158381D01*
X44503643Y-58158381D01*
X44646500Y-58206000D01*
M02*
